<svg width="64" height="64" viewBox="0 0 64 64" fill="none" xmlns="http://www.w3.org/2000/svg">
<circle cx="32" cy="32" r="32" fill="#ACC2FA"/>
<path d="M24.4577 41.3884L39.1524 26.6938L39.1524 36.6744C39.1504 36.8507 39.1834 37.0257 39.2496 37.1892C39.3157 37.3527 39.4136 37.5014 39.5376 37.6268C39.6616 37.7522 39.8093 37.8517 39.972 37.9196C40.1348 37.9876 40.3094 38.0225 40.4857 38.0225C40.6621 38.0225 40.8367 37.9875 40.9994 37.9196C41.1621 37.8516 41.3098 37.752 41.4338 37.6266C41.5578 37.5012 41.6556 37.3525 41.7217 37.189C41.7878 37.0255 41.8209 36.8505 41.8189 36.6742L41.8189 23.4748C41.8188 23.1213 41.6783 22.7822 41.4283 22.5322C41.1783 22.2822 40.8393 22.1417 40.4857 22.1417L27.2864 22.1417C27.1112 22.1414 26.9377 22.1758 26.7759 22.2428C26.614 22.3099 26.4671 22.4082 26.3434 22.5323C26.157 22.7187 26.03 22.9563 25.9786 23.2149C25.9272 23.4735 25.9536 23.7416 26.0545 23.9851C26.1555 24.2287 26.3263 24.4369 26.5455 24.5834C26.7648 24.7299 27.0225 24.8082 27.2862 24.8082L37.2667 24.8082L22.5721 39.5028C22.3221 39.7529 22.1816 40.092 22.1816 40.4456C22.1816 40.7992 22.3221 41.1384 22.5721 41.3884C22.8222 41.6385 23.1613 41.779 23.5149 41.779C23.8686 41.779 24.2077 41.6385 24.4577 41.3884Z" fill="black"/>
</svg>
