<svg width="598" height="168" viewBox="0 0 598 168" fill="none" xmlns="http://www.w3.org/2000/svg">
<rect width="64" height="64" rx="8" fill="#DBE5FF"/>
<path fill-rule="evenodd" clip-rule="evenodd" d="M20 12.8208H44C47.3138 12.8208 50 15.3868 50 18.5521V30.0148C50 33.1802 47.3138 35.7462 44 35.7462H20C16.6863 35.7462 14 33.1802 14 30.0148V18.5521C14 15.3868 16.6863 12.8208 20 12.8208ZM20 14.7312C17.7909 14.7312 16 16.4419 16 18.5521V30.0148C16 32.1251 17.7909 33.8358 20 33.8358H44C46.2092 33.8358 48 32.1251 48 30.0148V18.5521C48 16.4419 46.2092 14.7312 44 14.7312H20Z" fill="#2154DA"/>
<path fill-rule="evenodd" clip-rule="evenodd" d="M37.3066 22.6939L31.1094 18.7474C29.7802 17.901 28 18.8111 28 20.337V28.2299C28 29.7557 29.7802 30.6659 31.1094 29.8195L37.3066 25.873C38.494 25.1169 38.494 23.4501 37.3066 22.6939ZM30 28.2299V20.3371L36.1972 24.2836L30 28.2299Z" fill="#2154DA"/>
<path fill-rule="evenodd" clip-rule="evenodd" d="M32 43.3881C33.1046 43.3881 34 42.5328 34 41.4777C34 40.4226 33.1046 39.5672 32 39.5672C30.8954 39.5672 30 40.4226 30 41.4777C30 42.5328 30.8954 43.3881 32 43.3881ZM32 45.2985C34.2092 45.2985 36 43.5879 36 41.4776C36 39.3673 34.2092 37.6567 32 37.6567C29.7908 37.6567 28 39.3674 28 41.4777C28 43.588 29.7908 45.2985 32 45.2985Z" fill="#2154DA"/>
<path fill-rule="evenodd" clip-rule="evenodd" d="M46 43.3881C47.1045 43.3881 47.9999 42.5328 47.9999 41.4777C47.9999 40.4226 47.1045 39.5672 46 39.5672C44.8954 39.5672 44 40.4225 44 41.4777C44 42.5328 44.8954 43.3881 46 43.3881ZM46 45.2985C48.2092 45.2985 50 43.5879 50 41.4776C50 39.3673 48.2092 37.6567 46 37.6567C43.7908 37.6567 41.9999 39.3674 41.9999 41.4777C41.9999 43.588 43.7908 45.2985 46 45.2985Z" fill="#2154DA"/>
<path fill-rule="evenodd" clip-rule="evenodd" d="M18 43.3881C19.1046 43.3881 20 42.5328 20 41.4777C20 40.4226 19.1046 39.5672 18 39.5672C16.8955 39.5672 16.0001 40.4226 16.0001 41.4777C16 42.5328 16.8955 43.3881 18 43.3881ZM18 45.2985C20.2092 45.2985 22.0001 43.5879 22.0001 41.4776C22.0001 39.3673 20.2092 37.6567 18 37.6567C15.7909 37.6567 14 39.3674 14 41.4777C14 43.588 15.7909 45.2985 18 45.2985Z" fill="#2154DA"/>
<path fill-rule="evenodd" clip-rule="evenodd" d="M21.8766 50.0842C22.0128 50.5954 22.4477 51.0297 23 51.0297C23.5523 51.0297 24.0087 50.5988 23.9177 50.0785C23.4433 47.3658 20.9744 45.2983 17.9999 45.2983C15.0254 45.2983 12.5565 47.3658 12.0822 50.0785C11.9911 50.5988 12.4476 51.0297 12.9999 51.0297C13.5522 51.0297 13.9871 50.5954 14.1233 50.0842C14.5638 48.4312 16.1323 47.2088 17.9998 47.2088C19.8673 47.2088 21.4361 48.4313 21.8766 50.0842Z" fill="#2154DA"/>
<path fill-rule="evenodd" clip-rule="evenodd" d="M35.8766 50.0842C36.0128 50.5954 36.4478 51.0297 37 51.0297C37.5522 51.0297 38.0088 50.5988 37.9178 50.0785C37.4434 47.3658 34.9744 45.2983 32 45.2983C29.0256 45.2983 26.5566 47.3658 26.0822 50.0785C25.9912 50.5988 26.4477 51.0297 26.9999 51.0297C27.5522 51.0297 27.9871 50.5954 28.1233 50.0842C28.564 48.4312 30.1325 47.2088 31.9999 47.2088C33.8674 47.2088 35.436 48.4313 35.8766 50.0842Z" fill="#2154DA"/>
<path fill-rule="evenodd" clip-rule="evenodd" d="M49.8766 50.0842C50.0128 50.5954 50.4478 51.0297 51 51.0297C51.5522 51.0297 52.0089 50.5988 51.9178 50.0785C51.4435 47.3658 48.9745 45.2983 46.0001 45.2983C43.0256 45.2983 40.5566 47.3658 40.0823 50.0785C39.9912 50.5988 40.4479 51.0297 41.0001 51.0297C41.5523 51.0297 41.9873 50.5954 42.1235 50.0842C42.5641 48.4312 44.1326 47.2088 46.0001 47.2088C47.8675 47.2088 49.436 48.4313 49.8766 50.0842Z" fill="#2154DA"/>
<path d="M85.44 21V6.1H88.16V18.6H94.54V21H85.44ZM96.0794 21V10.12H98.6994V21H96.0794ZM96.0794 8.9V6.1H98.6994V8.9H96.0794ZM104.398 21L100.118 10.12H102.978L106.078 18.68H105.018L108.138 10.12H110.998L106.718 21H104.398ZM117.411 21.24C116.291 21.24 115.311 20.9867 114.471 20.48C113.631 19.9733 112.978 19.2867 112.511 18.42C112.045 17.5533 111.811 16.5933 111.811 15.54C111.811 14.4467 112.045 13.48 112.511 12.64C112.991 11.7867 113.638 11.1133 114.451 10.62C115.278 10.1267 116.198 9.88 117.211 9.88C118.065 9.88 118.811 10.02 119.451 10.3C120.105 10.58 120.658 10.9667 121.111 11.46C121.565 11.9533 121.911 12.52 122.151 13.16C122.391 13.7867 122.511 14.4667 122.511 15.2C122.511 15.3867 122.498 15.58 122.471 15.78C122.458 15.98 122.425 16.1533 122.371 16.3H113.971V14.3H120.891L119.651 15.24C119.771 14.6267 119.738 14.08 119.551 13.6C119.378 13.12 119.085 12.74 118.671 12.46C118.271 12.18 117.785 12.04 117.211 12.04C116.665 12.04 116.178 12.18 115.751 12.46C115.325 12.7267 114.998 13.1267 114.771 13.66C114.558 14.18 114.478 14.8133 114.531 15.56C114.478 16.2267 114.565 16.82 114.791 17.34C115.031 17.8467 115.378 18.24 115.831 18.52C116.298 18.8 116.831 18.94 117.431 18.94C118.031 18.94 118.538 18.8133 118.951 18.56C119.378 18.3067 119.711 17.9667 119.951 17.54L122.071 18.58C121.858 19.1 121.525 19.56 121.071 19.96C120.618 20.36 120.078 20.6733 119.451 20.9C118.838 21.1267 118.158 21.24 117.411 21.24Z" fill="white"/>
<path opacity="0.8" d="M89.424 53.192C88.6667 53.192 87.9787 53.048 87.36 52.76C86.7413 52.472 86.2187 52.088 85.792 51.608C85.3653 51.1173 85.0613 50.5787 84.88 49.992L86.032 49.56C86.3093 50.3707 86.7413 50.9893 87.328 51.416C87.9147 51.832 88.6133 52.04 89.424 52.04C89.936 52.04 90.384 51.96 90.768 51.8C91.1627 51.6293 91.4667 51.3947 91.68 51.096C91.8933 50.7973 92 50.4507 92 50.056C92 49.4693 91.84 49.016 91.52 48.696C91.2 48.376 90.7413 48.1307 90.144 47.96L88 47.32C87.1573 47.0747 86.5067 46.664 86.048 46.088C85.6 45.512 85.376 44.856 85.376 44.12C85.376 43.4907 85.5307 42.936 85.84 42.456C86.1493 41.9653 86.5707 41.5813 87.104 41.304C87.648 41.0267 88.2613 40.888 88.944 40.888C89.6587 40.888 90.2987 41.0213 90.864 41.288C91.44 41.544 91.9253 41.8853 92.32 42.312C92.7147 42.7387 92.9973 43.2133 93.168 43.736L92.048 44.184C91.792 43.48 91.392 42.9467 90.848 42.584C90.3147 42.2213 89.6853 42.04 88.96 42.04C88.5013 42.04 88.096 42.12 87.744 42.28C87.4027 42.44 87.136 42.6693 86.944 42.968C86.752 43.2667 86.656 43.6187 86.656 44.024C86.656 44.5147 86.8107 44.9573 87.12 45.352C87.4293 45.736 87.904 46.024 88.544 46.216L90.432 46.776C91.3707 47.0533 92.08 47.4533 92.56 47.976C93.04 48.4987 93.28 49.1547 93.28 49.944C93.28 50.584 93.1147 51.1493 92.784 51.64C92.464 52.12 92.0107 52.4987 91.424 52.776C90.848 53.0533 90.1813 53.192 89.424 53.192ZM99.4798 53.192C98.6798 53.192 97.9544 53 97.3038 52.616C96.6638 52.2213 96.1571 51.6827 95.7838 51C95.4104 50.3173 95.2238 49.544 95.2238 48.68C95.2238 47.816 95.4051 47.0533 95.7678 46.392C96.1304 45.72 96.6211 45.192 97.2398 44.808C97.8691 44.424 98.5731 44.232 99.3518 44.232C99.9704 44.232 100.52 44.3493 101 44.584C101.49 44.808 101.906 45.1173 102.248 45.512C102.589 45.896 102.85 46.3333 103.032 46.824C103.213 47.304 103.304 47.8 103.304 48.312C103.304 48.4187 103.298 48.5413 103.288 48.68C103.277 48.808 103.261 48.9413 103.24 49.08H95.9918V47.96H102.552L101.976 48.44C102.072 47.8533 102.002 47.3307 101.768 46.872C101.544 46.4027 101.218 46.0347 100.792 45.768C100.365 45.4907 99.8851 45.352 99.3518 45.352C98.8184 45.352 98.3224 45.4907 97.8638 45.768C97.4158 46.0453 97.0638 46.4347 96.8078 46.936C96.5518 47.4267 96.4504 48.0133 96.5038 48.696C96.4504 49.3787 96.5571 49.976 96.8238 50.488C97.1011 50.9893 97.4744 51.3787 97.9438 51.656C98.4238 51.9333 98.9358 52.072 99.4798 52.072C100.109 52.072 100.637 51.9227 101.064 51.624C101.49 51.3253 101.837 50.952 102.104 50.504L103.128 51.048C102.957 51.432 102.696 51.7893 102.344 52.12C101.992 52.44 101.57 52.7013 101.08 52.904C100.6 53.096 100.066 53.192 99.4798 53.192ZM108.396 53.192C107.574 53.192 106.854 52.984 106.236 52.568C105.617 52.152 105.169 51.5867 104.892 50.872L105.9 50.392C106.145 50.9147 106.486 51.3307 106.924 51.64C107.372 51.9493 107.862 52.104 108.396 52.104C108.908 52.104 109.34 51.9813 109.692 51.736C110.044 51.48 110.22 51.1493 110.22 50.744C110.22 50.4453 110.134 50.2107 109.964 50.04C109.793 49.8587 109.596 49.72 109.372 49.624C109.148 49.528 108.95 49.4587 108.78 49.416L107.548 49.064C106.758 48.84 106.188 48.5253 105.836 48.12C105.484 47.7147 105.308 47.2453 105.308 46.712C105.308 46.2107 105.436 45.7733 105.692 45.4C105.948 45.0267 106.294 44.7387 106.732 44.536C107.169 44.3333 107.654 44.232 108.188 44.232C108.913 44.232 109.569 44.424 110.156 44.808C110.753 45.1813 111.174 45.704 111.42 46.376L110.396 46.856C110.182 46.376 109.873 46.0027 109.468 45.736C109.073 45.4587 108.63 45.32 108.14 45.32C107.66 45.32 107.276 45.4427 106.988 45.688C106.7 45.9333 106.556 46.2427 106.556 46.616C106.556 46.904 106.63 47.1333 106.78 47.304C106.929 47.4747 107.1 47.6027 107.292 47.688C107.494 47.7733 107.67 47.8373 107.82 47.88L109.244 48.296C109.937 48.4987 110.476 48.8133 110.86 49.24C111.254 49.6667 111.452 50.168 111.452 50.744C111.452 51.2133 111.318 51.6347 111.052 52.008C110.796 52.3813 110.438 52.6747 109.98 52.888C109.521 53.0907 108.993 53.192 108.396 53.192ZM116.536 53.192C115.715 53.192 114.995 52.984 114.376 52.568C113.757 52.152 113.309 51.5867 113.032 50.872L114.04 50.392C114.285 50.9147 114.627 51.3307 115.064 51.64C115.512 51.9493 116.003 52.104 116.536 52.104C117.048 52.104 117.48 51.9813 117.832 51.736C118.184 51.48 118.36 51.1493 118.36 50.744C118.36 50.4453 118.275 50.2107 118.104 50.04C117.933 49.8587 117.736 49.72 117.512 49.624C117.288 49.528 117.091 49.4587 116.92 49.416L115.688 49.064C114.899 48.84 114.328 48.5253 113.976 48.12C113.624 47.7147 113.448 47.2453 113.448 46.712C113.448 46.2107 113.576 45.7733 113.832 45.4C114.088 45.0267 114.435 44.7387 114.872 44.536C115.309 44.3333 115.795 44.232 116.328 44.232C117.053 44.232 117.709 44.424 118.296 44.808C118.893 45.1813 119.315 45.704 119.56 46.376L118.536 46.856C118.323 46.376 118.013 46.0027 117.608 45.736C117.213 45.4587 116.771 45.32 116.28 45.32C115.8 45.32 115.416 45.4427 115.128 45.688C114.84 45.9333 114.696 46.2427 114.696 46.616C114.696 46.904 114.771 47.1333 114.92 47.304C115.069 47.4747 115.24 47.6027 115.432 47.688C115.635 47.7733 115.811 47.8373 115.96 47.88L117.384 48.296C118.077 48.4987 118.616 48.8133 119 49.24C119.395 49.6667 119.592 50.168 119.592 50.744C119.592 51.2133 119.459 51.6347 119.192 52.008C118.936 52.3813 118.579 52.6747 118.12 52.888C117.661 53.0907 117.133 53.192 116.536 53.192ZM121.701 53V44.424H122.901V53H121.701ZM121.701 42.84V41.08H122.901V42.84H121.701ZM129.373 53.192C128.562 53.192 127.826 53 127.165 52.616C126.504 52.2213 125.976 51.688 125.581 51.016C125.197 50.3333 125.005 49.56 125.005 48.696C125.005 47.8427 125.197 47.08 125.581 46.408C125.965 45.736 126.482 45.208 127.133 44.824C127.794 44.4293 128.541 44.232 129.373 44.232C130.205 44.232 130.946 44.424 131.597 44.808C132.258 45.192 132.776 45.72 133.149 46.392C133.533 47.064 133.725 47.832 133.725 48.696C133.725 49.5707 133.528 50.3493 133.133 51.032C132.738 51.704 132.21 52.232 131.549 52.616C130.898 53 130.173 53.192 129.373 53.192ZM129.373 51.992C129.949 51.992 130.466 51.848 130.925 51.56C131.394 51.272 131.762 50.8773 132.029 50.376C132.306 49.8747 132.445 49.3147 132.445 48.696C132.445 48.0773 132.306 47.5227 132.029 47.032C131.762 46.5413 131.394 46.152 130.925 45.864C130.466 45.576 129.949 45.432 129.373 45.432C128.797 45.432 128.274 45.576 127.805 45.864C127.346 46.152 126.978 46.5413 126.701 47.032C126.424 47.5227 126.285 48.0773 126.285 48.696C126.285 49.3147 126.424 49.8747 126.701 50.376C126.978 50.8773 127.346 51.272 127.805 51.56C128.274 51.848 128.797 51.992 129.373 51.992ZM135.841 53V44.424H137.041V46.088L136.769 46.024C136.983 45.4693 137.329 45.032 137.809 44.712C138.3 44.392 138.865 44.232 139.505 44.232C140.113 44.232 140.657 44.3707 141.137 44.648C141.628 44.9253 142.012 45.3093 142.289 45.8C142.577 46.28 142.721 46.824 142.721 47.432V53H141.521V47.896C141.521 47.3733 141.425 46.9307 141.233 46.568C141.052 46.2053 140.791 45.928 140.449 45.736C140.119 45.5333 139.735 45.432 139.297 45.432C138.86 45.432 138.471 45.5333 138.129 45.736C137.788 45.928 137.521 46.2107 137.329 46.584C137.137 46.9467 137.041 47.384 137.041 47.896V53H135.841ZM147.989 53.192C147.168 53.192 146.448 52.984 145.829 52.568C145.211 52.152 144.763 51.5867 144.485 50.872L145.493 50.392C145.739 50.9147 146.08 51.3307 146.517 51.64C146.965 51.9493 147.456 52.104 147.989 52.104C148.501 52.104 148.933 51.9813 149.285 51.736C149.637 51.48 149.813 51.1493 149.813 50.744C149.813 50.4453 149.728 50.2107 149.557 50.04C149.387 49.8587 149.189 49.72 148.965 49.624C148.741 49.528 148.544 49.4587 148.373 49.416L147.141 49.064C146.352 48.84 145.781 48.5253 145.429 48.12C145.077 47.7147 144.901 47.2453 144.901 46.712C144.901 46.2107 145.029 45.7733 145.285 45.4C145.541 45.0267 145.888 44.7387 146.325 44.536C146.763 44.3333 147.248 44.232 147.781 44.232C148.507 44.232 149.163 44.424 149.749 44.808C150.347 45.1813 150.768 45.704 151.013 46.376L149.989 46.856C149.776 46.376 149.467 46.0027 149.061 45.736C148.667 45.4587 148.224 45.32 147.733 45.32C147.253 45.32 146.869 45.4427 146.581 45.688C146.293 45.9333 146.149 46.2427 146.149 46.616C146.149 46.904 146.224 47.1333 146.373 47.304C146.523 47.4747 146.693 47.6027 146.885 47.688C147.088 47.7733 147.264 47.8373 147.413 47.88L148.837 48.296C149.531 48.4987 150.069 48.8133 150.453 49.24C150.848 49.6667 151.045 50.168 151.045 50.744C151.045 51.2133 150.912 51.6347 150.645 52.008C150.389 52.3813 150.032 52.6747 149.573 52.888C149.115 53.0907 148.587 53.192 147.989 53.192ZM159.889 53.192C159.078 53.192 158.342 53 157.681 52.616C157.019 52.2213 156.491 51.688 156.097 51.016C155.713 50.3333 155.521 49.56 155.521 48.696C155.521 47.8427 155.713 47.08 156.097 46.408C156.481 45.736 156.998 45.208 157.649 44.824C158.31 44.4293 159.057 44.232 159.889 44.232C160.721 44.232 161.462 44.424 162.113 44.808C162.774 45.192 163.291 45.72 163.665 46.392C164.049 47.064 164.241 47.832 164.241 48.696C164.241 49.5707 164.043 50.3493 163.649 51.032C163.254 51.704 162.726 52.232 162.065 52.616C161.414 53 160.689 53.192 159.889 53.192ZM159.889 51.992C160.465 51.992 160.982 51.848 161.441 51.56C161.91 51.272 162.278 50.8773 162.545 50.376C162.822 49.8747 162.961 49.3147 162.961 48.696C162.961 48.0773 162.822 47.5227 162.545 47.032C162.278 46.5413 161.91 46.152 161.441 45.864C160.982 45.576 160.465 45.432 159.889 45.432C159.313 45.432 158.79 45.576 158.321 45.864C157.862 46.152 157.494 46.5413 157.217 47.032C156.939 47.5227 156.801 48.0773 156.801 48.696C156.801 49.3147 156.939 49.8747 157.217 50.376C157.494 50.8773 157.862 51.272 158.321 51.56C158.79 51.848 159.313 51.992 159.889 51.992ZM166.357 53V44.424H167.557V46.088L167.285 46.024C167.498 45.4693 167.845 45.032 168.325 44.712C168.816 44.392 169.381 44.232 170.021 44.232C170.629 44.232 171.173 44.3707 171.653 44.648C172.144 44.9253 172.528 45.3093 172.805 45.8C173.093 46.28 173.237 46.824 173.237 47.432V53H172.037V47.896C172.037 47.3733 171.941 46.9307 171.749 46.568C171.568 46.2053 171.306 45.928 170.965 45.736C170.634 45.5333 170.25 45.432 169.813 45.432C169.376 45.432 168.986 45.5333 168.645 45.736C168.304 45.928 168.037 46.2107 167.845 46.584C167.653 46.9467 167.557 47.384 167.557 47.896V53H166.357ZM177.368 53V52.136L184.184 42.28H177.768V41.08H185.864V41.944L179.064 51.8H186.008V53H177.368ZM191.607 53.192C190.797 53.192 190.061 53 189.399 52.616C188.738 52.2213 188.21 51.688 187.815 51.016C187.431 50.3333 187.239 49.56 187.239 48.696C187.239 47.8427 187.431 47.08 187.815 46.408C188.199 45.736 188.717 45.208 189.367 44.824C190.029 44.4293 190.775 44.232 191.607 44.232C192.439 44.232 193.181 44.424 193.831 44.808C194.493 45.192 195.01 45.72 195.383 46.392C195.767 47.064 195.959 47.832 195.959 48.696C195.959 49.5707 195.762 50.3493 195.367 51.032C194.973 51.704 194.445 52.232 193.783 52.616C193.133 53 192.407 53.192 191.607 53.192ZM191.607 51.992C192.183 51.992 192.701 51.848 193.159 51.56C193.629 51.272 193.997 50.8773 194.263 50.376C194.541 49.8747 194.679 49.3147 194.679 48.696C194.679 48.0773 194.541 47.5227 194.263 47.032C193.997 46.5413 193.629 46.152 193.159 45.864C192.701 45.576 192.183 45.432 191.607 45.432C191.031 45.432 190.509 45.576 190.039 45.864C189.581 46.152 189.213 46.5413 188.935 47.032C188.658 47.5227 188.519 48.0773 188.519 48.696C188.519 49.3147 188.658 49.8747 188.935 50.376C189.213 50.8773 189.581 51.272 190.039 51.56C190.509 51.848 191.031 51.992 191.607 51.992ZM202.092 53.192C201.281 53.192 200.545 53 199.884 52.616C199.222 52.2213 198.694 51.688 198.3 51.016C197.916 50.3333 197.724 49.56 197.724 48.696C197.724 47.8427 197.916 47.08 198.3 46.408C198.684 45.736 199.201 45.208 199.852 44.824C200.513 44.4293 201.26 44.232 202.092 44.232C202.924 44.232 203.665 44.424 204.316 44.808C204.977 45.192 205.494 45.72 205.868 46.392C206.252 47.064 206.444 47.832 206.444 48.696C206.444 49.5707 206.246 50.3493 205.852 51.032C205.457 51.704 204.929 52.232 204.268 52.616C203.617 53 202.892 53.192 202.092 53.192ZM202.092 51.992C202.668 51.992 203.185 51.848 203.644 51.56C204.113 51.272 204.481 50.8773 204.748 50.376C205.025 49.8747 205.164 49.3147 205.164 48.696C205.164 48.0773 205.025 47.5227 204.748 47.032C204.481 46.5413 204.113 46.152 203.644 45.864C203.185 45.576 202.668 45.432 202.092 45.432C201.516 45.432 200.993 45.576 200.524 45.864C200.065 46.152 199.697 46.5413 199.42 47.032C199.142 47.5227 199.004 48.0773 199.004 48.696C199.004 49.3147 199.142 49.8747 199.42 50.376C199.697 50.8773 200.065 51.272 200.524 51.56C200.993 51.848 201.516 51.992 202.092 51.992ZM208.56 53V44.424H209.76V46.056L209.568 45.816C209.803 45.3147 210.149 44.9253 210.608 44.648C211.077 44.3707 211.589 44.232 212.144 44.232C212.805 44.232 213.403 44.4187 213.936 44.792C214.469 45.1653 214.848 45.6507 215.072 46.248L214.736 46.264C214.949 45.6027 215.317 45.1013 215.84 44.76C216.373 44.408 216.96 44.232 217.6 44.232C218.176 44.232 218.704 44.3707 219.184 44.648C219.675 44.9253 220.064 45.3093 220.352 45.8C220.651 46.28 220.8 46.824 220.8 47.432V53H219.6V47.896C219.6 47.3733 219.504 46.9307 219.312 46.568C219.131 46.2053 218.88 45.928 218.56 45.736C218.24 45.5333 217.872 45.432 217.456 45.432C217.051 45.432 216.683 45.5333 216.352 45.736C216.021 45.928 215.76 46.2107 215.568 46.584C215.376 46.9467 215.28 47.384 215.28 47.896V53H214.08V47.896C214.08 47.3733 213.984 46.9307 213.792 46.568C213.611 46.2053 213.36 45.928 213.04 45.736C212.72 45.5333 212.352 45.432 211.936 45.432C211.52 45.432 211.147 45.5333 210.816 45.736C210.496 45.928 210.24 46.2107 210.048 46.584C209.856 46.9467 209.76 47.384 209.76 47.896V53H208.56Z" fill="white"/>
<rect x="349" width="64" height="64" rx="8" fill="#FFF0ED"/>
<path d="M394.5 42.6719C393.636 42.6717 392.798 42.9568 392.128 43.479C391.458 44.0012 390.998 44.7284 390.825 45.5375H384.675C384.503 44.7278 384.043 43.9998 383.373 43.4768C382.703 42.9539 381.865 42.6683 381 42.6683C380.135 42.6683 379.297 42.9539 378.627 43.4768C377.957 43.9998 377.497 44.7278 377.325 45.5375H371.175C371.003 44.7278 370.543 43.9998 369.873 43.4768C369.203 42.9539 368.365 42.6683 367.5 42.6683C366.635 42.6683 365.797 42.9539 365.127 43.4768C364.457 43.9998 363.997 44.7278 363.825 45.5375H361.5C361.301 45.5375 361.11 45.613 360.97 45.7474C360.829 45.8817 360.75 46.0639 360.75 46.2539C360.75 46.444 360.829 46.6262 360.97 46.7605C361.11 46.8949 361.301 46.9704 361.5 46.9704H363.825C363.997 47.7801 364.457 48.5081 365.127 49.0311C365.797 49.554 366.635 49.8396 367.5 49.8396C368.365 49.8396 369.203 49.554 369.873 49.0311C370.543 48.5081 371.003 47.7801 371.175 46.9704H377.325C377.497 47.7801 377.957 48.5081 378.627 49.0311C379.297 49.554 380.135 49.8396 381 49.8396C381.865 49.8396 382.703 49.554 383.373 49.0311C384.043 48.5081 384.503 47.7801 384.675 46.9704H390.825C390.967 47.6344 391.303 48.2464 391.795 48.7352C392.286 49.224 392.913 49.5696 393.602 49.7319C394.29 49.8941 395.013 49.8664 395.686 49.6518C396.359 49.4372 396.955 49.0447 397.404 48.5197C397.853 47.9948 398.136 47.359 398.222 46.6862C398.307 46.0134 398.191 45.3312 397.887 44.7188C397.583 44.1065 397.104 43.5891 396.504 43.2267C395.904 42.8644 395.21 42.672 394.5 42.6719ZM367.5 48.4032C367.055 48.4032 366.62 48.2771 366.25 48.041C365.88 47.8048 365.592 47.4692 365.421 47.0764C365.251 46.6837 365.206 46.2516 365.293 45.8347C365.38 45.4177 365.594 45.0348 365.909 44.7342C366.224 44.4336 366.625 44.2289 367.061 44.146C367.498 44.0631 367.95 44.1056 368.361 44.2683C368.772 44.431 369.124 44.7064 369.371 45.0599C369.618 45.4133 369.75 45.8289 369.75 46.2539C369.75 46.824 369.513 47.3706 369.091 47.7737C368.669 48.1768 368.097 48.4032 367.5 48.4032ZM381 48.4032C380.555 48.4032 380.12 48.2771 379.75 48.041C379.38 47.8048 379.092 47.4692 378.921 47.0764C378.751 46.6837 378.706 46.2516 378.793 45.8347C378.88 45.4177 379.094 45.0348 379.409 44.7342C379.724 44.4336 380.125 44.2289 380.561 44.146C380.998 44.0631 381.45 44.1056 381.861 44.2683C382.272 44.431 382.624 44.7064 382.871 45.0599C383.118 45.4133 383.25 45.8289 383.25 46.2539C383.25 46.824 383.013 47.3706 382.591 47.7737C382.169 48.1768 381.597 48.4032 381 48.4032ZM394.5 48.4032C394.055 48.4032 393.62 48.2771 393.25 48.041C392.88 47.8048 392.592 47.4692 392.421 47.0764C392.251 46.6837 392.206 46.2516 392.293 45.8347C392.38 45.4177 392.594 45.0348 392.909 44.7342C393.224 44.4336 393.625 44.2289 394.061 44.146C394.498 44.0631 394.95 44.1056 395.361 44.2683C395.772 44.431 396.124 44.7064 396.371 45.0599C396.618 45.4133 396.75 45.8289 396.75 46.2539C396.75 46.824 396.513 47.3706 396.091 47.7737C395.669 48.1768 395.097 48.4032 394.5 48.4032ZM401.25 46.2539C401.25 46.444 401.171 46.6262 401.03 46.7605C400.89 46.8949 400.699 46.9704 400.5 46.9704H399C398.801 46.9704 398.61 46.8949 398.47 46.7605C398.329 46.6262 398.25 46.444 398.25 46.2539C398.25 46.0639 398.329 45.8817 398.47 45.7474C398.61 45.613 398.801 45.5375 399 45.5375H400.5C400.699 45.5375 400.89 45.613 401.03 45.7474C401.171 45.8817 401.25 46.0639 401.25 46.2539ZM381 38.3734C383.522 38.3734 385.987 37.6591 388.084 36.3208C390.18 34.9825 391.814 33.0804 392.779 30.855C393.744 28.6295 393.997 26.1807 393.505 23.8182C393.013 21.4557 391.799 19.2856 390.016 17.5823C388.232 15.879 385.961 14.7191 383.487 14.2492C381.014 13.7792 378.451 14.0204 376.121 14.9422C373.791 15.864 371.8 17.4251 370.399 19.4279C368.998 21.4307 368.25 23.7854 368.25 26.1942C368.254 29.4232 369.599 32.5188 371.989 34.802C374.379 37.0852 377.62 38.3696 381 38.3734ZM381 15.448C383.225 15.448 385.4 16.0782 387.25 17.2591C389.1 18.4399 390.542 20.1182 391.394 22.0818C392.245 24.0455 392.468 26.2062 392.034 28.2907C391.6 30.3753 390.528 32.2901 388.955 33.793C387.382 35.2959 385.377 36.3194 383.195 36.734C381.012 37.1487 378.75 36.9359 376.695 36.1225C374.639 35.3091 372.882 33.9318 371.646 32.1646C370.41 30.3973 369.75 28.3197 369.75 26.1942C369.75 23.3442 370.935 20.6108 373.045 18.5955C375.155 16.5802 378.016 15.448 381 15.448ZM380.475 26.6957C380.403 26.6318 380.346 26.5541 380.307 26.4677C380.268 26.3814 380.249 26.2882 380.25 26.1942V19.0301C380.25 18.8401 380.329 18.6578 380.47 18.5235C380.61 18.3891 380.801 18.3136 381 18.3136C381.199 18.3136 381.39 18.3891 381.53 18.5235C381.671 18.6578 381.75 18.8401 381.75 19.0301V25.8934L384.525 28.5584C384.597 28.6227 384.654 28.7004 384.693 28.7867C384.732 28.8729 384.752 28.9659 384.752 29.0599C384.752 29.1539 384.732 29.2469 384.693 29.3332C384.654 29.4194 384.597 29.4971 384.525 29.5614C384.458 29.6299 384.376 29.6846 384.286 29.7219C384.196 29.7592 384.098 29.7785 384 29.7785C383.902 29.7785 383.804 29.7592 383.714 29.7219C383.624 29.6846 383.542 29.6299 383.475 29.5614L380.475 26.6957Z" fill="#EE4924"/>
<path d="M438.86 21.24C438.047 21.24 437.273 21.0933 436.54 20.8C435.82 20.4933 435.2 20.0667 434.68 19.52C434.173 18.96 433.827 18.3 433.64 17.54L436.02 16.7C436.26 17.38 436.627 17.9 437.12 18.26C437.613 18.6067 438.193 18.78 438.86 18.78C439.393 18.78 439.853 18.68 440.24 18.48C440.64 18.28 440.953 17.9933 441.18 17.62C441.407 17.2333 441.52 16.78 441.52 16.26C441.52 15.74 441.407 15.3 441.18 14.94C440.967 14.5667 440.66 14.28 440.26 14.08C439.86 13.88 439.387 13.78 438.84 13.78C438.587 13.78 438.32 13.8067 438.04 13.86C437.773 13.9133 437.533 13.9933 437.32 14.1L436.7 12.8L440.56 8.4H434.48V6.1H443.62V8.24L439.74 12.78L439.78 11.76C440.673 11.7733 441.453 11.9667 442.12 12.34C442.787 12.7133 443.307 13.2267 443.68 13.88C444.053 14.5333 444.24 15.3 444.24 16.18C444.24 17.14 444.007 18.0067 443.54 18.78C443.073 19.54 442.433 20.14 441.62 20.58C440.807 21.02 439.887 21.24 438.86 21.24ZM450.001 21V10.12H452.461V12.64L452.181 12.22C452.381 11.4333 452.781 10.8467 453.381 10.46C453.981 10.0733 454.688 9.88 455.501 9.88C456.395 9.88 457.181 10.1133 457.861 10.58C458.541 11.0467 458.981 11.66 459.181 12.42L458.441 12.48C458.775 11.6133 459.275 10.9667 459.941 10.54C460.608 10.1 461.375 9.88 462.241 9.88C463.015 9.88 463.701 10.0533 464.301 10.4C464.915 10.7467 465.395 11.2333 465.741 11.86C466.088 12.4733 466.261 13.1867 466.261 14V21H463.641V14.62C463.641 14.14 463.555 13.7267 463.381 13.38C463.208 13.0333 462.968 12.7667 462.661 12.58C462.355 12.38 461.981 12.28 461.541 12.28C461.128 12.28 460.761 12.38 460.441 12.58C460.121 12.7667 459.875 13.0333 459.701 13.38C459.528 13.7267 459.441 14.14 459.441 14.62V21H456.821V14.62C456.821 14.14 456.735 13.7267 456.561 13.38C456.388 13.0333 456.141 12.7667 455.821 12.58C455.515 12.38 455.148 12.28 454.721 12.28C454.308 12.28 453.941 12.38 453.621 12.58C453.301 12.7667 453.055 13.0333 452.881 13.38C452.708 13.7267 452.621 14.14 452.621 14.62V21H450.001ZM473.798 21.24C472.731 21.24 471.758 20.9933 470.878 20.5C470.011 20.0067 469.318 19.3333 468.798 18.48C468.291 17.6267 468.038 16.6533 468.038 15.56C468.038 14.4667 468.291 13.4933 468.798 12.64C469.318 11.7867 470.011 11.1133 470.878 10.62C471.744 10.1267 472.718 9.88 473.798 9.88C474.864 9.88 475.831 10.1267 476.698 10.62C477.564 11.1133 478.251 11.7867 478.758 12.64C479.278 13.48 479.538 14.4533 479.538 15.56C479.538 16.6533 479.278 17.6267 478.758 18.48C478.238 19.3333 477.544 20.0067 476.678 20.5C475.811 20.9933 474.851 21.24 473.798 21.24ZM473.798 18.84C474.384 18.84 474.898 18.7 475.338 18.42C475.791 18.14 476.144 17.7533 476.398 17.26C476.664 16.7533 476.798 16.1867 476.798 15.56C476.798 14.92 476.664 14.36 476.398 13.88C476.144 13.3867 475.791 13 475.338 12.72C474.898 12.4267 474.384 12.28 473.798 12.28C473.198 12.28 472.671 12.4267 472.218 12.72C471.764 13 471.404 13.3867 471.138 13.88C470.884 14.36 470.758 14.92 470.758 15.56C470.758 16.1867 470.884 16.7533 471.138 17.26C471.404 17.7533 471.764 18.14 472.218 18.42C472.671 18.7 473.198 18.84 473.798 18.84ZM481.525 21V10.12H483.985V12.26L483.785 11.88C484.038 11.2267 484.451 10.7333 485.025 10.4C485.611 10.0533 486.291 9.88 487.065 9.88C487.865 9.88 488.571 10.0533 489.185 10.4C489.811 10.7467 490.298 11.2333 490.645 11.86C490.991 12.4733 491.165 13.1867 491.165 14V21H488.545V14.62C488.545 14.14 488.451 13.7267 488.265 13.38C488.078 13.0333 487.818 12.7667 487.485 12.58C487.165 12.38 486.785 12.28 486.345 12.28C485.918 12.28 485.538 12.38 485.205 12.58C484.871 12.7667 484.611 13.0333 484.425 13.38C484.238 13.7267 484.145 14.14 484.145 14.62V21H481.525ZM498.34 21.12C497.113 21.12 496.16 20.7867 495.48 20.12C494.813 19.44 494.48 18.4867 494.48 17.26V12.46H492.6V10.12H492.8C493.333 10.12 493.747 9.98 494.04 9.7C494.333 9.42 494.48 9.01333 494.48 8.48V7.64H497.1V10.12H499.6V12.46H497.1V17.12C497.1 17.48 497.16 17.7867 497.28 18.04C497.413 18.2933 497.613 18.4867 497.88 18.62C498.16 18.7533 498.513 18.82 498.94 18.82C499.033 18.82 499.14 18.8133 499.26 18.8C499.393 18.7867 499.52 18.7733 499.64 18.76V21C499.453 21.0267 499.24 21.0533 499 21.08C498.76 21.1067 498.54 21.12 498.34 21.12ZM501.642 21V5.86H504.262V12.26L503.902 11.88C504.155 11.2267 504.569 10.7333 505.142 10.4C505.729 10.0533 506.409 9.88 507.182 9.88C507.982 9.88 508.689 10.0533 509.302 10.4C509.929 10.7467 510.415 11.2333 510.762 11.86C511.109 12.4733 511.282 13.1867 511.282 14V21H508.662V14.62C508.662 14.14 508.569 13.7267 508.382 13.38C508.195 13.0333 507.935 12.7667 507.602 12.58C507.282 12.38 506.902 12.28 506.462 12.28C506.035 12.28 505.655 12.38 505.322 12.58C504.989 12.7667 504.729 13.0333 504.542 13.38C504.355 13.7267 504.262 14.14 504.262 14.62V21H501.642ZM517.637 21.24C516.477 21.24 515.464 20.9667 514.597 20.42C513.744 19.86 513.157 19.1067 512.837 18.16L514.797 17.22C515.077 17.8333 515.464 18.3133 515.957 18.66C516.464 19.0067 517.024 19.18 517.637 19.18C518.117 19.18 518.497 19.0733 518.777 18.86C519.057 18.6467 519.197 18.3667 519.197 18.02C519.197 17.8067 519.137 17.6333 519.017 17.5C518.911 17.3533 518.757 17.2333 518.557 17.14C518.371 17.0333 518.164 16.9467 517.937 16.88L516.157 16.38C515.237 16.1133 514.537 15.7067 514.057 15.16C513.591 14.6133 513.357 13.9667 513.357 13.22C513.357 12.5533 513.524 11.9733 513.857 11.48C514.204 10.9733 514.677 10.58 515.277 10.3C515.891 10.02 516.591 9.88 517.377 9.88C518.404 9.88 519.311 10.1267 520.097 10.62C520.884 11.1133 521.444 11.8067 521.777 12.7L519.777 13.64C519.591 13.1467 519.277 12.7533 518.837 12.46C518.397 12.1667 517.904 12.02 517.357 12.02C516.917 12.02 516.571 12.12 516.317 12.32C516.064 12.52 515.937 12.78 515.937 13.1C515.937 13.3 515.991 13.4733 516.097 13.62C516.204 13.7667 516.351 13.8867 516.537 13.98C516.737 14.0733 516.964 14.16 517.217 14.24L518.957 14.76C519.851 15.0267 520.537 15.4267 521.017 15.96C521.511 16.4933 521.757 17.1467 521.757 17.92C521.757 18.5733 521.584 19.1533 521.237 19.66C520.891 20.1533 520.411 20.54 519.797 20.82C519.184 21.1 518.464 21.24 517.637 21.24Z" fill="white"/>
<path opacity="0.8" d="M434.408 53V41.08H441.768V42.28H435.688V46.424H441.288V47.624H435.688V53H434.408ZM447.12 53.192C446.32 53.192 445.595 53 444.944 52.616C444.304 52.2213 443.798 51.6827 443.424 51C443.051 50.3173 442.864 49.544 442.864 48.68C442.864 47.816 443.046 47.0533 443.408 46.392C443.771 45.72 444.262 45.192 444.88 44.808C445.51 44.424 446.214 44.232 446.992 44.232C447.611 44.232 448.16 44.3493 448.64 44.584C449.131 44.808 449.547 45.1173 449.888 45.512C450.23 45.896 450.491 46.3333 450.672 46.824C450.854 47.304 450.944 47.8 450.944 48.312C450.944 48.4187 450.939 48.5413 450.928 48.68C450.918 48.808 450.902 48.9413 450.88 49.08H443.632V47.96H450.192L449.616 48.44C449.712 47.8533 449.643 47.3307 449.408 46.872C449.184 46.4027 448.859 46.0347 448.432 45.768C448.006 45.4907 447.526 45.352 446.992 45.352C446.459 45.352 445.963 45.4907 445.504 45.768C445.056 46.0453 444.704 46.4347 444.448 46.936C444.192 47.4267 444.091 48.0133 444.144 48.696C444.091 49.3787 444.198 49.976 444.464 50.488C444.742 50.9893 445.115 51.3787 445.584 51.656C446.064 51.9333 446.576 52.072 447.12 52.072C447.75 52.072 448.278 51.9227 448.704 51.624C449.131 51.3253 449.478 50.952 449.744 50.504L450.768 51.048C450.598 51.432 450.336 51.7893 449.984 52.12C449.632 52.44 449.211 52.7013 448.72 52.904C448.24 53.096 447.707 53.192 447.12 53.192ZM453.06 53V40.888H454.26V53H453.06ZM456.716 53V40.888H457.916V53H456.716ZM464.389 53.192C463.578 53.192 462.842 53 462.181 52.616C461.519 52.2213 460.991 51.688 460.597 51.016C460.213 50.3333 460.021 49.56 460.021 48.696C460.021 47.8427 460.213 47.08 460.597 46.408C460.981 45.736 461.498 45.208 462.149 44.824C462.81 44.4293 463.557 44.232 464.389 44.232C465.221 44.232 465.962 44.424 466.613 44.808C467.274 45.192 467.791 45.72 468.165 46.392C468.549 47.064 468.741 47.832 468.741 48.696C468.741 49.5707 468.543 50.3493 468.149 51.032C467.754 51.704 467.226 52.232 466.565 52.616C465.914 53 465.189 53.192 464.389 53.192ZM464.389 51.992C464.965 51.992 465.482 51.848 465.941 51.56C466.41 51.272 466.778 50.8773 467.045 50.376C467.322 49.8747 467.461 49.3147 467.461 48.696C467.461 48.0773 467.322 47.5227 467.045 47.032C466.778 46.5413 466.41 46.152 465.941 45.864C465.482 45.576 464.965 45.432 464.389 45.432C463.813 45.432 463.29 45.576 462.821 45.864C462.362 46.152 461.994 46.5413 461.717 47.032C461.439 47.5227 461.301 48.0773 461.301 48.696C461.301 49.3147 461.439 49.8747 461.717 50.376C461.994 50.8773 462.362 51.272 462.821 51.56C463.29 51.848 463.813 51.992 464.389 51.992ZM472.589 53L469.645 44.424H471.005L473.437 51.928H472.957L475.245 44.424H476.445L478.733 51.928H478.253L480.701 44.424H482.045L479.101 53H477.901L475.677 45.656H476.013L473.789 53H472.589ZM486.427 53.192C485.605 53.192 484.885 52.984 484.267 52.568C483.648 52.152 483.2 51.5867 482.923 50.872L483.931 50.392C484.176 50.9147 484.517 51.3307 484.955 51.64C485.403 51.9493 485.893 52.104 486.427 52.104C486.939 52.104 487.371 51.9813 487.723 51.736C488.075 51.48 488.251 51.1493 488.251 50.744C488.251 50.4453 488.165 50.2107 487.995 50.04C487.824 49.8587 487.627 49.72 487.403 49.624C487.179 49.528 486.981 49.4587 486.811 49.416L485.579 49.064C484.789 48.84 484.219 48.5253 483.867 48.12C483.515 47.7147 483.339 47.2453 483.339 46.712C483.339 46.2107 483.467 45.7733 483.723 45.4C483.979 45.0267 484.325 44.7387 484.763 44.536C485.2 44.3333 485.685 44.232 486.219 44.232C486.944 44.232 487.6 44.424 488.187 44.808C488.784 45.1813 489.205 45.704 489.451 46.376L488.427 46.856C488.213 46.376 487.904 46.0027 487.499 45.736C487.104 45.4587 486.661 45.32 486.171 45.32C485.691 45.32 485.307 45.4427 485.019 45.688C484.731 45.9333 484.587 46.2427 484.587 46.616C484.587 46.904 484.661 47.1333 484.811 47.304C484.96 47.4747 485.131 47.6027 485.323 47.688C485.525 47.7733 485.701 47.8373 485.851 47.88L487.275 48.296C487.968 48.4987 488.507 48.8133 488.891 49.24C489.285 49.6667 489.483 50.168 489.483 50.744C489.483 51.2133 489.349 51.6347 489.083 52.008C488.827 52.3813 488.469 52.6747 488.011 52.888C487.552 53.0907 487.024 53.192 486.427 53.192ZM491.591 53V40.888H492.791V46.088L492.519 46.024C492.733 45.4693 493.079 45.032 493.559 44.712C494.05 44.392 494.615 44.232 495.255 44.232C495.863 44.232 496.407 44.3707 496.887 44.648C497.378 44.9253 497.762 45.3093 498.039 45.8C498.327 46.28 498.471 46.824 498.471 47.432V53H497.271V47.896C497.271 47.3733 497.175 46.9307 496.983 46.568C496.791 46.2053 496.525 45.928 496.183 45.736C495.853 45.5333 495.474 45.432 495.047 45.432C494.621 45.432 494.237 45.5333 493.895 45.736C493.554 45.928 493.282 46.2107 493.079 46.584C492.887 46.9467 492.791 47.384 492.791 47.896V53H491.591ZM500.763 53V44.424H501.963V53H500.763ZM500.763 42.84V41.08H501.963V42.84H500.763ZM504.42 56.2V44.424H505.62V46.344L505.428 46.008C505.769 45.464 506.222 45.032 506.788 44.712C507.364 44.392 508.02 44.232 508.756 44.232C509.566 44.232 510.286 44.4293 510.916 44.824C511.556 45.208 512.057 45.736 512.42 46.408C512.793 47.08 512.98 47.848 512.98 48.712C512.98 49.5653 512.793 50.3333 512.42 51.016C512.057 51.688 511.556 52.2213 510.916 52.616C510.286 53 509.566 53.192 508.756 53.192C508.02 53.192 507.353 53.0267 506.756 52.696C506.169 52.3547 505.726 51.8747 505.428 51.256L505.62 51.08V56.2H504.42ZM508.692 51.992C509.268 51.992 509.78 51.848 510.228 51.56C510.686 51.272 511.044 50.8827 511.3 50.392C511.566 49.8907 511.7 49.3307 511.7 48.712C511.7 48.0827 511.566 47.5227 511.3 47.032C511.044 46.5413 510.686 46.152 510.228 45.864C509.78 45.576 509.268 45.432 508.692 45.432C508.116 45.432 507.593 45.576 507.124 45.864C506.665 46.152 506.297 46.5467 506.02 47.048C505.753 47.5387 505.62 48.0933 505.62 48.712C505.62 49.3307 505.753 49.8907 506.02 50.392C506.297 50.8827 506.665 51.272 507.124 51.56C507.593 51.848 508.116 51.992 508.692 51.992ZM521.09 53.096C520.322 53.096 519.73 52.872 519.314 52.424C518.898 51.976 518.69 51.336 518.69 50.504V45.624H517.106V44.424H517.506C517.869 44.424 518.157 44.3067 518.37 44.072C518.583 43.8267 518.69 43.5227 518.69 43.16V42.44H519.89V44.424H521.778V45.624H519.89V50.504C519.89 50.792 519.933 51.048 520.018 51.272C520.103 51.4853 520.247 51.656 520.45 51.784C520.663 51.912 520.946 51.976 521.298 51.976C521.383 51.976 521.485 51.9707 521.602 51.96C521.719 51.9493 521.821 51.9387 521.906 51.928V53C521.778 53.032 521.634 53.0533 521.474 53.064C521.314 53.0853 521.186 53.096 521.09 53.096ZM524.013 53V44.424H525.213V53H524.013ZM524.013 42.84V41.08H525.213V42.84H524.013ZM527.67 53V44.424H528.87V46.056L528.678 45.816C528.912 45.3147 529.259 44.9253 529.718 44.648C530.187 44.3707 530.699 44.232 531.254 44.232C531.915 44.232 532.512 44.4187 533.046 44.792C533.579 45.1653 533.958 45.6507 534.182 46.248L533.846 46.264C534.059 45.6027 534.427 45.1013 534.95 44.76C535.483 44.408 536.07 44.232 536.71 44.232C537.286 44.232 537.814 44.3707 538.294 44.648C538.784 44.9253 539.174 45.3093 539.462 45.8C539.76 46.28 539.91 46.824 539.91 47.432V53H538.71V47.896C538.71 47.3733 538.614 46.9307 538.422 46.568C538.24 46.2053 537.99 45.928 537.67 45.736C537.35 45.5333 536.982 45.432 536.566 45.432C536.16 45.432 535.792 45.5333 535.462 45.736C535.131 45.928 534.87 46.2107 534.678 46.584C534.486 46.9467 534.39 47.384 534.39 47.896V53H533.19V47.896C533.19 47.3733 533.094 46.9307 532.902 46.568C532.72 46.2053 532.47 45.928 532.15 45.736C531.83 45.5333 531.462 45.432 531.046 45.432C530.63 45.432 530.256 45.5333 529.926 45.736C529.606 45.928 529.35 46.2107 529.158 46.584C528.966 46.9467 528.87 47.384 528.87 47.896V53H527.67ZM546.105 53.192C545.305 53.192 544.579 53 543.929 52.616C543.289 52.2213 542.782 51.6827 542.409 51C542.035 50.3173 541.849 49.544 541.849 48.68C541.849 47.816 542.03 47.0533 542.393 46.392C542.755 45.72 543.246 45.192 543.865 44.808C544.494 44.424 545.198 44.232 545.977 44.232C546.595 44.232 547.145 44.3493 547.625 44.584C548.115 44.808 548.531 45.1173 548.873 45.512C549.214 45.896 549.475 46.3333 549.657 46.824C549.838 47.304 549.929 47.8 549.929 48.312C549.929 48.4187 549.923 48.5413 549.913 48.68C549.902 48.808 549.886 48.9413 549.865 49.08H542.617V47.96H549.177L548.601 48.44C548.697 47.8533 548.627 47.3307 548.393 46.872C548.169 46.4027 547.843 46.0347 547.417 45.768C546.99 45.4907 546.51 45.352 545.977 45.352C545.443 45.352 544.947 45.4907 544.489 45.768C544.041 46.0453 543.689 46.4347 543.433 46.936C543.177 47.4267 543.075 48.0133 543.129 48.696C543.075 49.3787 543.182 49.976 543.449 50.488C543.726 50.9893 544.099 51.3787 544.569 51.656C545.049 51.9333 545.561 52.072 546.105 52.072C546.734 52.072 547.262 51.9227 547.689 51.624C548.115 51.3253 548.462 50.952 548.729 50.504L549.753 51.048C549.582 51.432 549.321 51.7893 548.969 52.12C548.617 52.44 548.195 52.7013 547.705 52.904C547.225 53.096 546.691 53.192 546.105 53.192ZM552.045 53V40.888H553.245V53H552.045ZM555.701 53V44.424H556.901V53H555.701ZM555.701 42.84V41.08H556.901V42.84H555.701ZM559.357 53V44.424H560.557V46.088L560.285 46.024C560.498 45.4693 560.845 45.032 561.325 44.712C561.816 44.392 562.381 44.232 563.021 44.232C563.629 44.232 564.173 44.3707 564.653 44.648C565.144 44.9253 565.528 45.3093 565.805 45.8C566.093 46.28 566.237 46.824 566.237 47.432V53H565.037V47.896C565.037 47.3733 564.941 46.9307 564.749 46.568C564.568 46.2053 564.306 45.928 563.965 45.736C563.634 45.5333 563.25 45.432 562.813 45.432C562.376 45.432 561.986 45.5333 561.645 45.736C561.304 45.928 561.037 46.2107 560.845 46.584C560.653 46.9467 560.557 47.384 560.557 47.896V53H559.357ZM572.433 53.192C571.633 53.192 570.908 53 570.257 52.616C569.617 52.2213 569.11 51.6827 568.737 51C568.364 50.3173 568.177 49.544 568.177 48.68C568.177 47.816 568.358 47.0533 568.721 46.392C569.084 45.72 569.574 45.192 570.193 44.808C570.822 44.424 571.526 44.232 572.305 44.232C572.924 44.232 573.473 44.3493 573.953 44.584C574.444 44.808 574.86 45.1173 575.201 45.512C575.542 45.896 575.804 46.3333 575.985 46.824C576.166 47.304 576.257 47.8 576.257 48.312C576.257 48.4187 576.252 48.5413 576.241 48.68C576.23 48.808 576.214 48.9413 576.193 49.08H568.945V47.96H575.505L574.929 48.44C575.025 47.8533 574.956 47.3307 574.721 46.872C574.497 46.4027 574.172 46.0347 573.745 45.768C573.318 45.4907 572.838 45.352 572.305 45.352C571.772 45.352 571.276 45.4907 570.817 45.768C570.369 46.0453 570.017 46.4347 569.761 46.936C569.505 47.4267 569.404 48.0133 569.457 48.696C569.404 49.3787 569.51 49.976 569.777 50.488C570.054 50.9893 570.428 51.3787 570.897 51.656C571.377 51.9333 571.889 52.072 572.433 52.072C573.062 52.072 573.59 51.9227 574.017 51.624C574.444 51.3253 574.79 50.952 575.057 50.504L576.081 51.048C575.91 51.432 575.649 51.7893 575.297 52.12C574.945 52.44 574.524 52.7013 574.033 52.904C573.553 53.096 573.02 53.192 572.433 53.192Z" fill="white"/>
<rect y="104" width="64" height="64" rx="8" fill="#FFF5ED"/>
<g clip-path="url(#clip0_9_2145)">
<path fill-rule="evenodd" clip-rule="evenodd" d="M23.6276 144.16C23.6276 142.301 22.1138 140.79 20.2545 140.79C18.401 140.79 16.8872 142.301 16.8872 144.16C16.8872 146.019 18.4011 147.53 20.2545 147.53C22.1138 147.53 23.6276 146.019 23.6276 144.16ZM24.9919 144.16C24.9919 146.772 22.8679 148.896 20.2545 148.896C17.6469 148.896 15.5229 146.772 15.5229 144.16C15.5229 141.548 17.6469 139.424 20.2545 139.424C22.8679 139.424 24.9919 141.548 24.9919 144.16ZM29.24 148.322H28.0254C27.5419 148.322 27.1505 148.716 27.1505 149.199V152.322C27.1505 152.639 26.8913 152.892 26.5749 152.889L23.7832 152.86C23.4032 152.86 23.0981 153.165 23.0981 153.543V156.706H17.008C16.9849 152.776 15.8913 151.227 14.9242 149.854C14.0895 148.672 13.37 147.652 13.37 145.078C13.37 142.943 13.9514 137.92 19.3738 137.408C22.6376 137.078 25.6769 139.259 26.4424 142.479C26.949 144.591 27.1389 145.107 27.8124 146.153C28.3017 146.914 28.7738 147.631 29.24 148.322ZM30.892 148.314C31.2905 148.896 30.8821 149.688 30.1725 149.688H28.5147V152.322C28.5147 153.4 27.6357 154.269 26.5575 154.255L24.4622 154.228V157.2C24.4622 157.681 24.065 158.072 23.5758 158.072H16.5244C16.0369 158.072 15.6278 157.679 15.638 157.186C15.7013 153.328 14.74 151.962 13.8075 150.641C12.921 149.385 12 148.085 12 145.078C12 140.317 14.3557 136.526 19.2413 136.049C23.1956 135.662 26.8564 138.322 27.772 142.163C28.2613 144.214 28.4109 144.56 28.9578 145.415C29.6256 146.449 30.2531 147.397 30.892 148.314ZM22.1253 142.283C22.4189 142.516 22.4707 142.946 22.2404 143.242L20.1509 145.911C19.9114 146.214 19.471 146.26 19.1723 146.013L17.7966 144.861C17.503 144.62 17.4684 144.189 17.7102 143.899C17.952 143.61 18.3779 143.571 18.6715 143.812L19.5062 144.513L21.164 142.399C21.4001 142.103 21.826 142.051 22.1253 142.283ZM45.6107 142.341C45.3172 142.109 44.8855 142.161 44.6552 142.458L42.9974 144.571L42.1569 143.871C41.8691 143.629 41.4374 143.668 41.1956 143.958C40.9538 144.247 40.9884 144.678 41.282 144.919L42.6578 146.071C42.9556 146.316 43.3961 146.274 43.6364 145.969L45.7259 143.3C45.9618 143.003 45.91 142.574 45.6107 142.341ZM47.113 144.218C47.113 146.076 45.6049 147.589 43.7457 147.589C41.8864 147.589 40.3726 146.076 40.3726 144.218C40.3726 142.36 41.8864 140.848 43.7457 140.848C45.605 140.848 47.113 142.36 47.113 144.218ZM48.4831 144.218C48.4831 146.83 46.3533 148.954 43.7457 148.954C41.1323 148.954 39.0083 146.83 39.0083 144.218C39.0083 141.607 41.1323 139.482 43.7457 139.482C46.3533 139.482 48.4831 141.607 48.4831 144.218ZM49.0817 149.854C48.1089 151.227 47.0153 152.776 46.998 156.706H40.9021V153.543C40.9021 153.165 40.597 152.86 40.217 152.86L37.4253 152.889C37.1065 152.891 36.8555 152.642 36.8555 152.322V149.199C36.8555 148.716 36.464 148.322 35.9805 148.322H34.7603C35.2323 147.631 35.7043 146.914 36.1936 146.153C36.8613 145.107 37.057 144.591 37.5578 142.479C38.3234 139.259 41.3627 137.08 44.6264 137.408H44.6322C50.0488 137.92 50.6302 142.943 50.6302 145.078C50.6302 147.652 49.9106 148.672 49.0817 149.854ZM50.1926 150.641C49.2658 151.962 48.2988 153.328 48.3621 157.186C48.3724 157.685 47.9617 158.072 47.4757 158.072H40.4244C39.935 158.072 39.5379 157.681 39.5379 157.2V154.228L37.4426 154.255C36.364 154.266 35.4854 153.401 35.4854 152.322V149.688H33.8276C33.1229 149.688 32.7069 148.895 33.1081 148.314C33.747 147.397 34.3802 146.449 35.0422 145.415C35.589 144.56 35.7387 144.214 36.228 142.163C37.1437 138.321 40.8037 135.662 44.7587 136.048C49.647 136.526 52 140.319 52 145.078C52.0001 148.085 51.0791 149.384 50.1926 150.641ZM39.1062 123.87C39.1062 124.247 39.4113 124.553 39.7912 124.553H42.1857C42.5657 124.553 42.8708 124.247 42.8708 123.87C42.8708 123.493 42.5657 123.187 42.1857 123.187H39.7912C39.4113 123.187 39.1062 123.493 39.1062 123.87ZM32.003 116.763C32.3771 116.763 32.6822 116.457 32.6822 116.08V113.683C32.6822 113.306 32.3771 113 32.003 113C31.6231 113 31.318 113.306 31.318 113.683V116.08C31.318 116.457 31.6231 116.763 32.003 116.763ZM37.5117 119.044C37.6844 119.044 37.857 118.978 37.9895 118.845L39.6876 117.149C39.9523 116.883 39.9523 116.45 39.6876 116.183C39.4171 115.917 38.9854 115.917 38.7205 116.183L37.0282 117.879C36.5902 118.314 36.9096 119.044 37.5117 119.044ZM21.8145 124.553H24.209C24.5889 124.553 24.894 124.247 24.894 123.87C24.894 123.493 24.5889 123.187 24.209 123.187H21.8145C21.4345 123.187 21.1294 123.493 21.1294 123.87C21.1294 124.247 21.4345 124.553 21.8145 124.553ZM26.0107 118.845C26.2761 119.111 26.7095 119.109 26.9778 118.845C27.2425 118.578 27.2425 118.145 26.9778 117.879L25.2797 116.183C25.015 115.917 24.5832 115.917 24.3127 116.184C24.0479 116.45 24.0479 116.883 24.3127 117.149L26.0107 118.845ZM32.5153 133.848V133.469H31.4849V133.848C31.4849 134.134 31.7152 134.365 32.003 134.365C32.285 134.365 32.5153 134.134 32.5153 133.848ZM29.0156 126.57C29.5163 127.454 30.0747 128.444 30.4374 129.837H33.563C34.3124 126.959 35.9633 125.739 35.9633 123.838C35.9633 121.654 34.1847 119.878 32.0031 119.878C29.8158 119.878 28.0428 121.654 28.0428 123.838C28.0427 124.845 28.4687 125.606 29.0156 126.57ZM33.4248 132.103V131.202H30.5812V132.103H33.4248ZM32.003 135.731C33.0391 135.731 33.8852 134.886 33.8852 133.848V133.463C34.3918 133.412 34.789 132.982 34.789 132.46V130.597C35.0941 129.154 35.6408 128.181 36.1762 127.242C36.7691 126.194 37.3274 125.204 37.3274 123.838C37.3274 120.901 34.9385 118.512 32.0029 118.512C29.0615 118.512 26.6726 120.901 26.6726 123.838C26.6726 125.204 27.2367 126.194 27.8238 127.242C28.3592 128.18 28.9059 129.153 29.211 130.594V132.46C29.211 132.981 29.6082 133.411 30.1148 133.464V133.848C30.115 134.886 30.9611 135.731 32.003 135.731ZM37.08 129.532C37.08 129.155 37.385 128.849 37.765 128.849H44.4883C44.8682 128.849 45.1733 129.155 45.1733 129.532V132.614L45.6338 132.15C45.9043 131.884 46.3361 131.884 46.6009 132.15C46.8656 132.416 46.8656 132.849 46.6009 133.116L44.9718 134.746C44.7062 135.013 44.2704 135.013 44.0048 134.746L42.3758 133.116C42.111 132.849 42.111 132.416 42.3758 132.15C42.6405 131.884 43.0723 131.884 43.3428 132.15L43.8033 132.614V130.215H37.7651C37.385 130.215 37.08 129.909 37.08 129.532ZM18.8327 133.855V129.532C18.8327 129.155 19.1378 128.849 19.512 128.849H26.2352C26.6152 128.849 26.9203 129.155 26.9203 129.532C26.9203 129.909 26.6152 130.215 26.2352 130.215H20.197V133.855C20.197 134.232 19.8919 134.538 19.512 134.538C19.1378 134.538 18.8327 134.232 18.8327 133.855Z" fill="#728504"/>
</g>
<path d="M85.44 125V110.1H88.04L93.62 117.68H92.38L97.84 110.1H100.44V125H97.7V113.2L98.76 113.46L93.1 121H92.78L87.26 113.46L88.16 113.2V125H85.44ZM108.232 125.24C107.112 125.24 106.132 124.987 105.292 124.48C104.452 123.973 103.798 123.287 103.332 122.42C102.865 121.553 102.632 120.593 102.632 119.54C102.632 118.447 102.865 117.48 103.332 116.64C103.812 115.787 104.458 115.113 105.272 114.62C106.098 114.127 107.018 113.88 108.032 113.88C108.885 113.88 109.632 114.02 110.272 114.3C110.925 114.58 111.478 114.967 111.932 115.46C112.385 115.953 112.732 116.52 112.972 117.16C113.212 117.787 113.332 118.467 113.332 119.2C113.332 119.387 113.318 119.58 113.292 119.78C113.278 119.98 113.245 120.153 113.192 120.3H104.792V118.3H111.712L110.472 119.24C110.592 118.627 110.558 118.08 110.372 117.6C110.198 117.12 109.905 116.74 109.492 116.46C109.092 116.18 108.605 116.04 108.032 116.04C107.485 116.04 106.998 116.18 106.572 116.46C106.145 116.727 105.818 117.127 105.592 117.66C105.378 118.18 105.298 118.813 105.352 119.56C105.298 120.227 105.385 120.82 105.612 121.34C105.852 121.847 106.198 122.24 106.652 122.52C107.118 122.8 107.652 122.94 108.252 122.94C108.852 122.94 109.358 122.813 109.772 122.56C110.198 122.307 110.532 121.967 110.772 121.54L112.892 122.58C112.678 123.1 112.345 123.56 111.892 123.96C111.438 124.36 110.898 124.673 110.272 124.9C109.658 125.127 108.978 125.24 108.232 125.24ZM115.318 125V114.12H117.778V116.26L117.578 115.88C117.831 115.227 118.244 114.733 118.818 114.4C119.404 114.053 120.084 113.88 120.858 113.88C121.658 113.88 122.364 114.053 122.978 114.4C123.604 114.747 124.091 115.233 124.438 115.86C124.784 116.473 124.958 117.187 124.958 118V125H122.338V118.62C122.338 118.14 122.244 117.727 122.058 117.38C121.871 117.033 121.611 116.767 121.278 116.58C120.958 116.38 120.578 116.28 120.138 116.28C119.711 116.28 119.331 116.38 118.998 116.58C118.664 116.767 118.404 117.033 118.218 117.38C118.031 117.727 117.938 118.14 117.938 118.62V125H115.318ZM132.133 125.12C130.906 125.12 129.953 124.787 129.273 124.12C128.606 123.44 128.273 122.487 128.273 121.26V116.46H126.393V114.12H126.593C127.126 114.12 127.54 113.98 127.833 113.7C128.126 113.42 128.273 113.013 128.273 112.48V111.64H130.893V114.12H133.393V116.46H130.893V121.12C130.893 121.48 130.953 121.787 131.073 122.04C131.206 122.293 131.406 122.487 131.673 122.62C131.953 122.753 132.306 122.82 132.733 122.82C132.826 122.82 132.933 122.813 133.053 122.8C133.186 122.787 133.313 122.773 133.433 122.76V125C133.246 125.027 133.033 125.053 132.793 125.08C132.553 125.107 132.333 125.12 132.133 125.12ZM140.657 125.24C139.591 125.24 138.617 124.993 137.737 124.5C136.871 124.007 136.177 123.333 135.657 122.48C135.151 121.627 134.897 120.653 134.897 119.56C134.897 118.467 135.151 117.493 135.657 116.64C136.177 115.787 136.871 115.113 137.737 114.62C138.604 114.127 139.577 113.88 140.657 113.88C141.724 113.88 142.691 114.127 143.557 114.62C144.424 115.113 145.111 115.787 145.617 116.64C146.137 117.48 146.397 118.453 146.397 119.56C146.397 120.653 146.137 121.627 145.617 122.48C145.097 123.333 144.404 124.007 143.537 124.5C142.671 124.993 141.711 125.24 140.657 125.24ZM140.657 122.84C141.244 122.84 141.757 122.7 142.197 122.42C142.651 122.14 143.004 121.753 143.257 121.26C143.524 120.753 143.657 120.187 143.657 119.56C143.657 118.92 143.524 118.36 143.257 117.88C143.004 117.387 142.651 117 142.197 116.72C141.757 116.427 141.244 116.28 140.657 116.28C140.057 116.28 139.531 116.427 139.077 116.72C138.624 117 138.264 117.387 137.997 117.88C137.744 118.36 137.617 118.92 137.617 119.56C137.617 120.187 137.744 120.753 137.997 121.26C138.264 121.753 138.624 122.14 139.077 122.42C139.531 122.7 140.057 122.84 140.657 122.84ZM148.384 125V114.12H150.844V116.54L150.644 116.18C150.897 115.367 151.291 114.8 151.824 114.48C152.371 114.16 153.024 114 153.784 114H154.424V116.32H153.484C152.737 116.32 152.137 116.553 151.684 117.02C151.231 117.473 151.004 118.113 151.004 118.94V125H148.384ZM160.005 125.24C158.845 125.24 157.831 124.967 156.965 124.42C156.111 123.86 155.525 123.107 155.205 122.16L157.165 121.22C157.445 121.833 157.831 122.313 158.325 122.66C158.831 123.007 159.391 123.18 160.005 123.18C160.485 123.18 160.865 123.073 161.145 122.86C161.425 122.647 161.565 122.367 161.565 122.02C161.565 121.807 161.505 121.633 161.385 121.5C161.278 121.353 161.125 121.233 160.925 121.14C160.738 121.033 160.531 120.947 160.305 120.88L158.525 120.38C157.605 120.113 156.905 119.707 156.425 119.16C155.958 118.613 155.725 117.967 155.725 117.22C155.725 116.553 155.891 115.973 156.225 115.48C156.571 114.973 157.045 114.58 157.645 114.3C158.258 114.02 158.958 113.88 159.745 113.88C160.771 113.88 161.678 114.127 162.465 114.62C163.251 115.113 163.811 115.807 164.145 116.7L162.145 117.64C161.958 117.147 161.645 116.753 161.205 116.46C160.765 116.167 160.271 116.02 159.725 116.02C159.285 116.02 158.938 116.12 158.685 116.32C158.431 116.52 158.305 116.78 158.305 117.1C158.305 117.3 158.358 117.473 158.465 117.62C158.571 117.767 158.718 117.887 158.905 117.98C159.105 118.073 159.331 118.16 159.585 118.24L161.325 118.76C162.218 119.027 162.905 119.427 163.385 119.96C163.878 120.493 164.125 121.147 164.125 121.92C164.125 122.573 163.951 123.153 163.605 123.66C163.258 124.153 162.778 124.54 162.165 124.82C161.551 125.1 160.831 125.24 160.005 125.24ZM166.138 125V109.86H168.758V116.26L168.398 115.88C168.651 115.227 169.065 114.733 169.638 114.4C170.225 114.053 170.905 113.88 171.678 113.88C172.478 113.88 173.185 114.053 173.798 114.4C174.425 114.747 174.911 115.233 175.258 115.86C175.605 116.473 175.778 117.187 175.778 118V125H173.158V118.62C173.158 118.14 173.065 117.727 172.878 117.38C172.691 117.033 172.431 116.767 172.098 116.58C171.778 116.38 171.398 116.28 170.958 116.28C170.531 116.28 170.151 116.38 169.818 116.58C169.485 116.767 169.225 117.033 169.038 117.38C168.851 117.727 168.758 118.14 168.758 118.62V125H166.138ZM177.993 125V114.12H180.613V125H177.993ZM177.993 112.9V110.1H180.613V112.9H177.993ZM183.033 129V114.12H185.493V116.28L185.253 115.74C185.626 115.153 186.133 114.7 186.773 114.38C187.413 114.047 188.153 113.88 188.993 113.88C190.019 113.88 190.946 114.133 191.773 114.64C192.599 115.147 193.253 115.827 193.733 116.68C194.226 117.533 194.473 118.493 194.473 119.56C194.473 120.613 194.233 121.573 193.753 122.44C193.273 123.307 192.619 123.993 191.793 124.5C190.966 124.993 190.026 125.24 188.973 125.24C188.186 125.24 187.459 125.087 186.793 124.78C186.139 124.46 185.619 124.007 185.233 123.42L185.653 122.9V129H183.033ZM188.673 122.84C189.273 122.84 189.806 122.7 190.273 122.42C190.739 122.14 191.099 121.753 191.353 121.26C191.619 120.767 191.753 120.2 191.753 119.56C191.753 118.92 191.619 118.36 191.353 117.88C191.099 117.387 190.739 117 190.273 116.72C189.806 116.427 189.273 116.28 188.673 116.28C188.099 116.28 187.579 116.42 187.113 116.7C186.659 116.98 186.299 117.373 186.033 117.88C185.779 118.373 185.653 118.933 185.653 119.56C185.653 120.2 185.779 120.767 186.033 121.26C186.299 121.753 186.659 122.14 187.113 122.42C187.579 122.7 188.099 122.84 188.673 122.84Z" fill="white"/>
<path opacity="0.8" d="M87.6 157L84.176 145.08H85.472L88.432 155.752H88.16L91.2 145.08H92.56L95.584 155.752H95.296L98.272 145.08H99.568L96.144 157H94.784L91.728 146.28H92.016L88.96 157H87.6ZM100.982 157V148.424H102.182V157H100.982ZM100.982 146.84V145.08H102.182V146.84H100.982ZM107.918 157.096C107.15 157.096 106.558 156.872 106.142 156.424C105.726 155.976 105.518 155.336 105.518 154.504V149.624H103.934V148.424H104.334C104.697 148.424 104.985 148.307 105.198 148.072C105.412 147.827 105.518 147.523 105.518 147.16V146.44H106.718V148.424H108.606V149.624H106.718V154.504C106.718 154.792 106.761 155.048 106.846 155.272C106.932 155.485 107.076 155.656 107.278 155.784C107.492 155.912 107.774 155.976 108.126 155.976C108.212 155.976 108.313 155.971 108.43 155.96C108.548 155.949 108.649 155.939 108.734 155.928V157C108.606 157.032 108.462 157.053 108.302 157.064C108.142 157.085 108.014 157.096 107.918 157.096ZM110.841 157V144.888H112.041V150.088L111.769 150.024C111.983 149.469 112.329 149.032 112.809 148.712C113.3 148.392 113.865 148.232 114.505 148.232C115.113 148.232 115.657 148.371 116.137 148.648C116.628 148.925 117.012 149.309 117.289 149.8C117.577 150.28 117.721 150.824 117.721 151.432V157H116.521V151.896C116.521 151.373 116.425 150.931 116.233 150.568C116.041 150.205 115.775 149.928 115.433 149.736C115.103 149.533 114.724 149.432 114.297 149.432C113.871 149.432 113.487 149.533 113.145 149.736C112.804 149.928 112.532 150.211 112.329 150.584C112.137 150.947 112.041 151.384 112.041 151.896V157H110.841ZM122.908 157V145.08H124.188V157H122.908ZM126.826 157V148.424H128.026V150.088L127.754 150.024C127.967 149.469 128.314 149.032 128.794 148.712C129.284 148.392 129.85 148.232 130.49 148.232C131.098 148.232 131.642 148.371 132.122 148.648C132.612 148.925 132.996 149.309 133.274 149.8C133.562 150.28 133.706 150.824 133.706 151.432V157H132.506V151.896C132.506 151.373 132.41 150.931 132.218 150.568C132.036 150.205 131.775 149.928 131.434 149.736C131.103 149.533 130.719 149.432 130.282 149.432C129.844 149.432 129.455 149.533 129.114 149.736C128.772 149.928 128.506 150.211 128.314 150.584C128.122 150.947 128.026 151.384 128.026 151.896V157H126.826ZM139.87 157.192C139.07 157.192 138.35 157 137.71 156.616C137.07 156.221 136.563 155.688 136.19 155.016C135.827 154.333 135.646 153.565 135.646 152.712C135.646 151.848 135.827 151.08 136.19 150.408C136.563 149.736 137.064 149.208 137.694 148.824C138.334 148.429 139.059 148.232 139.87 148.232C140.606 148.232 141.262 148.392 141.838 148.712C142.414 149.032 142.867 149.464 143.198 150.008L143.006 150.344V144.888H144.206V157H143.006V155.08L143.198 155.256C142.899 155.875 142.451 156.355 141.854 156.696C141.267 157.027 140.606 157.192 139.87 157.192ZM139.934 155.992C140.51 155.992 141.027 155.848 141.486 155.56C141.955 155.272 142.323 154.883 142.59 154.392C142.867 153.891 143.006 153.331 143.006 152.712C143.006 152.093 142.867 151.539 142.59 151.048C142.323 150.547 141.955 150.152 141.486 149.864C141.027 149.576 140.51 149.432 139.934 149.432C139.368 149.432 138.856 149.576 138.398 149.864C137.939 150.152 137.576 150.541 137.31 151.032C137.054 151.523 136.926 152.083 136.926 152.712C136.926 153.331 137.054 153.891 137.31 154.392C137.576 154.883 137.934 155.272 138.382 155.56C138.84 155.848 139.358 155.992 139.934 155.992ZM149.71 157.192C149.112 157.192 148.568 157.053 148.078 156.776C147.587 156.488 147.198 156.093 146.91 155.592C146.632 155.08 146.493 154.493 146.493 153.832V148.424H147.694V153.688C147.694 154.147 147.784 154.552 147.966 154.904C148.158 155.245 148.419 155.512 148.75 155.704C149.091 155.896 149.48 155.992 149.918 155.992C150.355 155.992 150.744 155.896 151.086 155.704C151.427 155.501 151.694 155.219 151.886 154.856C152.078 154.483 152.174 154.04 152.174 153.528V148.424H153.374V157H152.174V155.336L152.446 155.4C152.243 155.955 151.896 156.392 151.406 156.712C150.915 157.032 150.35 157.192 149.71 157.192ZM158.817 157.192C157.996 157.192 157.276 156.984 156.657 156.568C156.039 156.152 155.591 155.587 155.313 154.872L156.321 154.392C156.567 154.915 156.908 155.331 157.345 155.64C157.793 155.949 158.284 156.104 158.817 156.104C159.329 156.104 159.761 155.981 160.113 155.736C160.465 155.48 160.641 155.149 160.641 154.744C160.641 154.445 160.556 154.211 160.385 154.04C160.215 153.859 160.017 153.72 159.793 153.624C159.569 153.528 159.372 153.459 159.201 153.416L157.969 153.064C157.18 152.84 156.609 152.525 156.257 152.12C155.905 151.715 155.729 151.245 155.729 150.712C155.729 150.211 155.857 149.773 156.113 149.4C156.369 149.027 156.716 148.739 157.153 148.536C157.591 148.333 158.076 148.232 158.609 148.232C159.335 148.232 159.991 148.424 160.577 148.808C161.175 149.181 161.596 149.704 161.841 150.376L160.817 150.856C160.604 150.376 160.295 150.003 159.889 149.736C159.495 149.459 159.052 149.32 158.561 149.32C158.081 149.32 157.697 149.443 157.409 149.688C157.121 149.933 156.977 150.243 156.977 150.616C156.977 150.904 157.052 151.133 157.201 151.304C157.351 151.475 157.521 151.603 157.713 151.688C157.916 151.773 158.092 151.837 158.241 151.88L159.665 152.296C160.359 152.499 160.897 152.813 161.281 153.24C161.676 153.667 161.873 154.168 161.873 154.744C161.873 155.213 161.74 155.635 161.473 156.008C161.217 156.381 160.86 156.675 160.401 156.888C159.943 157.091 159.415 157.192 158.817 157.192ZM167.262 157.096C166.494 157.096 165.902 156.872 165.486 156.424C165.07 155.976 164.862 155.336 164.862 154.504V149.624H163.278V148.424H163.678C164.041 148.424 164.329 148.307 164.542 148.072C164.755 147.827 164.862 147.523 164.862 147.16V146.44H166.062V148.424H167.95V149.624H166.062V154.504C166.062 154.792 166.105 155.048 166.19 155.272C166.275 155.485 166.419 155.656 166.622 155.784C166.835 155.912 167.118 155.976 167.47 155.976C167.555 155.976 167.657 155.971 167.774 155.96C167.891 155.949 167.993 155.939 168.078 155.928V157C167.95 157.032 167.806 157.053 167.646 157.064C167.486 157.085 167.358 157.096 167.262 157.096ZM170.185 157V148.424H171.385V149.832L171.225 149.624C171.428 149.219 171.732 148.899 172.137 148.664C172.553 148.429 173.054 148.312 173.641 148.312H174.185V149.512H173.433C172.814 149.512 172.318 149.704 171.945 150.088C171.572 150.472 171.385 151.016 171.385 151.72V157H170.185ZM175.767 160.52C175.597 160.52 175.421 160.504 175.239 160.472C175.069 160.451 174.898 160.408 174.727 160.344V159.224C174.834 159.235 174.967 159.251 175.127 159.272C175.298 159.304 175.469 159.32 175.639 159.32C176.162 159.32 176.562 159.208 176.839 158.984C177.117 158.771 177.389 158.355 177.655 157.736L178.199 156.456L178.167 157.512L174.535 148.424H175.831L178.807 155.928H178.471L181.431 148.424H182.759L178.839 158.088C178.669 158.504 178.45 158.899 178.183 159.272C177.927 159.645 177.602 159.944 177.207 160.168C176.813 160.403 176.333 160.52 175.767 160.52ZM187.064 157V145.08H194.744V146.28H188.344V150.424H194.424V151.624H188.344V155.8H194.744V157H187.064ZM195.629 157L198.637 152.712L195.645 148.424H197.117L199.773 152.28H198.957L201.597 148.424H203.069L200.077 152.712L203.069 157H201.597L198.957 153.144H199.773L197.117 157H195.629ZM204.482 160.2V148.424H205.682V150.344L205.49 150.008C205.831 149.464 206.285 149.032 206.85 148.712C207.426 148.392 208.082 148.232 208.818 148.232C209.629 148.232 210.349 148.429 210.978 148.824C211.618 149.208 212.119 149.736 212.482 150.408C212.855 151.08 213.042 151.848 213.042 152.712C213.042 153.565 212.855 154.333 212.482 155.016C212.119 155.688 211.618 156.221 210.978 156.616C210.349 157 209.629 157.192 208.818 157.192C208.082 157.192 207.415 157.027 206.818 156.696C206.231 156.355 205.789 155.875 205.49 155.256L205.682 155.08V160.2H204.482ZM208.754 155.992C209.33 155.992 209.842 155.848 210.29 155.56C210.749 155.272 211.106 154.883 211.362 154.392C211.629 153.891 211.762 153.331 211.762 152.712C211.762 152.083 211.629 151.523 211.362 151.032C211.106 150.541 210.749 150.152 210.29 149.864C209.842 149.576 209.33 149.432 208.754 149.432C208.178 149.432 207.655 149.576 207.186 149.864C206.727 150.152 206.359 150.547 206.082 151.048C205.815 151.539 205.682 152.093 205.682 152.712C205.682 153.331 205.815 153.891 206.082 154.392C206.359 154.883 206.727 155.272 207.186 155.56C207.655 155.848 208.178 155.992 208.754 155.992ZM219.058 157.192C218.258 157.192 217.533 157 216.882 156.616C216.242 156.221 215.735 155.683 215.362 155C214.989 154.317 214.802 153.544 214.802 152.68C214.802 151.816 214.983 151.053 215.346 150.392C215.709 149.72 216.199 149.192 216.818 148.808C217.447 148.424 218.151 148.232 218.93 148.232C219.549 148.232 220.098 148.349 220.578 148.584C221.069 148.808 221.485 149.117 221.826 149.512C222.167 149.896 222.429 150.333 222.61 150.824C222.791 151.304 222.882 151.8 222.882 152.312C222.882 152.419 222.877 152.541 222.866 152.68C222.855 152.808 222.839 152.941 222.818 153.08H215.57V151.96H222.13L221.554 152.44C221.65 151.853 221.581 151.331 221.346 150.872C221.122 150.403 220.797 150.035 220.37 149.768C219.943 149.491 219.463 149.352 218.93 149.352C218.397 149.352 217.901 149.491 217.442 149.768C216.994 150.045 216.642 150.435 216.386 150.936C216.13 151.427 216.029 152.013 216.082 152.696C216.029 153.379 216.135 153.976 216.402 154.488C216.679 154.989 217.053 155.379 217.522 155.656C218.002 155.933 218.514 156.072 219.058 156.072C219.687 156.072 220.215 155.923 220.642 155.624C221.069 155.325 221.415 154.952 221.682 154.504L222.706 155.048C222.535 155.432 222.274 155.789 221.922 156.12C221.57 156.44 221.149 156.701 220.658 156.904C220.178 157.096 219.645 157.192 219.058 157.192ZM224.998 157V148.424H226.198V149.832L226.038 149.624C226.24 149.219 226.544 148.899 226.95 148.664C227.366 148.429 227.867 148.312 228.454 148.312H228.998V149.512H228.246C227.627 149.512 227.131 149.704 226.758 150.088C226.384 150.472 226.198 151.016 226.198 151.72V157H224.998ZM233.684 157.096C232.916 157.096 232.324 156.872 231.908 156.424C231.492 155.976 231.284 155.336 231.284 154.504V149.624H229.7V148.424H230.1C230.463 148.424 230.751 148.307 230.964 148.072C231.177 147.827 231.284 147.523 231.284 147.16V146.44H232.484V148.424H234.372V149.624H232.484V154.504C232.484 154.792 232.527 155.048 232.612 155.272C232.697 155.485 232.841 155.656 233.044 155.784C233.257 155.912 233.54 155.976 233.892 155.976C233.977 155.976 234.079 155.971 234.196 155.96C234.313 155.949 234.415 155.939 234.5 155.928V157C234.372 157.032 234.228 157.053 234.068 157.064C233.908 157.085 233.78 157.096 233.684 157.096ZM239.583 157.192C238.762 157.192 238.042 156.984 237.423 156.568C236.804 156.152 236.356 155.587 236.079 154.872L237.087 154.392C237.332 154.915 237.674 155.331 238.111 155.64C238.559 155.949 239.05 156.104 239.583 156.104C240.095 156.104 240.527 155.981 240.879 155.736C241.231 155.48 241.407 155.149 241.407 154.744C241.407 154.445 241.322 154.211 241.151 154.04C240.98 153.859 240.783 153.72 240.559 153.624C240.335 153.528 240.138 153.459 239.967 153.416L238.735 153.064C237.946 152.84 237.375 152.525 237.023 152.12C236.671 151.715 236.495 151.245 236.495 150.712C236.495 150.211 236.623 149.773 236.879 149.4C237.135 149.027 237.482 148.739 237.919 148.536C238.356 148.333 238.842 148.232 239.375 148.232C240.1 148.232 240.756 148.424 241.343 148.808C241.94 149.181 242.362 149.704 242.607 150.376L241.583 150.856C241.37 150.376 241.06 150.003 240.655 149.736C240.26 149.459 239.818 149.32 239.327 149.32C238.847 149.32 238.463 149.443 238.175 149.688C237.887 149.933 237.743 150.243 237.743 150.616C237.743 150.904 237.818 151.133 237.967 151.304C238.116 151.475 238.287 151.603 238.479 151.688C238.682 151.773 238.858 151.837 239.007 151.88L240.431 152.296C241.124 152.499 241.663 152.813 242.047 153.24C242.442 153.667 242.639 154.168 242.639 154.744C242.639 155.213 242.506 155.635 242.239 156.008C241.983 156.381 241.626 156.675 241.167 156.888C240.708 157.091 240.18 157.192 239.583 157.192Z" fill="white"/>
<rect x="349" y="104" width="64" height="64" rx="8" fill="#DBE5FF"/>
<path fill-rule="evenodd" clip-rule="evenodd" d="M370.172 119.659C369.995 119.365 370.1 118.991 370.407 118.821C370.714 118.652 371.107 118.752 371.284 119.046L372.227 120.606C372.475 121.016 372.162 121.526 371.672 121.526C371.45 121.526 371.234 121.416 371.115 121.219L370.172 119.659ZM362.653 126.229C362.83 125.935 363.222 125.835 363.53 126.004L365.163 126.905C365.731 127.218 365.494 128.049 364.842 128.049C364.733 128.049 364.622 128.023 364.521 127.967L362.888 127.066C362.581 126.897 362.475 126.522 362.653 126.229ZM402.186 136.347C402.186 136.686 401.898 136.961 401.544 136.961H399.657C399.303 136.961 399.016 136.686 399.016 136.347C399.016 136.008 399.303 135.734 399.657 135.734H401.544C401.898 135.734 402.186 136.008 402.186 136.347ZM362.342 136.961H360.456C360.102 136.961 359.814 136.686 359.814 136.347C359.814 136.008 360.102 135.734 360.456 135.734H362.342C362.697 135.734 362.984 136.008 362.984 136.347C362.985 136.686 362.697 136.961 362.342 136.961ZM396.602 127.743C396.425 127.45 396.53 127.074 396.837 126.905L398.47 126.004C398.777 125.835 399.17 125.935 399.347 126.229C399.525 126.522 399.419 126.897 399.112 127.066L397.479 127.967C397.176 128.134 396.781 128.039 396.602 127.743ZM380.358 118.525V116.724C380.358 116.384 380.645 116.11 381 116.11C381.354 116.11 381.642 116.384 381.642 116.724V118.525C381.642 118.864 381.354 119.138 381 119.138C380.645 119.138 380.358 118.864 380.358 118.525ZM389.773 120.606L390.716 119.046C390.893 118.752 391.285 118.652 391.593 118.821C391.9 118.991 392.005 119.365 391.828 119.659L390.885 121.219C390.705 121.516 390.31 121.61 390.008 121.444C389.701 121.274 389.595 120.899 389.773 120.606ZM377.84 124.51C377.84 124.15 378.147 123.856 378.525 123.856H383.475C383.853 123.856 384.16 124.15 384.16 124.51V125.931H377.84V124.51ZM389.691 128.13V129.326L382.199 133.16C381.426 133.556 380.574 133.556 379.801 133.16L372.309 129.326V128.13C372.309 127.594 372.765 127.158 373.327 127.158H388.673C389.234 127.158 389.691 127.594 389.691 128.13ZM388.673 138.479C389.234 138.479 389.691 138.043 389.691 137.507V130.718L382.805 134.241C381.641 134.836 380.359 134.836 379.195 134.241L372.309 130.718V137.507C372.309 138.043 372.765 138.479 373.327 138.479H388.673ZM371.025 128.13V137.507C371.025 138.719 372.057 139.706 373.327 139.706H388.673C389.942 139.706 390.975 138.719 390.975 137.507V128.13C390.975 126.918 389.942 125.931 388.673 125.931H385.444V124.51C385.444 123.473 384.561 122.63 383.475 122.63H378.525C377.439 122.63 376.556 123.473 376.556 124.51V125.931H373.327C372.058 125.931 371.025 126.918 371.025 128.13ZM397.387 145.329L387.528 150.766C384.914 152.207 383.365 152.931 380.455 153.342C377.381 153.775 374.321 153.552 371.473 153.247C370.181 153.109 369.001 153.004 367.806 152.922V144.978C370.205 144.764 372.315 144.798 375.018 145.488C375.072 145.502 375.127 145.508 375.183 145.508H382.139C383.197 145.508 383.906 146.541 383.508 147.46C383.276 147.992 382.739 148.338 382.139 148.338H375.183C374.829 148.338 374.541 148.611 374.541 148.951C374.541 149.289 374.829 149.564 375.183 149.564H382.139C383.069 149.564 383.917 149.121 384.425 148.402C384.665 148.445 384.902 148.467 385.137 148.468C386.258 148.471 386.822 148.063 387.6 147.633L395.984 143.009C396.654 142.64 397.513 142.859 397.9 143.499C398.287 144.139 398.057 144.96 397.387 145.329ZM366.522 153.95C366.522 154.261 366.257 154.514 365.931 154.514H363.046C362.721 154.514 362.456 154.261 362.456 153.95V144.58C362.456 144.269 362.721 144.016 363.046 144.016H365.931C366.257 144.016 366.522 144.269 366.522 144.58V153.95ZM395.342 141.947L386.958 146.57C386.191 146.994 385.788 147.315 384.885 147.228C385.076 145.664 383.791 144.282 382.139 144.282H375.267C372.388 143.557 370.151 143.53 367.599 143.764C367.288 143.186 366.657 142.79 365.931 142.79H363.046C362.012 142.79 361.172 143.593 361.172 144.58V153.95C361.172 154.938 362.012 155.741 363.046 155.741H365.931C366.894 155.741 367.689 155.044 367.794 154.151C368.944 154.231 370.084 154.333 371.33 154.466C374.404 154.795 377.494 154.999 380.643 154.555C383.879 154.099 385.646 153.221 388.17 151.828L398.029 146.39C399.312 145.683 399.753 144.111 399.012 142.885C398.271 141.66 396.625 141.239 395.342 141.947Z" fill="#9A87FC"/>
<path d="M434.44 125V110.1H440C441.013 110.1 441.907 110.287 442.68 110.66C443.467 111.02 444.08 111.553 444.52 112.26C444.96 112.953 445.18 113.8 445.18 114.8C445.18 115.787 444.953 116.633 444.5 117.34C444.06 118.033 443.453 118.567 442.68 118.94C441.907 119.313 441.013 119.5 440 119.5H437.16V125H434.44ZM437.16 117.1H440.04C440.533 117.1 440.96 117.007 441.32 116.82C441.68 116.62 441.96 116.347 442.16 116C442.36 115.653 442.46 115.253 442.46 114.8C442.46 114.333 442.36 113.933 442.16 113.6C441.96 113.253 441.68 112.987 441.32 112.8C440.96 112.6 440.533 112.5 440.04 112.5H437.16V117.1ZM452.118 125.24C451.051 125.24 450.078 124.993 449.198 124.5C448.331 124.007 447.638 123.333 447.118 122.48C446.611 121.627 446.358 120.653 446.358 119.56C446.358 118.467 446.611 117.493 447.118 116.64C447.638 115.787 448.331 115.113 449.198 114.62C450.065 114.127 451.038 113.88 452.118 113.88C453.185 113.88 454.151 114.127 455.018 114.62C455.885 115.113 456.571 115.787 457.078 116.64C457.598 117.48 457.858 118.453 457.858 119.56C457.858 120.653 457.598 121.627 457.078 122.48C456.558 123.333 455.865 124.007 454.998 124.5C454.131 124.993 453.171 125.24 452.118 125.24ZM452.118 122.84C452.705 122.84 453.218 122.7 453.658 122.42C454.111 122.14 454.465 121.753 454.718 121.26C454.985 120.753 455.118 120.187 455.118 119.56C455.118 118.92 454.985 118.36 454.718 117.88C454.465 117.387 454.111 117 453.658 116.72C453.218 116.427 452.705 116.28 452.118 116.28C451.518 116.28 450.991 116.427 450.538 116.72C450.085 117 449.725 117.387 449.458 117.88C449.205 118.36 449.078 118.92 449.078 119.56C449.078 120.187 449.205 120.753 449.458 121.26C449.725 121.753 450.085 122.14 450.538 122.42C450.991 122.7 451.518 122.84 452.118 122.84ZM459.845 125V114.12H462.305V116.54L462.105 116.18C462.358 115.367 462.752 114.8 463.285 114.48C463.832 114.16 464.485 114 465.245 114H465.885V116.32H464.945C464.198 116.32 463.598 116.553 463.145 117.02C462.692 117.473 462.465 118.113 462.465 118.94V125H459.845ZM472.578 125.12C471.352 125.12 470.398 124.787 469.718 124.12C469.052 123.44 468.718 122.487 468.718 121.26V116.46H466.838V114.12H467.038C467.572 114.12 467.985 113.98 468.278 113.7C468.572 113.42 468.718 113.013 468.718 112.48V111.64H471.338V114.12H473.838V116.46H471.338V121.12C471.338 121.48 471.398 121.787 471.518 122.04C471.652 122.293 471.852 122.487 472.118 122.62C472.398 122.753 472.752 122.82 473.178 122.82C473.272 122.82 473.378 122.813 473.498 122.8C473.632 122.787 473.758 122.773 473.878 122.76V125C473.692 125.027 473.478 125.053 473.238 125.08C472.998 125.107 472.778 125.12 472.578 125.12ZM477.14 125V116.46H475.22V114.12H477.14V113.76C477.14 112.933 477.307 112.233 477.64 111.66C477.987 111.073 478.467 110.627 479.08 110.32C479.693 110.013 480.42 109.86 481.26 109.86C481.42 109.86 481.593 109.873 481.78 109.9C481.98 109.913 482.147 109.933 482.28 109.96V112.22C482.147 112.193 482.02 112.18 481.9 112.18C481.793 112.167 481.693 112.16 481.6 112.16C481.013 112.16 480.56 112.293 480.24 112.56C479.92 112.813 479.76 113.213 479.76 113.76V114.12H482.18V116.46H479.76V125H477.14ZM489.013 125.24C487.946 125.24 486.973 124.993 486.093 124.5C485.226 124.007 484.533 123.333 484.013 122.48C483.506 121.627 483.253 120.653 483.253 119.56C483.253 118.467 483.506 117.493 484.013 116.64C484.533 115.787 485.226 115.113 486.093 114.62C486.959 114.127 487.933 113.88 489.013 113.88C490.079 113.88 491.046 114.127 491.913 114.62C492.779 115.113 493.466 115.787 493.973 116.64C494.493 117.48 494.753 118.453 494.753 119.56C494.753 120.653 494.493 121.627 493.973 122.48C493.453 123.333 492.759 124.007 491.893 124.5C491.026 124.993 490.066 125.24 489.013 125.24ZM489.013 122.84C489.599 122.84 490.113 122.7 490.553 122.42C491.006 122.14 491.359 121.753 491.613 121.26C491.879 120.753 492.013 120.187 492.013 119.56C492.013 118.92 491.879 118.36 491.613 117.88C491.359 117.387 491.006 117 490.553 116.72C490.113 116.427 489.599 116.28 489.013 116.28C488.413 116.28 487.886 116.427 487.433 116.72C486.979 117 486.619 117.387 486.353 117.88C486.099 118.36 485.973 118.92 485.973 119.56C485.973 120.187 486.099 120.753 486.353 121.26C486.619 121.753 486.979 122.14 487.433 122.42C487.886 122.7 488.413 122.84 489.013 122.84ZM496.74 125V109.86H499.36V125H496.74ZM501.779 125V114.12H504.399V125H501.779ZM501.779 112.9V110.1H504.399V112.9H501.779ZM512.138 125.24C511.071 125.24 510.098 124.993 509.218 124.5C508.351 124.007 507.658 123.333 507.138 122.48C506.631 121.627 506.378 120.653 506.378 119.56C506.378 118.467 506.631 117.493 507.138 116.64C507.658 115.787 508.351 115.113 509.218 114.62C510.084 114.127 511.058 113.88 512.138 113.88C513.204 113.88 514.171 114.127 515.038 114.62C515.904 115.113 516.591 115.787 517.098 116.64C517.618 117.48 517.878 118.453 517.878 119.56C517.878 120.653 517.618 121.627 517.098 122.48C516.578 123.333 515.884 124.007 515.018 124.5C514.151 124.993 513.191 125.24 512.138 125.24ZM512.138 122.84C512.724 122.84 513.238 122.7 513.678 122.42C514.131 122.14 514.484 121.753 514.738 121.26C515.004 120.753 515.138 120.187 515.138 119.56C515.138 118.92 515.004 118.36 514.738 117.88C514.484 117.387 514.131 117 513.678 116.72C513.238 116.427 512.724 116.28 512.138 116.28C511.538 116.28 511.011 116.427 510.558 116.72C510.104 117 509.744 117.387 509.478 117.88C509.224 118.36 509.098 118.92 509.098 119.56C509.098 120.187 509.224 120.753 509.478 121.26C509.744 121.753 510.104 122.14 510.558 122.42C511.011 122.7 511.538 122.84 512.138 122.84Z" fill="white"/>
<path opacity="0.8" d="M438.248 157.192C437.437 157.192 436.701 157 436.04 156.616C435.379 156.221 434.851 155.688 434.456 155.016C434.072 154.333 433.88 153.56 433.88 152.696C433.88 151.843 434.072 151.08 434.456 150.408C434.84 149.736 435.357 149.208 436.008 148.824C436.669 148.429 437.416 148.232 438.248 148.232C439.08 148.232 439.821 148.424 440.472 148.808C441.133 149.192 441.651 149.72 442.024 150.392C442.408 151.064 442.6 151.832 442.6 152.696C442.6 153.571 442.403 154.349 442.008 155.032C441.613 155.704 441.085 156.232 440.424 156.616C439.773 157 439.048 157.192 438.248 157.192ZM438.248 155.992C438.824 155.992 439.341 155.848 439.8 155.56C440.269 155.272 440.637 154.877 440.904 154.376C441.181 153.875 441.32 153.315 441.32 152.696C441.32 152.077 441.181 151.523 440.904 151.032C440.637 150.541 440.269 150.152 439.8 149.864C439.341 149.576 438.824 149.432 438.248 149.432C437.672 149.432 437.149 149.576 436.68 149.864C436.221 150.152 435.853 150.541 435.576 151.032C435.299 151.523 435.16 152.077 435.16 152.696C435.16 153.315 435.299 153.875 435.576 154.376C435.853 154.877 436.221 155.272 436.68 155.56C437.149 155.848 437.672 155.992 438.248 155.992ZM445.284 157V149.624H443.572V148.424H445.284V147.656C445.284 147.059 445.417 146.557 445.684 146.152C445.951 145.736 446.303 145.421 446.74 145.208C447.177 144.995 447.647 144.888 448.148 144.888C448.255 144.888 448.377 144.899 448.516 144.92C448.655 144.931 448.767 144.947 448.852 144.968V146.056C448.777 146.035 448.676 146.024 448.548 146.024C448.42 146.013 448.329 146.008 448.276 146.008C447.764 146.008 447.337 146.131 446.996 146.376C446.655 146.621 446.484 147.048 446.484 147.656V148.424H448.58V149.624H446.484V157H445.284ZM453.404 157V148.424H454.604V157H453.404ZM453.404 146.84V145.08H454.604V146.84H453.404ZM457.06 157V148.424H458.26V150.056L458.068 149.816C458.303 149.315 458.649 148.925 459.108 148.648C459.577 148.371 460.089 148.232 460.644 148.232C461.305 148.232 461.903 148.419 462.436 148.792C462.969 149.165 463.348 149.651 463.572 150.248L463.236 150.264C463.449 149.603 463.817 149.101 464.34 148.76C464.873 148.408 465.46 148.232 466.1 148.232C466.676 148.232 467.204 148.371 467.684 148.648C468.175 148.925 468.564 149.309 468.852 149.8C469.151 150.28 469.3 150.824 469.3 151.432V157H468.1V151.896C468.1 151.373 468.004 150.931 467.812 150.568C467.631 150.205 467.38 149.928 467.06 149.736C466.74 149.533 466.372 149.432 465.956 149.432C465.551 149.432 465.183 149.533 464.852 149.736C464.521 149.928 464.26 150.211 464.068 150.584C463.876 150.947 463.78 151.384 463.78 151.896V157H462.58V151.896C462.58 151.373 462.484 150.931 462.292 150.568C462.111 150.205 461.86 149.928 461.54 149.736C461.22 149.533 460.852 149.432 460.436 149.432C460.02 149.432 459.647 149.533 459.316 149.736C458.996 149.928 458.74 150.211 458.548 150.584C458.356 150.947 458.26 151.384 458.26 151.896V157H457.06ZM471.591 160.2V148.424H472.791V150.344L472.599 150.008C472.941 149.464 473.394 149.032 473.959 148.712C474.535 148.392 475.191 148.232 475.927 148.232C476.738 148.232 477.458 148.429 478.087 148.824C478.727 149.208 479.229 149.736 479.591 150.408C479.965 151.08 480.151 151.848 480.151 152.712C480.151 153.565 479.965 154.333 479.591 155.016C479.229 155.688 478.727 156.221 478.087 156.616C477.458 157 476.738 157.192 475.927 157.192C475.191 157.192 474.525 157.027 473.927 156.696C473.341 156.355 472.898 155.875 472.599 155.256L472.791 155.08V160.2H471.591ZM475.863 155.992C476.439 155.992 476.951 155.848 477.399 155.56C477.858 155.272 478.215 154.883 478.471 154.392C478.738 153.891 478.871 153.331 478.871 152.712C478.871 152.083 478.738 151.523 478.471 151.032C478.215 150.541 477.858 150.152 477.399 149.864C476.951 149.576 476.439 149.432 475.863 149.432C475.287 149.432 474.765 149.576 474.295 149.864C473.837 150.152 473.469 150.547 473.191 151.048C472.925 151.539 472.791 152.093 472.791 152.712C472.791 153.331 472.925 153.891 473.191 154.392C473.469 154.883 473.837 155.272 474.295 155.56C474.765 155.848 475.287 155.992 475.863 155.992ZM484.743 157.192C484.199 157.192 483.714 157.091 483.287 156.888C482.861 156.675 482.525 156.387 482.279 156.024C482.034 155.661 481.911 155.245 481.911 154.776C481.911 154.328 482.007 153.923 482.199 153.56C482.391 153.187 482.69 152.872 483.095 152.616C483.501 152.36 484.018 152.179 484.647 152.072L488.007 151.512V152.6L484.935 153.112C484.317 153.219 483.869 153.416 483.591 153.704C483.325 153.992 483.191 154.333 483.191 154.728C483.191 155.112 483.341 155.437 483.639 155.704C483.949 155.971 484.343 156.104 484.823 156.104C485.41 156.104 485.922 155.981 486.359 155.736C486.797 155.48 487.138 155.139 487.383 154.712C487.629 154.285 487.751 153.811 487.751 153.288V151.112C487.751 150.6 487.565 150.184 487.191 149.864C486.818 149.544 486.333 149.384 485.735 149.384C485.213 149.384 484.754 149.517 484.359 149.784C483.965 150.04 483.671 150.376 483.479 150.792L482.391 150.2C482.551 149.837 482.802 149.507 483.143 149.208C483.495 148.909 483.895 148.675 484.343 148.504C484.791 148.323 485.255 148.232 485.735 148.232C486.365 148.232 486.919 148.355 487.399 148.6C487.89 148.845 488.269 149.187 488.535 149.624C488.813 150.051 488.951 150.547 488.951 151.112V157H487.751V155.288L487.927 155.464C487.778 155.784 487.543 156.077 487.223 156.344C486.914 156.6 486.546 156.808 486.119 156.968C485.703 157.117 485.245 157.192 484.743 157.192ZM495.34 157.192C494.497 157.192 493.756 156.995 493.116 156.6C492.476 156.205 491.974 155.672 491.612 155C491.249 154.317 491.068 153.549 491.068 152.696C491.068 151.843 491.249 151.08 491.612 150.408C491.974 149.736 492.476 149.208 493.116 148.824C493.756 148.429 494.497 148.232 495.34 148.232C495.873 148.232 496.374 148.328 496.844 148.52C497.313 148.712 497.729 148.973 498.092 149.304C498.454 149.624 498.726 149.997 498.908 150.424L497.82 150.984C497.606 150.525 497.281 150.152 496.844 149.864C496.406 149.576 495.905 149.432 495.34 149.432C494.774 149.432 494.262 149.576 493.804 149.864C493.356 150.141 492.998 150.531 492.732 151.032C492.476 151.523 492.348 152.083 492.348 152.712C492.348 153.331 492.476 153.891 492.732 154.392C492.998 154.883 493.356 155.272 493.804 155.56C494.262 155.848 494.774 155.992 495.34 155.992C495.905 155.992 496.401 155.848 496.828 155.56C497.265 155.272 497.596 154.888 497.82 154.408L498.908 155C498.726 155.416 498.454 155.789 498.092 156.12C497.729 156.451 497.313 156.712 496.844 156.904C496.374 157.096 495.873 157.192 495.34 157.192ZM504.293 157.096C503.525 157.096 502.933 156.872 502.517 156.424C502.101 155.976 501.893 155.336 501.893 154.504V149.624H500.309V148.424H500.709C501.072 148.424 501.36 148.307 501.573 148.072C501.787 147.827 501.893 147.523 501.893 147.16V146.44H503.093V148.424H504.981V149.624H503.093V154.504C503.093 154.792 503.136 155.048 503.221 155.272C503.307 155.485 503.451 155.656 503.653 155.784C503.867 155.912 504.149 155.976 504.501 155.976C504.587 155.976 504.688 155.971 504.805 155.96C504.923 155.949 505.024 155.939 505.109 155.928V157C504.981 157.032 504.837 157.053 504.677 157.064C504.517 157.085 504.389 157.096 504.293 157.096ZM508.096 157V149.624H506.384V148.424H508.096V147.656C508.096 147.059 508.23 146.557 508.496 146.152C508.763 145.736 509.115 145.421 509.552 145.208C509.99 144.995 510.459 144.888 510.96 144.888C511.067 144.888 511.19 144.899 511.328 144.92C511.467 144.931 511.579 144.947 511.664 144.968V146.056C511.59 146.035 511.488 146.024 511.36 146.024C511.232 146.013 511.142 146.008 511.088 146.008C510.576 146.008 510.15 146.131 509.808 146.376C509.467 146.621 509.296 147.048 509.296 147.656V148.424H511.392V149.624H509.296V157H508.096ZM516.538 157.192C515.94 157.192 515.396 157.053 514.906 156.776C514.415 156.488 514.026 156.093 513.738 155.592C513.46 155.08 513.322 154.493 513.322 153.832V148.424H514.522V153.688C514.522 154.147 514.612 154.552 514.794 154.904C514.986 155.245 515.247 155.512 515.578 155.704C515.919 155.896 516.308 155.992 516.746 155.992C517.183 155.992 517.572 155.896 517.914 155.704C518.255 155.501 518.522 155.219 518.714 154.856C518.906 154.483 519.002 154.04 519.002 153.528V148.424H520.202V157H519.002V155.336L519.274 155.4C519.071 155.955 518.724 156.392 518.234 156.712C517.743 157.032 517.178 157.192 516.538 157.192ZM522.67 157V144.888H523.87V157H522.67ZM529.221 157V145.08H533.317C534.095 145.08 534.778 145.235 535.365 145.544C535.951 145.843 536.405 146.269 536.725 146.824C537.055 147.368 537.22 148.003 537.22 148.728C537.22 149.453 537.055 150.088 536.725 150.632C536.405 151.176 535.951 151.603 535.365 151.912C534.789 152.211 534.106 152.36 533.317 152.36H530.501V157H529.221ZM530.501 151.16H533.381C533.893 151.16 534.341 151.064 534.725 150.872C535.109 150.669 535.407 150.387 535.621 150.024C535.834 149.651 535.941 149.213 535.941 148.712C535.941 148.211 535.834 147.779 535.621 147.416C535.407 147.053 535.109 146.776 534.725 146.584C534.341 146.381 533.893 146.28 533.381 146.28H530.501V151.16ZM539.326 157V148.424H540.526V149.832L540.366 149.624C540.568 149.219 540.872 148.899 541.278 148.664C541.694 148.429 542.195 148.312 542.782 148.312H543.326V149.512H542.574C541.955 149.512 541.459 149.704 541.086 150.088C540.712 150.472 540.526 151.016 540.526 151.72V157H539.326ZM548.748 157.192C547.937 157.192 547.201 157 546.54 156.616C545.879 156.221 545.351 155.688 544.956 155.016C544.572 154.333 544.38 153.56 544.38 152.696C544.38 151.843 544.572 151.08 544.956 150.408C545.34 149.736 545.857 149.208 546.508 148.824C547.169 148.429 547.916 148.232 548.748 148.232C549.58 148.232 550.321 148.424 550.972 148.808C551.633 149.192 552.151 149.72 552.524 150.392C552.908 151.064 553.1 151.832 553.1 152.696C553.1 153.571 552.903 154.349 552.508 155.032C552.113 155.704 551.585 156.232 550.924 156.616C550.273 157 549.548 157.192 548.748 157.192ZM548.748 155.992C549.324 155.992 549.841 155.848 550.3 155.56C550.769 155.272 551.137 154.877 551.404 154.376C551.681 153.875 551.82 153.315 551.82 152.696C551.82 152.077 551.681 151.523 551.404 151.032C551.137 150.541 550.769 150.152 550.3 149.864C549.841 149.576 549.324 149.432 548.748 149.432C548.172 149.432 547.649 149.576 547.18 149.864C546.721 150.152 546.353 150.541 546.076 151.032C545.799 151.523 545.66 152.077 545.66 152.696C545.66 153.315 545.799 153.875 546.076 154.376C546.353 154.877 546.721 155.272 547.18 155.56C547.649 155.848 548.172 155.992 548.748 155.992ZM553.616 160.52C553.542 160.52 553.44 160.515 553.312 160.504C553.174 160.493 553.062 160.477 552.976 160.456V159.352C553.2 159.384 553.424 159.4 553.648 159.4C554.086 159.4 554.454 159.267 554.752 159C555.062 158.733 555.216 158.333 555.216 157.8V148.424H556.416V157.8C556.416 158.387 556.288 158.883 556.032 159.288C555.776 159.693 555.435 159.997 555.008 160.2C554.592 160.413 554.128 160.52 553.616 160.52ZM555.216 146.84V145.08H556.416V146.84H555.216ZM562.777 157.192C561.977 157.192 561.251 157 560.601 156.616C559.961 156.221 559.454 155.683 559.081 155C558.707 154.317 558.521 153.544 558.521 152.68C558.521 151.816 558.702 151.053 559.065 150.392C559.427 149.72 559.918 149.192 560.537 148.808C561.166 148.424 561.87 148.232 562.649 148.232C563.267 148.232 563.817 148.349 564.297 148.584C564.787 148.808 565.203 149.117 565.545 149.512C565.886 149.896 566.147 150.333 566.329 150.824C566.51 151.304 566.601 151.8 566.601 152.312C566.601 152.419 566.595 152.541 566.585 152.68C566.574 152.808 566.558 152.941 566.537 153.08H559.289V151.96H565.849L565.273 152.44C565.369 151.853 565.299 151.331 565.065 150.872C564.841 150.403 564.515 150.035 564.089 149.768C563.662 149.491 563.182 149.352 562.649 149.352C562.115 149.352 561.619 149.491 561.161 149.768C560.713 150.045 560.361 150.435 560.105 150.936C559.849 151.427 559.747 152.013 559.801 152.696C559.747 153.379 559.854 153.976 560.121 154.488C560.398 154.989 560.771 155.379 561.241 155.656C561.721 155.933 562.233 156.072 562.777 156.072C563.406 156.072 563.934 155.923 564.361 155.624C564.787 155.325 565.134 154.952 565.401 154.504L566.425 155.048C566.254 155.432 565.993 155.789 565.641 156.12C565.289 156.44 564.867 156.701 564.377 156.904C563.897 157.096 563.363 157.192 562.777 157.192ZM572.636 157.192C571.794 157.192 571.052 156.995 570.412 156.6C569.772 156.205 569.271 155.672 568.908 155C568.546 154.317 568.364 153.549 568.364 152.696C568.364 151.843 568.546 151.08 568.908 150.408C569.271 149.736 569.772 149.208 570.412 148.824C571.052 148.429 571.794 148.232 572.636 148.232C573.17 148.232 573.671 148.328 574.14 148.52C574.61 148.712 575.026 148.973 575.388 149.304C575.751 149.624 576.023 149.997 576.204 150.424L575.116 150.984C574.903 150.525 574.578 150.152 574.14 149.864C573.703 149.576 573.202 149.432 572.636 149.432C572.071 149.432 571.559 149.576 571.1 149.864C570.652 150.141 570.295 150.531 570.028 151.032C569.772 151.523 569.644 152.083 569.644 152.712C569.644 153.331 569.772 153.891 570.028 154.392C570.295 154.883 570.652 155.272 571.1 155.56C571.559 155.848 572.071 155.992 572.636 155.992C573.202 155.992 573.698 155.848 574.124 155.56C574.562 155.272 574.892 154.888 575.116 154.408L576.204 155C576.023 155.416 575.751 155.789 575.388 156.12C575.026 156.451 574.61 156.712 574.14 156.904C573.671 157.096 573.17 157.192 572.636 157.192ZM581.59 157.096C580.822 157.096 580.23 156.872 579.814 156.424C579.398 155.976 579.19 155.336 579.19 154.504V149.624H577.606V148.424H578.006C578.369 148.424 578.657 148.307 578.87 148.072C579.083 147.827 579.19 147.523 579.19 147.16V146.44H580.39V148.424H582.278V149.624H580.39V154.504C580.39 154.792 580.433 155.048 580.518 155.272C580.603 155.485 580.747 155.656 580.95 155.784C581.163 155.912 581.446 155.976 581.798 155.976C581.883 155.976 581.985 155.971 582.102 155.96C582.219 155.949 582.321 155.939 582.406 155.928V157C582.278 157.032 582.134 157.053 581.974 157.064C581.814 157.085 581.686 157.096 581.59 157.096ZM587.489 157.192C586.668 157.192 585.948 156.984 585.329 156.568C584.711 156.152 584.263 155.587 583.985 154.872L584.993 154.392C585.239 154.915 585.58 155.331 586.017 155.64C586.465 155.949 586.956 156.104 587.489 156.104C588.001 156.104 588.433 155.981 588.785 155.736C589.137 155.48 589.313 155.149 589.313 154.744C589.313 154.445 589.228 154.211 589.057 154.04C588.887 153.859 588.689 153.72 588.465 153.624C588.241 153.528 588.044 153.459 587.873 153.416L586.641 153.064C585.852 152.84 585.281 152.525 584.929 152.12C584.577 151.715 584.401 151.245 584.401 150.712C584.401 150.211 584.529 149.773 584.785 149.4C585.041 149.027 585.388 148.739 585.825 148.536C586.263 148.333 586.748 148.232 587.281 148.232C588.007 148.232 588.663 148.424 589.249 148.808C589.847 149.181 590.268 149.704 590.513 150.376L589.489 150.856C589.276 150.376 588.967 150.003 588.561 149.736C588.167 149.459 587.724 149.32 587.233 149.32C586.753 149.32 586.369 149.443 586.081 149.688C585.793 149.933 585.649 150.243 585.649 150.616C585.649 150.904 585.724 151.133 585.873 151.304C586.023 151.475 586.193 151.603 586.385 151.688C586.588 151.773 586.764 151.837 586.913 151.88L588.337 152.296C589.031 152.499 589.569 152.813 589.953 153.24C590.348 153.667 590.545 154.168 590.545 154.744C590.545 155.213 590.412 155.635 590.145 156.008C589.889 156.381 589.532 156.675 589.073 156.888C588.615 157.091 588.087 157.192 587.489 157.192Z" fill="white"/>
<defs>
<clipPath id="clip0_9_2145">
<rect x="8" y="113" width="48" height="45.8507" rx="4" fill="white"/>
</clipPath>
</defs>
</svg>
