<svg width="25" height="25" viewBox="0 0 25 25" fill="none" xmlns="http://www.w3.org/2000/svg">
<g clip-path="url(#clip0_9_1807)">
<path d="M19.0003 15.7338C18.5089 15.2222 17.9163 14.9487 17.2882 14.9487C16.6651 14.9487 16.0674 15.2172 15.5558 15.7288L13.9552 17.3244C13.8235 17.2535 13.6918 17.1876 13.5651 17.1218C13.3828 17.0306 13.2106 16.9445 13.0637 16.8533C11.5643 15.901 10.2017 14.66 8.89488 13.0543C8.26171 12.2539 7.83622 11.5802 7.52723 10.8964C7.94259 10.5165 8.32756 10.1214 8.7024 9.74152C8.84423 9.59969 8.98606 9.4528 9.12789 9.31097C10.1916 8.24724 10.1916 6.86946 9.12789 5.80573L7.74504 4.42289C7.58801 4.26586 7.42592 4.10377 7.27396 3.94168C6.97004 3.62763 6.65092 3.30344 6.32167 2.99952C5.83033 2.51325 5.24275 2.25491 4.62478 2.25491C4.0068 2.25491 3.40909 2.51325 2.90255 2.99952C2.89749 3.00459 2.89749 3.00459 2.89242 3.00965L1.1702 4.74707C0.521832 5.39544 0.15206 6.18564 0.0710141 7.10247C-0.0505546 8.58155 0.385067 9.95933 0.719381 10.861C1.53997 13.0745 2.76579 15.126 4.59438 17.3244C6.81301 19.9736 9.48246 22.0656 12.5318 23.5396C13.6968 24.0917 15.2519 24.7451 16.9893 24.8566C17.0957 24.8616 17.2071 24.8667 17.3084 24.8667C18.4785 24.8667 19.4612 24.4463 20.2312 23.6105C20.2362 23.6004 20.2464 23.5953 20.2514 23.5852C20.5148 23.266 20.8187 22.9773 21.1379 22.6683C21.3557 22.4607 21.5786 22.2428 21.7964 22.0149C22.2978 21.4932 22.5612 20.8853 22.5612 20.2623C22.5612 19.6342 22.2928 19.0314 21.7812 18.5249L19.0003 15.7338ZM20.8137 21.0677C20.8086 21.0727 20.8086 21.0677 20.8137 21.0677C20.6161 21.2804 20.4135 21.4729 20.1957 21.6857C19.8665 21.9997 19.5321 22.329 19.2181 22.6987C18.7065 23.2458 18.1037 23.5041 17.3135 23.5041C17.2375 23.5041 17.1565 23.5041 17.0805 23.4991C15.5761 23.4028 14.1781 22.8152 13.1295 22.3138C10.2625 20.9258 7.74504 18.9554 5.65305 16.4582C3.92576 14.3763 2.77085 12.4515 2.00598 10.3848C1.5349 9.12355 1.36268 8.14087 1.43866 7.21391C1.48932 6.62126 1.71726 6.12992 2.13768 5.70949L3.86497 3.9822C4.11317 3.7492 4.37657 3.62256 4.63491 3.62256C4.95403 3.62256 5.21236 3.81505 5.37445 3.97714C5.37952 3.9822 5.38458 3.98727 5.38965 3.99233C5.69863 4.28106 5.99243 4.57992 6.30141 4.89903C6.45844 5.06113 6.62053 5.22322 6.78262 5.39037L8.16547 6.77322C8.7024 7.31015 8.7024 7.80655 8.16547 8.34348C8.01857 8.49038 7.87674 8.63727 7.72984 8.7791C7.30435 9.21472 6.89913 9.61995 6.45844 10.0151C6.44831 10.0252 6.43818 10.0302 6.43311 10.0404C5.99749 10.476 6.07854 10.9015 6.16971 11.1902C6.17478 11.2054 6.17984 11.2206 6.18491 11.2358C6.54455 12.107 7.05109 12.9276 7.82102 13.9053L7.82609 13.9103C9.22413 15.6325 10.6981 16.9749 12.3241 18.0031C12.5318 18.1348 12.7446 18.2412 12.9472 18.3425C13.1295 18.4337 13.3017 18.5198 13.4486 18.611C13.4689 18.6211 13.4892 18.6363 13.5094 18.6464C13.6816 18.7325 13.8437 18.7731 14.0109 18.7731C14.4313 18.7731 14.6947 18.5097 14.7808 18.4236L16.5132 16.6912C16.6854 16.519 16.9589 16.3113 17.2781 16.3113C17.5921 16.3113 17.8504 16.5088 18.0075 16.6811C18.0125 16.6861 18.0125 16.6861 18.0176 16.6912L20.8086 19.4822C21.3303 19.9989 21.3303 20.5307 20.8137 21.0677Z" fill="black"/>
<path d="M13.0029 6.57566C14.33 6.79853 15.5356 7.42664 16.498 8.38906C17.4604 9.35148 18.0834 10.557 18.3114 11.8842C18.3671 12.2185 18.6558 12.4515 18.9851 12.4515C19.0256 12.4515 19.0611 12.4464 19.1016 12.4413C19.4764 12.3806 19.7246 12.026 19.6638 11.6512C19.3903 10.0454 18.6305 8.58154 17.4705 7.42157C16.3106 6.26161 14.8467 5.5018 13.2409 5.22827C12.8661 5.16749 12.5166 5.41569 12.4508 5.78546C12.3849 6.15523 12.628 6.51487 13.0029 6.57566Z" fill="black"/>
<path d="M24.0049 11.4536C23.554 8.80949 22.308 6.40344 20.3933 4.48873C18.4785 2.57402 16.0725 1.32794 13.4284 0.877124C13.0586 0.811275 12.7091 1.06454 12.6432 1.43431C12.5825 1.80915 12.8307 2.15866 13.2055 2.22451C15.566 2.62468 17.7187 3.74412 19.4308 5.45115C21.1429 7.16324 22.2573 9.31602 22.6575 11.6765C22.7132 12.0108 23.0019 12.2438 23.3312 12.2438C23.3717 12.2438 23.4071 12.2387 23.4477 12.2337C23.8174 12.178 24.0707 11.8234 24.0049 11.4536Z" fill="black"/>
</g>
<defs>
<clipPath id="clip0_9_1807">
<rect width="24" height="24" fill="white" transform="translate(0.0327148 0.866699)"/>
</clipPath>
</defs>
</svg>
