<svg width="400" height="238" viewBox="0 0 400 238" fill="none" xmlns="http://www.w3.org/2000/svg">
<g clip-path="url(#clip0_0_405)">
<rect width="400" height="237.942" rx="10.2894" fill="white"/>
<path d="M293.004 104.604C294.381 100.571 298.767 98.4179 302.8 99.7952L389.653 129.454C391.671 130.143 393.314 131.636 394.192 133.58L408.12 164.413C408.927 166.2 409.024 168.228 408.39 170.083L367.088 291.033C365.711 295.066 361.325 297.22 357.291 295.842L248.536 258.705C244.503 257.327 242.35 252.941 243.727 248.908L293.004 104.604Z" fill="#CBC3F0"/>
<path d="M290.689 99.2644C292.066 95.2311 296.452 93.0779 300.485 94.4552L393.771 126.31C395.76 126.99 397.386 128.451 398.273 130.357L413.449 162.962C414.29 164.768 414.399 166.828 413.756 168.712L370.603 295.082C369.226 299.115 364.84 301.268 360.807 299.891L243.959 259.99C239.926 258.612 237.772 254.226 239.15 250.193L290.689 99.2644Z" fill="#CBC3F0" fill-opacity="0.25"/>
<rect x="301.781" y="113.925" width="80.6555" height="9.6463" rx="4.82315" transform="rotate(18.854 301.781 113.925)" fill="white"/>
<rect x="274.266" y="192.87" width="48.0923" height="33.4405" rx="5.14469" transform="rotate(18.854 274.266 192.87)" fill="white" fill-opacity="0.5"/>
<rect x="325.656" y="209.06" width="49.3748" height="33.4405" rx="5.14469" transform="rotate(18.854 325.656 209.06)" fill="white" fill-opacity="0.5"/>
<rect x="260.1" y="235.024" width="103.705" height="11.0397" rx="5.14469" transform="rotate(18.854 260.1 235.024)" fill="white" fill-opacity="0.5"/>
<ellipse cx="339.174" cy="171.204" rx="24.1158" ry="25.4019" transform="rotate(18.854 339.174 171.204)" fill="#E5E1F8"/>
<path d="M337.462 171.36C339.402 169.701 342.186 169.281 344.188 167.91C346.301 166.477 346.717 162.593 342.595 161.185C339.896 160.263 337.916 161.726 336.815 163.121L333.234 160.077C335.457 157.278 339.475 155.593 343.964 157.126C347.718 158.408 349.744 160.887 350.369 163.339C350.9 165.441 350.456 168.881 347.914 170.686C345.092 172.679 342.979 172.86 341.406 174.227C340.772 174.779 340.459 175.173 339.703 177.388L335.086 175.811C335.468 174.639 335.926 172.673 337.462 171.36ZM338.49 183.656C337.928 185.301 336.03 186.157 334.273 185.557C332.516 184.957 331.538 183.119 332.1 181.474C332.662 179.828 334.559 178.972 336.317 179.572C338.074 180.173 339.052 182.01 338.49 183.656Z" fill="white"/>
<path d="M39.7762 139.026C38.6732 134.909 41.1162 130.678 45.233 129.575L134.176 105.742C136.232 105.192 138.425 105.514 140.235 106.635L169.05 124.469C170.721 125.503 171.935 127.135 172.443 129.033L205.52 252.479C206.624 256.596 204.18 260.827 200.064 261.931L88.6937 291.772C84.5769 292.875 80.3453 290.432 79.2423 286.315L39.7762 139.026Z" fill="#F99A85"/>
<path d="M34.7948 136.15C33.6917 132.034 36.1348 127.802 40.2516 126.699L135.838 101.087C137.893 100.536 140.084 100.858 141.894 101.977L172.984 121.201C174.657 122.235 175.871 123.868 176.38 125.767L211.815 258.011C212.918 262.128 210.475 266.36 206.358 267.463L86.5695 299.56C82.4527 300.663 78.2212 298.22 77.1181 294.103L34.7948 136.15Z" fill="#F99A85" fill-opacity="0.2"/>
<rect x="52.0516" y="142.185" width="81.3448" height="15.6879" rx="5.14469" transform="rotate(-15 52.0516 142.185)" fill="white"/>
<rect x="58.5181" y="166.318" width="104.005" height="8.71552" rx="4.35776" transform="rotate(-15 58.5181 166.318)" fill="white" fill-opacity="0.5"/>
<rect x="63.4806" y="184.839" width="104.005" height="8.71552" rx="4.35776" transform="rotate(-15 63.4806 184.839)" fill="white" fill-opacity="0.5"/>
<rect x="68.5936" y="203.921" width="104.005" height="8.71552" rx="4.35776" transform="rotate(-15 68.5936 203.921)" fill="white" fill-opacity="0.5"/>
<rect x="73.7065" y="223.003" width="104.005" height="33.119" rx="5.14469" transform="rotate(-15 73.7065 223.003)" fill="white" fill-opacity="0.5"/>
<path d="M11.5859 39.2219V25.8071H14.0348V37.0611H19.7788V39.2219H11.5859ZM25.8104 39.4379C24.802 39.4379 23.9197 39.2099 23.1635 38.7537C22.4072 38.2975 21.819 37.6793 21.3988 36.899C20.9787 36.1188 20.7686 35.2544 20.7686 34.3061C20.7686 33.3218 20.9787 32.4514 21.3988 31.6952C21.831 30.9269 22.4132 30.3207 23.1455 29.8765C23.8897 29.4324 24.718 29.2103 25.6303 29.2103C26.3986 29.2103 27.0709 29.3363 27.6471 29.5884C28.2353 29.8405 28.7335 30.1886 29.1416 30.6328C29.5497 31.077 29.8619 31.5871 30.0779 32.1633C30.294 32.7275 30.402 33.3398 30.402 34C30.402 34.1681 30.39 34.3421 30.366 34.5222C30.354 34.7022 30.324 34.8583 30.276 34.9904H22.7133V33.1897H28.9435L27.8271 34.036C27.9352 33.4838 27.9052 32.9916 27.7371 32.5595C27.581 32.1273 27.3169 31.7852 26.9448 31.5331C26.5847 31.281 26.1465 31.155 25.6303 31.155C25.1382 31.155 24.7 31.281 24.3159 31.5331C23.9317 31.7732 23.6376 32.1333 23.4336 32.6135C23.2415 33.0817 23.1695 33.6519 23.2175 34.3241C23.1695 34.9243 23.2475 35.4585 23.4516 35.9267C23.6676 36.3828 23.9798 36.737 24.3879 36.9891C24.8081 37.2412 25.2882 37.3672 25.8284 37.3672C26.3686 37.3672 26.8248 37.2532 27.1969 37.0251C27.581 36.797 27.8811 36.4909 28.0972 36.1068L30.0059 37.0431C29.8138 37.5113 29.5137 37.9254 29.1056 38.2855C28.6974 38.6457 28.2113 38.9278 27.6471 39.1318C27.0949 39.3359 26.4826 39.4379 25.8104 39.4379ZM35.1261 39.4379C34.4418 39.4379 33.8476 39.3239 33.3434 39.0958C32.8392 38.8677 32.4491 38.5436 32.173 38.1235C31.8969 37.6913 31.7589 37.1931 31.7589 36.6289C31.7589 36.0887 31.8789 35.6086 32.119 35.1884C32.3591 34.7563 32.7312 34.3961 33.2354 34.108C33.7396 33.8199 34.3758 33.6159 35.1441 33.4958L38.3492 32.9736V34.7743L35.5942 35.2424C35.1261 35.3265 34.7779 35.4765 34.5499 35.6926C34.3218 35.9087 34.2077 36.1908 34.2077 36.5389C34.2077 36.875 34.3338 37.1451 34.5859 37.3492C34.85 37.5413 35.1741 37.6373 35.5582 37.6373C36.0504 37.6373 36.4825 37.5353 36.8547 37.3312C37.2388 37.1151 37.5329 36.821 37.737 36.4489C37.9531 36.0767 38.0611 35.6686 38.0611 35.2244V32.7035C38.0611 32.2834 37.8931 31.9353 37.5569 31.6592C37.2328 31.3711 36.8007 31.227 36.2605 31.227C35.7563 31.227 35.3061 31.3651 34.91 31.6412C34.5258 31.9052 34.2437 32.2594 34.0637 32.7035L32.137 31.7672C32.3291 31.251 32.6292 30.8069 33.0373 30.4347C33.4575 30.0506 33.9496 29.7505 34.5138 29.5344C35.078 29.3183 35.6903 29.2103 36.3505 29.2103C37.1548 29.2103 37.863 29.3603 38.4753 29.6604C39.0875 29.9486 39.5616 30.3567 39.8978 30.8849C40.2459 31.4011 40.42 32.0073 40.42 32.7035V39.2219H38.1872V37.5473L38.6913 37.5113C38.4392 37.9314 38.1391 38.2855 37.791 38.5736C37.4429 38.8497 37.0467 39.0658 36.6026 39.2219C36.1584 39.3659 35.6663 39.4379 35.1261 39.4379ZM42.6001 39.2219V29.4264H44.8149V31.6051L44.6349 31.281C44.8629 30.5488 45.2171 30.0386 45.6972 29.7505C46.1894 29.4624 46.7776 29.3183 47.4619 29.3183H48.0381V31.4071H47.1918C46.5195 31.4071 45.9793 31.6171 45.5712 32.0373C45.1631 32.4454 44.959 33.0216 44.959 33.7659V39.2219H42.6001ZM49.335 39.2219V29.4264H51.5498V31.3531L51.3697 31.0109C51.5978 30.4227 51.9699 29.9786 52.4861 29.6785C53.0143 29.3663 53.6265 29.2103 54.3227 29.2103C55.043 29.2103 55.6792 29.3663 56.2314 29.6785C56.7956 29.9906 57.2338 30.4287 57.5459 30.9929C57.858 31.5451 58.0141 32.1874 58.0141 32.9196V39.2219H55.6552V33.4778C55.6552 33.0457 55.5712 32.6735 55.4031 32.3614C55.2351 32.0493 55.001 31.8092 54.7009 31.6412C54.4128 31.4611 54.0707 31.3711 53.6745 31.3711C53.2904 31.3711 52.9483 31.4611 52.6481 31.6412C52.348 31.8092 52.114 32.0493 51.9459 32.3614C51.7778 32.6735 51.6938 33.0457 51.6938 33.4778V39.2219H49.335ZM67.6747 39.3299C66.5703 39.3299 65.712 39.0298 65.0997 38.4296C64.4995 37.8174 64.1994 36.9591 64.1994 35.8547V31.5331H62.5068V29.4264H62.6869C63.167 29.4264 63.5392 29.3003 63.8033 29.0482C64.0674 28.7961 64.1994 28.43 64.1994 27.9498V27.1936H66.5583V29.4264H68.8091V31.5331H66.5583V35.7286C66.5583 36.0527 66.6123 36.3288 66.7203 36.5569C66.8404 36.785 67.0204 36.9591 67.2605 37.0791C67.5126 37.1991 67.8307 37.2592 68.2148 37.2592C68.2989 37.2592 68.3949 37.2532 68.503 37.2412C68.623 37.2292 68.737 37.2171 68.8451 37.2051V39.2219C68.677 39.2459 68.4849 39.2699 68.2689 39.2939C68.0528 39.3179 67.8547 39.3299 67.6747 39.3299ZM70.6473 39.2219V25.591H73.0061V31.3531L72.682 31.0109C72.9101 30.4227 73.2822 29.9786 73.7984 29.6785C74.3266 29.3663 74.9388 29.2103 75.635 29.2103C76.3553 29.2103 76.9915 29.3663 77.5437 29.6785C78.1079 29.9906 78.5461 30.4287 78.8582 30.9929C79.1703 31.5451 79.3264 32.1874 79.3264 32.9196V39.2219H76.9675V33.4778C76.9675 33.0457 76.8835 32.6735 76.7154 32.3614C76.5474 32.0493 76.3133 31.8092 76.0132 31.6412C75.7251 31.4611 75.383 31.3711 74.9868 31.3711C74.6027 31.3711 74.2606 31.4611 73.9604 31.6412C73.6603 31.8092 73.4263 32.0493 73.2582 32.3614C73.0901 32.6735 73.0061 33.0457 73.0061 33.4778V39.2219H70.6473ZM81.321 39.2219V29.4264H83.5358V31.6051L83.3557 31.281C83.5838 30.5488 83.9379 30.0386 84.4181 29.7505C84.9103 29.4624 85.4985 29.3183 86.1827 29.3183H86.7589V31.4071H85.9126C85.2404 31.4071 84.7002 31.6171 84.2921 32.0373C83.8839 32.4454 83.6798 33.0216 83.6798 33.7659V39.2219H81.321ZM92.8455 39.4379C91.8852 39.4379 91.0089 39.2159 90.2166 38.7717C89.4363 38.3275 88.8121 37.7213 88.3439 36.9531C87.8878 36.1848 87.6597 35.3085 87.6597 34.3241C87.6597 33.3398 87.8878 32.4634 88.3439 31.6952C88.8121 30.9269 89.4363 30.3207 90.2166 29.8765C90.9969 29.4324 91.8732 29.2103 92.8455 29.2103C93.8059 29.2103 94.6762 29.4324 95.4565 29.8765C96.2367 30.3207 96.855 30.9269 97.3111 31.6952C97.7793 32.4514 98.0134 33.3278 98.0134 34.3241C98.0134 35.3085 97.7793 36.1848 97.3111 36.9531C96.843 37.7213 96.2187 38.3275 95.4385 38.7717C94.6582 39.2159 93.7939 39.4379 92.8455 39.4379ZM92.8455 37.2772C93.3737 37.2772 93.8359 37.1511 94.232 36.899C94.6402 36.6469 94.9583 36.2988 95.1864 35.8547C95.4265 35.3985 95.5465 34.8883 95.5465 34.3241C95.5465 33.7479 95.4265 33.2437 95.1864 32.8116C94.9583 32.3674 94.6402 32.0193 94.232 31.7672C93.8359 31.5031 93.3737 31.3711 92.8455 31.3711C92.3053 31.3711 91.8312 31.5031 91.423 31.7672C91.0149 32.0193 90.6908 32.3674 90.4507 32.8116C90.2226 33.2437 90.1086 33.7479 90.1086 34.3241C90.1086 34.8883 90.2226 35.3985 90.4507 35.8547C90.6908 36.2988 91.0149 36.6469 91.423 36.899C91.8312 37.1511 92.3053 37.2772 92.8455 37.2772ZM103.295 39.4379C102.539 39.4379 101.879 39.2699 101.315 38.9338C100.763 38.5976 100.336 38.1295 100.036 37.5293C99.7482 36.929 99.6041 36.2268 99.6041 35.4225V29.4264H101.963V35.2244C101.963 35.6326 102.041 35.9927 102.197 36.3048C102.365 36.6049 102.599 36.845 102.899 37.0251C103.211 37.1931 103.56 37.2772 103.944 37.2772C104.328 37.2772 104.67 37.1931 104.97 37.0251C105.27 36.845 105.504 36.5989 105.672 36.2868C105.84 35.9747 105.924 35.6026 105.924 35.1704V29.4264H108.283V39.2219H106.05V37.2952L106.249 37.6373C106.02 38.2375 105.642 38.6877 105.114 38.9878C104.598 39.2879 103.992 39.4379 103.295 39.4379ZM115.23 43.1833C114.497 43.1833 113.819 43.0632 113.195 42.8231C112.571 42.5831 112.03 42.2469 111.574 41.8148C111.13 41.3946 110.806 40.8965 110.602 40.3203L112.799 39.492C112.943 39.9481 113.225 40.3143 113.645 40.5904C114.077 40.8785 114.605 41.0225 115.23 41.0225C115.71 41.0225 116.13 40.9325 116.49 40.7524C116.862 40.5723 117.15 40.3083 117.354 39.9601C117.558 39.624 117.66 39.2159 117.66 38.7357V36.5029L118.111 37.0431C117.775 37.6313 117.324 38.0755 116.76 38.3756C116.196 38.6757 115.554 38.8257 114.833 38.8257C113.921 38.8257 113.105 38.6156 112.385 38.1955C111.664 37.7753 111.1 37.1991 110.692 36.4669C110.284 35.7346 110.08 34.9123 110.08 34C110.08 33.0757 110.284 32.2534 110.692 31.5331C111.1 30.8129 111.658 30.2487 112.367 29.8405C113.075 29.4204 113.879 29.2103 114.779 29.2103C115.512 29.2103 116.154 29.3663 116.706 29.6785C117.27 29.9786 117.739 30.4167 118.111 30.9929L117.787 31.5871V29.4264H120.019V38.7357C120.019 39.588 119.809 40.3503 119.389 41.0225C118.981 41.6947 118.417 42.2229 117.697 42.6071C116.988 42.9912 116.166 43.1833 115.23 43.1833ZM115.122 36.6469C115.626 36.6469 116.064 36.5389 116.436 36.3228C116.82 36.0947 117.12 35.7826 117.336 35.3865C117.552 34.9904 117.66 34.5342 117.66 34.018C117.66 33.5138 117.546 33.0637 117.318 32.6675C117.102 32.2594 116.802 31.9413 116.418 31.7132C116.046 31.4851 115.614 31.3711 115.122 31.3711C114.629 31.3711 114.185 31.4851 113.789 31.7132C113.393 31.9413 113.081 32.2594 112.853 32.6675C112.637 33.0637 112.529 33.5138 112.529 34.018C112.529 34.5222 112.637 34.9723 112.853 35.3685C113.081 35.7646 113.387 36.0767 113.771 36.3048C114.167 36.5329 114.617 36.6469 115.122 36.6469ZM122.222 39.2219V25.591H124.581V31.3531L124.257 31.0109C124.485 30.4227 124.857 29.9786 125.373 29.6785C125.902 29.3663 126.514 29.2103 127.21 29.2103C127.93 29.2103 128.567 29.3663 129.119 29.6785C129.683 29.9906 130.121 30.4287 130.433 30.9929C130.745 31.5451 130.901 32.1874 130.901 32.9196V39.2219H128.543V33.4778C128.543 33.0457 128.459 32.6735 128.29 32.3614C128.122 32.0493 127.888 31.8092 127.588 31.6412C127.3 31.4611 126.958 31.3711 126.562 31.3711C126.178 31.3711 125.836 31.4611 125.535 31.6412C125.235 31.8092 125.001 32.0493 124.833 32.3614C124.665 32.6735 124.581 33.0457 124.581 33.4778V39.2219H122.222ZM135.7 39.2219V36.9711H136.475C137.051 36.9711 137.507 36.809 137.843 36.4849C138.191 36.1488 138.365 35.7046 138.365 35.1524V25.8071H140.832V35.0624C140.832 35.8907 140.652 36.6169 140.292 37.2412C139.944 37.8654 139.44 38.3516 138.779 38.6997C138.131 39.0478 137.363 39.2219 136.475 39.2219H135.7ZM147.955 39.4379C146.995 39.4379 146.118 39.2159 145.326 38.7717C144.546 38.3275 143.922 37.7213 143.453 36.9531C142.997 36.1848 142.769 35.3085 142.769 34.3241C142.769 33.3398 142.997 32.4634 143.453 31.6952C143.922 30.9269 144.546 30.3207 145.326 29.8765C146.106 29.4324 146.983 29.2103 147.955 29.2103C148.915 29.2103 149.786 29.4324 150.566 29.8765C151.346 30.3207 151.964 30.9269 152.421 31.6952C152.889 32.4514 153.123 33.3278 153.123 34.3241C153.123 35.3085 152.889 36.1848 152.421 36.9531C151.952 37.7213 151.328 38.3275 150.548 38.7717C149.768 39.2159 148.903 39.4379 147.955 39.4379ZM147.955 37.2772C148.483 37.2772 148.945 37.1511 149.342 36.899C149.75 36.6469 150.068 36.2988 150.296 35.8547C150.536 35.3985 150.656 34.8883 150.656 34.3241C150.656 33.7479 150.536 33.2437 150.296 32.8116C150.068 32.3674 149.75 32.0193 149.342 31.7672C148.945 31.5031 148.483 31.3711 147.955 31.3711C147.415 31.3711 146.941 31.5031 146.533 31.7672C146.124 32.0193 145.8 32.3674 145.56 32.8116C145.332 33.2437 145.218 33.7479 145.218 34.3241C145.218 34.8883 145.332 35.3985 145.56 35.8547C145.8 36.2988 146.124 36.6469 146.533 36.899C146.941 37.1511 147.415 37.2772 147.955 37.2772ZM160.26 39.4379C159.551 39.4379 158.897 39.2999 158.297 39.0238C157.709 38.7357 157.241 38.3275 156.892 37.7994L157.127 37.3312V39.2219H154.912V25.591H157.271V31.3711L156.91 30.8849C157.247 30.3567 157.703 29.9486 158.279 29.6604C158.855 29.3603 159.521 29.2103 160.278 29.2103C161.202 29.2103 162.036 29.4384 162.781 29.8945C163.525 30.3507 164.113 30.9629 164.545 31.7312C164.989 32.4995 165.211 33.3638 165.211 34.3241C165.211 35.2725 164.995 36.1368 164.563 36.917C164.131 37.6973 163.543 38.3155 162.799 38.7717C162.054 39.2159 161.208 39.4379 160.26 39.4379ZM159.99 37.2772C160.53 37.2772 161.01 37.1511 161.43 36.899C161.85 36.6469 162.174 36.2988 162.402 35.8547C162.642 35.4105 162.763 34.9003 162.763 34.3241C162.763 33.7479 162.642 33.2437 162.402 32.8116C162.174 32.3674 161.85 32.0193 161.43 31.7672C161.01 31.5031 160.53 31.3711 159.99 31.3711C159.473 31.3711 159.005 31.4971 158.585 31.7492C158.177 32.0013 157.853 32.3554 157.613 32.8116C157.385 33.2557 157.271 33.7599 157.271 34.3241C157.271 34.9003 157.385 35.4105 157.613 35.8547C157.853 36.2988 158.177 36.6469 158.585 36.899C159.005 37.1511 159.473 37.2772 159.99 37.2772ZM175.198 39.4379C174.346 39.4379 173.553 39.2819 172.821 38.9698C172.101 38.6577 171.477 38.2255 170.948 37.6733C170.432 37.1091 170.054 36.4549 169.814 35.7106L171.849 34.8283C172.173 35.5966 172.641 36.2028 173.253 36.6469C173.865 37.0791 174.556 37.2952 175.324 37.2952C175.756 37.2952 176.128 37.2292 176.44 37.0971C176.765 36.9531 177.011 36.761 177.179 36.5209C177.359 36.2808 177.449 35.9927 177.449 35.6566C177.449 35.2604 177.329 34.9363 177.089 34.6842C176.861 34.4201 176.512 34.2161 176.044 34.072L173.469 33.2437C172.425 32.9196 171.639 32.4334 171.11 31.7852C170.582 31.137 170.318 30.3747 170.318 29.4984C170.318 28.7301 170.504 28.0519 170.876 27.4637C171.261 26.8755 171.789 26.4193 172.461 26.0952C173.145 25.7591 173.925 25.591 174.802 25.591C175.606 25.591 176.344 25.735 177.017 26.0231C177.689 26.2992 178.265 26.6894 178.745 27.1936C179.237 27.6857 179.604 28.268 179.844 28.9402L177.827 29.8405C177.563 29.1683 177.167 28.6521 176.638 28.292C176.11 27.9198 175.498 27.7338 174.802 27.7338C174.394 27.7338 174.034 27.8058 173.721 27.9498C173.409 28.0819 173.163 28.274 172.983 28.526C172.815 28.7661 172.731 29.0542 172.731 29.3904C172.731 29.7625 172.851 30.0926 173.091 30.3807C173.331 30.6568 173.697 30.8729 174.19 31.0289L176.656 31.8032C177.725 32.1513 178.523 32.6315 179.051 33.2437C179.592 33.8559 179.862 34.6122 179.862 35.5125C179.862 36.2808 179.664 36.9591 179.267 37.5473C178.871 38.1355 178.325 38.5976 177.629 38.9338C176.933 39.2699 176.122 39.4379 175.198 39.4379ZM181.869 39.2219V29.4264H184.227V39.2219H181.869ZM181.869 28.328V25.8071H184.227V28.328H181.869ZM186.405 39.2219V29.4264H188.62V31.6952L188.368 31.317C188.548 30.6088 188.908 30.0806 189.448 29.7325C189.989 29.3843 190.625 29.2103 191.357 29.2103C192.161 29.2103 192.87 29.4204 193.482 29.8405C194.094 30.2607 194.49 30.8129 194.67 31.4971L194.004 31.5511C194.304 30.7708 194.754 30.1886 195.355 29.8045C195.955 29.4084 196.645 29.2103 197.425 29.2103C198.122 29.2103 198.74 29.3663 199.28 29.6785C199.832 29.9906 200.264 30.4287 200.576 30.9929C200.889 31.5451 201.045 32.1874 201.045 32.9196V39.2219H198.686V33.4778C198.686 33.0457 198.608 32.6735 198.452 32.3614C198.296 32.0493 198.08 31.8092 197.803 31.6412C197.527 31.4611 197.191 31.3711 196.795 31.3711C196.423 31.3711 196.093 31.4611 195.805 31.6412C195.517 31.8092 195.295 32.0493 195.139 32.3614C194.982 32.6735 194.904 33.0457 194.904 33.4778V39.2219H192.546V33.4778C192.546 33.0457 192.468 32.6735 192.312 32.3614C192.155 32.0493 191.933 31.8092 191.645 31.6412C191.369 31.4611 191.039 31.3711 190.655 31.3711C190.283 31.3711 189.953 31.4611 189.665 31.6412C189.376 31.8092 189.154 32.0493 188.998 32.3614C188.842 32.6735 188.764 33.0457 188.764 33.4778V39.2219H186.405ZM206.533 39.4379C205.777 39.4379 205.117 39.2699 204.553 38.9338C204.001 38.5976 203.574 38.1295 203.274 37.5293C202.986 36.929 202.842 36.2268 202.842 35.4225V29.4264H205.201V35.2244C205.201 35.6326 205.279 35.9927 205.435 36.3048C205.603 36.6049 205.837 36.845 206.137 37.0251C206.449 37.1931 206.798 37.2772 207.182 37.2772C207.566 37.2772 207.908 37.1931 208.208 37.0251C208.508 36.845 208.742 36.5989 208.91 36.2868C209.078 35.9747 209.162 35.6026 209.162 35.1704V29.4264H211.521V39.2219H209.288V37.2952L209.487 37.6373C209.258 38.2375 208.88 38.6877 208.352 38.9878C207.836 39.2879 207.23 39.4379 206.533 39.4379ZM213.714 39.2219V25.591H216.073V39.2219H213.714ZM221.222 39.4379C220.538 39.4379 219.943 39.3239 219.439 39.0958C218.935 38.8677 218.545 38.5436 218.269 38.1235C217.993 37.6913 217.855 37.1931 217.855 36.6289C217.855 36.0887 217.975 35.6086 218.215 35.1884C218.455 34.7563 218.827 34.3961 219.331 34.108C219.835 33.8199 220.472 33.6159 221.24 33.4958L224.445 32.9736V34.7743L221.69 35.2424C221.222 35.3265 220.874 35.4765 220.646 35.6926C220.418 35.9087 220.303 36.1908 220.303 36.5389C220.303 36.875 220.43 37.1451 220.682 37.3492C220.946 37.5413 221.27 37.6373 221.654 37.6373C222.146 37.6373 222.578 37.5353 222.95 37.3312C223.335 37.1151 223.629 36.821 223.833 36.4489C224.049 36.0767 224.157 35.6686 224.157 35.2244V32.7035C224.157 32.2834 223.989 31.9353 223.653 31.6592C223.329 31.3711 222.896 31.227 222.356 31.227C221.852 31.227 221.402 31.3651 221.006 31.6412C220.622 31.9052 220.339 32.2594 220.159 32.7035L218.233 31.7672C218.425 31.251 218.725 30.8069 219.133 30.4347C219.553 30.0506 220.045 29.7505 220.61 29.5344C221.174 29.3183 221.786 29.2103 222.446 29.2103C223.251 29.2103 223.959 29.3603 224.571 29.6604C225.183 29.9486 225.657 30.3567 225.994 30.8849C226.342 31.4011 226.516 32.0073 226.516 32.7035V39.2219H224.283V37.5473L224.787 37.5113C224.535 37.9314 224.235 38.2855 223.887 38.5736C223.539 38.8497 223.142 39.0658 222.698 39.2219C222.254 39.3659 221.762 39.4379 221.222 39.4379ZM232.986 39.3299C231.881 39.3299 231.023 39.0298 230.411 38.4296C229.81 37.8174 229.51 36.9591 229.51 35.8547V31.5331H227.818V29.4264H227.998C228.478 29.4264 228.85 29.3003 229.114 29.0482C229.378 28.7961 229.51 28.43 229.51 27.9498V27.1936H231.869V29.4264H234.12V31.5331H231.869V35.7286C231.869 36.0527 231.923 36.3288 232.031 36.5569C232.151 36.785 232.331 36.9591 232.571 37.0791C232.824 37.1991 233.142 37.2592 233.526 37.2592C233.61 37.2592 233.706 37.2532 233.814 37.2412C233.934 37.2292 234.048 37.2171 234.156 37.2051V39.2219C233.988 39.2459 233.796 39.2699 233.58 39.2939C233.364 39.3179 233.166 39.3299 232.986 39.3299ZM235.958 39.2219V29.4264H238.317V39.2219H235.958ZM235.958 28.328V25.8071H238.317V28.328H235.958ZM245.285 39.4379C244.324 39.4379 243.448 39.2159 242.656 38.7717C241.876 38.3275 241.251 37.7213 240.783 36.9531C240.327 36.1848 240.099 35.3085 240.099 34.3241C240.099 33.3398 240.327 32.4634 240.783 31.6952C241.251 30.9269 241.876 30.3207 242.656 29.8765C243.436 29.4324 244.312 29.2103 245.285 29.2103C246.245 29.2103 247.115 29.4324 247.896 29.8765C248.676 30.3207 249.294 30.9269 249.75 31.6952C250.218 32.4514 250.453 33.3278 250.453 34.3241C250.453 35.3085 250.218 36.1848 249.75 36.9531C249.282 37.7213 248.658 38.3275 247.878 38.7717C247.097 39.2159 246.233 39.4379 245.285 39.4379ZM245.285 37.2772C245.813 37.2772 246.275 37.1511 246.671 36.899C247.079 36.6469 247.397 36.2988 247.626 35.8547C247.866 35.3985 247.986 34.8883 247.986 34.3241C247.986 33.7479 247.866 33.2437 247.626 32.8116C247.397 32.3674 247.079 32.0193 246.671 31.7672C246.275 31.5031 245.813 31.3711 245.285 31.3711C244.745 31.3711 244.27 31.5031 243.862 31.7672C243.454 32.0193 243.13 32.3674 242.89 32.8116C242.662 33.2437 242.548 33.7479 242.548 34.3241C242.548 34.8883 242.662 35.3985 242.89 35.8547C243.13 36.2988 243.454 36.6469 243.862 36.899C244.27 37.1511 244.745 37.2772 245.285 37.2772ZM252.241 39.2219V29.4264H254.456V31.3531L254.276 31.0109C254.504 30.4227 254.876 29.9786 255.393 29.6785C255.921 29.3663 256.533 29.2103 257.229 29.2103C257.949 29.2103 258.586 29.3663 259.138 29.6785C259.702 29.9906 260.14 30.4287 260.452 30.9929C260.764 31.5451 260.92 32.1874 260.92 32.9196V39.2219H258.562V33.4778C258.562 33.0457 258.478 32.6735 258.31 32.3614C258.142 32.0493 257.907 31.8092 257.607 31.6412C257.319 31.4611 256.977 31.3711 256.581 31.3711C256.197 31.3711 255.855 31.4611 255.555 31.6412C255.254 31.8092 255.02 32.0493 254.852 32.3614C254.684 32.6735 254.6 33.0457 254.6 33.4778V39.2219H252.241ZM266.314 39.2219V25.8071H271.319C272.232 25.8071 273.036 25.9751 273.732 26.3113C274.44 26.6354 274.993 27.1155 275.389 27.7518C275.785 28.376 275.983 29.1383 275.983 30.0386C275.983 30.9269 275.779 31.6892 275.371 32.3254C274.975 32.9496 274.428 33.4298 273.732 33.7659C273.036 34.102 272.232 34.2701 271.319 34.2701H268.762V39.2219H266.314ZM268.762 32.1093H271.355C271.8 32.1093 272.184 32.0253 272.508 31.8572C272.832 31.6772 273.084 31.4311 273.264 31.119C273.444 30.8069 273.534 30.4467 273.534 30.0386C273.534 29.6184 273.444 29.2583 273.264 28.9582C273.084 28.6461 272.832 28.406 272.508 28.2379C272.184 28.0579 271.8 27.9678 271.355 27.9678H268.762V32.1093ZM277.792 39.2219V29.4264H280.006V31.6051L279.826 31.281C280.054 30.5488 280.408 30.0386 280.889 29.7505C281.381 29.4624 281.969 29.3183 282.653 29.3183H283.229V31.4071H282.383C281.711 31.4071 281.171 31.6171 280.763 32.0373C280.354 32.4454 280.15 33.0216 280.15 33.7659V39.2219H277.792ZM289.316 39.4379C288.356 39.4379 287.479 39.2159 286.687 38.7717C285.907 38.3275 285.283 37.7213 284.814 36.9531C284.358 36.1848 284.13 35.3085 284.13 34.3241C284.13 33.3398 284.358 32.4634 284.814 31.6952C285.283 30.9269 285.907 30.3207 286.687 29.8765C287.467 29.4324 288.344 29.2103 289.316 29.2103C290.276 29.2103 291.147 29.4324 291.927 29.8765C292.707 30.3207 293.326 30.9269 293.782 31.6952C294.25 32.4514 294.484 33.3278 294.484 34.3241C294.484 35.3085 294.25 36.1848 293.782 36.9531C293.314 37.7213 292.689 38.3275 291.909 38.7717C291.129 39.2159 290.264 39.4379 289.316 39.4379ZM289.316 37.2772C289.844 37.2772 290.306 37.1511 290.703 36.899C291.111 36.6469 291.429 36.2988 291.657 35.8547C291.897 35.3985 292.017 34.8883 292.017 34.3241C292.017 33.7479 291.897 33.2437 291.657 32.8116C291.429 32.3674 291.111 32.0193 290.703 31.7672C290.306 31.5031 289.844 31.3711 289.316 31.3711C288.776 31.3711 288.302 31.5031 287.894 31.7672C287.485 32.0193 287.161 32.3674 286.921 32.8116C286.693 33.2437 286.579 33.7479 286.579 34.3241C286.579 34.8883 286.693 35.3985 286.921 35.8547C287.161 36.2988 287.485 36.6469 287.894 36.899C288.302 37.1511 288.776 37.2772 289.316 37.2772ZM294.922 43.2013C294.766 43.2013 294.604 43.1953 294.436 43.1833C294.268 43.1713 294.13 43.1533 294.022 43.1293V41.0765C294.238 41.1125 294.454 41.1305 294.67 41.1305C295.174 41.1305 295.564 41.0105 295.841 40.7704C296.129 40.5423 296.273 40.1882 296.273 39.708V29.4264H298.632V39.708C298.632 40.4523 298.482 41.0825 298.181 41.5987C297.881 42.1269 297.449 42.523 296.885 42.7871C296.333 43.0632 295.679 43.2013 294.922 43.2013ZM296.273 28.328V25.8071H298.632V28.328H296.273ZM305.455 39.4379C304.447 39.4379 303.564 39.2099 302.808 38.7537C302.052 38.2975 301.464 37.6793 301.044 36.899C300.623 36.1188 300.413 35.2544 300.413 34.3061C300.413 33.3218 300.623 32.4514 301.044 31.6952C301.476 30.9269 302.058 30.3207 302.79 29.8765C303.534 29.4324 304.363 29.2103 305.275 29.2103C306.043 29.2103 306.716 29.3363 307.292 29.5884C307.88 29.8405 308.378 30.1886 308.786 30.6328C309.195 31.077 309.507 31.5871 309.723 32.1633C309.939 32.7275 310.047 33.3398 310.047 34C310.047 34.1681 310.035 34.3421 310.011 34.5222C309.999 34.7022 309.969 34.8583 309.921 34.9904H302.358V33.1897H308.588L307.472 34.036C307.58 33.4838 307.55 32.9916 307.382 32.5595C307.226 32.1273 306.962 31.7852 306.59 31.5331C306.229 31.281 305.791 31.155 305.275 31.155C304.783 31.155 304.345 31.281 303.961 31.5331C303.577 31.7732 303.282 32.1333 303.078 32.6135C302.886 33.0817 302.814 33.6519 302.862 34.3241C302.814 34.9243 302.892 35.4585 303.096 35.9267C303.312 36.3828 303.625 36.737 304.033 36.9891C304.453 37.2412 304.933 37.3672 305.473 37.3672C306.013 37.3672 306.47 37.2532 306.842 37.0251C307.226 36.797 307.526 36.4909 307.742 36.1068L309.651 37.0431C309.459 37.5113 309.158 37.9254 308.75 38.2855C308.342 38.6457 307.856 38.9278 307.292 39.1318C306.74 39.3359 306.127 39.4379 305.455 39.4379ZM316.553 39.4379C315.58 39.4379 314.704 39.2159 313.924 38.7717C313.155 38.3155 312.549 37.7033 312.105 36.935C311.661 36.1548 311.439 35.2785 311.439 34.3061C311.439 33.3338 311.661 32.4634 312.105 31.6952C312.549 30.9269 313.155 30.3207 313.924 29.8765C314.704 29.4324 315.58 29.2103 316.553 29.2103C317.249 29.2103 317.897 29.3363 318.497 29.5884C319.098 29.8285 319.614 30.1646 320.046 30.5968C320.49 31.0169 320.808 31.5211 321 32.1093L318.929 33.0096C318.749 32.5175 318.443 32.1213 318.011 31.8212C317.591 31.5211 317.105 31.3711 316.553 31.3711C316.036 31.3711 315.574 31.4971 315.166 31.7492C314.77 32.0013 314.458 32.3494 314.23 32.7936C314.002 33.2377 313.888 33.7479 313.888 34.3241C313.888 34.9003 314.002 35.4105 314.23 35.8547C314.458 36.2988 314.77 36.6469 315.166 36.899C315.574 37.1511 316.036 37.2772 316.553 37.2772C317.117 37.2772 317.609 37.1271 318.029 36.827C318.449 36.5269 318.749 36.1248 318.929 35.6206L321 36.5569C320.808 37.1091 320.496 37.6073 320.064 38.0514C319.632 38.4836 319.116 38.8257 318.515 39.0778C317.915 39.3179 317.261 39.4379 316.553 39.4379ZM327.256 39.3299C326.151 39.3299 325.293 39.0298 324.681 38.4296C324.08 37.8174 323.78 36.9591 323.78 35.8547V31.5331H322.088V29.4264H322.268C322.748 29.4264 323.12 29.3003 323.384 29.0482C323.648 28.7961 323.78 28.43 323.78 27.9498V27.1936H326.139V29.4264H328.39V31.5331H326.139V35.7286C326.139 36.0527 326.193 36.3288 326.301 36.5569C326.421 36.785 326.601 36.9591 326.841 37.0791C327.094 37.1991 327.412 37.2592 327.796 37.2592C327.88 37.2592 327.976 37.2532 328.084 37.2412C328.204 37.2292 328.318 37.2171 328.426 37.2051V39.2219C328.258 39.2459 328.066 39.2699 327.85 39.2939C327.634 39.3179 327.436 39.3299 327.256 39.3299ZM333.956 39.4379C332.911 39.4379 331.999 39.1919 331.219 38.6997C330.45 38.1955 329.922 37.5173 329.634 36.6649L331.399 35.8186C331.651 36.3708 331.999 36.803 332.443 37.1151C332.899 37.4272 333.403 37.5833 333.956 37.5833C334.388 37.5833 334.73 37.4872 334.982 37.2952C335.234 37.1031 335.36 36.851 335.36 36.5389C335.36 36.3468 335.306 36.1908 335.198 36.0707C335.102 35.9387 334.964 35.8307 334.784 35.7466C334.616 35.6506 334.43 35.5726 334.226 35.5125L332.623 35.0624C331.795 34.8223 331.165 34.4562 330.732 33.964C330.312 33.4718 330.102 32.8896 330.102 32.2174C330.102 31.6171 330.252 31.095 330.552 30.6508C330.864 30.1946 331.291 29.8405 331.831 29.5884C332.383 29.3363 333.013 29.2103 333.721 29.2103C334.646 29.2103 335.462 29.4324 336.17 29.8765C336.879 30.3207 337.383 30.9449 337.683 31.7492L335.882 32.5955C335.714 32.1513 335.432 31.7972 335.036 31.5331C334.64 31.269 334.196 31.137 333.703 31.137C333.307 31.137 332.995 31.227 332.767 31.4071C332.539 31.5871 332.425 31.8212 332.425 32.1093C332.425 32.2894 332.473 32.4454 332.569 32.5775C332.665 32.7095 332.797 32.8176 332.965 32.9016C333.145 32.9856 333.349 33.0637 333.577 33.1357L335.144 33.6039C335.948 33.8439 336.567 34.2041 336.999 34.6842C337.443 35.1644 337.665 35.7526 337.665 36.4489C337.665 37.0371 337.509 37.5593 337.197 38.0154C336.885 38.4596 336.452 38.8077 335.9 39.0598C335.348 39.3119 334.7 39.4379 333.956 39.4379Z" fill="black"/>
<path d="M11.3081 66.5113V57.8875H16.8643V58.7556H12.2341V61.7537H16.6328V62.6219H12.2341V65.6431H16.8643V66.5113H11.3081ZM18.2685 66.5113V60.3068H19.1367V61.5106L18.9399 61.4643C19.0942 61.063 19.345 60.7466 19.6923 60.5151C20.0473 60.2836 20.4563 60.1678 20.9193 60.1678C21.3592 60.1678 21.7528 60.2682 22.1 60.4688C22.455 60.6695 22.7328 60.9473 22.9335 61.3023C23.1418 61.6495 23.246 62.0431 23.246 62.483V66.5113H22.3778V62.8186C22.3778 62.4405 22.3084 62.1203 22.1695 61.8579C22.0383 61.5955 21.8492 61.3949 21.6023 61.2559C21.3631 61.1093 21.0852 61.036 20.7688 61.036C20.4524 61.036 20.1708 61.1093 19.9238 61.2559C19.6769 61.3949 19.484 61.5994 19.345 61.8695C19.2061 62.1318 19.1367 62.4482 19.1367 62.8186V66.5113H18.2685ZM27.8443 69.0579C27.4199 69.0579 27.0263 68.9923 26.6636 68.8611C26.3086 68.7299 25.9999 68.5486 25.7376 68.317C25.4829 68.0932 25.2861 67.8309 25.1472 67.5299L25.9459 67.1016C26.0694 67.3949 26.2893 67.6495 26.6057 67.8656C26.9221 68.0817 27.3273 68.1897 27.8212 68.1897C28.1993 68.1897 28.5466 68.1164 28.863 67.9698C29.1794 67.8232 29.434 67.6071 29.6269 67.3215C29.8199 67.036 29.9163 66.6849 29.9163 66.2682V64.8907L30.0552 65.018C29.8392 65.4656 29.5189 65.8129 29.0945 66.0598C28.67 66.299 28.207 66.4186 27.7054 66.4186C27.1266 66.4186 26.6057 66.2797 26.1427 66.0019C25.6797 65.7241 25.3131 65.3498 25.043 64.8791C24.7806 64.4006 24.6495 63.872 24.6495 63.2932C24.6495 62.7068 24.7806 62.1781 25.043 61.7074C25.3131 61.2367 25.6758 60.8624 26.1311 60.5846C26.5942 60.3068 27.1189 60.1678 27.7054 60.1678C28.207 60.1678 28.6623 60.2836 29.0713 60.5151C29.488 60.7466 29.816 61.0592 30.0552 61.4527L29.9163 61.6958V60.3068H30.7845V66.2682C30.7845 66.8006 30.6572 67.2752 30.4025 67.692C30.1556 68.1164 29.8083 68.4482 29.3607 68.6875C28.9208 68.9344 28.4154 69.0579 27.8443 69.0579ZM27.7517 65.5505C28.153 65.5505 28.5157 65.4502 28.8398 65.2495C29.1639 65.0412 29.4224 64.7672 29.6154 64.4277C29.816 64.0804 29.9163 63.7023 29.9163 63.2932C29.9163 62.8842 29.816 62.51 29.6154 62.1704C29.4224 61.8232 29.1639 61.5492 28.8398 61.3486C28.5157 61.1402 28.153 61.036 27.7517 61.036C27.3427 61.036 26.9723 61.1402 26.6405 61.3486C26.3086 61.5492 26.0462 61.8193 25.8533 62.1588C25.6681 62.4984 25.5755 62.8765 25.5755 63.2932C25.5755 63.7023 25.6681 64.0804 25.8533 64.4277C26.0462 64.7672 26.3048 65.0412 26.6289 65.2495C26.9607 65.4502 27.335 65.5505 27.7517 65.5505ZM34.3626 66.6502C33.9691 66.6502 33.6179 66.5768 33.3092 66.4302C33.0006 66.2759 32.7575 66.0675 32.58 65.8051C32.4025 65.5428 32.3137 65.2418 32.3137 64.9023C32.3137 64.5781 32.3832 64.2849 32.5221 64.0225C32.661 63.7524 32.8771 63.5248 33.1703 63.3395C33.4636 63.1543 33.8379 63.0232 34.2932 62.946L36.724 62.5408V63.328L34.5015 63.6984C34.0539 63.7756 33.7298 63.9183 33.5292 64.1267C33.3363 64.335 33.2398 64.582 33.2398 64.8675C33.2398 65.1453 33.3478 65.3807 33.5639 65.5736C33.7877 65.7666 34.0732 65.863 34.4205 65.863C34.8449 65.863 35.2154 65.7743 35.5318 65.5968C35.8482 65.4116 36.0951 65.1646 36.2726 64.8559C36.4501 64.5473 36.5388 64.2039 36.5388 63.8257V62.2514C36.5388 61.881 36.4038 61.5801 36.1337 61.3486C35.8636 61.117 35.5125 61.0013 35.0803 61.0013C34.7022 61.0013 34.3703 61.0977 34.0848 61.2907C33.7993 61.4759 33.5871 61.719 33.4482 62.0199L32.661 61.5916C32.7768 61.3293 32.9581 61.09 33.2051 60.874C33.4597 60.6579 33.7491 60.4881 34.0732 60.3646C34.3973 60.2334 34.733 60.1678 35.0803 60.1678C35.5356 60.1678 35.9369 60.2566 36.2842 60.4341C36.6391 60.6116 36.9131 60.8585 37.106 61.1749C37.3067 61.4836 37.407 61.8424 37.407 62.2514V66.5113H36.5388V65.2727L36.6662 65.4C36.5581 65.6315 36.3883 65.8437 36.1568 66.0367C35.933 66.2219 35.6668 66.3723 35.3581 66.4881C35.0572 66.5961 34.7253 66.6502 34.3626 66.6502ZM42.1329 69.0579C41.7085 69.0579 41.3149 68.9923 40.9522 68.8611C40.5972 68.7299 40.2885 68.5486 40.0261 68.317C39.7715 68.0932 39.5747 67.8309 39.4358 67.5299L40.2345 67.1016C40.358 67.3949 40.5779 67.6495 40.8943 67.8656C41.2107 68.0817 41.6159 68.1897 42.1097 68.1897C42.4879 68.1897 42.8351 68.1164 43.1515 67.9698C43.4679 67.8232 43.7226 67.6071 43.9155 67.3215C44.1085 67.036 44.2049 66.6849 44.2049 66.2682V64.8907L44.3438 65.018C44.1278 65.4656 43.8075 65.8129 43.3831 66.0598C42.9586 66.299 42.4956 66.4186 41.994 66.4186C41.4152 66.4186 40.8943 66.2797 40.4313 66.0019C39.9683 65.7241 39.6017 65.3498 39.3316 64.8791C39.0692 64.4006 38.938 63.872 38.938 63.2932C38.938 62.7068 39.0692 62.1781 39.3316 61.7074C39.6017 61.2367 39.9644 60.8624 40.4197 60.5846C40.8827 60.3068 41.4075 60.1678 41.994 60.1678C42.4956 60.1678 42.9509 60.2836 43.3599 60.5151C43.7766 60.7466 44.1046 61.0592 44.3438 61.4527L44.2049 61.6958V60.3068H45.0731V66.2682C45.0731 66.8006 44.9458 67.2752 44.6911 67.692C44.4442 68.1164 44.0969 68.4482 43.6493 68.6875C43.2094 68.9344 42.704 69.0579 42.1329 69.0579ZM42.0403 65.5505C42.4416 65.5505 42.8043 65.4502 43.1284 65.2495C43.4525 65.0412 43.711 64.7672 43.904 64.4277C44.1046 64.0804 44.2049 63.7023 44.2049 63.2932C44.2049 62.8842 44.1046 62.51 43.904 62.1704C43.711 61.8232 43.4525 61.5492 43.1284 61.3486C42.8043 61.1402 42.4416 61.036 42.0403 61.036C41.6313 61.036 41.2609 61.1402 40.929 61.3486C40.5972 61.5492 40.3348 61.8193 40.1419 62.1588C39.9567 62.4984 39.8641 62.8765 39.8641 63.2932C39.8641 63.7023 39.9567 64.0804 40.1419 64.4277C40.3348 64.7672 40.5933 65.0412 40.9175 65.2495C41.2493 65.4502 41.6236 65.5505 42.0403 65.5505ZM49.6814 66.6502C49.1027 66.6502 48.5779 66.5113 48.1072 66.2334C47.6441 65.9479 47.2776 65.5582 47.0075 65.0643C46.7374 64.5704 46.6023 64.0109 46.6023 63.3859C46.6023 62.7608 46.7335 62.209 46.9959 61.7305C47.2583 61.2444 47.6133 60.8624 48.0609 60.5846C48.5162 60.3068 49.0255 60.1678 49.5888 60.1678C50.0364 60.1678 50.4338 60.2527 50.7811 60.4225C51.1361 60.5846 51.4371 60.8084 51.684 61.0939C51.9309 61.3717 52.12 61.6881 52.2512 62.0431C52.3824 62.3904 52.448 62.7492 52.448 63.1196C52.448 63.1968 52.4441 63.2855 52.4364 63.3859C52.4287 63.4785 52.4171 63.5749 52.4017 63.6752H47.158V62.865H51.9039L51.4872 63.2122C51.5567 62.7878 51.5065 62.4096 51.3367 62.0778C51.1747 61.7383 50.9393 61.472 50.6306 61.2791C50.3219 61.0785 49.9747 60.9781 49.5888 60.9781C49.203 60.9781 48.8441 61.0785 48.5123 61.2791C48.1882 61.4797 47.9335 61.7614 47.7483 62.1241C47.5631 62.4791 47.4898 62.9035 47.5284 63.3974C47.4898 63.8913 47.567 64.3235 47.7599 64.6939C47.9605 65.0566 48.2306 65.3383 48.5702 65.5389C48.9174 65.7395 49.2879 65.8399 49.6814 65.8399C50.1367 65.8399 50.5187 65.7318 50.8274 65.5158C51.1361 65.2997 51.3869 65.0296 51.5798 64.7055L52.3207 65.099C52.1972 65.3768 52.0081 65.6354 51.7535 65.8746C51.4988 66.1061 51.194 66.2952 50.839 66.4418C50.4917 66.5807 50.1059 66.6502 49.6814 66.6502ZM55.9456 66.5113V60.3068H56.8138V66.5113H55.9456ZM55.9456 59.1608V57.8875H56.8138V59.1608H55.9456ZM58.5908 66.5113V60.3068H59.459V61.5106L59.2622 61.4643C59.4165 61.063 59.6673 60.7466 60.0146 60.5151C60.3696 60.2836 60.7786 60.1678 61.2416 60.1678C61.6815 60.1678 62.0751 60.2682 62.4223 60.4688C62.7773 60.6695 63.0551 60.9473 63.2558 61.3023C63.4641 61.6495 63.5683 62.0431 63.5683 62.483V66.5113H62.7001V62.8186C62.7001 62.4405 62.6307 62.1203 62.4918 61.8579C62.3606 61.5955 62.1715 61.3949 61.9246 61.2559C61.6853 61.1093 61.4075 61.036 61.0911 61.036C60.7747 61.036 60.4931 61.1093 60.2461 61.2559C59.9992 61.3949 59.8062 61.5994 59.6673 61.8695C59.5284 62.1318 59.459 62.4482 59.459 62.8186V66.5113H58.5908ZM67.1934 68.8264V60.3068H68.0615V61.6958L67.9226 61.4527C68.1696 61.0592 68.4975 60.7466 68.9065 60.5151C69.3233 60.2836 69.7979 60.1678 70.3303 60.1678C70.9168 60.1678 71.4377 60.3106 71.893 60.5961C72.3561 60.874 72.7188 61.2559 72.9811 61.7421C73.2512 62.2283 73.3863 62.7839 73.3863 63.409C73.3863 64.0264 73.2512 64.582 72.9811 65.0759C72.7188 65.5621 72.3561 65.9479 71.893 66.2334C71.4377 66.5113 70.9168 66.6502 70.3303 66.6502C69.7979 66.6502 69.3155 66.5305 68.8834 66.2913C68.4589 66.0444 68.1387 65.6971 67.9226 65.2495L68.0615 65.1222V68.8264H67.1934ZM70.284 65.782C70.7008 65.782 71.0712 65.6778 71.3953 65.4695C71.7271 65.2611 71.9856 64.9794 72.1708 64.6244C72.3638 64.2617 72.4602 63.8566 72.4602 63.409C72.4602 62.9537 72.3638 62.5486 72.1708 62.1936C71.9856 61.8386 71.7271 61.5569 71.3953 61.3486C71.0712 61.1402 70.7008 61.036 70.284 61.036C69.8673 61.036 69.4892 61.1402 69.1496 61.3486C68.8178 61.5569 68.5516 61.8424 68.3509 62.2051C68.158 62.5601 68.0615 62.9614 68.0615 63.409C68.0615 63.8566 68.158 64.2617 68.3509 64.6244C68.5516 64.9794 68.8178 65.2611 69.1496 65.4695C69.4892 65.6778 69.8673 65.782 70.284 65.782ZM74.9142 66.5113V60.3068H75.7823V61.3254L75.6666 61.1749C75.8132 60.8817 76.0331 60.6502 76.3264 60.4804C76.6273 60.3106 76.99 60.2257 77.4145 60.2257H77.8081V61.0939H77.264C76.8164 61.0939 76.4576 61.2328 76.1875 61.5106C75.9174 61.7884 75.7823 62.182 75.7823 62.6913V66.5113H74.9142ZM81.7309 66.6502C81.1444 66.6502 80.6119 66.5113 80.1335 66.2334C79.655 65.9479 79.273 65.5621 78.9875 65.0759C78.7097 64.582 78.5708 64.0225 78.5708 63.3974C78.5708 62.7801 78.7097 62.2283 78.9875 61.7421C79.2653 61.2559 79.6396 60.874 80.1103 60.5961C80.5888 60.3106 81.129 60.1678 81.7309 60.1678C82.3328 60.1678 82.8692 60.3068 83.3399 60.5846C83.8184 60.8624 84.1926 61.2444 84.4627 61.7305C84.7406 62.2167 84.8795 62.7723 84.8795 63.3974C84.8795 64.0302 84.7367 64.5936 84.4512 65.0875C84.1656 65.5736 83.7836 65.9556 83.3052 66.2334C82.8344 66.5113 82.3097 66.6502 81.7309 66.6502ZM81.7309 65.782C82.1476 65.782 82.5219 65.6778 82.8537 65.4695C83.1933 65.2611 83.4595 64.9756 83.6524 64.6129C83.8531 64.2502 83.9534 63.845 83.9534 63.3974C83.9534 62.9498 83.8531 62.5486 83.6524 62.1936C83.4595 61.8386 83.1933 61.5569 82.8537 61.3486C82.5219 61.1402 82.1476 61.036 81.7309 61.036C81.3142 61.036 80.936 61.1402 80.5965 61.3486C80.2647 61.5569 79.9984 61.8386 79.7978 62.1936C79.5971 62.5486 79.4968 62.9498 79.4968 63.3974C79.4968 63.845 79.5971 64.2502 79.7978 64.6129C79.9984 64.9756 80.2647 65.2611 80.5965 65.4695C80.936 65.6778 81.3142 65.782 81.7309 65.782ZM85.253 69.0579C85.199 69.0579 85.1257 69.054 85.0331 69.0463C84.9328 69.0386 84.8518 69.027 84.79 69.0116V68.2129C84.9521 68.236 85.1141 68.2476 85.2762 68.2476C85.5926 68.2476 85.8588 68.1511 86.0749 67.9582C86.2987 67.7653 86.4106 67.4759 86.4106 67.09V60.3068H87.2788V67.09C87.2788 67.5145 87.1862 67.8733 87.001 68.1666C86.8157 68.4598 86.5688 68.6797 86.2601 68.8264C85.9592 68.9807 85.6235 69.0579 85.253 69.0579ZM86.4106 59.1608V57.8875H87.2788V59.1608H86.4106ZM91.8802 66.6502C91.3015 66.6502 90.7767 66.5113 90.306 66.2334C89.8429 65.9479 89.4764 65.5582 89.2063 65.0643C88.9362 64.5704 88.8011 64.0109 88.8011 63.3859C88.8011 62.7608 88.9323 62.209 89.1947 61.7305C89.4571 61.2444 89.8121 60.8624 90.2597 60.5846C90.715 60.3068 91.2243 60.1678 91.7876 60.1678C92.2352 60.1678 92.6326 60.2527 92.9799 60.4225C93.3349 60.5846 93.6359 60.8084 93.8828 61.0939C94.1297 61.3717 94.3188 61.6881 94.45 62.0431C94.5812 62.3904 94.6468 62.7492 94.6468 63.1196C94.6468 63.1968 94.6429 63.2855 94.6352 63.3859C94.6275 63.4785 94.6159 63.5749 94.6005 63.6752H89.3568V62.865H94.1027L93.686 63.2122C93.7555 62.7878 93.7053 62.4096 93.5355 62.0778C93.3735 61.7383 93.1381 61.472 92.8294 61.2791C92.5207 61.0785 92.1735 60.9781 91.7876 60.9781C91.4018 60.9781 91.0429 61.0785 90.7111 61.2791C90.387 61.4797 90.1323 61.7614 89.9471 62.1241C89.7619 62.4791 89.6886 62.9035 89.7272 63.3974C89.6886 63.8913 89.7658 64.3235 89.9587 64.6939C90.1593 65.0566 90.4294 65.3383 90.769 65.5389C91.1162 65.7395 91.4867 65.8399 91.8802 65.8399C92.3355 65.8399 92.7175 65.7318 93.0262 65.5158C93.3349 65.2997 93.5857 65.0296 93.7786 64.7055L94.5195 65.099C94.396 65.3768 94.2069 65.6354 93.9523 65.8746C93.6976 66.1061 93.3928 66.2952 93.0378 66.4418C92.6905 66.5807 92.3047 66.6502 91.8802 66.6502ZM99.0135 66.6502C98.4038 66.6502 97.8675 66.5074 97.4045 66.2219C96.9415 65.9363 96.5788 65.5505 96.3164 65.0643C96.054 64.5704 95.9228 64.0148 95.9228 63.3974C95.9228 62.7801 96.054 62.2283 96.3164 61.7421C96.5788 61.2559 96.9415 60.874 97.4045 60.5961C97.8675 60.3106 98.4038 60.1678 99.0135 60.1678C99.3993 60.1678 99.762 60.2373 100.102 60.3762C100.441 60.5151 100.742 60.7042 101.004 60.9434C101.267 61.1749 101.464 61.445 101.595 61.7537L100.808 62.1588C100.653 61.827 100.418 61.5569 100.102 61.3486C99.7852 61.1402 99.4225 61.036 99.0135 61.036C98.6045 61.036 98.2341 61.1402 97.9022 61.3486C97.5781 61.5492 97.3196 61.8309 97.1267 62.1936C96.9415 62.5486 96.8489 62.9537 96.8489 63.409C96.8489 63.8566 96.9415 64.2617 97.1267 64.6244C97.3196 64.9794 97.5781 65.2611 97.9022 65.4695C98.2341 65.6778 98.6045 65.782 99.0135 65.782C99.4225 65.782 99.7813 65.6778 100.09 65.4695C100.406 65.2611 100.646 64.9833 100.808 64.636L101.595 65.0643C101.464 65.3653 101.267 65.6354 101.004 65.8746C100.742 66.1138 100.441 66.3029 100.102 66.4418C99.762 66.5807 99.3993 66.6502 99.0135 66.6502ZM105.491 66.5807C104.936 66.5807 104.507 66.4186 104.206 66.0945C103.905 65.7704 103.755 65.3074 103.755 64.7055V61.1749H102.609V60.3068H102.898C103.161 60.3068 103.369 60.2219 103.523 60.0521C103.678 59.8746 103.755 59.6547 103.755 59.3923V58.8714H104.623V60.3068H105.989V61.1749H104.623V64.7055C104.623 64.9138 104.654 65.099 104.716 65.2611C104.777 65.4154 104.882 65.5389 105.028 65.6315C105.183 65.7241 105.387 65.7704 105.642 65.7704C105.704 65.7704 105.777 65.7666 105.862 65.7588C105.947 65.7511 106.02 65.7434 106.082 65.7357V66.5113C105.989 66.5344 105.885 66.5498 105.769 66.5576C105.653 66.573 105.561 66.5807 105.491 66.5807ZM109.759 66.6502C109.165 66.6502 108.644 66.4997 108.196 66.1987C107.749 65.8977 107.425 65.4887 107.224 64.9717L107.953 64.6244C108.131 65.0026 108.378 65.3035 108.694 65.5273C109.018 65.7511 109.373 65.863 109.759 65.863C110.13 65.863 110.442 65.7743 110.697 65.5968C110.951 65.4116 111.079 65.1723 111.079 64.8791C111.079 64.663 111.017 64.4932 110.894 64.3698C110.77 64.2386 110.627 64.1383 110.465 64.0688C110.303 63.9994 110.16 63.9492 110.037 63.9183L109.146 63.6637C108.575 63.5016 108.162 63.274 107.907 62.9807C107.652 62.6875 107.525 62.3479 107.525 61.9621C107.525 61.5994 107.618 61.283 107.803 61.0129C107.988 60.7428 108.239 60.5344 108.555 60.3878C108.872 60.2412 109.223 60.1678 109.609 60.1678C110.133 60.1678 110.608 60.3068 111.032 60.5846C111.465 60.8547 111.769 61.2328 111.947 61.719L111.206 62.0662C111.052 61.719 110.828 61.4489 110.535 61.2559C110.249 61.0553 109.929 60.955 109.574 60.955C109.227 60.955 108.949 61.0437 108.74 61.2212C108.532 61.3987 108.428 61.6225 108.428 61.8926C108.428 62.101 108.482 62.2669 108.59 62.3904C108.698 62.5138 108.822 62.6064 108.96 62.6682C109.107 62.7299 109.234 62.7762 109.342 62.8071L110.373 63.108C110.874 63.2547 111.264 63.4823 111.542 63.791C111.827 64.0997 111.97 64.4624 111.97 64.8791C111.97 65.2186 111.874 65.5235 111.681 65.7936C111.495 66.0637 111.237 66.2759 110.905 66.4302C110.573 66.5768 110.191 66.6502 109.759 66.6502ZM117.836 66.5807C117.28 66.5807 116.852 66.4186 116.551 66.0945C116.25 65.7704 116.099 65.3074 116.099 64.7055V61.1749H114.953V60.3068H115.243C115.505 60.3068 115.713 60.2219 115.868 60.0521C116.022 59.8746 116.099 59.6547 116.099 59.3923V58.8714H116.967V60.3068H118.333V61.1749H116.967V64.7055C116.967 64.9138 116.998 65.099 117.06 65.2611C117.122 65.4154 117.226 65.5389 117.373 65.6315C117.527 65.7241 117.731 65.7704 117.986 65.7704C118.048 65.7704 118.121 65.7666 118.206 65.7588C118.291 65.7511 118.364 65.7434 118.426 65.7357V66.5113C118.333 66.5344 118.229 66.5498 118.113 66.5576C117.998 66.573 117.905 66.5807 117.836 66.5807ZM119.95 66.5113V57.7486H120.819V61.5106L120.622 61.4643C120.776 61.063 121.027 60.7466 121.374 60.5151C121.729 60.2836 122.138 60.1678 122.601 60.1678C123.041 60.1678 123.435 60.2682 123.782 60.4688C124.137 60.6695 124.415 60.9473 124.615 61.3023C124.824 61.6495 124.928 62.0431 124.928 62.483V66.5113H124.06V62.8186C124.06 62.4405 123.99 62.1203 123.851 61.8579C123.712 61.5955 123.519 61.3949 123.273 61.2559C123.033 61.1093 122.759 61.036 122.451 61.036C122.142 61.036 121.864 61.1093 121.617 61.2559C121.37 61.3949 121.173 61.5994 121.027 61.8695C120.888 62.1318 120.819 62.4482 120.819 62.8186V66.5113H119.95ZM128.38 66.6502C127.987 66.6502 127.635 66.5768 127.327 66.4302C127.018 66.2759 126.775 66.0675 126.598 65.8051C126.42 65.5428 126.331 65.2418 126.331 64.9023C126.331 64.5781 126.401 64.2849 126.54 64.0225C126.679 63.7524 126.895 63.5248 127.188 63.3395C127.481 63.1543 127.855 63.0232 128.311 62.946L130.742 62.5408V63.328L128.519 63.6984C128.071 63.7756 127.747 63.9183 127.547 64.1267C127.354 64.335 127.257 64.582 127.257 64.8675C127.257 65.1453 127.365 65.3807 127.581 65.5736C127.805 65.7666 128.091 65.863 128.438 65.863C128.862 65.863 129.233 65.7743 129.549 65.5968C129.866 65.4116 130.113 65.1646 130.29 64.8559C130.468 64.5473 130.556 64.2039 130.556 63.8257V62.2514C130.556 61.881 130.421 61.5801 130.151 61.3486C129.881 61.117 129.53 61.0013 129.098 61.0013C128.72 61.0013 128.388 61.0977 128.102 61.2907C127.817 61.4759 127.605 61.719 127.466 62.0199L126.679 61.5916C126.794 61.3293 126.976 61.09 127.223 60.874C127.477 60.6579 127.767 60.4881 128.091 60.3646C128.415 60.2334 128.751 60.1678 129.098 60.1678C129.553 60.1678 129.954 60.2566 130.302 60.4341C130.657 60.6116 130.931 60.8585 131.124 61.1749C131.324 61.4836 131.425 61.8424 131.425 62.2514V66.5113H130.556V65.2727L130.684 65.4C130.576 65.6315 130.406 65.8437 130.174 66.0367C129.951 66.2219 129.684 66.3723 129.376 66.4881C129.075 66.5961 128.743 66.6502 128.38 66.6502ZM135.47 66.5807C134.915 66.5807 134.486 66.4186 134.185 66.0945C133.884 65.7704 133.734 65.3074 133.734 64.7055V61.1749H132.588V60.3068H132.877C133.14 60.3068 133.348 60.2219 133.502 60.0521C133.657 59.8746 133.734 59.6547 133.734 59.3923V58.8714H134.602V60.3068H135.968V61.1749H134.602V64.7055C134.602 64.9138 134.633 65.099 134.695 65.2611C134.756 65.4154 134.861 65.5389 135.007 65.6315C135.162 65.7241 135.366 65.7704 135.621 65.7704C135.682 65.7704 135.756 65.7666 135.841 65.7588C135.925 65.7511 135.999 65.7434 136.061 65.7357V66.5113C135.968 66.5344 135.864 66.5498 135.748 66.5576C135.632 66.573 135.54 66.5807 135.47 66.5807ZM139.552 66.5113V60.3068H140.42V61.4875L140.281 61.3138C140.451 60.9511 140.702 60.6695 141.034 60.4688C141.373 60.2682 141.744 60.1678 142.145 60.1678C142.623 60.1678 143.055 60.3029 143.441 60.573C143.827 60.8431 144.101 61.1942 144.263 61.6264L144.02 61.6379C144.174 61.1595 144.441 60.7968 144.819 60.5498C145.205 60.2952 145.629 60.1678 146.092 60.1678C146.509 60.1678 146.891 60.2682 147.238 60.4688C147.593 60.6695 147.875 60.9473 148.083 61.3023C148.299 61.6495 148.407 62.0431 148.407 62.483V66.5113H147.539V62.8186C147.539 62.4405 147.47 62.1203 147.331 61.8579C147.2 61.5955 147.018 61.3949 146.787 61.2559C146.555 61.1093 146.289 61.036 145.988 61.036C145.695 61.036 145.428 61.1093 145.189 61.2559C144.95 61.3949 144.761 61.5994 144.622 61.8695C144.483 62.1318 144.414 62.4482 144.414 62.8186V66.5113H143.546V62.8186C143.546 62.4405 143.476 62.1203 143.337 61.8579C143.206 61.5955 143.025 61.3949 142.793 61.2559C142.562 61.1093 142.295 61.036 141.994 61.036C141.693 61.036 141.423 61.1093 141.184 61.2559C140.953 61.3949 140.767 61.5994 140.628 61.8695C140.49 62.1318 140.42 62.4482 140.42 62.8186V66.5113H139.552ZM150.065 66.5113V60.3068H150.933V66.5113H150.065ZM150.065 59.1608V57.8875H150.933V59.1608H150.065ZM152.71 66.5113V60.3068H153.578V61.3254L153.463 61.1749C153.609 60.8817 153.829 60.6502 154.122 60.4804C154.423 60.3106 154.786 60.2257 155.21 60.2257H155.604V61.0939H155.06C154.612 61.0939 154.253 61.2328 153.983 61.5106C153.713 61.7884 153.578 62.182 153.578 62.6913V66.5113H152.71ZM156.621 66.5113V60.3068H157.49V61.3254L157.374 61.1749C157.52 60.8817 157.74 60.6502 158.034 60.4804C158.335 60.3106 158.697 60.2257 159.122 60.2257H159.515V61.0939H158.971C158.524 61.0939 158.165 61.2328 157.895 61.5106C157.625 61.7884 157.49 62.182 157.49 62.6913V66.5113H156.621ZM163.438 66.6502C162.852 66.6502 162.319 66.5113 161.841 66.2334C161.362 65.9479 160.98 65.5621 160.695 65.0759C160.417 64.582 160.278 64.0225 160.278 63.3974C160.278 62.7801 160.417 62.2283 160.695 61.7421C160.973 61.2559 161.347 60.874 161.818 60.5961C162.296 60.3106 162.836 60.1678 163.438 60.1678C164.04 60.1678 164.576 60.3068 165.047 60.5846C165.526 60.8624 165.9 61.2444 166.17 61.7305C166.448 62.2167 166.587 62.7723 166.587 63.3974C166.587 64.0302 166.444 64.5936 166.158 65.0875C165.873 65.5736 165.491 65.9556 165.012 66.2334C164.542 66.5113 164.017 66.6502 163.438 66.6502ZM163.438 65.782C163.855 65.782 164.229 65.6778 164.561 65.4695C164.9 65.2611 165.167 64.9756 165.36 64.6129C165.56 64.2502 165.661 63.845 165.661 63.3974C165.661 62.9498 165.56 62.5486 165.36 62.1936C165.167 61.8386 164.9 61.5569 164.561 61.3486C164.229 61.1402 163.855 61.036 163.438 61.036C163.021 61.036 162.643 61.1402 162.304 61.3486C161.972 61.5569 161.706 61.8386 161.505 62.1936C161.304 62.5486 161.204 62.9498 161.204 63.3974C161.204 63.845 161.304 64.2502 161.505 64.6129C161.706 64.9756 161.972 65.2611 162.304 65.4695C162.643 65.6778 163.021 65.782 163.438 65.782ZM168.118 66.5113V60.3068H168.986V61.3254L168.87 61.1749C169.017 60.8817 169.237 60.6502 169.53 60.4804C169.831 60.3106 170.194 60.2257 170.618 60.2257H171.012V61.0939H170.468C170.02 61.0939 169.661 61.2328 169.391 61.5106C169.121 61.7884 168.986 62.182 168.986 62.6913V66.5113H168.118ZM173.996 66.5113V60.3068H174.864V61.3254L174.748 61.1749C174.895 60.8817 175.115 60.6502 175.408 60.4804C175.709 60.3106 176.072 60.2257 176.496 60.2257H176.89V61.0939H176.346C175.898 61.0939 175.539 61.2328 175.269 61.5106C174.999 61.7884 174.864 62.182 174.864 62.6913V66.5113H173.996ZM180.732 66.6502C180.153 66.6502 179.628 66.5113 179.157 66.2334C178.694 65.9479 178.328 65.5582 178.058 65.0643C177.788 64.5704 177.653 64.0109 177.653 63.3859C177.653 62.7608 177.784 62.209 178.046 61.7305C178.309 61.2444 178.664 60.8624 179.111 60.5846C179.566 60.3068 180.076 60.1678 180.639 60.1678C181.087 60.1678 181.484 60.2527 181.831 60.4225C182.186 60.5846 182.487 60.8084 182.734 61.0939C182.981 61.3717 183.17 61.6881 183.301 62.0431C183.433 62.3904 183.498 62.7492 183.498 63.1196C183.498 63.1968 183.494 63.2855 183.487 63.3859C183.479 63.4785 183.467 63.5749 183.452 63.6752H178.208V62.865H182.954L182.538 63.2122C182.607 62.7878 182.557 62.4096 182.387 62.0778C182.225 61.7383 181.99 61.472 181.681 61.2791C181.372 61.0785 181.025 60.9781 180.639 60.9781C180.253 60.9781 179.894 61.0785 179.563 61.2791C179.238 61.4797 178.984 61.7614 178.799 62.1241C178.613 62.4791 178.54 62.9035 178.579 63.3974C178.54 63.8913 178.617 64.3235 178.81 64.6939C179.011 65.0566 179.281 65.3383 179.62 65.5389C179.968 65.7395 180.338 65.8399 180.732 65.8399C181.187 65.8399 181.569 65.7318 181.878 65.5158C182.186 65.2997 182.437 65.0296 182.63 64.7055L183.371 65.099C183.247 65.3768 183.058 65.6354 182.804 65.8746C182.549 66.1061 182.244 66.2952 181.889 66.4418C181.542 66.5807 181.156 66.6502 180.732 66.6502ZM186.71 66.6502C186.317 66.6502 185.965 66.5768 185.657 66.4302C185.348 66.2759 185.105 66.0675 184.928 65.8051C184.75 65.5428 184.661 65.2418 184.661 64.9023C184.661 64.5781 184.731 64.2849 184.87 64.0225C185.009 63.7524 185.225 63.5248 185.518 63.3395C185.811 63.1543 186.185 63.0232 186.641 62.946L189.072 62.5408V63.328L186.849 63.6984C186.401 63.7756 186.077 63.9183 185.877 64.1267C185.684 64.335 185.587 64.582 185.587 64.8675C185.587 65.1453 185.695 65.3807 185.911 65.5736C186.135 65.7666 186.421 65.863 186.768 65.863C187.192 65.863 187.563 65.7743 187.879 65.5968C188.196 65.4116 188.443 65.1646 188.62 64.8559C188.798 64.5473 188.886 64.2039 188.886 63.8257V62.2514C188.886 61.881 188.751 61.5801 188.481 61.3486C188.211 61.117 187.86 61.0013 187.428 61.0013C187.05 61.0013 186.718 61.0977 186.432 61.2907C186.147 61.4759 185.935 61.719 185.796 62.0199L185.009 61.5916C185.124 61.3293 185.306 61.09 185.553 60.874C185.807 60.6579 186.097 60.4881 186.421 60.3646C186.745 60.2334 187.081 60.1678 187.428 60.1678C187.883 60.1678 188.284 60.2566 188.632 60.4341C188.987 60.6116 189.261 60.8585 189.454 61.1749C189.654 61.4836 189.755 61.8424 189.755 62.2514V66.5113H188.886V65.2727L189.014 65.4C188.906 65.6315 188.736 65.8437 188.504 66.0367C188.281 66.2219 188.014 66.3723 187.706 66.4881C187.405 66.5961 187.073 66.6502 186.71 66.6502ZM191.54 66.5113V57.7486H192.408V66.5113H191.54ZM194.995 69.0579C194.941 69.0579 194.867 69.054 194.775 69.0463C194.675 69.0386 194.594 69.027 194.532 69.0116V68.2129C194.694 68.236 194.856 68.2476 195.018 68.2476C195.334 68.2476 195.601 68.1511 195.817 67.9582C196.04 67.7653 196.152 67.4759 196.152 67.09V60.3068H197.021V67.09C197.021 67.5145 196.928 67.8733 196.743 68.1666C196.558 68.4598 196.311 68.6797 196.002 68.8264C195.701 68.9807 195.365 69.0579 194.995 69.0579ZM196.152 59.1608V57.8875H197.021V59.1608H196.152ZM201.703 66.6502C201.117 66.6502 200.584 66.5113 200.106 66.2334C199.627 65.9479 199.245 65.5621 198.96 65.0759C198.682 64.582 198.543 64.0225 198.543 63.3974C198.543 62.7801 198.682 62.2283 198.96 61.7421C199.237 61.2559 199.612 60.874 200.082 60.5961C200.561 60.3106 201.101 60.1678 201.703 60.1678C202.305 60.1678 202.841 60.3068 203.312 60.5846C203.79 60.8624 204.165 61.2444 204.435 61.7305C204.713 62.2167 204.852 62.7723 204.852 63.3974C204.852 64.0302 204.709 64.5936 204.423 65.0875C204.138 65.5736 203.756 65.9556 203.277 66.2334C202.807 66.5113 202.282 66.6502 201.703 66.6502ZM201.703 65.782C202.12 65.782 202.494 65.6778 202.826 65.4695C203.165 65.2611 203.432 64.9756 203.625 64.6129C203.825 64.2502 203.926 63.845 203.926 63.3974C203.926 62.9498 203.825 62.5486 203.625 62.1936C203.432 61.8386 203.165 61.5569 202.826 61.3486C202.494 61.1402 202.12 61.036 201.703 61.036C201.286 61.036 200.908 61.1402 200.569 61.3486C200.237 61.5569 199.971 61.8386 199.77 62.1936C199.569 62.5486 199.469 62.9498 199.469 63.3974C199.469 63.845 199.569 64.2502 199.77 64.6129C199.971 64.9756 200.237 65.2611 200.569 65.4695C200.908 65.6778 201.286 65.782 201.703 65.782ZM209.52 66.6502C208.987 66.6502 208.505 66.5305 208.073 66.2913C207.648 66.0444 207.328 65.6971 207.112 65.2495L207.251 65.1222V66.5113H206.383V57.7486H207.251V61.6958L207.112 61.4527C207.359 61.0592 207.687 60.7466 208.096 60.5151C208.513 60.2836 208.987 60.1678 209.52 60.1678C210.106 60.1678 210.627 60.3106 211.082 60.5961C211.545 60.874 211.908 61.2559 212.17 61.7421C212.441 62.2283 212.576 62.7839 212.576 63.409C212.576 64.0264 212.441 64.582 212.17 65.0759C211.908 65.5621 211.545 65.9479 211.082 66.2334C210.627 66.5113 210.106 66.6502 209.52 66.6502ZM209.473 65.782C209.89 65.782 210.261 65.6778 210.585 65.4695C210.916 65.2611 211.175 64.9794 211.36 64.6244C211.553 64.2617 211.65 63.8566 211.65 63.409C211.65 62.9537 211.553 62.5486 211.36 62.1936C211.175 61.8386 210.916 61.5569 210.585 61.3486C210.261 61.1402 209.89 61.036 209.473 61.036C209.057 61.036 208.679 61.1402 208.339 61.3486C208.007 61.5569 207.741 61.8424 207.54 62.2051C207.347 62.5601 207.251 62.9614 207.251 63.409C207.251 63.8566 207.347 64.2617 207.54 64.6244C207.741 64.9794 208.007 65.2611 208.339 65.4695C208.679 65.6778 209.057 65.782 209.473 65.782ZM218.224 66.6502C217.629 66.6502 217.108 66.4997 216.661 66.1987C216.213 65.8977 215.889 65.4887 215.688 64.9717L216.418 64.6244C216.595 65.0026 216.842 65.3035 217.159 65.5273C217.483 65.7511 217.838 65.863 218.224 65.863C218.594 65.863 218.906 65.7743 219.161 65.5968C219.416 65.4116 219.543 65.1723 219.543 64.8791C219.543 64.663 219.481 64.4932 219.358 64.3698C219.234 64.2386 219.092 64.1383 218.93 64.0688C218.768 63.9994 218.625 63.9492 218.501 63.9183L217.61 63.6637C217.039 63.5016 216.626 63.274 216.371 62.9807C216.117 62.6875 215.989 62.3479 215.989 61.9621C215.989 61.5994 216.082 61.283 216.267 61.0129C216.452 60.7428 216.703 60.5344 217.02 60.3878C217.336 60.2412 217.687 60.1678 218.073 60.1678C218.598 60.1678 219.072 60.3068 219.497 60.5846C219.929 60.8547 220.234 61.2328 220.411 61.719L219.67 62.0662C219.516 61.719 219.292 61.4489 218.999 61.2559C218.714 61.0553 218.393 60.955 218.038 60.955C217.691 60.955 217.413 61.0437 217.205 61.2212C216.997 61.3987 216.892 61.6225 216.892 61.8926C216.892 62.101 216.946 62.2669 217.054 62.3904C217.162 62.5138 217.286 62.6064 217.425 62.6682C217.571 62.7299 217.699 62.7762 217.807 62.8071L218.837 63.108C219.339 63.2547 219.728 63.4823 220.006 63.791C220.292 64.0997 220.434 64.4624 220.434 64.8791C220.434 65.2186 220.338 65.5235 220.145 65.7936C219.96 66.0637 219.701 66.2759 219.37 66.4302C219.038 66.5768 218.656 66.6502 218.224 66.6502ZM224.796 66.6502C224.186 66.6502 223.65 66.5074 223.187 66.2219C222.724 65.9363 222.361 65.5505 222.099 65.0643C221.837 64.5704 221.705 64.0148 221.705 63.3974C221.705 62.7801 221.837 62.2283 222.099 61.7421C222.361 61.2559 222.724 60.874 223.187 60.5961C223.65 60.3106 224.186 60.1678 224.796 60.1678C225.182 60.1678 225.545 60.2373 225.884 60.3762C226.224 60.5151 226.525 60.7042 226.787 60.9434C227.049 61.1749 227.246 61.445 227.377 61.7537L226.59 62.1588C226.436 61.827 226.2 61.5569 225.884 61.3486C225.568 61.1402 225.205 61.036 224.796 61.036C224.387 61.036 224.017 61.1402 223.685 61.3486C223.361 61.5492 223.102 61.8309 222.909 62.1936C222.724 62.5486 222.631 62.9537 222.631 63.409C222.631 63.8566 222.724 64.2617 222.909 64.6244C223.102 64.9794 223.361 65.2611 223.685 65.4695C224.017 65.6778 224.387 65.782 224.796 65.782C225.205 65.782 225.564 65.6778 225.873 65.4695C226.189 65.2611 226.428 64.9833 226.59 64.636L227.377 65.0643C227.246 65.3653 227.049 65.6354 226.787 65.8746C226.525 66.1138 226.224 66.3029 225.884 66.4418C225.545 66.5807 225.182 66.6502 224.796 66.6502ZM231.725 66.6502C231.146 66.6502 230.622 66.5113 230.151 66.2334C229.688 65.9479 229.321 65.5582 229.051 65.0643C228.781 64.5704 228.646 64.0109 228.646 63.3859C228.646 62.7608 228.777 62.209 229.04 61.7305C229.302 61.2444 229.657 60.8624 230.105 60.5846C230.56 60.3068 231.069 60.1678 231.633 60.1678C232.08 60.1678 232.478 60.2527 232.825 60.4225C233.18 60.5846 233.481 60.8084 233.728 61.0939C233.975 61.3717 234.164 61.6881 234.295 62.0431C234.426 62.3904 234.492 62.7492 234.492 63.1196C234.492 63.1968 234.488 63.2855 234.48 63.3859C234.472 63.4785 234.461 63.5749 234.445 63.6752H229.202V62.865H233.948L233.531 63.2122C233.6 62.7878 233.55 62.4096 233.381 62.0778C233.218 61.7383 232.983 61.472 232.674 61.2791C232.366 61.0785 232.018 60.9781 231.633 60.9781C231.247 60.9781 230.888 61.0785 230.556 61.2791C230.232 61.4797 229.977 61.7614 229.792 62.1241C229.607 62.4791 229.534 62.9035 229.572 63.3974C229.534 63.8913 229.611 64.3235 229.804 64.6939C230.004 65.0566 230.274 65.3383 230.614 65.5389C230.961 65.7395 231.332 65.8399 231.725 65.8399C232.181 65.8399 232.563 65.7318 232.871 65.5158C233.18 65.2997 233.431 65.0296 233.624 64.7055L234.364 65.099C234.241 65.3768 234.052 65.6354 233.797 65.8746C233.543 66.1061 233.238 66.2952 232.883 66.4418C232.536 66.5807 232.15 66.6502 231.725 66.6502ZM236.022 66.5113V60.3068H236.891V61.5106L236.694 61.4643C236.848 61.063 237.099 60.7466 237.446 60.5151C237.801 60.2836 238.21 60.1678 238.673 60.1678C239.113 60.1678 239.507 60.2682 239.854 60.4688C240.209 60.6695 240.487 60.9473 240.687 61.3023C240.896 61.6495 241 62.0431 241 62.483V66.5113H240.132V62.8186C240.132 62.4405 240.062 62.1203 239.923 61.8579C239.792 61.5955 239.603 61.3949 239.356 61.2559C239.117 61.1093 238.839 61.036 238.523 61.036C238.206 61.036 237.925 61.1093 237.678 61.2559C237.431 61.3949 237.238 61.5994 237.099 61.8695C236.96 62.1318 236.891 62.4482 236.891 62.8186V66.5113H236.022ZM244.452 66.6502C244.059 66.6502 243.708 66.5768 243.399 66.4302C243.09 66.2759 242.847 66.0675 242.67 65.8051C242.492 65.5428 242.403 65.2418 242.403 64.9023C242.403 64.5781 242.473 64.2849 242.612 64.0225C242.751 63.7524 242.967 63.5248 243.26 63.3395C243.553 63.1543 243.928 63.0232 244.383 62.946L246.814 62.5408V63.328L244.591 63.6984C244.144 63.7756 243.82 63.9183 243.619 64.1267C243.426 64.335 243.329 64.582 243.329 64.8675C243.329 65.1453 243.438 65.3807 243.654 65.5736C243.877 65.7666 244.163 65.863 244.51 65.863C244.935 65.863 245.305 65.7743 245.621 65.5968C245.938 65.4116 246.185 65.1646 246.362 64.8559C246.54 64.5473 246.629 64.2039 246.629 63.8257V62.2514C246.629 61.881 246.493 61.5801 246.223 61.3486C245.953 61.117 245.602 61.0013 245.17 61.0013C244.792 61.0013 244.46 61.0977 244.174 61.2907C243.889 61.4759 243.677 61.719 243.538 62.0199L242.751 61.5916C242.866 61.3293 243.048 61.09 243.295 60.874C243.549 60.6579 243.839 60.4881 244.163 60.3646C244.487 60.2334 244.823 60.1678 245.17 60.1678C245.625 60.1678 246.027 60.2566 246.374 60.4341C246.729 60.6116 247.003 60.8585 247.196 61.1749C247.396 61.4836 247.497 61.8424 247.497 62.2514V66.5113H246.629V65.2727L246.756 65.4C246.648 65.6315 246.478 65.8437 246.247 66.0367C246.023 66.2219 245.756 66.3723 245.448 66.4881C245.147 66.5961 244.815 66.6502 244.452 66.6502ZM249.282 66.5113V60.3068H250.151V61.3254L250.035 61.1749C250.181 60.8817 250.401 60.6502 250.695 60.4804C250.996 60.3106 251.358 60.2257 251.783 60.2257H252.176V61.0939H251.632C251.185 61.0939 250.826 61.2328 250.556 61.5106C250.286 61.7884 250.151 62.182 250.151 62.6913V66.5113H249.282ZM253.194 66.5113V60.3068H254.062V66.5113H253.194ZM253.194 59.1608V57.8875H254.062V59.1608H253.194ZM258.744 66.6502C258.158 66.6502 257.625 66.5113 257.147 66.2334C256.668 65.9479 256.286 65.5621 256.001 65.0759C255.723 64.582 255.584 64.0225 255.584 63.3974C255.584 62.7801 255.723 62.2283 256.001 61.7421C256.279 61.2559 256.653 60.874 257.124 60.5961C257.602 60.3106 258.142 60.1678 258.744 60.1678C259.346 60.1678 259.883 60.3068 260.353 60.5846C260.832 60.8624 261.206 61.2444 261.476 61.7305C261.754 62.2167 261.893 62.7723 261.893 63.3974C261.893 64.0302 261.75 64.5936 261.465 65.0875C261.179 65.5736 260.797 65.9556 260.319 66.2334C259.848 66.5113 259.323 66.6502 258.744 66.6502ZM258.744 65.782C259.161 65.782 259.535 65.6778 259.867 65.4695C260.207 65.2611 260.473 64.9756 260.666 64.6129C260.867 64.2502 260.967 63.845 260.967 63.3974C260.967 62.9498 260.867 62.5486 260.666 62.1936C260.473 61.8386 260.207 61.5569 259.867 61.3486C259.535 61.1402 259.161 61.036 258.744 61.036C258.328 61.036 257.949 61.1402 257.61 61.3486C257.278 61.5569 257.012 61.8386 256.811 62.1936C256.611 62.5486 256.51 62.9498 256.51 63.3974C256.51 63.845 256.611 64.2502 256.811 64.6129C257.012 64.9756 257.278 65.2611 257.61 65.4695C257.949 65.6778 258.328 65.782 258.744 65.782ZM265.577 66.6502C264.983 66.6502 264.462 66.4997 264.014 66.1987C263.567 65.8977 263.243 65.4887 263.042 64.9717L263.771 64.6244C263.949 65.0026 264.196 65.3035 264.512 65.5273C264.836 65.7511 265.191 65.863 265.577 65.863C265.947 65.863 266.26 65.7743 266.515 65.5968C266.769 65.4116 266.897 65.1723 266.897 64.8791C266.897 64.663 266.835 64.4932 266.711 64.3698C266.588 64.2386 266.445 64.1383 266.283 64.0688C266.121 63.9994 265.978 63.9492 265.855 63.9183L264.964 63.6637C264.393 63.5016 263.98 63.274 263.725 62.9807C263.47 62.6875 263.343 62.3479 263.343 61.9621C263.343 61.5994 263.436 61.283 263.621 61.0129C263.806 60.7428 264.057 60.5344 264.373 60.3878C264.69 60.2412 265.041 60.1678 265.427 60.1678C265.951 60.1678 266.426 60.3068 266.85 60.5846C267.283 60.8547 267.587 61.2328 267.765 61.719L267.024 62.0662C266.87 61.719 266.646 61.4489 266.353 61.2559C266.067 61.0553 265.747 60.955 265.392 60.955C265.045 60.955 264.767 61.0437 264.558 61.2212C264.35 61.3987 264.246 61.6225 264.246 61.8926C264.246 62.101 264.3 62.2669 264.408 62.3904C264.516 62.5138 264.639 62.6064 264.778 62.6682C264.925 62.7299 265.052 62.7762 265.16 62.8071L266.191 63.108C266.692 63.2547 267.082 63.4823 267.36 63.791C267.645 64.0997 267.788 64.4624 267.788 64.8791C267.788 65.2186 267.692 65.5235 267.499 65.7936C267.313 66.0637 267.055 66.2759 266.723 66.4302C266.391 66.5768 266.009 66.6502 265.577 66.6502Z" fill="#6E6D6D"/>
<path d="M162.368 114.847C162.368 110.585 165.823 107.13 170.085 107.13L262.166 107.13C264.295 107.13 266.329 108.01 267.787 109.56L291.005 134.244C292.351 135.676 293.101 137.567 293.101 139.532V267.332C293.101 271.594 289.646 275.049 285.384 275.049H170.085C165.823 275.049 162.368 271.594 162.368 267.332V114.847Z" fill="#ACC2FA"/>
<path d="M158.301 110.78C158.301 106.518 161.756 103.063 166.018 103.063L264.976 103.063C267.104 103.063 269.137 103.941 270.595 105.49L295.651 132.106C296.999 133.537 297.749 135.429 297.749 137.395V274.305C297.749 278.567 294.294 282.022 290.032 282.022H166.018C161.756 282.022 158.301 278.567 158.301 274.305V110.78Z" fill="#ACC2FA" fill-opacity="0.2"/>
<rect x="173.407" y="121.075" width="81.3448" height="15.6879" rx="5.14469" fill="white"/>
<rect x="173.407" y="146.06" width="104.005" height="8.71552" rx="4.35776" fill="white" fill-opacity="0.5"/>
<rect x="173.407" y="165.234" width="104.005" height="8.71552" rx="4.35776" fill="white" fill-opacity="0.5"/>
<rect x="173.407" y="184.989" width="104.005" height="8.71552" rx="4.35776" fill="white" fill-opacity="0.5"/>
<rect x="173.407" y="204.744" width="104.005" height="33.119" rx="5.14469" fill="white" fill-opacity="0.5"/>
</g>
<rect x="0.321543" y="0.321543" width="399.357" height="237.299" rx="9.96784" stroke="#E2E2E2" stroke-width="0.643087"/>
<defs>
<clipPath id="clip0_0_405">
<rect width="400" height="237.942" rx="10.2894" fill="white"/>
</clipPath>
</defs>
</svg>
