<svg width="622" height="371" viewBox="0 0 622 371" fill="none" xmlns="http://www.w3.org/2000/svg">
<g clip-path="url(#clip0_9_1948)">
<rect y="0.866699" width="622" height="370" rx="16" fill="white"/>
<path d="M455.621 163.527C457.762 157.255 464.583 153.907 470.855 156.048L605.91 202.167C609.048 203.239 611.603 205.561 612.968 208.583L634.627 256.529C635.882 259.308 636.032 262.461 635.047 265.347L570.822 453.423C568.681 459.695 561.86 463.043 555.588 460.902L386.474 403.152C380.202 401.011 376.854 394.19 378.995 387.918L455.621 163.527Z" fill="#CBC3F0"/>
<path d="M452.021 155.223C454.163 148.951 460.983 145.603 467.255 147.745L612.314 197.279C615.407 198.336 617.936 200.608 619.315 203.572L642.914 254.273C644.22 257.08 644.391 260.284 643.39 263.215L576.288 459.718C574.147 465.99 567.326 469.338 561.054 467.197L379.356 405.15C373.084 403.009 369.736 396.188 371.878 389.916L452.021 155.223Z" fill="#CBC3F0" fill-opacity="0.25"/>
<rect x="469.27" y="178.02" width="125.419" height="15" rx="7.5" transform="rotate(18.854 469.27 178.02)" fill="white"/>
<rect x="426.484" y="300.78" width="74.7836" height="52" rx="8" transform="rotate(18.854 426.484 300.78)" fill="white" fill-opacity="0.5"/>
<rect x="506.394" y="325.955" width="76.7778" height="52" rx="8" transform="rotate(18.854 506.394 325.955)" fill="white" fill-opacity="0.5"/>
<rect x="404.455" y="366.329" width="161.261" height="17.1667" rx="8" transform="rotate(18.854 404.455 366.329)" fill="white" fill-opacity="0.5"/>
<ellipse cx="527.416" cy="267.089" rx="37.5" ry="39.5" transform="rotate(18.854 527.416 267.089)" fill="#E5E1F8"/>
<path d="M524.754 267.332C527.771 264.751 532.099 264.099 535.212 261.967C538.497 259.738 539.145 253.699 532.736 251.51C528.538 250.076 525.459 252.35 523.748 254.519L518.18 249.786C521.635 245.433 527.884 242.813 534.864 245.197C540.702 247.19 543.851 251.045 544.824 254.858C545.649 258.128 544.96 263.477 541.006 266.283C536.618 269.383 533.333 269.664 530.887 271.79C529.9 272.648 529.414 273.261 528.238 276.704L521.059 274.253C521.654 272.43 522.364 269.373 524.754 267.332ZM526.352 286.451C525.478 289.01 522.527 290.341 519.795 289.408C517.062 288.474 515.541 285.617 516.415 283.058C517.289 280.499 520.24 279.169 522.972 280.102C525.705 281.035 527.226 283.892 526.352 286.451Z" fill="white"/>
<path d="M61.8519 217.052C60.1366 210.651 63.9356 204.071 70.3372 202.355L208.644 165.296C211.841 164.439 215.25 164.941 218.065 166.683L262.873 194.415C265.471 196.023 267.358 198.562 268.149 201.513L319.584 393.472C321.299 399.873 317.5 406.453 311.099 408.169L137.918 454.572C131.517 456.287 124.937 452.488 123.222 446.087L61.8519 217.052Z" fill="#F99A85"/>
<path d="M54.1058 212.581C52.3905 206.179 56.1895 199.599 62.5911 197.884L211.228 158.057C214.424 157.2 217.831 157.701 220.645 159.441L268.991 189.333C271.591 190.941 273.48 193.481 274.271 196.434L329.372 402.074C331.087 408.476 327.288 415.056 320.887 416.771L134.615 466.682C128.214 468.398 121.634 464.599 119.919 458.197L54.1058 212.581Z" fill="#F99A85" fill-opacity="0.2"/>
<rect x="80.9402" y="221.964" width="126.491" height="24.3947" rx="8" transform="rotate(-15 80.9402 221.964)" fill="white"/>
<rect x="90.9954" y="259.49" width="161.728" height="13.5526" rx="6.77632" transform="rotate(-15 90.9954 259.49)" fill="white" fill-opacity="0.5"/>
<rect x="98.7122" y="288.291" width="161.728" height="13.5526" rx="6.77632" transform="rotate(-15 98.7122 288.291)" fill="white" fill-opacity="0.5"/>
<rect x="106.663" y="317.963" width="161.728" height="13.5526" rx="6.77632" transform="rotate(-15 106.663 317.963)" fill="white" fill-opacity="0.5"/>
<rect x="114.614" y="347.636" width="161.728" height="51.5" rx="8" transform="rotate(-15 114.614 347.636)" fill="white" fill-opacity="0.5"/>
<path d="M18.016 61.8667V41.0067H21.824V58.5067H30.756V61.8667H18.016ZM40.1351 62.2027C38.5671 62.2027 37.1951 61.848 36.0191 61.1387C34.8431 60.4294 33.9285 59.468 33.2751 58.2547C32.6218 57.0414 32.2951 55.6974 32.2951 54.2227C32.2951 52.692 32.6218 51.3387 33.2751 50.1627C33.9471 48.968 34.8525 48.0254 35.9911 47.3347C37.1485 46.644 38.4365 46.2987 39.8551 46.2987C41.0498 46.2987 42.0951 46.4947 42.9911 46.8867C43.9058 47.2787 44.6805 47.82 45.3151 48.5107C45.9498 49.2014 46.4351 49.9947 46.7711 50.8907C47.1071 51.768 47.2751 52.72 47.2751 53.7467C47.2751 54.008 47.2565 54.2787 47.2191 54.5587C47.2005 54.8387 47.1538 55.0814 47.0791 55.2867H35.3191V52.4867H45.0071L43.2711 53.8027C43.4391 52.944 43.3925 52.1787 43.1311 51.5067C42.8885 50.8347 42.4778 50.3027 41.8991 49.9107C41.3391 49.5187 40.6578 49.3227 39.8551 49.3227C39.0898 49.3227 38.4085 49.5187 37.8111 49.9107C37.2138 50.284 36.7565 50.844 36.4391 51.5907C36.1405 52.3187 36.0285 53.2054 36.1031 54.2507C36.0285 55.184 36.1498 56.0147 36.4671 56.7427C36.8031 57.452 37.2885 58.0027 37.9231 58.3947C38.5765 58.7867 39.3231 58.9827 40.1631 58.9827C41.0031 58.9827 41.7125 58.8054 42.2911 58.4507C42.8885 58.096 43.3551 57.62 43.6911 57.0227L46.6591 58.4787C46.3605 59.2067 45.8938 59.8507 45.2591 60.4107C44.6245 60.9707 43.8685 61.4094 42.9911 61.7267C42.1325 62.044 41.1805 62.2027 40.1351 62.2027ZM54.621 62.2027C53.557 62.2027 52.633 62.0254 51.849 61.6707C51.065 61.316 50.4583 60.812 50.029 60.1587C49.5996 59.4867 49.385 58.712 49.385 57.8347C49.385 56.9947 49.5716 56.248 49.945 55.5947C50.3183 54.9227 50.897 54.3627 51.681 53.9147C52.465 53.4667 53.4543 53.1494 54.649 52.9627L59.633 52.1507V54.9507L55.349 55.6787C54.621 55.8094 54.0796 56.0427 53.725 56.3787C53.3703 56.7147 53.193 57.1534 53.193 57.6947C53.193 58.2174 53.389 58.6374 53.781 58.9547C54.1916 59.2534 54.6956 59.4027 55.293 59.4027C56.0583 59.4027 56.7303 59.244 57.309 58.9267C57.9063 58.5907 58.3636 58.1334 58.681 57.5547C59.017 56.976 59.185 56.3414 59.185 55.6507V51.7307C59.185 51.0774 58.9236 50.536 58.401 50.1067C57.897 49.6587 57.225 49.4347 56.385 49.4347C55.601 49.4347 54.901 49.6494 54.285 50.0787C53.6876 50.4894 53.249 51.04 52.969 51.7307L49.973 50.2747C50.2716 49.472 50.7383 48.7814 51.373 48.2027C52.0263 47.6054 52.7916 47.1387 53.669 46.8027C54.5463 46.4667 55.4983 46.2987 56.525 46.2987C57.7756 46.2987 58.877 46.532 59.829 46.9987C60.781 47.4467 61.5183 48.0814 62.041 48.9027C62.5823 49.7054 62.853 50.648 62.853 51.7307V61.8667H59.381V59.2627L60.165 59.2067C59.773 59.86 59.3063 60.4107 58.765 60.8587C58.2236 61.288 57.6076 61.624 56.917 61.8667C56.2263 62.0907 55.461 62.2027 54.621 62.2027ZM66.2432 61.8667V46.6347H69.6872V50.0227L69.4072 49.5187C69.7618 48.38 70.3125 47.5867 71.0592 47.1387C71.8245 46.6907 72.7392 46.4667 73.8032 46.4667H74.6992V49.7147H73.3832C72.3378 49.7147 71.4978 50.0414 70.8632 50.6947C70.2285 51.3294 69.9112 52.2254 69.9112 53.3827V61.8667H66.2432ZM76.7158 61.8667V46.6347H80.1598V49.6307L79.8798 49.0987C80.2345 48.184 80.8131 47.4934 81.6158 47.0267C82.4371 46.5414 83.3891 46.2987 84.4718 46.2987C85.5918 46.2987 86.5811 46.5414 87.4398 47.0267C88.3171 47.512 88.9985 48.1934 89.4838 49.0707C89.9691 49.9294 90.2118 50.928 90.2118 52.0667V61.8667H86.5438V52.9347C86.5438 52.2627 86.4131 51.684 86.1518 51.1987C85.8905 50.7134 85.5265 50.34 85.0598 50.0787C84.6118 49.7987 84.0798 49.6587 83.4638 49.6587C82.8665 49.6587 82.3345 49.7987 81.8678 50.0787C81.4011 50.34 81.0371 50.7134 80.7758 51.1987C80.5145 51.684 80.3838 52.2627 80.3838 52.9347V61.8667H76.7158ZM105.234 62.0347C103.517 62.0347 102.182 61.568 101.23 60.6347C100.297 59.6827 99.83 58.348 99.83 56.6307V49.9107H97.198V46.6347H97.478C98.2247 46.6347 98.8034 46.4387 99.214 46.0467C99.6247 45.6547 99.83 45.0854 99.83 44.3387V43.1627H103.498V46.6347H106.998V49.9107H103.498V56.4347C103.498 56.9387 103.582 57.368 103.75 57.7227C103.937 58.0774 104.217 58.348 104.59 58.5347C104.982 58.7214 105.477 58.8147 106.074 58.8147C106.205 58.8147 106.354 58.8054 106.522 58.7867C106.709 58.768 106.886 58.7494 107.054 58.7307V61.8667C106.793 61.904 106.494 61.9414 106.158 61.9787C105.822 62.016 105.514 62.0347 105.234 62.0347ZM109.856 61.8667V40.6707H113.524V49.6307L113.02 49.0987C113.375 48.184 113.954 47.4934 114.756 47.0267C115.578 46.5414 116.53 46.2987 117.612 46.2987C118.732 46.2987 119.722 46.5414 120.58 47.0267C121.458 47.512 122.139 48.1934 122.624 49.0707C123.11 49.9294 123.352 50.928 123.352 52.0667V61.8667H119.684V52.9347C119.684 52.2627 119.554 51.684 119.292 51.1987C119.031 50.7134 118.667 50.34 118.2 50.0787C117.752 49.7987 117.22 49.6587 116.604 49.6587C116.007 49.6587 115.475 49.7987 115.008 50.0787C114.542 50.34 114.178 50.7134 113.916 51.1987C113.655 51.684 113.524 52.2627 113.524 52.9347V61.8667H109.856ZM126.454 61.8667V46.6347H129.898V50.0227L129.618 49.5187C129.973 48.38 130.523 47.5867 131.27 47.1387C132.035 46.6907 132.95 46.4667 134.014 46.4667H134.91V49.7147H133.594C132.549 49.7147 131.709 50.0414 131.074 50.6947C130.439 51.3294 130.122 52.2254 130.122 53.3827V61.8667H126.454ZM144.375 62.2027C142.881 62.2027 141.519 61.8574 140.287 61.1667C139.073 60.476 138.103 59.5334 137.375 58.3387C136.665 57.144 136.311 55.7814 136.311 54.2507C136.311 52.72 136.665 51.3574 137.375 50.1627C138.103 48.968 139.073 48.0254 140.287 47.3347C141.5 46.644 142.863 46.2987 144.375 46.2987C145.868 46.2987 147.221 46.644 148.435 47.3347C149.648 48.0254 150.609 48.968 151.319 50.1627C152.047 51.3387 152.411 52.7014 152.411 54.2507C152.411 55.7814 152.047 57.144 151.319 58.3387C150.591 59.5334 149.62 60.476 148.407 61.1667C147.193 61.8574 145.849 62.2027 144.375 62.2027ZM144.375 58.8427C145.196 58.8427 145.915 58.6467 146.531 58.2547C147.165 57.8627 147.66 57.3214 148.015 56.6307C148.388 55.9214 148.575 55.128 148.575 54.2507C148.575 53.3547 148.388 52.5707 148.015 51.8987C147.66 51.208 147.165 50.6667 146.531 50.2747C145.915 49.864 145.196 49.6587 144.375 49.6587C143.535 49.6587 142.797 49.864 142.163 50.2747C141.528 50.6667 141.024 51.208 140.651 51.8987C140.296 52.5707 140.119 53.3547 140.119 54.2507C140.119 55.128 140.296 55.9214 140.651 56.6307C141.024 57.3214 141.528 57.8627 142.163 58.2547C142.797 58.6467 143.535 58.8427 144.375 58.8427ZM160.624 62.2027C159.448 62.2027 158.422 61.9414 157.544 61.4187C156.686 60.896 156.023 60.168 155.556 59.2347C155.108 58.3014 154.884 57.2094 154.884 55.9587V46.6347H158.552V55.6507C158.552 56.2854 158.674 56.8454 158.916 57.3307C159.178 57.7974 159.542 58.1707 160.008 58.4507C160.494 58.712 161.035 58.8427 161.632 58.8427C162.23 58.8427 162.762 58.712 163.228 58.4507C163.695 58.1707 164.059 57.788 164.32 57.3027C164.582 56.8174 164.712 56.2387 164.712 55.5667V46.6347H168.38V61.8667H164.908V58.8707L165.216 59.4027C164.862 60.336 164.274 61.036 163.452 61.5027C162.65 61.9694 161.707 62.2027 160.624 62.2027ZM179.182 68.0267C178.043 68.0267 176.989 67.84 176.018 67.4667C175.047 67.0934 174.207 66.5707 173.498 65.8987C172.807 65.2454 172.303 64.4707 171.986 63.5747L175.402 62.2867C175.626 62.996 176.065 63.5654 176.718 63.9947C177.39 64.4427 178.211 64.6667 179.182 64.6667C179.929 64.6667 180.582 64.5267 181.142 64.2467C181.721 63.9667 182.169 63.556 182.486 63.0147C182.803 62.492 182.962 61.8574 182.962 61.1107V57.6387L183.662 58.4787C183.139 59.3934 182.439 60.084 181.562 60.5507C180.685 61.0174 179.686 61.2507 178.566 61.2507C177.147 61.2507 175.878 60.924 174.758 60.2707C173.638 59.6174 172.761 58.7214 172.126 57.5827C171.491 56.444 171.174 55.1654 171.174 53.7467C171.174 52.3094 171.491 51.0307 172.126 49.9107C172.761 48.7907 173.629 47.9134 174.73 47.2787C175.831 46.6254 177.082 46.2987 178.482 46.2987C179.621 46.2987 180.619 46.5414 181.478 47.0267C182.355 47.4934 183.083 48.1747 183.662 49.0707L183.158 49.9947V46.6347H186.63V61.1107C186.63 62.436 186.303 63.6214 185.65 64.6667C185.015 65.712 184.138 66.5334 183.018 67.1307C181.917 67.728 180.638 68.0267 179.182 68.0267ZM179.014 57.8627C179.798 57.8627 180.479 57.6947 181.058 57.3587C181.655 57.004 182.122 56.5187 182.458 55.9027C182.794 55.2867 182.962 54.5774 182.962 53.7747C182.962 52.9907 182.785 52.2907 182.43 51.6747C182.094 51.04 181.627 50.5454 181.03 50.1907C180.451 49.836 179.779 49.6587 179.014 49.6587C178.249 49.6587 177.558 49.836 176.942 50.1907C176.326 50.5454 175.841 51.04 175.486 51.6747C175.15 52.2907 174.982 52.9907 174.982 53.7747C174.982 54.5587 175.15 55.2587 175.486 55.8747C175.841 56.4907 176.317 56.976 176.914 57.3307C177.53 57.6854 178.23 57.8627 179.014 57.8627ZM190.056 61.8667V40.6707H193.724V49.6307L193.22 49.0987C193.574 48.184 194.153 47.4934 194.956 47.0267C195.777 46.5414 196.729 46.2987 197.812 46.2987C198.932 46.2987 199.921 46.5414 200.78 47.0267C201.657 47.512 202.338 48.1934 202.824 49.0707C203.309 49.9294 203.552 50.928 203.552 52.0667V61.8667H199.884V52.9347C199.884 52.2627 199.753 51.684 199.492 51.1987C199.23 50.7134 198.866 50.34 198.4 50.0787C197.952 49.7987 197.42 49.6587 196.804 49.6587C196.206 49.6587 195.674 49.7987 195.208 50.0787C194.741 50.34 194.377 50.7134 194.116 51.1987C193.854 51.684 193.724 52.2627 193.724 52.9347V61.8667H190.056ZM211.014 61.8667V58.3667H212.218C213.114 58.3667 213.823 58.1147 214.346 57.6107C214.887 57.088 215.158 56.3974 215.158 55.5387V41.0067H218.994V55.3987C218.994 56.6867 218.714 57.816 218.154 58.7867C217.613 59.7574 216.829 60.5134 215.802 61.0547C214.794 61.596 213.599 61.8667 212.218 61.8667H211.014ZM230.07 62.2027C228.577 62.2027 227.214 61.8574 225.982 61.1667C224.769 60.476 223.798 59.5334 223.07 58.3387C222.361 57.144 222.006 55.7814 222.006 54.2507C222.006 52.72 222.361 51.3574 223.07 50.1627C223.798 48.968 224.769 48.0254 225.982 47.3347C227.195 46.644 228.558 46.2987 230.07 46.2987C231.563 46.2987 232.917 46.644 234.13 47.3347C235.343 48.0254 236.305 48.968 237.014 50.1627C237.742 51.3387 238.106 52.7014 238.106 54.2507C238.106 55.7814 237.742 57.144 237.014 58.3387C236.286 59.5334 235.315 60.476 234.102 61.1667C232.889 61.8574 231.545 62.2027 230.07 62.2027ZM230.07 58.8427C230.891 58.8427 231.61 58.6467 232.226 58.2547C232.861 57.8627 233.355 57.3214 233.71 56.6307C234.083 55.9214 234.27 55.128 234.27 54.2507C234.27 53.3547 234.083 52.5707 233.71 51.8987C233.355 51.208 232.861 50.6667 232.226 50.2747C231.61 49.864 230.891 49.6587 230.07 49.6587C229.23 49.6587 228.493 49.864 227.858 50.2747C227.223 50.6667 226.719 51.208 226.346 51.8987C225.991 52.5707 225.814 53.3547 225.814 54.2507C225.814 55.128 225.991 55.9214 226.346 56.6307C226.719 57.3214 227.223 57.8627 227.858 58.2547C228.493 58.6467 229.23 58.8427 230.07 58.8427ZM249.204 62.2027C248.102 62.2027 247.085 61.988 246.152 61.5587C245.237 61.1107 244.509 60.476 243.968 59.6547L244.332 58.9267V61.8667H240.888V40.6707H244.556V49.6587L243.996 48.9027C244.518 48.0814 245.228 47.4467 246.124 46.9987C247.02 46.532 248.056 46.2987 249.232 46.2987C250.669 46.2987 251.966 46.6534 253.124 47.3627C254.281 48.072 255.196 49.024 255.868 50.2187C256.558 51.4134 256.904 52.7574 256.904 54.2507C256.904 55.7254 256.568 57.0694 255.896 58.2827C255.224 59.496 254.309 60.4574 253.152 61.1667C251.994 61.8574 250.678 62.2027 249.204 62.2027ZM248.784 58.8427C249.624 58.8427 250.37 58.6467 251.024 58.2547C251.677 57.8627 252.181 57.3214 252.536 56.6307C252.909 55.94 253.096 55.1467 253.096 54.2507C253.096 53.3547 252.909 52.5707 252.536 51.8987C252.181 51.208 251.677 50.6667 251.024 50.2747C250.37 49.864 249.624 49.6587 248.784 49.6587C247.981 49.6587 247.253 49.8547 246.6 50.2467C245.965 50.6387 245.461 51.1894 245.088 51.8987C244.733 52.5894 244.556 53.3734 244.556 54.2507C244.556 55.1467 244.733 55.94 245.088 56.6307C245.461 57.3214 245.965 57.8627 246.6 58.2547C247.253 58.6467 247.981 58.8427 248.784 58.8427ZM272.433 62.2027C271.107 62.2027 269.875 61.96 268.737 61.4747C267.617 60.9894 266.646 60.3174 265.825 59.4587C265.022 58.5814 264.434 57.564 264.061 56.4067L267.225 55.0347C267.729 56.2294 268.457 57.172 269.409 57.8627C270.361 58.5347 271.434 58.8707 272.629 58.8707C273.301 58.8707 273.879 58.768 274.365 58.5627C274.869 58.3387 275.251 58.04 275.513 57.6667C275.793 57.2934 275.933 56.8454 275.933 56.3227C275.933 55.7067 275.746 55.2027 275.373 54.8107C275.018 54.4 274.477 54.0827 273.749 53.8587L269.745 52.5707C268.121 52.0667 266.898 51.3107 266.077 50.3027C265.255 49.2947 264.845 48.1094 264.845 46.7467C264.845 45.552 265.134 44.4974 265.713 43.5827C266.31 42.668 267.131 41.9587 268.177 41.4547C269.241 40.932 270.454 40.6707 271.817 40.6707C273.067 40.6707 274.215 40.8947 275.261 41.3427C276.306 41.772 277.202 42.3787 277.949 43.1627C278.714 43.928 279.283 44.8334 279.657 45.8787L276.521 47.2787C276.11 46.2334 275.494 45.4307 274.673 44.8707C273.851 44.292 272.899 44.0027 271.817 44.0027C271.182 44.0027 270.622 44.1147 270.137 44.3387C269.651 44.544 269.269 44.8427 268.989 45.2347C268.727 45.608 268.597 46.056 268.597 46.5787C268.597 47.1574 268.783 47.6707 269.157 48.1187C269.53 48.548 270.099 48.884 270.865 49.1267L274.701 50.3307C276.362 50.872 277.603 51.6187 278.425 52.5707C279.265 53.5227 279.685 54.6987 279.685 56.0987C279.685 57.2934 279.377 58.348 278.761 59.2627C278.145 60.1774 277.295 60.896 276.213 61.4187C275.13 61.9414 273.87 62.2027 272.433 62.2027ZM282.806 61.8667V46.6347H286.474V61.8667H282.806ZM282.806 44.9267V41.0067H286.474V44.9267H282.806ZM289.86 61.8667V46.6347H293.304V50.1627L292.912 49.5747C293.192 48.4734 293.752 47.652 294.592 47.1107C295.432 46.5694 296.422 46.2987 297.56 46.2987C298.811 46.2987 299.912 46.6254 300.864 47.2787C301.816 47.932 302.432 48.7907 302.712 49.8547L301.676 49.9387C302.143 48.7254 302.843 47.82 303.776 47.2227C304.71 46.6067 305.783 46.2987 306.996 46.2987C308.079 46.2987 309.04 46.5414 309.88 47.0267C310.739 47.512 311.411 48.1934 311.896 49.0707C312.382 49.9294 312.624 50.928 312.624 52.0667V61.8667H308.956V52.9347C308.956 52.2627 308.835 51.684 308.592 51.1987C308.35 50.7134 308.014 50.34 307.584 50.0787C307.155 49.7987 306.632 49.6587 306.016 49.6587C305.438 49.6587 304.924 49.7987 304.476 50.0787C304.028 50.34 303.683 50.7134 303.44 51.1987C303.198 51.684 303.076 52.2627 303.076 52.9347V61.8667H299.408V52.9347C299.408 52.2627 299.287 51.684 299.044 51.1987C298.802 50.7134 298.456 50.34 298.008 50.0787C297.579 49.7987 297.066 49.6587 296.468 49.6587C295.89 49.6587 295.376 49.7987 294.928 50.0787C294.48 50.34 294.135 50.7134 293.892 51.1987C293.65 51.684 293.528 52.2627 293.528 52.9347V61.8667H289.86ZM321.16 62.2027C319.984 62.2027 318.957 61.9414 318.08 61.4187C317.221 60.896 316.558 60.168 316.092 59.2347C315.644 58.3014 315.42 57.2094 315.42 55.9587V46.6347H319.088V55.6507C319.088 56.2854 319.209 56.8454 319.452 57.3307C319.713 57.7974 320.077 58.1707 320.544 58.4507C321.029 58.712 321.57 58.8427 322.168 58.8427C322.765 58.8427 323.297 58.712 323.764 58.4507C324.23 58.1707 324.594 57.788 324.856 57.3027C325.117 56.8174 325.248 56.2387 325.248 55.5667V46.6347H328.916V61.8667H325.444V58.8707L325.752 59.4027C325.397 60.336 324.809 61.036 323.988 61.5027C323.185 61.9694 322.242 62.2027 321.16 62.2027ZM332.325 61.8667V40.6707H335.993V61.8667H332.325ZM344 62.2027C342.936 62.2027 342.012 62.0254 341.228 61.6707C340.444 61.316 339.837 60.812 339.408 60.1587C338.979 59.4867 338.764 58.712 338.764 57.8347C338.764 56.9947 338.951 56.248 339.324 55.5947C339.697 54.9227 340.276 54.3627 341.06 53.9147C341.844 53.4667 342.833 53.1494 344.028 52.9627L349.012 52.1507V54.9507L344.728 55.6787C344 55.8094 343.459 56.0427 343.104 56.3787C342.749 56.7147 342.572 57.1534 342.572 57.6947C342.572 58.2174 342.768 58.6374 343.16 58.9547C343.571 59.2534 344.075 59.4027 344.672 59.4027C345.437 59.4027 346.109 59.244 346.688 58.9267C347.285 58.5907 347.743 58.1334 348.06 57.5547C348.396 56.976 348.564 56.3414 348.564 55.6507V51.7307C348.564 51.0774 348.303 50.536 347.78 50.1067C347.276 49.6587 346.604 49.4347 345.764 49.4347C344.98 49.4347 344.28 49.6494 343.664 50.0787C343.067 50.4894 342.628 51.04 342.348 51.7307L339.352 50.2747C339.651 49.472 340.117 48.7814 340.752 48.2027C341.405 47.6054 342.171 47.1387 343.048 46.8027C343.925 46.4667 344.877 46.2987 345.904 46.2987C347.155 46.2987 348.256 46.532 349.208 46.9987C350.16 47.4467 350.897 48.0814 351.42 48.9027C351.961 49.7054 352.232 50.648 352.232 51.7307V61.8667H348.76V59.2627L349.544 59.2067C349.152 59.86 348.685 60.4107 348.144 60.8587C347.603 61.288 346.987 61.624 346.296 61.8667C345.605 62.0907 344.84 62.2027 344 62.2027ZM362.293 62.0347C360.575 62.0347 359.241 61.568 358.289 60.6347C357.355 59.6827 356.889 58.348 356.889 56.6307V49.9107H354.257V46.6347H354.537C355.283 46.6347 355.862 46.4387 356.273 46.0467C356.683 45.6547 356.889 45.0854 356.889 44.3387V43.1627H360.557V46.6347H364.057V49.9107H360.557V56.4347C360.557 56.9387 360.641 57.368 360.809 57.7227C360.995 58.0774 361.275 58.348 361.649 58.5347C362.041 58.7214 362.535 58.8147 363.133 58.8147C363.263 58.8147 363.413 58.8054 363.581 58.7867C363.767 58.768 363.945 58.7494 364.113 58.7307V61.8667C363.851 61.904 363.553 61.9414 363.217 61.9787C362.881 62.016 362.573 62.0347 362.293 62.0347ZM366.915 61.8667V46.6347H370.583V61.8667H366.915ZM366.915 44.9267V41.0067H370.583V44.9267H366.915ZM381.418 62.2027C379.924 62.2027 378.562 61.8574 377.33 61.1667C376.116 60.476 375.146 59.5334 374.418 58.3387C373.708 57.144 373.354 55.7814 373.354 54.2507C373.354 52.72 373.708 51.3574 374.418 50.1627C375.146 48.968 376.116 48.0254 377.33 47.3347C378.543 46.644 379.906 46.2987 381.418 46.2987C382.911 46.2987 384.264 46.644 385.478 47.3347C386.691 48.0254 387.652 48.968 388.362 50.1627C389.09 51.3387 389.454 52.7014 389.454 54.2507C389.454 55.7814 389.09 57.144 388.362 58.3387C387.634 59.5334 386.663 60.476 385.45 61.1667C384.236 61.8574 382.892 62.2027 381.418 62.2027ZM381.418 58.8427C382.239 58.8427 382.958 58.6467 383.574 58.2547C384.208 57.8627 384.703 57.3214 385.058 56.6307C385.431 55.9214 385.618 55.128 385.618 54.2507C385.618 53.3547 385.431 52.5707 385.058 51.8987C384.703 51.208 384.208 50.6667 383.574 50.2747C382.958 49.864 382.239 49.6587 381.418 49.6587C380.578 49.6587 379.84 49.864 379.206 50.2747C378.571 50.6667 378.067 51.208 377.694 51.8987C377.339 52.5707 377.162 53.3547 377.162 54.2507C377.162 55.128 377.339 55.9214 377.694 56.6307C378.067 57.3214 378.571 57.8627 379.206 58.2547C379.84 58.6467 380.578 58.8427 381.418 58.8427ZM392.235 61.8667V46.6347H395.679V49.6307L395.399 49.0987C395.754 48.184 396.333 47.4934 397.135 47.0267C397.957 46.5414 398.909 46.2987 399.991 46.2987C401.111 46.2987 402.101 46.5414 402.959 47.0267C403.837 47.512 404.518 48.1934 405.003 49.0707C405.489 49.9294 405.731 50.928 405.731 52.0667V61.8667H402.063V52.9347C402.063 52.2627 401.933 51.684 401.671 51.1987C401.41 50.7134 401.046 50.34 400.579 50.0787C400.131 49.7987 399.599 49.6587 398.983 49.6587C398.386 49.6587 397.854 49.7987 397.387 50.0787C396.921 50.34 396.557 50.7134 396.295 51.1987C396.034 51.684 395.903 52.2627 395.903 52.9347V61.8667H392.235ZM414.118 61.8667V41.0067H421.902C423.32 41.0067 424.571 41.268 425.654 41.7907C426.755 42.2947 427.614 43.0414 428.23 44.0307C428.846 45.0014 429.154 46.1867 429.154 47.5867C429.154 48.968 428.836 50.1534 428.202 51.1427C427.586 52.1134 426.736 52.86 425.654 53.3827C424.571 53.9054 423.32 54.1667 421.902 54.1667H417.926V61.8667H414.118ZM417.926 50.8067H421.958C422.648 50.8067 423.246 50.676 423.75 50.4147C424.254 50.1347 424.646 49.752 424.926 49.2667C425.206 48.7814 425.346 48.2214 425.346 47.5867C425.346 46.9334 425.206 46.3734 424.926 45.9067C424.646 45.4214 424.254 45.048 423.75 44.7867C423.246 44.5067 422.648 44.3667 421.958 44.3667H417.926V50.8067ZM431.966 61.8667V46.6347H435.41V50.0227L435.13 49.5187C435.484 48.38 436.035 47.5867 436.782 47.1387C437.547 46.6907 438.462 46.4667 439.526 46.4667H440.422V49.7147H439.106C438.06 49.7147 437.22 50.0414 436.586 50.6947C435.951 51.3294 435.634 52.2254 435.634 53.3827V61.8667H431.966ZM449.886 62.2027C448.393 62.2027 447.03 61.8574 445.798 61.1667C444.585 60.476 443.614 59.5334 442.886 58.3387C442.177 57.144 441.822 55.7814 441.822 54.2507C441.822 52.72 442.177 51.3574 442.886 50.1627C443.614 48.968 444.585 48.0254 445.798 47.3347C447.012 46.644 448.374 46.2987 449.886 46.2987C451.38 46.2987 452.733 46.644 453.946 47.3347C455.16 48.0254 456.121 48.968 456.83 50.1627C457.558 51.3387 457.922 52.7014 457.922 54.2507C457.922 55.7814 457.558 57.144 456.83 58.3387C456.102 59.5334 455.132 60.476 453.918 61.1667C452.705 61.8574 451.361 62.2027 449.886 62.2027ZM449.886 58.8427C450.708 58.8427 451.426 58.6467 452.042 58.2547C452.677 57.8627 453.172 57.3214 453.526 56.6307C453.9 55.9214 454.086 55.128 454.086 54.2507C454.086 53.3547 453.9 52.5707 453.526 51.8987C453.172 51.208 452.677 50.6667 452.042 50.2747C451.426 49.864 450.708 49.6587 449.886 49.6587C449.046 49.6587 448.309 49.864 447.674 50.2747C447.04 50.6667 446.536 51.208 446.162 51.8987C445.808 52.5707 445.63 53.3547 445.63 54.2507C445.63 55.128 445.808 55.9214 446.162 56.6307C446.536 57.3214 447.04 57.8627 447.674 58.2547C448.309 58.6467 449.046 58.8427 449.886 58.8427ZM458.604 68.0547C458.361 68.0547 458.109 68.0454 457.848 68.0267C457.587 68.008 457.372 67.98 457.204 67.9427V64.7507C457.54 64.8067 457.876 64.8347 458.212 64.8347C458.996 64.8347 459.603 64.648 460.032 64.2747C460.48 63.92 460.704 63.3694 460.704 62.6227V46.6347H464.372V62.6227C464.372 63.78 464.139 64.76 463.672 65.5627C463.205 66.384 462.533 67 461.656 67.4107C460.797 67.84 459.78 68.0547 458.604 68.0547ZM460.704 44.9267V41.0067H464.372V44.9267H460.704ZM474.983 62.2027C473.415 62.2027 472.043 61.848 470.867 61.1387C469.691 60.4294 468.776 59.468 468.123 58.2547C467.469 57.0414 467.143 55.6974 467.143 54.2227C467.143 52.692 467.469 51.3387 468.123 50.1627C468.795 48.968 469.7 48.0254 470.839 47.3347C471.996 46.644 473.284 46.2987 474.703 46.2987C475.897 46.2987 476.943 46.4947 477.839 46.8867C478.753 47.2787 479.528 47.82 480.163 48.5107C480.797 49.2014 481.283 49.9947 481.619 50.8907C481.955 51.768 482.123 52.72 482.123 53.7467C482.123 54.008 482.104 54.2787 482.067 54.5587C482.048 54.8387 482.001 55.0814 481.927 55.2867H470.167V52.4867H479.855L478.119 53.8027C478.287 52.944 478.24 52.1787 477.979 51.5067C477.736 50.8347 477.325 50.3027 476.747 49.9107C476.187 49.5187 475.505 49.3227 474.703 49.3227C473.937 49.3227 473.256 49.5187 472.659 49.9107C472.061 50.284 471.604 50.844 471.287 51.5907C470.988 52.3187 470.876 53.2054 470.951 54.2507C470.876 55.184 470.997 56.0147 471.315 56.7427C471.651 57.452 472.136 58.0027 472.771 58.3947C473.424 58.7867 474.171 58.9827 475.011 58.9827C475.851 58.9827 476.56 58.8054 477.139 58.4507C477.736 58.096 478.203 57.62 478.539 57.0227L481.507 58.4787C481.208 59.2067 480.741 59.8507 480.107 60.4107C479.472 60.9707 478.716 61.4094 477.839 61.7267C476.98 62.044 476.028 62.2027 474.983 62.2027ZM492.239 62.2027C490.727 62.2027 489.365 61.8574 488.151 61.1667C486.957 60.4574 486.014 59.5054 485.323 58.3107C484.633 57.0974 484.287 55.7347 484.287 54.2227C484.287 52.7107 484.633 51.3574 485.323 50.1627C486.014 48.968 486.957 48.0254 488.151 47.3347C489.365 46.644 490.727 46.2987 492.239 46.2987C493.322 46.2987 494.33 46.4947 495.263 46.8867C496.197 47.26 496.999 47.7827 497.671 48.4547C498.362 49.108 498.857 49.892 499.155 50.8067L495.935 52.2067C495.655 51.4414 495.179 50.8254 494.507 50.3587C493.854 49.892 493.098 49.6587 492.239 49.6587C491.437 49.6587 490.718 49.8547 490.083 50.2467C489.467 50.6387 488.982 51.18 488.627 51.8707C488.273 52.5614 488.095 53.3547 488.095 54.2507C488.095 55.1467 488.273 55.94 488.627 56.6307C488.982 57.3214 489.467 57.8627 490.083 58.2547C490.718 58.6467 491.437 58.8427 492.239 58.8427C493.117 58.8427 493.882 58.6094 494.535 58.1427C495.189 57.676 495.655 57.0507 495.935 56.2667L499.155 57.7227C498.857 58.5814 498.371 59.356 497.699 60.0467C497.027 60.7187 496.225 61.2507 495.291 61.6427C494.358 62.016 493.341 62.2027 492.239 62.2027ZM508.882 62.0347C507.165 62.0347 505.83 61.568 504.878 60.6347C503.945 59.6827 503.478 58.348 503.478 56.6307V49.9107H500.846V46.6347H501.126C501.873 46.6347 502.452 46.4387 502.862 46.0467C503.273 45.6547 503.478 45.0854 503.478 44.3387V43.1627H507.146V46.6347H510.646V49.9107H507.146V56.4347C507.146 56.9387 507.23 57.368 507.398 57.7227C507.585 58.0774 507.865 58.348 508.238 58.5347C508.63 58.7214 509.125 58.8147 509.722 58.8147C509.853 58.8147 510.002 58.8054 510.17 58.7867C510.357 58.768 510.534 58.7494 510.702 58.7307V61.8667C510.441 61.904 510.142 61.9414 509.806 61.9787C509.47 62.016 509.162 62.0347 508.882 62.0347ZM519.301 62.2027C517.677 62.2027 516.258 61.82 515.045 61.0547C513.85 60.2707 513.029 59.216 512.581 57.8907L515.325 56.5747C515.717 57.4334 516.258 58.1054 516.949 58.5907C517.658 59.076 518.442 59.3187 519.301 59.3187C519.973 59.3187 520.505 59.1694 520.897 58.8707C521.289 58.572 521.485 58.18 521.485 57.6947C521.485 57.396 521.401 57.1534 521.233 56.9667C521.084 56.7614 520.869 56.5934 520.589 56.4627C520.328 56.3134 520.038 56.192 519.721 56.0987L517.229 55.3987C515.941 55.0254 514.961 54.456 514.289 53.6907C513.636 52.9254 513.309 52.02 513.309 50.9747C513.309 50.0414 513.542 49.2294 514.009 48.5387C514.494 47.8294 515.157 47.2787 515.997 46.8867C516.856 46.4947 517.836 46.2987 518.937 46.2987C520.374 46.2987 521.644 46.644 522.745 47.3347C523.846 48.0254 524.63 48.996 525.097 50.2467L522.297 51.5627C522.036 50.872 521.597 50.3214 520.981 49.9107C520.365 49.5 519.674 49.2947 518.909 49.2947C518.293 49.2947 517.808 49.4347 517.453 49.7147C517.098 49.9947 516.921 50.3587 516.921 50.8067C516.921 51.0867 516.996 51.3294 517.145 51.5347C517.294 51.74 517.5 51.908 517.761 52.0387C518.041 52.1694 518.358 52.2907 518.713 52.4027L521.149 53.1307C522.4 53.504 523.361 54.064 524.033 54.8107C524.724 55.5574 525.069 56.472 525.069 57.5547C525.069 58.4694 524.826 59.2814 524.341 59.9907C523.856 60.6814 523.184 61.2227 522.325 61.6147C521.466 62.0067 520.458 62.2027 519.301 62.2027Z" fill="black"/>
<path d="M17.584 104.867V91.4567H26.224V92.8067H19.024V97.4687H25.864V98.8187H19.024V103.517H26.224V104.867H17.584ZM28.4075 104.867V95.2187H29.7575V97.0907L29.4515 97.0187C29.6915 96.3947 30.0815 95.9027 30.6215 95.5427C31.1735 95.1827 31.8095 95.0027 32.5295 95.0027C33.2135 95.0027 33.8255 95.1587 34.3655 95.4707C34.9175 95.7827 35.3495 96.2147 35.6615 96.7667C35.9855 97.3067 36.1475 97.9187 36.1475 98.6027V104.867H34.7975V99.1247C34.7975 98.5367 34.6895 98.0387 34.4735 97.6307C34.2695 97.2227 33.9755 96.9107 33.5915 96.6947C33.2195 96.4667 32.7875 96.3527 32.2955 96.3527C31.8035 96.3527 31.3655 96.4667 30.9815 96.6947C30.5975 96.9107 30.2975 97.2287 30.0815 97.6487C29.8655 98.0567 29.7575 98.5487 29.7575 99.1247V104.867H28.4075ZM43.2978 108.827C42.6378 108.827 42.0258 108.725 41.4618 108.521C40.9098 108.317 40.4298 108.035 40.0218 107.675C39.6258 107.327 39.3198 106.919 39.1038 106.451L40.3458 105.785C40.5378 106.241 40.8798 106.637 41.3718 106.973C41.8638 107.309 42.4938 107.477 43.2618 107.477C43.8498 107.477 44.3898 107.363 44.8818 107.135C45.3738 106.907 45.7698 106.571 46.0698 106.127C46.3698 105.683 46.5198 105.137 46.5198 104.489V102.347L46.7358 102.545C46.3998 103.241 45.9018 103.781 45.2418 104.165C44.5818 104.537 43.8618 104.723 43.0818 104.723C42.1818 104.723 41.3718 104.507 40.6518 104.075C39.9318 103.643 39.3618 103.061 38.9418 102.329C38.5338 101.585 38.3298 100.763 38.3298 99.8627C38.3298 98.9507 38.5338 98.1287 38.9418 97.3967C39.3618 96.6647 39.9258 96.0827 40.6338 95.6507C41.3538 95.2187 42.1698 95.0027 43.0818 95.0027C43.8618 95.0027 44.5698 95.1827 45.2058 95.5427C45.8538 95.9027 46.3638 96.3887 46.7358 97.0007L46.5198 97.3787V95.2187H47.8698V104.489C47.8698 105.317 47.6718 106.055 47.2758 106.703C46.8918 107.363 46.3518 107.879 45.6558 108.251C44.9718 108.635 44.1858 108.827 43.2978 108.827ZM43.1538 103.373C43.7778 103.373 44.3418 103.217 44.8458 102.905C45.3498 102.581 45.7518 102.155 46.0518 101.627C46.3638 101.087 46.5198 100.499 46.5198 99.8627C46.5198 99.2267 46.3638 98.6447 46.0518 98.1167C45.7518 97.5767 45.3498 97.1507 44.8458 96.8387C44.3418 96.5147 43.7778 96.3527 43.1538 96.3527C42.5178 96.3527 41.9418 96.5147 41.4258 96.8387C40.9098 97.1507 40.5018 97.5707 40.2018 98.0987C39.9138 98.6267 39.7698 99.2147 39.7698 99.8627C39.7698 100.499 39.9138 101.087 40.2018 101.627C40.5018 102.155 40.9038 102.581 41.4078 102.905C41.9238 103.217 42.5058 103.373 43.1538 103.373ZM53.4338 105.083C52.8218 105.083 52.2758 104.969 51.7958 104.741C51.3158 104.501 50.9378 104.177 50.6618 103.769C50.3858 103.361 50.2478 102.893 50.2478 102.365C50.2478 101.861 50.3558 101.405 50.5718 100.997C50.7878 100.577 51.1238 100.223 51.5798 99.9347C52.0358 99.6467 52.6178 99.4427 53.3258 99.3227L57.1058 98.6927V99.9167L53.6498 100.493C52.9538 100.613 52.4498 100.835 52.1378 101.159C51.8378 101.483 51.6878 101.867 51.6878 102.311C51.6878 102.743 51.8558 103.109 52.1918 103.409C52.5398 103.709 52.9838 103.859 53.5238 103.859C54.1838 103.859 54.7598 103.721 55.2518 103.445C55.7438 103.157 56.1278 102.773 56.4038 102.293C56.6798 101.813 56.8178 101.279 56.8178 100.691V98.2427C56.8178 97.6667 56.6078 97.1987 56.1878 96.8387C55.7678 96.4787 55.2218 96.2987 54.5498 96.2987C53.9618 96.2987 53.4458 96.4487 53.0018 96.7487C52.5578 97.0367 52.2278 97.4147 52.0118 97.8827L50.7878 97.2167C50.9678 96.8087 51.2498 96.4367 51.6338 96.1007C52.0298 95.7647 52.4798 95.5007 52.9838 95.3087C53.4878 95.1047 54.0098 95.0027 54.5498 95.0027C55.2578 95.0027 55.8818 95.1407 56.4218 95.4167C56.9738 95.6927 57.3998 96.0767 57.6998 96.5687C58.0118 97.0487 58.1678 97.6067 58.1678 98.2427V104.867H56.8178V102.941L57.0158 103.139C56.8478 103.499 56.5838 103.829 56.2238 104.129C55.8758 104.417 55.4618 104.651 54.9818 104.831C54.5138 104.999 53.9978 105.083 53.4338 105.083ZM65.5166 108.827C64.8566 108.827 64.2446 108.725 63.6806 108.521C63.1286 108.317 62.6486 108.035 62.2406 107.675C61.8446 107.327 61.5386 106.919 61.3226 106.451L62.5646 105.785C62.7566 106.241 63.0986 106.637 63.5906 106.973C64.0826 107.309 64.7126 107.477 65.4806 107.477C66.0686 107.477 66.6086 107.363 67.1006 107.135C67.5926 106.907 67.9886 106.571 68.2886 106.127C68.5886 105.683 68.7386 105.137 68.7386 104.489V102.347L68.9546 102.545C68.6186 103.241 68.1206 103.781 67.4606 104.165C66.8006 104.537 66.0806 104.723 65.3006 104.723C64.4006 104.723 63.5906 104.507 62.8706 104.075C62.1506 103.643 61.5806 103.061 61.1606 102.329C60.7526 101.585 60.5486 100.763 60.5486 99.8627C60.5486 98.9507 60.7526 98.1287 61.1606 97.3967C61.5806 96.6647 62.1446 96.0827 62.8526 95.6507C63.5726 95.2187 64.3886 95.0027 65.3006 95.0027C66.0806 95.0027 66.7886 95.1827 67.4246 95.5427C68.0726 95.9027 68.5826 96.3887 68.9546 97.0007L68.7386 97.3787V95.2187H70.0886V104.489C70.0886 105.317 69.8906 106.055 69.4946 106.703C69.1106 107.363 68.5706 107.879 67.8746 108.251C67.1906 108.635 66.4046 108.827 65.5166 108.827ZM65.3726 103.373C65.9966 103.373 66.5606 103.217 67.0646 102.905C67.5686 102.581 67.9706 102.155 68.2706 101.627C68.5826 101.087 68.7386 100.499 68.7386 99.8627C68.7386 99.2267 68.5826 98.6447 68.2706 98.1167C67.9706 97.5767 67.5686 97.1507 67.0646 96.8387C66.5606 96.5147 65.9966 96.3527 65.3726 96.3527C64.7366 96.3527 64.1606 96.5147 63.6446 96.8387C63.1286 97.1507 62.7206 97.5707 62.4206 98.0987C62.1326 98.6267 61.9886 99.2147 61.9886 99.8627C61.9886 100.499 62.1326 101.087 62.4206 101.627C62.7206 102.155 63.1226 102.581 63.6266 102.905C64.1426 103.217 64.7246 103.373 65.3726 103.373ZM77.2546 105.083C76.3546 105.083 75.5386 104.867 74.8066 104.435C74.0866 103.991 73.5166 103.385 73.0966 102.617C72.6766 101.849 72.4666 100.979 72.4666 100.007C72.4666 99.0347 72.6706 98.1767 73.0786 97.4327C73.4866 96.6767 74.0386 96.0827 74.7346 95.6507C75.4426 95.2187 76.2346 95.0027 77.1106 95.0027C77.8066 95.0027 78.4246 95.1347 78.9646 95.3987C79.5166 95.6507 79.9846 95.9987 80.3686 96.4427C80.7526 96.8747 81.0466 97.3667 81.2506 97.9187C81.4546 98.4587 81.5566 99.0167 81.5566 99.5927C81.5566 99.7127 81.5506 99.8507 81.5386 100.007C81.5266 100.151 81.5086 100.301 81.4846 100.457H73.3306V99.1967H80.7106L80.0626 99.7367C80.1706 99.0767 80.0926 98.4887 79.8286 97.9727C79.5766 97.4447 79.2106 97.0307 78.7306 96.7307C78.2506 96.4187 77.7106 96.2627 77.1106 96.2627C76.5106 96.2627 75.9526 96.4187 75.4366 96.7307C74.9326 97.0427 74.5366 97.4807 74.2486 98.0447C73.9606 98.5967 73.8466 99.2567 73.9066 100.025C73.8466 100.793 73.9666 101.465 74.2666 102.041C74.5786 102.605 74.9986 103.043 75.5266 103.355C76.0666 103.667 76.6426 103.823 77.2546 103.823C77.9626 103.823 78.5566 103.655 79.0366 103.319C79.5166 102.983 79.9066 102.563 80.2066 102.059L81.3586 102.671C81.1666 103.103 80.8726 103.505 80.4766 103.877C80.0806 104.237 79.6066 104.531 79.0546 104.759C78.5146 104.975 77.9146 105.083 77.2546 105.083ZM86.9954 104.867V95.2187H88.3454V104.867H86.9954ZM86.9954 93.4367V91.4567H88.3454V93.4367H86.9954ZM91.1087 104.867V95.2187H92.4587V97.0907L92.1527 97.0187C92.3927 96.3947 92.7827 95.9027 93.3227 95.5427C93.8747 95.1827 94.5107 95.0027 95.2307 95.0027C95.9147 95.0027 96.5267 95.1587 97.0667 95.4707C97.6187 95.7827 98.0507 96.2147 98.3627 96.7667C98.6867 97.3067 98.8487 97.9187 98.8487 98.6027V104.867H97.4987V99.1247C97.4987 98.5367 97.3907 98.0387 97.1747 97.6307C96.9707 97.2227 96.6767 96.9107 96.2927 96.6947C95.9207 96.4667 95.4887 96.3527 94.9967 96.3527C94.5047 96.3527 94.0667 96.4667 93.6827 96.6947C93.2987 96.9107 92.9987 97.2287 92.7827 97.6487C92.5667 98.0567 92.4587 98.5487 92.4587 99.1247V104.867H91.1087ZM104.486 108.467V95.2187H105.836V97.3787L105.62 97.0007C106.004 96.3887 106.514 95.9027 107.15 95.5427C107.798 95.1827 108.536 95.0027 109.364 95.0027C110.276 95.0027 111.086 95.2247 111.794 95.6687C112.514 96.1007 113.078 96.6947 113.486 97.4507C113.906 98.2067 114.116 99.0707 114.116 100.043C114.116 101.003 113.906 101.867 113.486 102.635C113.078 103.391 112.514 103.991 111.794 104.435C111.086 104.867 110.276 105.083 109.364 105.083C108.536 105.083 107.786 104.897 107.114 104.525C106.454 104.141 105.956 103.601 105.62 102.905L105.836 102.707V108.467H104.486ZM109.292 103.733C109.94 103.733 110.516 103.571 111.02 103.247C111.536 102.923 111.938 102.485 112.226 101.933C112.526 101.369 112.676 100.739 112.676 100.043C112.676 99.3347 112.526 98.7047 112.226 98.1527C111.938 97.6007 111.536 97.1627 111.02 96.8387C110.516 96.5147 109.94 96.3527 109.292 96.3527C108.644 96.3527 108.056 96.5147 107.528 96.8387C107.012 97.1627 106.598 97.6067 106.286 98.1707C105.986 98.7227 105.836 99.3467 105.836 100.043C105.836 100.739 105.986 101.369 106.286 101.933C106.598 102.485 107.012 102.923 107.528 103.247C108.056 103.571 108.644 103.733 109.292 103.733ZM116.491 104.867V95.2187H117.841V96.8027L117.661 96.5687C117.889 96.1127 118.231 95.7527 118.687 95.4887C119.155 95.2247 119.719 95.0927 120.379 95.0927H120.991V96.4427H120.145C119.449 96.4427 118.891 96.6587 118.471 97.0907C118.051 97.5227 117.841 98.1347 117.841 98.9267V104.867H116.491ZM127.092 105.083C126.18 105.083 125.352 104.867 124.608 104.435C123.864 103.991 123.27 103.391 122.826 102.635C122.394 101.867 122.178 100.997 122.178 100.025C122.178 99.0647 122.394 98.2067 122.826 97.4507C123.258 96.6947 123.84 96.1007 124.572 95.6687C125.316 95.2247 126.156 95.0027 127.092 95.0027C128.028 95.0027 128.862 95.2187 129.594 95.6507C130.338 96.0827 130.92 96.6767 131.34 97.4327C131.772 98.1887 131.988 99.0527 131.988 100.025C131.988 101.009 131.766 101.885 131.322 102.653C130.878 103.409 130.284 104.003 129.54 104.435C128.808 104.867 127.992 105.083 127.092 105.083ZM127.092 103.733C127.74 103.733 128.322 103.571 128.838 103.247C129.366 102.923 129.78 102.479 130.08 101.915C130.392 101.351 130.548 100.721 130.548 100.025C130.548 99.3287 130.392 98.7047 130.08 98.1527C129.78 97.6007 129.366 97.1627 128.838 96.8387C128.322 96.5147 127.74 96.3527 127.092 96.3527C126.444 96.3527 125.856 96.5147 125.328 96.8387C124.812 97.1627 124.398 97.6007 124.086 98.1527C123.774 98.7047 123.618 99.3287 123.618 100.025C123.618 100.721 123.774 101.351 124.086 101.915C124.398 102.479 124.812 102.923 125.328 103.247C125.856 103.571 126.444 103.733 127.092 103.733ZM132.568 108.827C132.484 108.827 132.37 108.821 132.226 108.809C132.07 108.797 131.944 108.779 131.848 108.755V107.513C132.1 107.549 132.352 107.567 132.604 107.567C133.096 107.567 133.51 107.417 133.846 107.117C134.194 106.817 134.368 106.367 134.368 105.767V95.2187H135.718V105.767C135.718 106.427 135.574 106.985 135.286 107.441C134.998 107.897 134.614 108.239 134.134 108.467C133.666 108.707 133.144 108.827 132.568 108.827ZM134.368 93.4367V91.4567H135.718V93.4367H134.368ZM142.874 105.083C141.974 105.083 141.158 104.867 140.426 104.435C139.706 103.991 139.136 103.385 138.716 102.617C138.296 101.849 138.086 100.979 138.086 100.007C138.086 99.0347 138.29 98.1767 138.698 97.4327C139.106 96.6767 139.658 96.0827 140.354 95.6507C141.062 95.2187 141.854 95.0027 142.73 95.0027C143.426 95.0027 144.044 95.1347 144.584 95.3987C145.136 95.6507 145.604 95.9987 145.988 96.4427C146.372 96.8747 146.666 97.3667 146.87 97.9187C147.074 98.4587 147.176 99.0167 147.176 99.5927C147.176 99.7127 147.17 99.8507 147.158 100.007C147.146 100.151 147.128 100.301 147.104 100.457H138.95V99.1967H146.33L145.682 99.7367C145.79 99.0767 145.712 98.4887 145.448 97.9727C145.196 97.4447 144.83 97.0307 144.35 96.7307C143.87 96.4187 143.33 96.2627 142.73 96.2627C142.13 96.2627 141.572 96.4187 141.056 96.7307C140.552 97.0427 140.156 97.4807 139.868 98.0447C139.58 98.5967 139.466 99.2567 139.526 100.025C139.466 100.793 139.586 101.465 139.886 102.041C140.198 102.605 140.618 103.043 141.146 103.355C141.686 103.667 142.262 103.823 142.874 103.823C143.582 103.823 144.176 103.655 144.656 103.319C145.136 102.983 145.526 102.563 145.826 102.059L146.978 102.671C146.786 103.103 146.492 103.505 146.096 103.877C145.7 104.237 145.226 104.531 144.674 104.759C144.134 104.975 143.534 105.083 142.874 105.083ZM153.966 105.083C153.018 105.083 152.184 104.861 151.464 104.417C150.744 103.973 150.18 103.373 149.772 102.617C149.364 101.849 149.16 100.985 149.16 100.025C149.16 99.0647 149.364 98.2067 149.772 97.4507C150.18 96.6947 150.744 96.1007 151.464 95.6687C152.184 95.2247 153.018 95.0027 153.966 95.0027C154.566 95.0027 155.13 95.1107 155.658 95.3267C156.186 95.5427 156.654 95.8367 157.062 96.2087C157.47 96.5687 157.776 96.9887 157.98 97.4687L156.756 98.0987C156.516 97.5827 156.15 97.1627 155.658 96.8387C155.166 96.5147 154.602 96.3527 153.966 96.3527C153.33 96.3527 152.754 96.5147 152.238 96.8387C151.734 97.1507 151.332 97.5887 151.032 98.1527C150.744 98.7047 150.6 99.3347 150.6 100.043C150.6 100.739 150.744 101.369 151.032 101.933C151.332 102.485 151.734 102.923 152.238 103.247C152.754 103.571 153.33 103.733 153.966 103.733C154.602 103.733 155.16 103.571 155.64 103.247C156.132 102.923 156.504 102.491 156.756 101.951L157.98 102.617C157.776 103.085 157.47 103.505 157.062 103.877C156.654 104.249 156.186 104.543 155.658 104.759C155.13 104.975 154.566 105.083 153.966 105.083ZM164.039 104.975C163.175 104.975 162.509 104.723 162.041 104.219C161.573 103.715 161.339 102.995 161.339 102.059V96.5687H159.557V95.2187H160.007C160.415 95.2187 160.739 95.0867 160.979 94.8227C161.219 94.5467 161.339 94.2047 161.339 93.7967V92.9867H162.689V95.2187H164.813V96.5687H162.689V102.059C162.689 102.383 162.737 102.671 162.833 102.923C162.929 103.163 163.091 103.355 163.319 103.499C163.559 103.643 163.877 103.715 164.273 103.715C164.369 103.715 164.483 103.709 164.615 103.697C164.747 103.685 164.861 103.673 164.957 103.661V104.867C164.813 104.903 164.651 104.927 164.471 104.939C164.291 104.963 164.147 104.975 164.039 104.975ZM170.675 105.083C169.751 105.083 168.941 104.849 168.245 104.381C167.549 103.913 167.045 103.277 166.733 102.473L167.867 101.933C168.143 102.521 168.527 102.989 169.019 103.337C169.523 103.685 170.075 103.859 170.675 103.859C171.251 103.859 171.737 103.721 172.133 103.445C172.529 103.157 172.727 102.785 172.727 102.329C172.727 101.993 172.631 101.729 172.439 101.537C172.247 101.333 172.025 101.177 171.773 101.069C171.521 100.961 171.299 100.883 171.107 100.835L169.721 100.439C168.833 100.187 168.191 99.8327 167.795 99.3767C167.399 98.9207 167.201 98.3927 167.201 97.7927C167.201 97.2287 167.345 96.7367 167.633 96.3167C167.921 95.8967 168.311 95.5727 168.803 95.3447C169.295 95.1167 169.841 95.0027 170.441 95.0027C171.257 95.0027 171.995 95.2187 172.655 95.6507C173.327 96.0707 173.801 96.6587 174.077 97.4147L172.925 97.9547C172.685 97.4147 172.337 96.9947 171.881 96.6947C171.437 96.3827 170.939 96.2267 170.387 96.2267C169.847 96.2267 169.415 96.3647 169.091 96.6407C168.767 96.9167 168.605 97.2647 168.605 97.6847C168.605 98.0087 168.689 98.2667 168.857 98.4587C169.025 98.6507 169.217 98.7947 169.433 98.8907C169.661 98.9867 169.859 99.0587 170.027 99.1067L171.629 99.5747C172.409 99.8027 173.015 100.157 173.447 100.637C173.891 101.117 174.113 101.681 174.113 102.329C174.113 102.857 173.963 103.331 173.663 103.751C173.375 104.171 172.973 104.501 172.457 104.741C171.941 104.969 171.347 105.083 170.675 105.083ZM183.234 104.975C182.37 104.975 181.704 104.723 181.236 104.219C180.768 103.715 180.534 102.995 180.534 102.059V96.5687H178.752V95.2187H179.202C179.61 95.2187 179.934 95.0867 180.174 94.8227C180.414 94.5467 180.534 94.2047 180.534 93.7967V92.9867H181.884V95.2187H184.008V96.5687H181.884V102.059C181.884 102.383 181.932 102.671 182.028 102.923C182.124 103.163 182.286 103.355 182.514 103.499C182.754 103.643 183.072 103.715 183.468 103.715C183.564 103.715 183.678 103.709 183.81 103.697C183.942 103.685 184.056 103.673 184.152 103.661V104.867C184.008 104.903 183.846 104.927 183.666 104.939C183.486 104.963 183.342 104.975 183.234 104.975ZM186.523 104.867V91.2407H187.873V97.0907L187.567 97.0187C187.807 96.3947 188.197 95.9027 188.737 95.5427C189.289 95.1827 189.925 95.0027 190.645 95.0027C191.329 95.0027 191.941 95.1587 192.481 95.4707C193.033 95.7827 193.465 96.2147 193.777 96.7667C194.101 97.3067 194.263 97.9187 194.263 98.6027V104.867H192.913V99.1247C192.913 98.5367 192.805 98.0387 192.589 97.6307C192.373 97.2227 192.073 96.9107 191.689 96.6947C191.317 96.4667 190.891 96.3527 190.411 96.3527C189.931 96.3527 189.499 96.4667 189.115 96.6947C188.731 96.9107 188.425 97.2287 188.197 97.6487C187.981 98.0567 187.873 98.5487 187.873 99.1247V104.867H186.523ZM199.631 105.083C199.019 105.083 198.473 104.969 197.993 104.741C197.513 104.501 197.135 104.177 196.859 103.769C196.583 103.361 196.445 102.893 196.445 102.365C196.445 101.861 196.553 101.405 196.769 100.997C196.985 100.577 197.321 100.223 197.777 99.9347C198.233 99.6467 198.815 99.4427 199.523 99.3227L203.303 98.6927V99.9167L199.847 100.493C199.151 100.613 198.647 100.835 198.335 101.159C198.035 101.483 197.885 101.867 197.885 102.311C197.885 102.743 198.053 103.109 198.389 103.409C198.737 103.709 199.181 103.859 199.721 103.859C200.381 103.859 200.957 103.721 201.449 103.445C201.941 103.157 202.325 102.773 202.601 102.293C202.877 101.813 203.015 101.279 203.015 100.691V98.2427C203.015 97.6667 202.805 97.1987 202.385 96.8387C201.965 96.4787 201.419 96.2987 200.747 96.2987C200.159 96.2987 199.643 96.4487 199.199 96.7487C198.755 97.0367 198.425 97.4147 198.209 97.8827L196.985 97.2167C197.165 96.8087 197.447 96.4367 197.831 96.1007C198.227 95.7647 198.677 95.5007 199.181 95.3087C199.685 95.1047 200.207 95.0027 200.747 95.0027C201.455 95.0027 202.079 95.1407 202.619 95.4167C203.171 95.6927 203.597 96.0767 203.897 96.5687C204.209 97.0487 204.365 97.6067 204.365 98.2427V104.867H203.015V102.941L203.213 103.139C203.045 103.499 202.781 103.829 202.421 104.129C202.073 104.417 201.659 104.651 201.179 104.831C200.711 104.999 200.195 105.083 199.631 105.083ZM210.656 104.975C209.792 104.975 209.126 104.723 208.658 104.219C208.19 103.715 207.956 102.995 207.956 102.059V96.5687H206.174V95.2187H206.624C207.032 95.2187 207.356 95.0867 207.596 94.8227C207.836 94.5467 207.956 94.2047 207.956 93.7967V92.9867H209.306V95.2187H211.43V96.5687H209.306V102.059C209.306 102.383 209.354 102.671 209.45 102.923C209.546 103.163 209.708 103.355 209.936 103.499C210.176 103.643 210.494 103.715 210.89 103.715C210.986 103.715 211.1 103.709 211.232 103.697C211.364 103.685 211.478 103.673 211.574 103.661V104.867C211.43 104.903 211.268 104.927 211.088 104.939C210.908 104.963 210.764 104.975 210.656 104.975ZM217.003 104.867V95.2187H218.353V97.0547L218.137 96.7847C218.401 96.2207 218.791 95.7827 219.307 95.4707C219.835 95.1587 220.411 95.0027 221.035 95.0027C221.779 95.0027 222.451 95.2127 223.051 95.6327C223.651 96.0527 224.077 96.5987 224.329 97.2707L223.951 97.2887C224.191 96.5447 224.605 95.9807 225.193 95.5967C225.793 95.2007 226.453 95.0027 227.173 95.0027C227.821 95.0027 228.415 95.1587 228.955 95.4707C229.507 95.7827 229.945 96.2147 230.269 96.7667C230.605 97.3067 230.773 97.9187 230.773 98.6027V104.867H229.423V99.1247C229.423 98.5367 229.315 98.0387 229.099 97.6307C228.895 97.2227 228.613 96.9107 228.253 96.6947C227.893 96.4667 227.479 96.3527 227.011 96.3527C226.555 96.3527 226.141 96.4667 225.769 96.6947C225.397 96.9107 225.103 97.2287 224.887 97.6487C224.671 98.0567 224.563 98.5487 224.563 99.1247V104.867H223.213V99.1247C223.213 98.5367 223.105 98.0387 222.889 97.6307C222.685 97.2227 222.403 96.9107 222.043 96.6947C221.683 96.4667 221.269 96.3527 220.801 96.3527C220.333 96.3527 219.913 96.4667 219.541 96.6947C219.181 96.9107 218.893 97.2287 218.677 97.6487C218.461 98.0567 218.353 98.5487 218.353 99.1247V104.867H217.003ZM233.351 104.867V95.2187H234.701V104.867H233.351ZM233.351 93.4367V91.4567H234.701V93.4367H233.351ZM237.464 104.867V95.2187H238.814V96.8027L238.634 96.5687C238.862 96.1127 239.204 95.7527 239.66 95.4887C240.128 95.2247 240.692 95.0927 241.352 95.0927H241.964V96.4427H241.118C240.422 96.4427 239.864 96.6587 239.444 97.0907C239.024 97.5227 238.814 98.1347 238.814 98.9267V104.867H237.464ZM243.546 104.867V95.2187H244.896V96.8027L244.716 96.5687C244.944 96.1127 245.286 95.7527 245.742 95.4887C246.21 95.2247 246.774 95.0927 247.434 95.0927H248.046V96.4427H247.2C246.504 96.4427 245.946 96.6587 245.526 97.0907C245.106 97.5227 244.896 98.1347 244.896 98.9267V104.867H243.546ZM254.146 105.083C253.234 105.083 252.406 104.867 251.662 104.435C250.918 103.991 250.324 103.391 249.88 102.635C249.448 101.867 249.232 100.997 249.232 100.025C249.232 99.0647 249.448 98.2067 249.88 97.4507C250.312 96.6947 250.894 96.1007 251.626 95.6687C252.37 95.2247 253.21 95.0027 254.146 95.0027C255.082 95.0027 255.916 95.2187 256.648 95.6507C257.392 96.0827 257.974 96.6767 258.394 97.4327C258.826 98.1887 259.042 99.0527 259.042 100.025C259.042 101.009 258.82 101.885 258.376 102.653C257.932 103.409 257.338 104.003 256.594 104.435C255.862 104.867 255.046 105.083 254.146 105.083ZM254.146 103.733C254.794 103.733 255.376 103.571 255.892 103.247C256.42 102.923 256.834 102.479 257.134 101.915C257.446 101.351 257.602 100.721 257.602 100.025C257.602 99.3287 257.446 98.7047 257.134 98.1527C256.834 97.6007 256.42 97.1627 255.892 96.8387C255.376 96.5147 254.794 96.3527 254.146 96.3527C253.498 96.3527 252.91 96.5147 252.382 96.8387C251.866 97.1627 251.452 97.6007 251.14 98.1527C250.828 98.7047 250.672 99.3287 250.672 100.025C250.672 100.721 250.828 101.351 251.14 101.915C251.452 102.479 251.866 102.923 252.382 103.247C252.91 103.571 253.498 103.733 254.146 103.733ZM261.423 104.867V95.2187H262.773V96.8027L262.593 96.5687C262.821 96.1127 263.163 95.7527 263.619 95.4887C264.087 95.2247 264.651 95.0927 265.311 95.0927H265.923V96.4427H265.077C264.381 96.4427 263.823 96.6587 263.403 97.0907C262.983 97.5227 262.773 98.1347 262.773 98.9267V104.867H261.423ZM270.564 104.867V95.2187H271.914V96.8027L271.734 96.5687C271.962 96.1127 272.304 95.7527 272.76 95.4887C273.228 95.2247 273.792 95.0927 274.452 95.0927H275.064V96.4427H274.218C273.522 96.4427 272.964 96.6587 272.544 97.0907C272.124 97.5227 271.914 98.1347 271.914 98.9267V104.867H270.564ZM281.038 105.083C280.138 105.083 279.322 104.867 278.59 104.435C277.87 103.991 277.3 103.385 276.88 102.617C276.46 101.849 276.25 100.979 276.25 100.007C276.25 99.0347 276.454 98.1767 276.862 97.4327C277.27 96.6767 277.822 96.0827 278.518 95.6507C279.226 95.2187 280.018 95.0027 280.894 95.0027C281.59 95.0027 282.208 95.1347 282.748 95.3987C283.3 95.6507 283.768 95.9987 284.152 96.4427C284.536 96.8747 284.83 97.3667 285.034 97.9187C285.238 98.4587 285.34 99.0167 285.34 99.5927C285.34 99.7127 285.334 99.8507 285.322 100.007C285.31 100.151 285.292 100.301 285.268 100.457H277.114V99.1967H284.494L283.846 99.7367C283.954 99.0767 283.876 98.4887 283.612 97.9727C283.36 97.4447 282.994 97.0307 282.514 96.7307C282.034 96.4187 281.494 96.2627 280.894 96.2627C280.294 96.2627 279.736 96.4187 279.22 96.7307C278.716 97.0427 278.32 97.4807 278.032 98.0447C277.744 98.5967 277.63 99.2567 277.69 100.025C277.63 100.793 277.75 101.465 278.05 102.041C278.362 102.605 278.782 103.043 279.31 103.355C279.85 103.667 280.426 103.823 281.038 103.823C281.746 103.823 282.34 103.655 282.82 103.319C283.3 102.983 283.69 102.563 283.99 102.059L285.142 102.671C284.95 103.103 284.656 103.505 284.26 103.877C283.864 104.237 283.39 104.531 282.838 104.759C282.298 104.975 281.698 105.083 281.038 105.083ZM290.334 105.083C289.722 105.083 289.176 104.969 288.696 104.741C288.216 104.501 287.838 104.177 287.562 103.769C287.286 103.361 287.148 102.893 287.148 102.365C287.148 101.861 287.256 101.405 287.472 100.997C287.688 100.577 288.024 100.223 288.48 99.9347C288.936 99.6467 289.518 99.4427 290.226 99.3227L294.006 98.6927V99.9167L290.55 100.493C289.854 100.613 289.35 100.835 289.038 101.159C288.738 101.483 288.588 101.867 288.588 102.311C288.588 102.743 288.756 103.109 289.092 103.409C289.44 103.709 289.884 103.859 290.424 103.859C291.084 103.859 291.66 103.721 292.152 103.445C292.644 103.157 293.028 102.773 293.304 102.293C293.58 101.813 293.718 101.279 293.718 100.691V98.2427C293.718 97.6667 293.508 97.1987 293.088 96.8387C292.668 96.4787 292.122 96.2987 291.45 96.2987C290.862 96.2987 290.346 96.4487 289.902 96.7487C289.458 97.0367 289.128 97.4147 288.912 97.8827L287.688 97.2167C287.868 96.8087 288.15 96.4367 288.534 96.1007C288.93 95.7647 289.38 95.5007 289.884 95.3087C290.388 95.1047 290.91 95.0027 291.45 95.0027C292.158 95.0027 292.782 95.1407 293.322 95.4167C293.874 95.6927 294.3 96.0767 294.6 96.5687C294.912 97.0487 295.068 97.6067 295.068 98.2427V104.867H293.718V102.941L293.916 103.139C293.748 103.499 293.484 103.829 293.124 104.129C292.776 104.417 292.362 104.651 291.882 104.831C291.414 104.999 290.898 105.083 290.334 105.083ZM297.845 104.867V91.2407H299.195V104.867H297.845ZM303.217 108.827C303.133 108.827 303.019 108.821 302.875 108.809C302.719 108.797 302.593 108.779 302.497 108.755V107.513C302.749 107.549 303.001 107.567 303.253 107.567C303.745 107.567 304.159 107.417 304.495 107.117C304.843 106.817 305.017 106.367 305.017 105.767V95.2187H306.367V105.767C306.367 106.427 306.223 106.985 305.935 107.441C305.647 107.897 305.263 108.239 304.783 108.467C304.315 108.707 303.793 108.827 303.217 108.827ZM305.017 93.4367V91.4567H306.367V93.4367H305.017ZM313.648 105.083C312.736 105.083 311.908 104.867 311.164 104.435C310.42 103.991 309.826 103.391 309.382 102.635C308.95 101.867 308.734 100.997 308.734 100.025C308.734 99.0647 308.95 98.2067 309.382 97.4507C309.814 96.6947 310.396 96.1007 311.128 95.6687C311.872 95.2247 312.712 95.0027 313.648 95.0027C314.584 95.0027 315.418 95.2187 316.15 95.6507C316.894 96.0827 317.476 96.6767 317.896 97.4327C318.328 98.1887 318.544 99.0527 318.544 100.025C318.544 101.009 318.322 101.885 317.878 102.653C317.434 103.409 316.84 104.003 316.096 104.435C315.364 104.867 314.548 105.083 313.648 105.083ZM313.648 103.733C314.296 103.733 314.878 103.571 315.394 103.247C315.922 102.923 316.336 102.479 316.636 101.915C316.948 101.351 317.104 100.721 317.104 100.025C317.104 99.3287 316.948 98.7047 316.636 98.1527C316.336 97.6007 315.922 97.1627 315.394 96.8387C314.878 96.5147 314.296 96.3527 313.648 96.3527C313 96.3527 312.412 96.5147 311.884 96.8387C311.368 97.1627 310.954 97.6007 310.642 98.1527C310.33 98.7047 310.174 99.3287 310.174 100.025C310.174 100.721 310.33 101.351 310.642 101.915C310.954 102.479 311.368 102.923 311.884 103.247C312.412 103.571 313 103.733 313.648 103.733ZM325.803 105.083C324.975 105.083 324.225 104.897 323.553 104.525C322.893 104.141 322.395 103.601 322.059 102.905L322.275 102.707V104.867H320.925V91.2407H322.275V97.3787L322.059 97.0007C322.443 96.3887 322.953 95.9027 323.589 95.5427C324.237 95.1827 324.975 95.0027 325.803 95.0027C326.715 95.0027 327.525 95.2247 328.233 95.6687C328.953 96.1007 329.517 96.6947 329.925 97.4507C330.345 98.2067 330.555 99.0707 330.555 100.043C330.555 101.003 330.345 101.867 329.925 102.635C329.517 103.391 328.953 103.991 328.233 104.435C327.525 104.867 326.715 105.083 325.803 105.083ZM325.731 103.733C326.379 103.733 326.955 103.571 327.459 103.247C327.975 102.923 328.377 102.485 328.665 101.933C328.965 101.369 329.115 100.739 329.115 100.043C329.115 99.3347 328.965 98.7047 328.665 98.1527C328.377 97.6007 327.975 97.1627 327.459 96.8387C326.955 96.5147 326.379 96.3527 325.731 96.3527C325.083 96.3527 324.495 96.5147 323.967 96.8387C323.451 97.1627 323.037 97.6067 322.725 98.1707C322.425 98.7227 322.275 99.3467 322.275 100.043C322.275 100.739 322.425 101.369 322.725 101.933C323.037 102.485 323.451 102.923 323.967 103.247C324.495 103.571 325.083 103.733 325.731 103.733ZM339.338 105.083C338.414 105.083 337.604 104.849 336.908 104.381C336.212 103.913 335.708 103.277 335.396 102.473L336.53 101.933C336.806 102.521 337.19 102.989 337.682 103.337C338.186 103.685 338.738 103.859 339.338 103.859C339.914 103.859 340.4 103.721 340.796 103.445C341.192 103.157 341.39 102.785 341.39 102.329C341.39 101.993 341.294 101.729 341.102 101.537C340.91 101.333 340.688 101.177 340.436 101.069C340.184 100.961 339.962 100.883 339.77 100.835L338.384 100.439C337.496 100.187 336.854 99.8327 336.458 99.3767C336.062 98.9207 335.864 98.3927 335.864 97.7927C335.864 97.2287 336.008 96.7367 336.296 96.3167C336.584 95.8967 336.974 95.5727 337.466 95.3447C337.958 95.1167 338.504 95.0027 339.104 95.0027C339.92 95.0027 340.658 95.2187 341.318 95.6507C341.99 96.0707 342.464 96.6587 342.74 97.4147L341.588 97.9547C341.348 97.4147 341 96.9947 340.544 96.6947C340.1 96.3827 339.602 96.2267 339.05 96.2267C338.51 96.2267 338.078 96.3647 337.754 96.6407C337.43 96.9167 337.268 97.2647 337.268 97.6847C337.268 98.0087 337.352 98.2667 337.52 98.4587C337.688 98.6507 337.88 98.7947 338.096 98.8907C338.324 98.9867 338.522 99.0587 338.69 99.1067L340.292 99.5747C341.072 99.8027 341.678 100.157 342.11 100.637C342.554 101.117 342.776 101.681 342.776 102.329C342.776 102.857 342.626 103.331 342.326 103.751C342.038 104.171 341.636 104.501 341.12 104.741C340.604 104.969 340.01 105.083 339.338 105.083ZM349.558 105.083C348.61 105.083 347.776 104.861 347.056 104.417C346.336 103.973 345.772 103.373 345.364 102.617C344.956 101.849 344.752 100.985 344.752 100.025C344.752 99.0647 344.956 98.2067 345.364 97.4507C345.772 96.6947 346.336 96.1007 347.056 95.6687C347.776 95.2247 348.61 95.0027 349.558 95.0027C350.158 95.0027 350.722 95.1107 351.25 95.3267C351.778 95.5427 352.246 95.8367 352.654 96.2087C353.062 96.5687 353.368 96.9887 353.572 97.4687L352.348 98.0987C352.108 97.5827 351.742 97.1627 351.25 96.8387C350.758 96.5147 350.194 96.3527 349.558 96.3527C348.922 96.3527 348.346 96.5147 347.83 96.8387C347.326 97.1507 346.924 97.5887 346.624 98.1527C346.336 98.7047 346.192 99.3347 346.192 100.043C346.192 100.739 346.336 101.369 346.624 101.933C346.924 102.485 347.326 102.923 347.83 103.247C348.346 103.571 348.922 103.733 349.558 103.733C350.194 103.733 350.752 103.571 351.232 103.247C351.724 102.923 352.096 102.491 352.348 101.951L353.572 102.617C353.368 103.085 353.062 103.505 352.654 103.877C352.246 104.249 351.778 104.543 351.25 104.759C350.722 104.975 350.158 105.083 349.558 105.083ZM360.333 105.083C359.433 105.083 358.617 104.867 357.885 104.435C357.165 103.991 356.595 103.385 356.175 102.617C355.755 101.849 355.545 100.979 355.545 100.007C355.545 99.0347 355.749 98.1767 356.157 97.4327C356.565 96.6767 357.117 96.0827 357.813 95.6507C358.521 95.2187 359.313 95.0027 360.189 95.0027C360.885 95.0027 361.503 95.1347 362.043 95.3987C362.595 95.6507 363.063 95.9987 363.447 96.4427C363.831 96.8747 364.125 97.3667 364.329 97.9187C364.533 98.4587 364.635 99.0167 364.635 99.5927C364.635 99.7127 364.629 99.8507 364.617 100.007C364.605 100.151 364.587 100.301 364.563 100.457H356.409V99.1967H363.789L363.141 99.7367C363.249 99.0767 363.171 98.4887 362.907 97.9727C362.655 97.4447 362.289 97.0307 361.809 96.7307C361.329 96.4187 360.789 96.2627 360.189 96.2627C359.589 96.2627 359.031 96.4187 358.515 96.7307C358.011 97.0427 357.615 97.4807 357.327 98.0447C357.039 98.5967 356.925 99.2567 356.985 100.025C356.925 100.793 357.045 101.465 357.345 102.041C357.657 102.605 358.077 103.043 358.605 103.355C359.145 103.667 359.721 103.823 360.333 103.823C361.041 103.823 361.635 103.655 362.115 103.319C362.595 102.983 362.985 102.563 363.285 102.059L364.437 102.671C364.245 103.103 363.951 103.505 363.555 103.877C363.159 104.237 362.685 104.531 362.133 104.759C361.593 104.975 360.993 105.083 360.333 105.083ZM367.015 104.867V95.2187H368.365V97.0907L368.059 97.0187C368.299 96.3947 368.689 95.9027 369.229 95.5427C369.781 95.1827 370.417 95.0027 371.137 95.0027C371.821 95.0027 372.433 95.1587 372.973 95.4707C373.525 95.7827 373.957 96.2147 374.269 96.7667C374.593 97.3067 374.755 97.9187 374.755 98.6027V104.867H373.405V99.1247C373.405 98.5367 373.297 98.0387 373.081 97.6307C372.877 97.2227 372.583 96.9107 372.199 96.6947C371.827 96.4667 371.395 96.3527 370.903 96.3527C370.411 96.3527 369.973 96.4667 369.589 96.6947C369.205 96.9107 368.905 97.2287 368.689 97.6487C368.473 98.0567 368.365 98.5487 368.365 99.1247V104.867H367.015ZM380.123 105.083C379.511 105.083 378.965 104.969 378.485 104.741C378.005 104.501 377.627 104.177 377.351 103.769C377.075 103.361 376.937 102.893 376.937 102.365C376.937 101.861 377.045 101.405 377.261 100.997C377.477 100.577 377.813 100.223 378.269 99.9347C378.725 99.6467 379.307 99.4427 380.015 99.3227L383.795 98.6927V99.9167L380.339 100.493C379.643 100.613 379.139 100.835 378.827 101.159C378.527 101.483 378.377 101.867 378.377 102.311C378.377 102.743 378.545 103.109 378.881 103.409C379.229 103.709 379.673 103.859 380.213 103.859C380.873 103.859 381.449 103.721 381.941 103.445C382.433 103.157 382.817 102.773 383.093 102.293C383.369 101.813 383.507 101.279 383.507 100.691V98.2427C383.507 97.6667 383.297 97.1987 382.877 96.8387C382.457 96.4787 381.911 96.2987 381.239 96.2987C380.651 96.2987 380.135 96.4487 379.691 96.7487C379.247 97.0367 378.917 97.4147 378.701 97.8827L377.477 97.2167C377.657 96.8087 377.939 96.4367 378.323 96.1007C378.719 95.7647 379.169 95.5007 379.673 95.3087C380.177 95.1047 380.699 95.0027 381.239 95.0027C381.947 95.0027 382.571 95.1407 383.111 95.4167C383.663 95.6927 384.089 96.0767 384.389 96.5687C384.701 97.0487 384.857 97.6067 384.857 98.2427V104.867H383.507V102.941L383.705 103.139C383.537 103.499 383.273 103.829 382.913 104.129C382.565 104.417 382.151 104.651 381.671 104.831C381.203 104.999 380.687 105.083 380.123 105.083ZM387.634 104.867V95.2187H388.984V96.8027L388.804 96.5687C389.032 96.1127 389.374 95.7527 389.83 95.4887C390.298 95.2247 390.862 95.0927 391.522 95.0927H392.134V96.4427H391.288C390.592 96.4427 390.034 96.6587 389.614 97.0907C389.194 97.5227 388.984 98.1347 388.984 98.9267V104.867H387.634ZM393.716 104.867V95.2187H395.066V104.867H393.716ZM393.716 93.4367V91.4567H395.066V93.4367H393.716ZM402.347 105.083C401.435 105.083 400.607 104.867 399.863 104.435C399.119 103.991 398.525 103.391 398.081 102.635C397.649 101.867 397.433 100.997 397.433 100.025C397.433 99.0647 397.649 98.2067 398.081 97.4507C398.513 96.6947 399.095 96.1007 399.827 95.6687C400.571 95.2247 401.411 95.0027 402.347 95.0027C403.283 95.0027 404.117 95.2187 404.849 95.6507C405.593 96.0827 406.175 96.6767 406.595 97.4327C407.027 98.1887 407.243 99.0527 407.243 100.025C407.243 101.009 407.021 101.885 406.577 102.653C406.133 103.409 405.539 104.003 404.795 104.435C404.063 104.867 403.247 105.083 402.347 105.083ZM402.347 103.733C402.995 103.733 403.577 103.571 404.093 103.247C404.621 102.923 405.035 102.479 405.335 101.915C405.647 101.351 405.803 100.721 405.803 100.025C405.803 99.3287 405.647 98.7047 405.335 98.1527C405.035 97.6007 404.621 97.1627 404.093 96.8387C403.577 96.5147 402.995 96.3527 402.347 96.3527C401.699 96.3527 401.111 96.5147 400.583 96.8387C400.067 97.1627 399.653 97.6007 399.341 98.1527C399.029 98.7047 398.873 99.3287 398.873 100.025C398.873 100.721 399.029 101.351 399.341 101.915C399.653 102.479 400.067 102.923 400.583 103.247C401.111 103.571 401.699 103.733 402.347 103.733ZM412.972 105.083C412.048 105.083 411.238 104.849 410.542 104.381C409.846 103.913 409.342 103.277 409.03 102.473L410.164 101.933C410.44 102.521 410.824 102.989 411.316 103.337C411.82 103.685 412.372 103.859 412.972 103.859C413.548 103.859 414.034 103.721 414.43 103.445C414.826 103.157 415.024 102.785 415.024 102.329C415.024 101.993 414.928 101.729 414.736 101.537C414.544 101.333 414.322 101.177 414.07 101.069C413.818 100.961 413.596 100.883 413.404 100.835L412.018 100.439C411.13 100.187 410.488 99.8327 410.092 99.3767C409.696 98.9207 409.498 98.3927 409.498 97.7927C409.498 97.2287 409.642 96.7367 409.93 96.3167C410.218 95.8967 410.608 95.5727 411.1 95.3447C411.592 95.1167 412.138 95.0027 412.738 95.0027C413.554 95.0027 414.292 95.2187 414.952 95.6507C415.624 96.0707 416.098 96.6587 416.374 97.4147L415.222 97.9547C414.982 97.4147 414.634 96.9947 414.178 96.6947C413.734 96.3827 413.236 96.2267 412.684 96.2267C412.144 96.2267 411.712 96.3647 411.388 96.6407C411.064 96.9167 410.902 97.2647 410.902 97.6847C410.902 98.0087 410.986 98.2667 411.154 98.4587C411.322 98.6507 411.514 98.7947 411.73 98.8907C411.958 98.9867 412.156 99.0587 412.324 99.1067L413.926 99.5747C414.706 99.8027 415.312 100.157 415.744 100.637C416.188 101.117 416.41 101.681 416.41 102.329C416.41 102.857 416.26 103.331 415.96 103.751C415.672 104.171 415.27 104.501 414.754 104.741C414.238 104.969 413.644 105.083 412.972 105.083Z" fill="#6E6D6D"/>
<path d="M252.482 179.454C252.482 172.827 257.855 167.454 264.482 167.454L407.668 167.454C410.978 167.454 414.141 168.822 416.409 171.233L452.513 209.617C454.606 211.842 455.772 214.783 455.772 217.838V416.568C455.772 423.196 450.399 428.568 443.772 428.568H264.482C257.855 428.568 252.482 423.196 252.482 416.568V179.454Z" fill="#ACC2FA"/>
<path d="M246.158 173.13C246.158 166.502 251.53 161.13 258.158 161.13L412.038 161.13C415.346 161.13 418.508 162.495 420.775 164.904L459.737 206.291C461.833 208.517 463 211.459 463 214.516V427.41C463 434.038 457.627 439.41 451 439.41H258.158C251.53 439.41 246.158 434.038 246.158 427.41V173.13Z" fill="#ACC2FA" fill-opacity="0.2"/>
<rect x="269.649" y="189.139" width="126.491" height="24.3947" rx="8" fill="white"/>
<rect x="269.649" y="227.989" width="161.728" height="13.5526" rx="6.77632" fill="white" fill-opacity="0.5"/>
<rect x="269.649" y="257.805" width="161.728" height="13.5526" rx="6.77632" fill="white" fill-opacity="0.5"/>
<rect x="269.649" y="288.524" width="161.728" height="13.5526" rx="6.77632" fill="white" fill-opacity="0.5"/>
<rect x="269.649" y="319.244" width="161.728" height="51.5" rx="8" fill="white" fill-opacity="0.5"/>
</g>
<rect x="0.5" y="1.3667" width="621" height="369" rx="15.5" stroke="#E2E2E2"/>
<defs>
<clipPath id="clip0_9_1948">
<rect y="0.866699" width="622" height="370" rx="16" fill="white"/>
</clipPath>
</defs>
</svg>
