<svg width="200" height="66" viewBox="0 0 200 66" fill="none" xmlns="http://www.w3.org/2000/svg">
<mask id="mask0_30_1488" style="mask-type:luminance" maskUnits="userSpaceOnUse" x="40" y="11" width="17" height="41">
<path d="M40.3333 11.5H56.7499V51.5H40.3333V11.5Z" fill="white"/>
</mask>
<g mask="url(#mask0_30_1488)">
<path fill-rule="evenodd" clip-rule="evenodd" d="M40.6094 11.6316L47.513 15.6173L56.6836 20.9128V42.0873L47.513 47.3829L40.6094 51.3686V42.4337L43.6445 40.685L48.944 37.6199V25.3803L43.6445 22.3152L40.6094 20.5665" fill="#DCD427"/>
</g>
<mask id="mask1_30_1488" style="mask-type:luminance" maskUnits="userSpaceOnUse" x="20" y="10" width="21" height="43">
<path d="M20 10.323H40.6667V52.573H20V10.323Z" fill="white"/>
</mask>
<g mask="url(#mask1_30_1488)">
<path fill-rule="evenodd" clip-rule="evenodd" d="M26.3776 17.2292L20.0039 20.9128V42.0873L26.3776 45.7709M30.5495 48.1785L38.3451 52.6772L40.6094 51.3686V11.6316L38.3451 10.323L30.5495 14.8217V48.1785Z" fill="#B7B327"/>
</g>
<path d="M62.585 33.4072C62.585 31.6507 62.9157 30.109 63.5798 28.7822C64.2425 27.4528 65.1449 26.4307 66.2881 25.7145C67.4339 24.9997 68.7113 24.6416 70.1214 24.6416C71.2464 24.6416 72.2725 24.8786 73.1995 25.3499C74.1292 25.8187 74.861 26.4515 75.3923 27.2458V19.3135H80.6318V41.9854H75.3923V39.5322C74.9027 40.3525 74.2021 41.0062 73.2933 41.4958C72.3831 41.9854 71.3258 42.2301 70.1214 42.2301C68.7113 42.2301 67.4339 41.8682 66.2881 41.1416C65.1449 40.4163 64.2425 39.3851 63.5798 38.0479C62.9157 36.7119 62.585 35.165 62.585 33.4072ZM75.3923 33.4385C75.3923 32.1299 75.029 31.0986 74.3037 30.3447C73.5771 29.5882 72.6943 29.2093 71.6527 29.2093C70.611 29.2093 69.7269 29.583 69.0016 30.3291C68.2751 31.0726 67.9131 32.0986 67.9131 33.4072C67.9131 34.7132 68.2751 35.7497 69.0016 36.5166C69.7269 37.2809 70.611 37.6624 71.6527 37.6624C72.6943 37.6624 73.5771 37.2861 74.3037 36.5322C75.029 35.7757 75.3923 34.7445 75.3923 33.4385Z" fill="black"/>
<path d="M100.545 33.1624C100.545 33.652 100.515 34.1624 100.456 34.6937H88.5968C88.6762 35.7562 89.016 36.5687 89.6176 37.1312C90.2218 37.6911 90.9626 37.9697 91.8416 37.9697C93.1501 37.9697 94.0603 37.4202 94.5707 36.3187H100.149C99.8598 37.4411 99.3429 38.4515 98.5968 39.3499C97.8533 40.2497 96.9197 40.9541 95.7947 41.4645C94.6723 41.9749 93.4171 42.2301 92.0291 42.2301C90.352 42.2301 88.8585 41.8734 87.5499 41.1572C86.2439 40.4424 85.2231 39.4215 84.4874 38.0947C83.7543 36.7653 83.3884 35.2132 83.3884 33.4385C83.3884 31.6611 83.7491 30.109 84.4718 28.7822C85.197 27.4528 86.2126 26.4307 87.5186 25.7145C88.8272 24.9997 90.3311 24.6416 92.0291 24.6416C93.6814 24.6416 95.1514 24.9893 96.4405 25.6833C97.7283 26.3786 98.7335 27.3695 99.4561 28.6572C100.181 29.9463 100.545 31.4476 100.545 33.1624ZM95.1853 31.7822C95.1853 30.8838 94.878 30.1676 94.2634 29.6364C93.6514 29.1051 92.8858 28.8395 91.9666 28.8395C91.0876 28.8395 90.3468 29.0947 89.7426 29.6051C89.141 30.1156 88.7699 30.8421 88.628 31.7822H95.1853Z" fill="black"/>
<path d="M110.257 42.2301C108.767 42.2301 107.439 41.9749 106.272 41.4645C105.108 40.9541 104.19 40.2549 103.517 39.3656C102.843 38.4775 102.465 37.4801 102.382 36.376H107.559C107.621 36.9697 107.897 37.4515 108.387 37.8187C108.879 38.1872 109.482 38.3708 110.194 38.3708C110.85 38.3708 111.357 38.2445 111.715 37.9906C112.072 37.734 112.251 37.4007 112.251 36.9906C112.251 36.501 111.994 36.1403 111.481 35.9072C110.97 35.6715 110.143 35.4098 109.001 35.1208C107.775 34.8369 106.753 34.5361 105.934 34.2197C105.117 33.9007 104.413 33.3994 103.819 32.7145C103.228 32.0309 102.934 31.1077 102.934 29.9437C102.934 28.9645 103.205 28.0726 103.746 27.2666C104.288 26.458 105.085 25.8187 106.137 25.3499C107.189 24.8786 108.44 24.6416 109.892 24.6416C112.034 24.6416 113.723 25.1729 114.96 26.2354C116.195 27.2979 116.905 28.708 117.09 30.4645H112.251C112.168 29.8708 111.905 29.4007 111.465 29.0531C111.027 28.7067 110.451 28.5322 109.736 28.5322C109.124 28.5322 108.654 28.6507 108.324 28.8864C107.997 29.1234 107.835 29.4437 107.835 29.8499C107.835 30.3434 108.095 30.7132 108.616 30.9593C109.137 31.2028 109.949 31.4463 111.053 31.6885C112.32 32.0153 113.352 32.3382 114.147 32.6572C114.945 32.9736 115.645 33.484 116.246 34.1885C116.85 34.8942 117.163 35.8382 117.184 37.0218C117.184 38.0218 116.902 38.9163 116.34 39.7041C115.777 40.4893 114.97 41.1077 113.918 41.5583C112.866 42.0062 111.645 42.2301 110.257 42.2301Z" fill="black"/>
<path d="M119.358 33.4385C119.358 31.6611 119.719 30.109 120.441 28.7822C121.167 27.4528 122.178 26.4307 123.478 25.7145C124.776 24.9997 126.262 24.6416 127.936 24.6416C130.082 24.6416 131.874 25.2041 133.311 26.3291C134.751 27.4515 135.698 29.0348 136.15 31.0791H130.571C130.103 29.7705 129.193 29.1156 127.842 29.1156C126.884 29.1156 126.118 29.4893 125.545 30.2354C124.972 30.9827 124.686 32.0505 124.686 33.4385C124.686 34.8278 124.972 35.8955 125.545 36.6416C126.118 37.3851 126.884 37.7562 127.842 37.7562C129.193 37.7562 130.103 37.1038 130.571 35.7979H136.15C135.698 37.7979 134.746 39.3708 133.295 40.5166C131.847 41.6598 130.061 42.2301 127.936 42.2301C126.262 42.2301 124.776 41.8734 123.478 41.1572C122.178 40.4424 121.167 39.4215 120.441 38.0947C119.719 36.7653 119.358 35.2132 119.358 33.4385Z" fill="black"/>
<path d="M141.571 23.1105C140.651 23.1105 139.899 22.8397 139.316 22.298C138.735 21.7563 138.446 21.0884 138.446 20.2928C138.446 19.4777 138.735 18.798 139.316 18.2563C139.899 17.7147 140.651 17.4438 141.571 17.4438C142.47 17.4438 143.209 17.7147 143.79 18.2563C144.373 18.798 144.665 19.4777 144.665 20.2928C144.665 21.0884 144.373 21.7563 143.79 22.298C143.209 22.8397 142.47 23.1105 141.571 23.1105ZM144.175 24.8866V41.9855H138.936V24.8866H144.175Z" fill="black"/>
<path d="M153.214 27.3083C153.724 26.514 154.429 25.8708 155.328 25.3812C156.227 24.889 157.279 24.6416 158.485 24.6416C159.893 24.6416 161.169 24.9997 162.313 25.7145C163.455 26.4307 164.357 27.4528 165.021 28.7822C165.688 30.109 166.021 31.6507 166.021 33.4072C166.021 35.165 165.688 36.7119 165.021 38.0479C164.357 39.3851 163.455 40.4163 162.313 41.1416C161.169 41.8682 159.893 42.2301 158.485 42.2301C157.297 42.2301 156.248 41.9854 155.339 41.4958C154.432 41.0062 153.724 40.3734 153.214 39.5947V50.1364H147.974V24.8864H153.214V27.3083ZM160.688 33.4072C160.688 32.0986 160.324 31.0726 159.599 30.3291C158.873 29.583 157.981 29.2093 156.922 29.2093C155.88 29.2093 154.996 29.5882 154.271 30.3447C153.544 31.0986 153.182 32.1299 153.182 33.4385C153.182 34.7445 153.544 35.7757 154.271 36.5322C154.996 37.2861 155.88 37.6624 156.922 37.6624C157.964 37.6624 158.85 37.2809 159.583 36.5166C160.319 35.7497 160.688 34.7132 160.688 33.4072Z" fill="black"/>
<path d="M174.017 27.7354C174.628 26.7979 175.393 26.0583 176.314 25.5166C177.233 24.9749 178.254 24.7041 179.377 24.7041V30.251H177.939C176.629 30.251 175.649 30.5322 174.996 31.0947C174.343 31.6546 174.017 32.639 174.017 34.0479V41.9854H168.778V24.8864H174.017V27.7354Z" fill="black"/>
</svg>
