<svg width="58" height="58" viewBox="0 0 58 58" fill="none" xmlns="http://www.w3.org/2000/svg">
<path d="M51.4819 20.6618H43.2701V6.51805C43.2683 5.02196 42.6732 3.58764 41.6153 2.52974C40.5574 1.47185 39.1231 0.876751 37.627 0.875H6.51805C5.02196 0.876751 3.58764 1.47185 2.52974 2.52974C1.47185 3.58764 0.876751 5.02196 0.875 6.51805V36.2854C0.875149 36.4784 0.928315 36.6677 1.02869 36.8325C1.12907 36.9973 1.27281 37.1314 1.44421 37.2201C1.61561 37.3089 1.80809 37.3488 2.00063 37.3355C2.19317 37.3223 2.37838 37.2564 2.53603 37.1451L11.4133 30.865H14.7299V45.0087C14.7317 46.5048 15.3268 47.9391 16.3847 48.997C17.4426 50.0549 18.8769 50.65 20.373 50.6517H46.5867L55.464 56.9319C55.6418 57.0577 55.8543 57.1251 56.0722 57.125C56.2105 57.1252 56.3475 57.0982 56.4754 57.0453C56.6032 56.9925 56.7194 56.915 56.8172 56.8172C56.915 56.7194 56.9925 56.6032 57.0453 56.4754C57.0982 56.3475 57.1252 56.2105 57.125 56.0722V26.3048C57.1232 24.8087 56.5281 23.3744 55.4702 22.3165C54.4124 21.2586 52.978 20.6635 51.4819 20.6618ZM11.0782 28.7594C10.8604 28.7593 10.6479 28.8268 10.47 28.9525L2.98061 34.2508V6.51805C2.98173 5.5802 3.35478 4.68109 4.01794 4.01794C4.68109 3.35478 5.5802 2.98173 6.51805 2.98061H37.627C38.5648 2.98173 39.464 3.35478 40.1271 4.01794C40.7903 4.68109 41.1633 5.5802 41.1644 6.51805V25.2219C41.1633 26.1598 40.7903 27.0589 40.1271 27.722C39.464 28.3852 38.5648 28.7582 37.627 28.7594H11.0782ZM55.0194 54.0376L47.5294 48.7392C47.3514 48.6138 47.139 48.5464 46.9212 48.5461H20.373C19.4351 48.5452 18.5359 48.1722 17.8727 47.509C17.2095 46.8458 16.8365 45.9466 16.8356 45.0087V30.865H37.627C39.1231 30.8632 40.5574 30.2681 41.6153 29.2102C42.6732 28.1523 43.2683 26.718 43.2701 25.2219V22.7674H51.4819C52.4198 22.7683 53.319 23.1413 53.9822 23.8045C54.6454 24.4677 55.0184 25.3669 55.0194 26.3048V54.0376Z" fill="#728504"/>
<path d="M47.7436 41.3226H24.112C23.8328 41.3226 23.565 41.4335 23.3675 41.631C23.1701 41.8284 23.0592 42.0962 23.0592 42.3754C23.0592 42.6547 23.1701 42.9224 23.3675 43.1199C23.565 43.3173 23.8328 43.4282 24.112 43.4282H47.7436C48.0228 43.4282 48.2906 43.3173 48.488 43.1199C48.6855 42.9224 48.7964 42.6547 48.7964 42.3754C48.7964 42.0962 48.6855 41.8284 48.488 41.631C48.2906 41.4335 48.0228 41.3226 47.7436 41.3226Z" fill="#728504"/>
<path d="M47.7436 34.4379H24.112C23.8328 34.4379 23.565 34.5488 23.3675 34.7462C23.1701 34.9437 23.0592 35.2115 23.0592 35.4907C23.0592 35.7699 23.1701 36.0377 23.3675 36.2351C23.565 36.4326 23.8328 36.5435 24.112 36.5435H47.7436C48.0228 36.5435 48.2906 36.4326 48.488 36.2351C48.6855 36.0377 48.7964 35.7699 48.7964 35.4907C48.7964 35.2115 48.6855 34.9437 48.488 34.7462C48.2906 34.5488 48.0228 34.4379 47.7436 34.4379Z" fill="#728504"/>
<path d="M47.7436 27.5563H45.8479C45.5687 27.5563 45.3009 27.6672 45.1035 27.8646C44.906 28.0621 44.7951 28.3299 44.7951 28.6091C44.7951 28.8883 44.906 29.1561 45.1035 29.3535C45.3009 29.551 45.5687 29.6619 45.8479 29.6619H47.7436C48.0228 29.6619 48.2906 29.551 48.488 29.3535C48.6855 29.1561 48.7964 28.8883 48.7964 28.6091C48.7964 28.3299 48.6855 28.0621 48.488 27.8646C48.2906 27.6672 48.0228 27.5563 47.7436 27.5563Z" fill="#728504"/>
<path d="M17.7043 11.2803C17.8237 11.35 17.9557 11.3956 18.0927 11.4142C18.2298 11.4329 18.3691 11.4244 18.5029 11.3891C18.6366 11.3538 18.762 11.2925 18.872 11.2087C18.982 11.1249 19.0744 11.0202 19.1439 10.9007C19.4218 10.4227 19.8125 10.0201 20.2818 9.72792C20.7512 9.43575 21.2849 9.26293 21.8364 9.22454C22.3879 9.18616 22.9404 9.28339 23.4457 9.50774C23.951 9.73209 24.3937 10.0767 24.7351 10.5116C25.0765 10.9464 25.3062 11.4582 25.4043 12.0023C25.5023 12.5464 25.4656 13.1062 25.2975 13.6329C25.1293 14.1595 24.8348 14.637 24.4396 15.0236C24.0444 15.4102 23.5605 15.6941 23.0303 15.8507C22.442 16.0365 21.929 16.4063 21.5669 16.9058C21.2048 17.4052 21.0128 18.0078 21.0191 18.6247V19.9933C21.0191 20.2725 21.1301 20.5403 21.3275 20.7378C21.5249 20.9352 21.7927 21.0461 22.0719 21.0461C22.3512 21.0461 22.6189 20.9352 22.8164 20.7378C23.0138 20.5403 23.1247 20.2725 23.1247 19.9933V18.6247C23.1186 18.4623 23.1636 18.3021 23.2534 18.1668C23.3432 18.0314 23.4733 17.9277 23.6253 17.8703C24.7769 17.5283 25.785 16.8189 26.4959 15.8504C27.2067 14.882 27.5812 13.7075 27.5622 12.5063C27.5479 11.7857 27.3906 11.0751 27.0994 10.4158C26.8082 9.75643 26.3888 9.16156 25.8657 8.66571C25.2706 8.08408 24.5504 7.64623 23.7601 7.38563C22.9698 7.12503 22.1304 7.04859 21.3061 7.16214C20.4818 7.27569 19.6943 7.57623 19.0039 8.04078C18.3136 8.50533 17.7386 9.12159 17.3229 9.84244C17.1829 10.0837 17.1444 10.3707 17.2159 10.6403C17.2875 10.9099 17.4631 11.1401 17.7043 11.2803Z" fill="#728504"/>
<path d="M22.0725 22.4678C21.8533 22.4678 21.6391 22.5328 21.4569 22.6545C21.2746 22.7763 21.1326 22.9494 21.0487 23.1519C20.9648 23.3543 20.9429 23.5772 20.9856 23.7921C21.0284 24.0071 21.1339 24.2045 21.2889 24.3595C21.4439 24.5145 21.6414 24.62 21.8563 24.6628C22.0713 24.7055 22.2941 24.6836 22.4966 24.5997C22.6991 24.5159 22.8721 24.3738 22.9939 24.1916C23.1157 24.0094 23.1807 23.7951 23.1807 23.5759C23.1807 23.282 23.0639 23.0002 22.8561 22.7923C22.6483 22.5845 22.3664 22.4678 22.0725 22.4678Z" fill="#728504"/>
</svg>
