<svg width="64" height="64" viewBox="0 0 64 64" fill="none" xmlns="http://www.w3.org/2000/svg">
<rect width="64" height="64" rx="8" fill="#DBE5FF"/>
<path d="M48.8615 25.9517H42.7025V15.8189C42.7012 14.7471 42.2549 13.7195 41.4615 12.9616C40.6681 12.2037 39.5923 11.7774 38.4703 11.7761H15.1385C14.0165 11.7774 12.9407 12.2037 12.1473 12.9616C11.3539 13.7195 10.9076 14.7471 10.9062 15.8189V37.1448C10.9064 37.2831 10.9462 37.4186 11.0215 37.5367C11.0968 37.6548 11.2046 37.7509 11.3332 37.8144C11.4617 37.878 11.6061 37.9066 11.7505 37.8971C11.8949 37.8876 12.0338 37.8404 12.152 37.7607L18.81 33.2615H21.2975V43.3943C21.2988 44.4661 21.7451 45.4937 22.5385 46.2516C23.3319 47.0095 24.4077 47.4358 25.5297 47.4371H45.19L51.848 51.9363C51.9814 52.0264 52.1408 52.0747 52.3041 52.0746C52.4079 52.0748 52.5106 52.0554 52.6065 52.0176C52.7024 51.9797 52.7895 51.9242 52.8629 51.8541C52.9362 51.784 52.9944 51.7008 53.034 51.6092C53.0736 51.5176 53.0939 51.4195 53.0938 51.3204V29.9945C53.0924 28.9227 52.6461 27.8951 51.8527 27.1372C51.0593 26.3793 49.9835 25.953 48.8615 25.9517ZM18.5587 31.753C18.3953 31.753 18.2359 31.8013 18.1025 31.8913L12.4855 35.6871V15.8189C12.4863 15.147 12.7661 14.5029 13.2635 14.0278C13.7608 13.5527 14.4352 13.2854 15.1385 13.2846H38.4703C39.1736 13.2854 39.848 13.5527 40.3453 14.0278C40.8427 14.5029 41.1225 15.147 41.1233 15.8189V29.2187C41.1225 29.8906 40.8427 30.5347 40.3453 31.0098C39.848 31.4849 39.1736 31.7522 38.4703 31.753H18.5587ZM51.5145 49.8627L45.8971 46.0669C45.7635 45.9771 45.6042 45.9288 45.4409 45.9286H25.5297C24.8263 45.9279 24.1519 45.6607 23.6545 45.1855C23.1571 44.7104 22.8774 44.0662 22.8767 43.3943V33.2615H38.4703C39.5923 33.2602 40.6681 32.8339 41.4615 32.076C42.2549 31.3181 42.7012 30.2905 42.7025 29.2187V27.4602H48.8615C49.5649 27.4609 50.2393 27.7281 50.7367 28.2032C51.2341 28.6784 51.5138 29.3226 51.5145 29.9945V49.8627Z" fill="#9A87FC"/>
<path d="M46.0577 40.7535H28.334C28.1246 40.7535 27.9237 40.833 27.7756 40.9745C27.6276 41.1159 27.5444 41.3078 27.5444 41.5078C27.5444 41.7078 27.6276 41.8997 27.7756 42.0411C27.9237 42.1826 28.1246 42.262 28.334 42.262H46.0577C46.2671 42.262 46.468 42.1826 46.616 42.0411C46.7641 41.8997 46.8473 41.7078 46.8473 41.5078C46.8473 41.3078 46.7641 41.1159 46.616 40.9745C46.468 40.833 46.2671 40.7535 46.0577 40.7535Z" fill="#9A87FC"/>
<path d="M46.0577 35.8212H28.334C28.1246 35.8212 27.9237 35.9006 27.7756 36.0421C27.6276 36.1835 27.5444 36.3754 27.5444 36.5754C27.5444 36.7755 27.6276 36.9673 27.7756 37.1088C27.9237 37.2502 28.1246 37.3297 28.334 37.3297H46.0577C46.2671 37.3297 46.468 37.2502 46.616 37.1088C46.7641 36.9673 46.8473 36.7755 46.8473 36.5754C46.8473 36.3754 46.7641 36.1835 46.616 36.0421C46.468 35.9006 46.2671 35.8212 46.0577 35.8212Z" fill="#9A87FC"/>
<path d="M46.0577 30.891H44.6359C44.4265 30.891 44.2257 30.9705 44.0776 31.1119C43.9295 31.2534 43.8463 31.4452 43.8463 31.6452C43.8463 31.8453 43.9295 32.0371 44.0776 32.1786C44.2257 32.32 44.4265 32.3995 44.6359 32.3995H46.0577C46.2671 32.3995 46.4679 32.32 46.616 32.1786C46.7641 32.0371 46.8473 31.8453 46.8473 31.6452C46.8473 31.4452 46.7641 31.2534 46.616 31.1119C46.4679 30.9705 46.2671 30.891 46.0577 30.891Z" fill="#9A87FC"/>
<path d="M23.5282 19.2307C23.6178 19.2806 23.7168 19.3132 23.8195 19.3266C23.9223 19.34 24.0268 19.3339 24.1271 19.3086C24.2274 19.2834 24.3215 19.2395 24.404 19.1794C24.4865 19.1194 24.5558 19.0444 24.6079 18.9587C24.8164 18.6163 25.1094 18.3278 25.4614 18.1185C25.8134 17.9092 26.2137 17.7854 26.6273 17.7579C27.0409 17.7304 27.4553 17.8001 27.8343 17.9608C28.2132 18.1215 28.5452 18.3684 28.8013 18.6799C29.0573 18.9915 29.2297 19.3581 29.3032 19.7479C29.3767 20.1377 29.3492 20.5388 29.2231 20.9161C29.097 21.2934 28.8761 21.6355 28.5797 21.9124C28.2833 22.1894 27.9204 22.3928 27.5227 22.505C27.0815 22.6381 26.6968 22.9031 26.4252 23.2609C26.1536 23.6187 26.0096 24.0504 26.0143 24.4923V25.4728C26.0143 25.6729 26.0975 25.8647 26.2456 26.0062C26.3937 26.1476 26.5945 26.2271 26.8039 26.2271C27.0134 26.2271 27.2142 26.1476 27.3623 26.0062C27.5104 25.8647 27.5936 25.6729 27.5936 25.4728V24.4923C27.5889 24.376 27.6227 24.2612 27.69 24.1643C27.7574 24.0673 27.855 23.993 27.969 23.9518C28.8327 23.7068 29.5888 23.1986 30.1219 22.5048C30.655 21.811 30.9359 20.9696 30.9216 20.109C30.911 19.5928 30.793 19.0836 30.5745 18.6113C30.3561 18.1389 30.0416 17.7128 29.6492 17.3575C29.2029 16.9408 28.6628 16.6272 28.0701 16.4405C27.4774 16.2538 26.8478 16.199 26.2296 16.2803C25.6113 16.3617 25.0207 16.577 24.5029 16.9098C23.9852 17.2426 23.5539 17.6841 23.2421 18.2006C23.1372 18.3734 23.1083 18.579 23.1619 18.7722C23.2156 18.9653 23.3473 19.1303 23.5282 19.2307Z" fill="#9A87FC"/>
<path d="M26.8044 27.2456C26.64 27.2456 26.4793 27.2922 26.3426 27.3794C26.206 27.4666 26.0994 27.5906 26.0365 27.7357C25.9736 27.8808 25.9572 28.0404 25.9892 28.1944C26.0213 28.3484 26.1005 28.4899 26.2167 28.6009C26.3329 28.7119 26.481 28.7875 26.6422 28.8182C26.8035 28.8488 26.9706 28.8331 27.1224 28.773C27.2743 28.7129 27.4041 28.6111 27.4954 28.4806C27.5868 28.35 27.6355 28.1965 27.6355 28.0395C27.6355 27.829 27.5479 27.627 27.3921 27.4781C27.2362 27.3292 27.0248 27.2456 26.8044 27.2456Z" fill="#9A87FC"/>
</svg>
