<svg width="24" height="24" viewBox="0 0 24 24" fill="none" xmlns="http://www.w3.org/2000/svg">
<path d="M3 17V20C3 20.5304 3.21071 21.0391 3.58579 21.4142C3.96086 21.7893 4.46957 22 5 22H19C19.5304 22 20.0391 21.7893 20.4142 21.4142C20.7893 21.0391 21 20.5304 21 20V17" stroke="white" stroke-width="2" stroke-linecap="square" stroke-linejoin="round"/>
<path d="M8 12L12 16L16 12" stroke="white" stroke-width="2" stroke-linecap="square"/>
<path d="M13 2V1H11V2H13ZM11 16C11 16.2652 11.1054 16.5196 11.2929 16.7071C11.4804 16.8946 11.7348 17 12 17C12.2652 17 12.5196 16.8946 12.7071 16.7071C12.8946 16.5196 13 16.2652 13 16H11ZM11 2V16H13V2H11Z" fill="white"/>
</svg>
