<svg width="64" height="64" viewBox="0 0 64 64" fill="none" xmlns="http://www.w3.org/2000/svg">
<rect width="64" height="64" rx="8" fill="#FFF0ED"/>
<path d="M45.5 42.6716C44.6355 42.6714 43.7975 42.9566 43.1278 43.4788C42.4581 44.001 41.9979 44.7282 41.825 45.5373H35.675C35.5029 44.7275 35.043 43.9995 34.3732 43.4766C33.7034 42.9537 32.865 42.668 32 42.668C31.135 42.668 30.2966 42.9537 29.6268 43.4766C28.957 43.9995 28.4971 44.7275 28.325 45.5373H22.175C22.0029 44.7275 21.543 43.9995 20.8732 43.4766C20.2034 42.9537 19.365 42.668 18.5 42.668C17.635 42.668 16.7966 42.9537 16.1268 43.4766C15.457 43.9995 14.9971 44.7275 14.825 45.5373H12.5C12.3011 45.5373 12.1103 45.6128 11.9697 45.7471C11.829 45.8815 11.75 46.0637 11.75 46.2537C11.75 46.4437 11.829 46.6259 11.9697 46.7603C12.1103 46.8946 12.3011 46.9701 12.5 46.9701H14.825C14.9971 47.7799 15.457 48.5079 16.1268 49.0308C16.7966 49.5537 17.635 49.8394 18.5 49.8394C19.365 49.8394 20.2034 49.5537 20.8732 49.0308C21.543 48.5079 22.0029 47.7799 22.175 46.9701H28.325C28.4971 47.7799 28.957 48.5079 29.6268 49.0308C30.2966 49.5537 31.135 49.8394 32 49.8394C32.865 49.8394 33.7034 49.5537 34.3732 49.0308C35.043 48.5079 35.5029 47.7799 35.675 46.9701H41.825C41.9669 47.6342 42.3031 48.2462 42.7946 48.735C43.2861 49.2238 43.9127 49.5694 44.6015 49.7316C45.2904 49.8939 46.0134 49.8661 46.6864 49.6516C47.3594 49.437 47.9549 49.0444 48.4037 48.5195C48.8525 47.9946 49.1362 47.3588 49.2218 46.686C49.3075 46.0132 49.1915 45.331 48.8874 44.7186C48.5834 44.1062 48.1037 43.5888 47.5041 43.2265C46.9044 42.8642 46.2095 42.6718 45.5 42.6716ZM18.5 48.403C18.055 48.403 17.62 48.2769 17.25 48.0407C16.88 47.8046 16.5916 47.4689 16.4213 47.0762C16.251 46.6835 16.2064 46.2513 16.2932 45.8344C16.38 45.4175 16.5943 45.0345 16.909 44.734C17.2237 44.4334 17.6246 44.2287 18.061 44.1457C18.4975 44.0628 18.9499 44.1054 19.361 44.2681C19.7722 44.4307 20.1236 44.7062 20.3708 45.0596C20.618 45.4131 20.75 45.8286 20.75 46.2537C20.75 46.8237 20.5129 47.3704 20.091 47.7735C19.669 48.1765 19.0967 48.403 18.5 48.403ZM32 48.403C31.555 48.403 31.12 48.2769 30.75 48.0407C30.38 47.8046 30.0916 47.4689 29.9213 47.0762C29.751 46.6835 29.7064 46.2513 29.7932 45.8344C29.88 45.4175 30.0943 45.0345 30.409 44.734C30.7237 44.4334 31.1246 44.2287 31.561 44.1457C31.9975 44.0628 32.4499 44.1054 32.861 44.2681C33.2722 44.4307 33.6236 44.7062 33.8708 45.0596C34.118 45.4131 34.25 45.8286 34.25 46.2537C34.25 46.8237 34.0129 47.3704 33.591 47.7735C33.169 48.1765 32.5967 48.403 32 48.403ZM45.5 48.403C45.055 48.403 44.62 48.2769 44.25 48.0407C43.88 47.8046 43.5916 47.4689 43.4213 47.0762C43.251 46.6835 43.2064 46.2513 43.2932 45.8344C43.38 45.4175 43.5943 45.0345 43.909 44.734C44.2237 44.4334 44.6246 44.2287 45.061 44.1457C45.4975 44.0628 45.9499 44.1054 46.361 44.2681C46.7722 44.4307 47.1236 44.7062 47.3708 45.0596C47.618 45.4131 47.75 45.8286 47.75 46.2537C47.75 46.8237 47.5129 47.3704 47.091 47.7735C46.669 48.1765 46.0967 48.403 45.5 48.403ZM52.25 46.2537C52.25 46.4437 52.171 46.6259 52.0303 46.7603C51.8897 46.8946 51.6989 46.9701 51.5 46.9701H50C49.8011 46.9701 49.6103 46.8946 49.4697 46.7603C49.329 46.6259 49.25 46.4437 49.25 46.2537C49.25 46.0637 49.329 45.8815 49.4697 45.7471C49.6103 45.6128 49.8011 45.5373 50 45.5373H51.5C51.6989 45.5373 51.8897 45.6128 52.0303 45.7471C52.171 45.8815 52.25 46.0637 52.25 46.2537ZM32 38.3731C34.5217 38.3731 36.9868 37.6588 39.0835 36.3206C41.1802 34.9823 42.8144 33.0802 43.7795 30.8547C44.7445 28.6293 44.997 26.1805 44.505 23.818C44.0131 21.4555 42.7987 19.2854 41.0156 17.5821C39.2325 15.8788 36.9607 14.7188 34.4874 14.2489C32.0141 13.779 29.4505 14.0202 27.1208 14.942C24.791 15.8638 22.7998 17.4248 21.3988 19.4277C19.9978 21.4305 19.25 23.7852 19.25 26.194C19.254 29.4229 20.5985 32.5185 22.9888 34.8017C25.379 37.0849 28.6197 38.3693 32 38.3731ZM32 15.4477C34.225 15.4477 36.4001 16.078 38.2502 17.2588C40.1002 18.4396 41.5422 20.118 42.3936 22.0816C43.2451 24.0452 43.4679 26.2059 43.0338 28.2905C42.5998 30.3751 41.5283 32.2899 39.955 33.7928C38.3816 35.2957 36.3771 36.3191 34.1948 36.7338C32.0125 37.1484 29.7505 36.9356 27.6948 36.1223C25.6391 35.3089 23.8821 33.9315 22.646 32.1643C21.4098 30.3971 20.75 28.3194 20.75 26.194C20.75 23.3439 21.9353 20.6106 24.045 18.5952C26.1548 16.5799 29.0163 15.4477 32 15.4477ZM31.475 26.6955C31.4029 26.6315 31.3457 26.5539 31.307 26.4675C31.2682 26.3811 31.2488 26.288 31.25 26.194V19.0298C31.25 18.8398 31.329 18.6576 31.4697 18.5232C31.6103 18.3889 31.8011 18.3134 32 18.3134C32.1989 18.3134 32.3897 18.3889 32.5303 18.5232C32.671 18.6576 32.75 18.8398 32.75 19.0298V25.8931L35.525 28.5582C35.5967 28.6225 35.6539 28.7002 35.693 28.7864C35.7321 28.8727 35.7523 28.9657 35.7523 29.0597C35.7523 29.1537 35.7321 29.2467 35.693 29.3329C35.6539 29.4192 35.5967 29.4968 35.525 29.5612C35.4577 29.6297 35.3763 29.6843 35.286 29.7217C35.1957 29.759 35.0984 29.7783 35 29.7783C34.9016 29.7783 34.8043 29.759 34.714 29.7217C34.6237 29.6843 34.5423 29.6297 34.475 29.5612L31.475 26.6955Z" fill="#EE4924"/>
</svg>
