<svg width="64" height="64" viewBox="0 0 64 64" fill="none" xmlns="http://www.w3.org/2000/svg">
<rect width="64" height="64" rx="8" fill="#FFF0ED"/>
<path d="M45.5 42.6719C44.6355 42.6717 43.7975 42.9568 43.1278 43.479C42.4581 44.0012 41.9979 44.7284 41.825 45.5375H35.675C35.5029 44.7278 35.043 43.9998 34.3732 43.4768C33.7034 42.9539 32.865 42.6683 32 42.6683C31.135 42.6683 30.2966 42.9539 29.6268 43.4768C28.957 43.9998 28.4971 44.7278 28.325 45.5375H22.175C22.0029 44.7278 21.543 43.9998 20.8732 43.4768C20.2034 42.9539 19.365 42.6683 18.5 42.6683C17.635 42.6683 16.7966 42.9539 16.1268 43.4768C15.457 43.9998 14.9971 44.7278 14.825 45.5375H12.5C12.3011 45.5375 12.1103 45.613 11.9697 45.7474C11.829 45.8817 11.75 46.0639 11.75 46.2539C11.75 46.444 11.829 46.6262 11.9697 46.7605C12.1103 46.8949 12.3011 46.9704 12.5 46.9704H14.825C14.9971 47.7801 15.457 48.5081 16.1268 49.0311C16.7966 49.554 17.635 49.8396 18.5 49.8396C19.365 49.8396 20.2034 49.554 20.8732 49.0311C21.543 48.5081 22.0029 47.7801 22.175 46.9704H28.325C28.4971 47.7801 28.957 48.5081 29.6268 49.0311C30.2966 49.554 31.135 49.8396 32 49.8396C32.865 49.8396 33.7034 49.554 34.3732 49.0311C35.043 48.5081 35.5029 47.7801 35.675 46.9704H41.825C41.9669 47.6344 42.3031 48.2464 42.7946 48.7352C43.2861 49.224 43.9127 49.5696 44.6015 49.7319C45.2904 49.8941 46.0134 49.8664 46.6864 49.6518C47.3594 49.4372 47.9549 49.0447 48.4037 48.5197C48.8525 47.9948 49.1362 47.359 49.2218 46.6862C49.3074 46.0134 49.1915 45.3312 48.8874 44.7188C48.5834 44.1065 48.1037 43.5891 47.5041 43.2267C46.9044 42.8644 46.2095 42.672 45.5 42.6719ZM18.5 48.4032C18.055 48.4032 17.62 48.2771 17.25 48.041C16.88 47.8048 16.5916 47.4692 16.4213 47.0764C16.251 46.6837 16.2064 46.2516 16.2932 45.8347C16.38 45.4177 16.5943 45.0348 16.909 44.7342C17.2237 44.4336 17.6246 44.2289 18.061 44.146C18.4975 44.0631 18.9499 44.1056 19.361 44.2683C19.7722 44.431 20.1236 44.7064 20.3708 45.0599C20.618 45.4133 20.75 45.8289 20.75 46.2539C20.75 46.824 20.5129 47.3706 20.091 47.7737C19.669 48.1768 19.0967 48.4032 18.5 48.4032ZM32 48.4032C31.555 48.4032 31.12 48.2771 30.75 48.041C30.38 47.8048 30.0916 47.4692 29.9213 47.0764C29.751 46.6837 29.7064 46.2516 29.7932 45.8347C29.88 45.4177 30.0943 45.0348 30.409 44.7342C30.7237 44.4336 31.1246 44.2289 31.561 44.146C31.9975 44.0631 32.4499 44.1056 32.861 44.2683C33.2722 44.431 33.6236 44.7064 33.8708 45.0599C34.118 45.4133 34.25 45.8289 34.25 46.2539C34.25 46.824 34.0129 47.3706 33.591 47.7737C33.169 48.1768 32.5967 48.4032 32 48.4032ZM45.5 48.4032C45.055 48.4032 44.62 48.2771 44.25 48.041C43.88 47.8048 43.5916 47.4692 43.4213 47.0764C43.251 46.6837 43.2064 46.2516 43.2932 45.8347C43.38 45.4177 43.5943 45.0348 43.909 44.7342C44.2237 44.4336 44.6246 44.2289 45.061 44.146C45.4975 44.0631 45.9499 44.1056 46.361 44.2683C46.7722 44.431 47.1236 44.7064 47.3708 45.0599C47.618 45.4133 47.75 45.8289 47.75 46.2539C47.75 46.824 47.5129 47.3706 47.091 47.7737C46.669 48.1768 46.0967 48.4032 45.5 48.4032ZM52.25 46.2539C52.25 46.444 52.171 46.6262 52.0303 46.7605C51.8897 46.8949 51.6989 46.9704 51.5 46.9704H50C49.8011 46.9704 49.6103 46.8949 49.4697 46.7605C49.329 46.6262 49.25 46.444 49.25 46.2539C49.25 46.0639 49.329 45.8817 49.4697 45.7474C49.6103 45.613 49.8011 45.5375 50 45.5375H51.5C51.6989 45.5375 51.8897 45.613 52.0303 45.7474C52.171 45.8817 52.25 46.0639 52.25 46.2539ZM32 38.3734C34.5217 38.3734 36.9868 37.6591 39.0835 36.3208C41.1802 34.9825 42.8144 33.0804 43.7795 30.855C44.7445 28.6295 44.997 26.1807 44.505 23.8182C44.0131 21.4557 42.7987 19.2856 41.0156 17.5823C39.2325 15.879 36.9607 14.7191 34.4874 14.2492C32.0141 13.7792 29.4505 14.0204 27.1208 14.9422C24.791 15.864 22.7998 17.4251 21.3988 19.4279C19.9978 21.4307 19.25 23.7854 19.25 26.1942C19.254 29.4232 20.5985 32.5188 22.9888 34.802C25.379 37.0852 28.6197 38.3696 32 38.3734ZM32 15.448C34.225 15.448 36.4001 16.0782 38.2502 17.2591C40.1002 18.4399 41.5422 20.1182 42.3936 22.0818C43.2451 24.0455 43.4679 26.2062 43.0338 28.2907C42.5998 30.3753 41.5283 32.2901 39.955 33.793C38.3816 35.2959 36.3771 36.3194 34.1948 36.734C32.0125 37.1487 29.7505 36.9359 27.6948 36.1225C25.6391 35.3091 23.8821 33.9318 22.646 32.1646C21.4098 30.3973 20.75 28.3197 20.75 26.1942C20.75 23.3442 21.9353 20.6108 24.045 18.5955C26.1548 16.5802 29.0163 15.448 32 15.448ZM31.475 26.6957C31.4029 26.6318 31.3457 26.5541 31.3069 26.4677C31.2682 26.3814 31.2488 26.2882 31.25 26.1942V19.0301C31.25 18.8401 31.329 18.6578 31.4697 18.5235C31.6103 18.3891 31.8011 18.3136 32 18.3136C32.1989 18.3136 32.3897 18.3891 32.5303 18.5235C32.671 18.6578 32.75 18.8401 32.75 19.0301V25.8934L35.525 28.5584C35.5967 28.6227 35.6539 28.7004 35.693 28.7867C35.7321 28.8729 35.7523 28.9659 35.7523 29.0599C35.7523 29.1539 35.7321 29.2469 35.693 29.3332C35.6539 29.4194 35.5967 29.4971 35.525 29.5614C35.4577 29.6299 35.3763 29.6846 35.286 29.7219C35.1957 29.7592 35.0984 29.7785 35 29.7785C34.9016 29.7785 34.8043 29.7592 34.714 29.7219C34.6237 29.6846 34.5423 29.6299 34.475 29.5614L31.475 26.6957Z" fill="#EE4924"/>
</svg>
