<svg width="80" height="80" viewBox="0 0 80 80" fill="none" xmlns="http://www.w3.org/2000/svg">
<g clip-path="url(#clip0_9_2710)">
<g clip-path="url(#clip1_9_2710)">
<mask id="mask0_9_2710" style="mask-type:luminance" maskUnits="userSpaceOnUse" x="0" y="0" width="80" height="80">
<path d="M72 0H8C3.58172 0 0 3.58172 0 8V72C0 76.4183 3.58172 80 8 80H72C76.4183 80 80 76.4183 80 72V8C80 3.58172 76.4183 0 72 0Z" fill="white"/>
</mask>
<g mask="url(#mask0_9_2710)">
<path d="M80 0H0V80H80V0Z" fill="white"/>
<path d="M47.1624 41.3042L25.0234 45.211V16.3431C25.0234 15.0248 26.0922 13.9561 27.4105 13.9561H65.6119C66.9303 13.9561 67.999 15.0248 67.999 16.3431V26.979L47.1624 41.3042Z" fill="#185C37"/>
<path d="M47.1624 66.0464H27.4105C26.0922 66.0464 25.0234 64.9777 25.0234 63.6594V53.0235L47.1624 40.0006L58.883 36.0938L67.999 40.0006V53.0235L47.1624 66.0464Z" fill="#21A366"/>
<path d="M25.0234 53.0278H47.1624V40.0049H25.0234V53.0278Z" fill="#107C41"/>
<path opacity="0.1" d="M40.8684 55.6247H25.0234V23.0674H40.8684C42.185 23.0717 43.2512 24.1379 43.2555 25.4545V53.2376C43.2512 54.5542 42.185 55.6204 40.8684 55.6247Z" fill="black"/>
<path opacity="0.2" d="M39.5661 54.3239H25.0234V21.7666H39.5661C40.8827 21.7709 41.9489 22.8372 41.9532 24.1537V51.9368C41.9489 53.2534 40.8827 54.3196 39.5661 54.3239Z" fill="black"/>
<path opacity="0.2" d="M39.5661 54.3238H25.0234V24.3711H39.5661C40.8827 24.3754 41.9489 25.4416 41.9532 26.7582V51.9367C41.9489 53.2533 40.8827 54.3195 39.5661 54.3238Z" fill="black"/>
<path opacity="0.2" d="M38.2638 54.3238H25.0234V24.3711H38.2638C39.5804 24.3754 40.6467 25.4416 40.6509 26.7582V51.9367C40.6467 53.2533 39.5804 54.3195 38.2638 54.3238Z" fill="black"/>
<path d="M14.3871 54.3242H38.2633C39.5816 54.3242 40.6504 53.2555 40.6504 51.9371V28.0609C40.6504 26.7426 39.5816 25.6738 38.2633 25.6738H14.3871C13.0687 25.6738 12 26.7425 12 28.0609V51.9371C12 53.2555 13.0687 54.3242 14.3871 54.3242Z" fill="url(#paint0_linear_9_2710)"/>
<path d="M19.3926 32.2422L24.4142 40.0234L19.8132 47.7616H23.5143L26.0251 42.8129C26.257 42.3428 26.4158 41.9938 26.5018 41.7633H26.5343C26.6993 42.1383 26.8729 42.5025 27.0553 42.8559L29.7393 47.759H33.1369L28.4187 40.0664L33.2568 32.2422H29.6416L26.7414 37.6741C26.6048 37.9052 26.4889 38.1479 26.395 38.3994H26.352C26.2671 38.153 26.1544 37.9171 26.016 37.6962L23.0299 32.2422H19.3926Z" fill="white"/>
<path d="M65.6136 66.0473H47.1641V53.0244H68.0007V63.6602C68.0007 64.9785 66.932 66.0473 65.6136 66.0473Z" fill="#33C481"/>
<path d="M47.1641 40.0004H68.0007V26.9775H47.1641V40.0004Z" fill="#107C41"/>
</g>
</g>
</g>
<defs>
<linearGradient id="paint0_linear_9_2710" x1="16.9772" y1="56.1894" x2="35.6733" y2="23.8086" gradientUnits="userSpaceOnUse">
<stop stop-color="#18884F"/>
<stop offset="0.5" stop-color="#117E43"/>
<stop offset="1" stop-color="#0B6631"/>
</linearGradient>
<clipPath id="clip0_9_2710">
<rect width="80" height="80" fill="white"/>
</clipPath>
<clipPath id="clip1_9_2710">
<rect width="80" height="80" fill="white"/>
</clipPath>
</defs>
</svg>
