<svg width="16" height="16" viewBox="0 0 16 16" fill="none" xmlns="http://www.w3.org/2000/svg">
<path fill-rule="evenodd" clip-rule="evenodd" d="M5.09399 0.49707H11.7537C14.0525 0.49707 15.9161 2.36057 15.9161 4.65931V11.3189C15.9161 13.6176 14.0525 15.4811 11.7537 15.4811H5.09399C2.79519 15.4811 0.931641 13.6176 0.931641 11.3189V4.65931C0.931641 2.36057 2.79519 0.49707 5.09399 0.49707ZM12.3819 4.86612C12.8416 4.86612 13.2143 4.49342 13.2143 4.03367C13.2143 3.57393 12.8416 3.20122 12.3819 3.20122C11.922 3.20122 11.5493 3.57393 11.5493 4.03367C11.5493 4.49342 11.922 4.86612 12.3819 4.86612ZM8.42476 4.2431C6.35581 4.2431 4.67861 5.92024 4.67861 7.9891C4.67861 10.058 6.35581 11.7351 8.42476 11.7351C10.4936 11.7351 12.1709 10.058 12.1709 7.9891C12.1731 6.99493 11.7791 6.04082 11.0761 5.33783C10.373 4.63484 9.41893 4.24088 8.42476 4.2431ZM6.13534 7.9878C6.13534 9.25216 7.16029 10.2771 8.42466 10.2771C9.68895 10.2771 10.7139 9.25216 10.7139 7.9878C10.7139 6.7235 9.68895 5.69857 8.42466 5.69857C7.16029 5.69857 6.13534 6.7235 6.13534 7.9878Z" fill="black"/>
</svg>
