<svg width="64" height="64" viewBox="0 0 64 64" fill="none" xmlns="http://www.w3.org/2000/svg">
<g clip-path="url(#clip0_9_2027)">
<path d="M63.8518 34.8034C63.6319 34.3923 63.2034 34.1355 62.7372 34.1357H61.4155V32.0538C61.411 26.9873 58.3817 22.4129 53.7187 20.4315C57.6944 17.7118 58.7127 12.2841 55.9932 8.30832C53.2735 4.33265 47.8459 3.31436 43.87 6.0339C39.8944 8.75359 38.8761 14.1812 41.5956 18.157C42.2061 19.0496 42.9775 19.8208 43.87 20.4315C39.2071 22.413 36.1778 26.9873 36.1733 32.0538V34.1335H33.9232C33.2255 34.1335 32.6599 34.6991 32.6599 35.3968C32.6599 36.0944 33.2255 36.66 33.9232 36.66H60.3738L44.9838 59.6883H36.3934V56.5949C36.386 49.8743 32.2027 43.8659 25.9022 41.527C31.13 38.4501 32.8737 31.7178 29.7968 26.4901C26.7199 21.2623 19.9876 19.5186 14.7599 22.5955C9.53211 25.6724 7.78839 32.4047 10.8653 37.6324C11.8117 39.2403 13.152 40.5806 14.7599 41.527C8.45831 43.8653 4.27381 49.8737 4.26575 56.5949V59.6883H1.26326C0.565583 59.6883 0 60.2539 0 60.9515C0 61.6492 0.565583 62.2148 1.26326 62.2148H45.6595C46.0813 62.2147 46.4755 62.004 46.7099 61.6533L63.7876 36.0985C64.0457 35.7115 64.0704 35.214 63.8518 34.8034ZM42.5993 13.2651C42.5838 9.84352 45.3449 7.05731 48.7663 7.04181C52.1879 7.0263 54.9741 9.78739 54.9896 13.2088C55.0051 16.6302 52.244 19.4166 48.8226 19.4321C48.8133 19.4321 48.8038 19.4321 48.7945 19.4321C45.3824 19.4363 42.611 16.6773 42.5993 13.2651ZM58.8888 34.1335H38.6998V32.0538C38.6525 26.4788 43.1337 21.9209 48.7088 21.8736C54.2838 21.8263 58.8417 26.3076 58.889 31.8826C58.8894 31.9397 58.8894 31.9967 58.889 32.0538L58.8888 34.1335ZM11.8743 32.1123C11.8524 27.4417 15.6208 23.6377 20.2914 23.6156C24.9619 23.5936 28.766 27.3622 28.788 32.0327C28.8098 36.7033 25.0415 40.5073 20.3709 40.5293C20.3565 40.5293 20.3421 40.5295 20.3276 40.5295C15.6715 40.5334 11.8903 36.7684 11.8743 32.1123ZM33.8695 59.6883H6.79226V56.5949C6.73785 49.1177 12.7551 43.0121 20.2323 42.9576C27.7095 42.903 33.8151 48.9204 33.8697 56.3976C33.8702 56.4633 33.8702 56.5292 33.8697 56.5949V59.6883H33.8695Z" fill="#EE4924"/>
<path d="M27.5104 13.6008L32.3832 16.1122C33.0044 16.4308 33.7661 16.1854 34.0847 15.5643C34.176 15.3863 34.2238 15.1891 34.2239 14.989V6.8381C34.2239 4.04724 31.9616 1.78491 29.1708 1.78491H18.1619C15.371 1.78491 13.1087 4.04724 13.1087 6.8381V8.54973C13.1107 11.3397 15.372 13.6009 18.1619 13.6029L27.5104 13.6008ZM15.6354 8.54973V6.8381C15.6354 5.44275 16.7665 4.31143 18.162 4.31143H29.1731C30.5684 4.31143 31.6998 5.4426 31.6998 6.8381V12.9164L28.3985 11.2142C28.2197 11.1226 28.0219 11.0745 27.821 11.0742H18.162C16.7675 11.0742 15.6366 9.94431 15.6354 8.54973Z" fill="#EE4924"/>
</g>
<defs>
<clipPath id="clip0_9_2027">
<rect width="64" height="64" fill="white"/>
</clipPath>
</defs>
</svg>
