<svg width="64" height="62" viewBox="0 0 64 62" fill="none" xmlns="http://www.w3.org/2000/svg">
<path d="M63.8518 33.8034C63.6319 33.3923 63.2034 33.1355 62.7372 33.1357H61.4155V31.0538C61.411 25.9873 58.3817 21.4129 53.7187 19.4315C57.6944 16.7118 58.7127 11.2841 55.9932 7.30832C53.2735 3.33265 47.8459 2.31436 43.87 5.0339C39.8944 7.75359 38.8761 13.1812 41.5956 17.157C42.2061 18.0496 42.9775 18.8208 43.87 19.4315C39.2071 21.413 36.1778 25.9873 36.1733 31.0538V33.1335H33.9232C33.2255 33.1335 32.6599 33.6991 32.6599 34.3968C32.6599 35.0944 33.2255 35.66 33.9232 35.66H60.3738L44.9838 58.6883H36.3934V55.5949C36.386 48.8743 32.2027 42.8659 25.9022 40.527C31.13 37.4501 32.8737 30.7178 29.7968 25.4901C26.7199 20.2623 19.9876 18.5186 14.7599 21.5955C9.53211 24.6724 7.78839 31.4047 10.8653 36.6324C11.8117 38.2403 13.152 39.5806 14.7599 40.527C8.45831 42.8653 4.27381 48.8737 4.26575 55.5949V58.6883H1.26326C0.565583 58.6883 0 59.2539 0 59.9515C0 60.6492 0.565583 61.2148 1.26326 61.2148H45.6595C46.0813 61.2147 46.4755 61.004 46.7099 60.6533L63.7876 35.0985C64.0457 34.7115 64.0704 34.214 63.8518 33.8034ZM42.5993 12.2651C42.5838 8.84352 45.3449 6.05731 48.7663 6.04181C52.1879 6.0263 54.9741 8.78739 54.9896 12.2088C55.0051 15.6302 52.244 18.4166 48.8226 18.4321C48.8133 18.4321 48.8038 18.4321 48.7945 18.4321C45.3824 18.4363 42.611 15.6773 42.5993 12.2651ZM58.8888 33.1335H38.6998V31.0538C38.6525 25.4788 43.1337 20.9209 48.7088 20.8736C54.2838 20.8263 58.8417 25.3076 58.889 30.8826C58.8894 30.9397 58.8894 30.9967 58.889 31.0538L58.8888 33.1335ZM11.8743 31.1123C11.8524 26.4417 15.6208 22.6377 20.2914 22.6156C24.9619 22.5936 28.766 26.3622 28.788 31.0327C28.8098 35.7033 25.0415 39.5073 20.3709 39.5293C20.3565 39.5293 20.3421 39.5295 20.3276 39.5295C15.6715 39.5334 11.8903 35.7684 11.8743 31.1123ZM33.8695 58.6883H6.79226V55.5949C6.73785 48.1177 12.7551 42.0121 20.2323 41.9576C27.7095 41.903 33.8151 47.9204 33.8697 55.3976C33.8702 55.4633 33.8702 55.5292 33.8697 55.5949V58.6883H33.8695Z" fill="#2154DA"/>
<path d="M27.5105 12.6008L32.3832 15.1122C33.0045 15.4308 33.7662 15.1854 34.0848 14.5643C34.1761 14.3863 34.2239 14.1891 34.224 13.989V5.8381C34.224 3.04724 31.9617 0.784912 29.1708 0.784912H18.162C15.3711 0.784912 13.1088 3.04724 13.1088 5.8381V7.54973C13.1108 10.3397 15.372 12.6009 18.162 12.6029L27.5105 12.6008ZM15.6354 7.54973V5.8381C15.6354 4.44275 16.7666 3.31143 18.1621 3.31143H29.1731C30.5685 3.31143 31.6998 4.4426 31.6998 5.8381V11.9164L28.3986 10.2142C28.2198 10.1226 28.022 10.0745 27.821 10.0742H18.1621C16.7675 10.0742 15.6367 8.94431 15.6354 7.54973Z" fill="#2154DA"/>
</svg>
