<svg width="64" height="64" viewBox="0 0 64 64" fill="none" xmlns="http://www.w3.org/2000/svg">
<rect width="64" height="64" rx="8" fill="#FFF0ED"/>
<g clip-path="url(#clip0_9_2483)">
<path d="M51.7641 42.0167H51.4828C51.348 41.6284 51.1836 41.25 50.9903 40.8834L51.191 40.6909C51.4704 40.4237 51.6246 40.0683 51.6246 39.6891C51.6246 39.3106 51.4704 38.9552 51.1914 38.6886L50.3846 37.918V29.8058C50.3846 28.8131 49.5379 28.0057 48.4975 28.0057H47.059L48.1862 15.9983C48.2144 15.695 48.2568 15.2371 47.7947 14.7789L45.1016 12.1109C44.8269 11.8338 44.642 11.7733 44.2604 11.7415L43.2098 11.6514C43.2091 11.6514 43.2086 11.6509 43.2079 11.6509C43.2072 11.6509 43.2067 11.6512 43.206 11.6511L20.7412 9.72513C20.1824 9.67333 19.6331 9.83918 19.1991 10.1855C18.7647 10.5318 18.4981 11.018 18.4487 11.5536L16.9436 27.5629H12.5208C12.5175 27.5629 12.5142 27.5629 12.5109 27.5629C12.0056 27.5629 11.5515 27.7301 11.2311 28.0344C10.9275 28.3233 10.767 28.706 10.767 29.1419L10.7513 47.7649C10.7513 49.176 11.4709 50.8445 14.799 50.9462C14.8838 50.9779 14.9746 50.9986 15.0711 50.9986H35.8539L37.0792 52.1691C37.637 52.7022 38.6158 52.7015 39.1743 52.1691L39.3747 51.9774C39.7566 52.1614 40.1529 52.3188 40.5608 52.4476V52.719C40.5608 53.4991 41.2266 54.1344 42.045 54.1344H44.4932C45.3105 54.1344 45.9753 53.4991 45.9753 52.719V52.4476C46.3839 52.3188 46.7805 52.1621 47.1614 51.9781L47.3639 52.1719C47.9447 52.7204 48.8841 52.7197 49.459 52.1691L51.1908 50.5152C51.4703 50.2479 51.6244 49.8925 51.6244 49.514C51.6244 49.1354 51.4702 48.7801 51.1926 48.5149L50.9901 48.3204C51.1835 47.9531 51.3483 47.5746 51.4827 47.1863H51.7639C52.5824 47.1863 53.2485 46.5511 53.2485 45.771V43.4322C53.2486 42.6521 52.5825 42.0167 51.7641 42.0167ZM48.8845 29.8058V36.7005C48.3686 36.5356 47.7756 36.6431 47.361 37.034L47.1615 37.225C46.7806 37.0411 46.384 36.8843 45.9753 36.7556V36.4848C45.9753 35.7041 45.3107 35.0688 44.4933 35.0688H42.0451C41.2266 35.0688 40.5609 35.704 40.5609 36.4848V36.7556C40.1529 36.8843 39.7566 37.0417 39.3747 37.2258L39.1744 37.034C38.5969 36.4834 37.6575 36.4828 37.0793 37.034L35.3471 38.6887C34.7692 39.2407 34.7692 40.1383 35.3471 40.6903L35.5475 40.882C35.3549 41.2472 35.1904 41.6264 35.0556 42.0168H34.7718C33.9548 42.0168 33.2901 42.6521 33.2901 43.4322V45.771C33.2901 46.5511 33.9548 47.1863 34.7718 47.1863H35.0556C35.1904 47.5767 35.3548 47.9559 35.5479 48.3211L35.3472 48.5136C35.0446 48.8024 34.9047 49.1863 34.9192 49.5658H15.8211V34.6063C15.8211 34.5545 15.8669 34.5105 15.9211 34.5105H32.2237C32.4947 34.5105 32.7448 34.3705 32.8778 34.1452L35.2237 30.1559L35.361 29.9125C35.4507 29.7498 35.6013 29.4773 35.7038 29.4385H48.4974C48.7073 29.4385 48.8845 29.6068 48.8845 29.8058ZM46.7019 15.7619C46.7004 15.7951 46.6956 15.8308 46.692 15.871L46.6908 15.8832L43.5858 15.6149L43.82 13.1424L44.0809 13.1649L46.7019 15.7619ZM19.9428 11.6806C19.9571 11.5263 20.0344 11.3861 20.1603 11.2853C20.2863 11.1849 20.4456 11.1359 20.6057 11.152L42.3258 13.0143L42.0825 15.5852C42.0495 15.9403 42.1641 16.2869 42.4051 16.5608C42.6453 16.8344 42.9822 17.0019 43.3518 17.0335L46.5568 17.3105L45.5528 28.0057H35.7038C34.7179 28.0057 34.3063 28.7508 34.0342 29.244L31.7846 33.0776H17.9313L19.9428 11.6806ZM12.2514 47.7649L12.2671 29.1419C12.2671 29.1157 12.27 29.0685 12.2895 29.0499C12.3107 29.0293 12.3847 29.0069 12.5176 28.9957H16.809L16.4252 33.0777H15.9211C15.0389 33.0777 14.3211 33.7633 14.3211 34.6064V49.4842C12.2582 49.2809 12.2514 48.2767 12.2514 47.7649ZM50.9217 45.7535C50.5794 45.7535 50.2805 45.9746 50.1955 46.2915C50.0267 46.9177 49.7652 47.52 49.4177 48.0826C49.2441 48.3631 49.2913 48.7206 49.5319 48.9515L50.1306 49.5014L48.4223 51.1561L47.825 50.5852C47.5822 50.3536 47.2057 50.3081 46.9106 50.4761C46.3327 50.8049 45.7025 51.0546 45.0381 51.2177C44.7067 51.2996 44.4753 51.585 44.4753 51.9118L44.4933 52.7015L42.0609 52.7189V51.9115C42.0609 51.5848 41.8294 51.2994 41.4984 51.2182C40.8363 51.0545 40.2057 50.8047 39.6245 50.4752C39.5055 50.408 39.3732 50.3752 39.2421 50.3752C39.048 50.3752 38.8562 50.4473 38.7115 50.5851L38.1399 51.156L36.7347 49.832C36.7033 49.7957 36.6697 49.7645 36.6315 49.7347L36.4092 49.5252L37.0069 48.9515C37.2483 48.72 37.2948 48.361 37.1197 48.0805C36.7747 47.5264 36.5136 46.9247 36.3437 46.2915C36.2583 45.9753 35.9595 45.7535 35.6171 45.7535L34.7902 45.771L34.7719 43.4496H35.6172C35.9595 43.4496 36.2584 43.2286 36.3438 42.9116C36.5137 42.2792 36.7752 41.6768 37.1205 41.1199C37.2951 40.8386 37.2479 40.4797 37.0055 40.2481L36.4078 39.7017L38.114 38.0471L38.7117 38.618C38.9538 38.8489 39.3298 38.895 39.6246 38.7278C40.2058 38.3983 40.8364 38.1485 41.4985 37.9848C41.8296 37.9036 42.061 37.6182 42.061 37.2915L42.0453 36.5016L44.4754 36.4848V37.2915C44.4754 37.6183 44.7069 37.9037 45.0383 37.9856C45.7026 38.1486 46.3329 38.3984 46.9107 38.7272C47.2059 38.8952 47.5824 38.8489 47.8251 38.6181L48.3986 38.0472L49.085 38.6938C49.101 38.7106 49.1172 38.7256 49.1349 38.7408L50.1297 39.6781L49.5324 40.2511C49.2914 40.4826 49.2441 40.8402 49.4178 41.1207C49.7649 41.6825 50.0264 42.2856 50.1956 42.9118C50.2809 43.2287 50.5797 43.4498 50.9218 43.4498L51.7487 43.4323L51.7641 45.7536L50.9217 45.7535Z" fill="#EE4924"/>
<path d="M43.2694 39.9451C40.5814 39.9451 38.3944 42.0342 38.3944 44.6018C38.3944 47.1695 40.5814 49.2586 43.2694 49.2586C45.9574 49.2586 48.1444 47.1695 48.1444 44.6018C48.1444 42.0342 45.9574 39.9451 43.2694 39.9451ZM43.2694 47.8257C41.4084 47.8257 39.8944 46.3796 39.8944 44.6018C39.8944 42.8241 41.4084 41.378 43.2694 41.378C45.1305 41.378 46.6444 42.8241 46.6444 44.6018C46.6444 46.3796 45.1305 47.8257 43.2694 47.8257Z" fill="#EE4924"/>
<path d="M24.3147 19.5958L40.3884 20.974C40.4111 20.9757 40.4337 20.9768 40.4561 20.9768C40.8402 20.9768 41.1672 20.6966 41.2024 20.3245C41.2394 19.9306 40.9351 19.5822 40.5224 19.5469L24.4487 18.1686C24.0348 18.135 23.6716 18.4243 23.6346 18.8182C23.5977 19.2121 23.9019 19.5605 24.3147 19.5958Z" fill="#EE4924"/>
<path d="M23.9305 23.6722L40.0065 25.0501C40.0292 25.0518 40.0518 25.0529 40.0742 25.0529C40.4583 25.0529 40.7853 24.7727 40.8205 24.4005C40.8575 24.0063 40.5532 23.6583 40.1405 23.6229L24.0645 22.245C23.6485 22.2153 23.2878 22.5007 23.2505 22.8946C23.2135 23.2888 23.5178 23.6369 23.9305 23.6722Z" fill="#EE4924"/>
</g>
<defs>
<clipPath id="clip0_9_2483">
<rect x="8" y="9" width="48" height="45.8507" rx="4" fill="white"/>
</clipPath>
</defs>
</svg>
