<svg width="15" height="16" viewBox="0 0 15 16" fill="none" xmlns="http://www.w3.org/2000/svg">
<path fill-rule="evenodd" clip-rule="evenodd" d="M1.66667 0.5H13.3333C14.2538 0.5 15 1.24619 15 2.16667V13.8333C15 14.7538 14.2538 15.5 13.3333 15.5H1.66667C0.746192 15.5 0 14.7538 0 13.8333V2.16667C0 1.24619 0.746192 0.5 1.66667 0.5ZM4.16667 13C4.39678 13 4.58333 12.8134 4.58333 12.5833V6.75C4.58333 6.51992 4.39678 6.33333 4.16667 6.33333H2.91667C2.68655 6.33333 2.5 6.51992 2.5 6.75V12.5833C2.5 12.8134 2.68655 13 2.91667 13H4.16667ZM3.54167 5.5C2.85131 5.5 2.29167 4.94036 2.29167 4.25C2.29167 3.55964 2.85131 3 3.54167 3C4.23202 3 4.79167 3.55964 4.79167 4.25C4.79167 4.94036 4.23202 5.5 3.54167 5.5ZM12.0833 13C12.3134 13 12.5 12.8134 12.5 12.5833V8.75C12.5271 7.42567 11.548 6.29543 10.2333 6.13333C9.31417 6.04938 8.42358 6.47867 7.91667 7.25V6.75C7.91667 6.51992 7.73008 6.33333 7.5 6.33333H6.25C6.01992 6.33333 5.83333 6.51992 5.83333 6.75V12.5833C5.83333 12.8134 6.01992 13 6.25 13H7.5C7.73008 13 7.91667 12.8134 7.91667 12.5833V9.45833C7.91667 8.768 8.47633 8.20833 9.16667 8.20833C9.857 8.20833 10.4167 8.768 10.4167 9.45833V12.5833C10.4167 12.8134 10.6032 13 10.8333 13H12.0833Z" fill="white" fill-opacity="0.65"/>
</svg>
