<svg width="29" height="29" viewBox="0 0 29 29" fill="none" xmlns="http://www.w3.org/2000/svg">
<g clip-path="url(#clip0_172_543)">
<path d="M22.39 0.0649414H6.48C2.90119 0.0649414 0 2.96614 0 6.54494V22.4549C0 26.0337 2.90119 28.9349 6.48 28.9349H22.39C25.9688 28.9349 28.87 26.0337 28.87 22.4549V6.54494C28.87 2.96614 25.9688 0.0649414 22.39 0.0649414Z" fill="#0B86CA"/>
<path d="M7.99995 12.0649H10.9999V21.7449H7.99995V12.0649ZM9.52995 7.25488C9.87366 7.25489 10.2097 7.35669 10.4956 7.54745C10.7815 7.7382 11.0045 8.00936 11.1365 8.32672C11.2685 8.64409 11.3035 8.99343 11.2372 9.33068C11.1709 9.66793 11.0061 9.97798 10.7638 10.2217C10.5215 10.4655 10.2124 10.632 9.87549 10.7002C9.53863 10.7685 9.18909 10.7354 8.87098 10.6053C8.55286 10.4751 8.28043 10.2537 8.08804 9.96884C7.89565 9.68401 7.79192 9.34859 7.78995 9.00488C7.78863 8.77554 7.83266 8.5482 7.91951 8.33594C8.00637 8.12368 8.13433 7.93068 8.29603 7.76805C8.45774 7.60541 8.65 7.47635 8.86176 7.38828C9.07352 7.30021 9.3006 7.25488 9.52995 7.25488Z" fill="white"/>
<path d="M12.92 12.0649H15.81V13.3849C16.0993 12.8912 16.5172 12.4853 17.0192 12.2106C17.5211 11.9358 18.0883 11.8025 18.66 11.8249C21.66 11.8249 22.27 13.8249 22.27 16.4349V21.7449H19.27V17.0649C19.27 15.9449 19.27 14.4949 17.71 14.4949C16.15 14.4949 15.91 15.7149 15.91 16.9749V21.7649H12.91L12.92 12.0649Z" fill="white"/>
</g>
<defs>
<clipPath id="clip0_172_543">
<rect width="28.87" height="28.87" fill="white" transform="translate(0 0.0649414)"/>
</clipPath>
</defs>
</svg>
