<svg width="54" height="54" viewBox="0 0 54 54" fill="none" xmlns="http://www.w3.org/2000/svg">
<path fill-rule="evenodd" clip-rule="evenodd" d="M11 0.333374H43C47.4184 0.333374 51 3.91512 51 8.33337V24.3334C51 28.7517 47.4184 32.3334 43 32.3334H11C6.58175 32.3334 3 28.7517 3 24.3334V8.33337C3 3.91512 6.58175 0.333374 11 0.333374ZM11 3C8.0545 3 5.66663 5.38787 5.66663 8.33337V24.3334C5.66663 27.279 8.0545 29.6668 11 29.6668H43C45.9456 29.6668 48.3334 27.279 48.3334 24.3334V8.33337C48.3334 5.38787 45.9456 3 43 3H11Z" fill="#EE4924"/>
<path fill-rule="evenodd" clip-rule="evenodd" d="M34.0755 14.1145L25.8125 8.60583C24.0403 7.42433 21.6666 8.69471 21.6666 10.8246V21.8417C21.6666 23.9716 24.0403 25.242 25.8125 24.0606L34.0755 18.552C35.6586 17.4966 35.6586 15.17 34.0755 14.1145ZM24.3334 21.8418V10.8247L32.5963 16.3333L24.3334 21.8418Z" fill="#EE4924"/>
<path fill-rule="evenodd" clip-rule="evenodd" d="M27 43C28.4728 43 29.6666 41.8061 29.6666 40.3334C29.6666 38.8606 28.4728 37.6668 27 37.6668C25.5273 37.6668 24.3334 38.8606 24.3334 40.3334C24.3334 41.8061 25.5273 43 27 43ZM27 45.6666C29.9456 45.6666 32.3334 43.2789 32.3334 40.3332C32.3334 37.3876 29.9456 35 27 35C24.0544 35 21.6666 37.3877 21.6666 40.3334C21.6666 43.279 24.0544 45.6666 27 45.6666Z" fill="#EE4924"/>
<path fill-rule="evenodd" clip-rule="evenodd" d="M45.6666 43C47.1394 43 48.3332 41.8061 48.3332 40.3334C48.3332 38.8606 47.1394 37.6668 45.6666 37.6668C44.1939 37.6668 43 38.8605 43 40.3334C43 41.8061 44.1939 43 45.6666 43ZM45.6666 45.6666C48.6122 45.6666 51 43.2789 51 40.3332C51 37.3876 48.6122 35 45.6666 35C42.721 35 40.3332 37.3877 40.3332 40.3334C40.3332 43.279 42.7211 45.6666 45.6666 45.6666Z" fill="#EE4924"/>
<path fill-rule="evenodd" clip-rule="evenodd" d="M8.33337 43C9.80612 43 11 41.8061 11 40.3334C11 38.8606 9.80612 37.6668 8.33337 37.6668C6.86063 37.6668 5.66675 38.8606 5.66675 40.3334C5.66663 41.8061 6.86063 43 8.33337 43ZM8.33337 45.6666C11.2789 45.6666 13.6667 43.2789 13.6667 40.3332C13.6667 37.3876 11.2789 35 8.33337 35C5.38788 35 3 37.3877 3 40.3334C3 43.279 5.38788 45.6666 8.33337 45.6666Z" fill="#EE4924"/>
<path fill-rule="evenodd" clip-rule="evenodd" d="M13.5021 52.3469C13.6837 53.0605 14.2636 53.6666 15 53.6666C15.7364 53.6666 16.345 53.0652 16.2236 52.3389C15.5911 48.5525 12.2992 45.6666 8.33324 45.6666C4.36724 45.6666 1.07537 48.5525 0.442869 52.3389C0.321494 53.0652 0.930119 53.6666 1.66649 53.6666C2.40287 53.6666 2.98274 53.0605 3.16437 52.3469C3.75174 50.0396 5.84312 48.3332 8.33312 48.3332C10.8231 48.3332 12.9147 50.0397 13.5021 52.3469Z" fill="#EE4924"/>
<path fill-rule="evenodd" clip-rule="evenodd" d="M32.1687 52.3469C32.3504 53.0605 32.9304 53.6666 33.6666 53.6666C34.4029 53.6666 35.0117 53.0652 34.8904 52.3389C34.2579 48.5525 30.9659 45.6666 27 45.6666C23.0341 45.6666 19.7421 48.5525 19.1096 52.3389C18.9882 53.0652 19.5969 53.6666 20.3332 53.6666C21.0696 53.6666 21.6495 53.0605 21.8311 52.3469C22.4186 50.0396 24.51 48.3332 26.9999 48.3332C29.4899 48.3334 31.5814 50.0397 32.1687 52.3469Z" fill="#EE4924"/>
<path fill-rule="evenodd" clip-rule="evenodd" d="M50.8355 52.3469C51.0171 53.0605 51.5971 53.6666 52.3334 53.6666C53.0696 53.6666 53.6785 53.0652 53.5571 52.3389C52.9246 48.5525 49.6326 45.6666 45.6667 45.6666C41.7009 45.6666 38.4089 48.5525 37.7764 52.3389C37.655 53.0652 38.2639 53.6666 39.0001 53.6666C39.7364 53.6666 40.3164 53.0605 40.498 52.3469C41.0855 50.0396 43.1769 48.3332 45.6667 48.3332C48.1566 48.3332 50.248 50.0397 50.8355 52.3469Z" fill="#EE4924"/>
</svg>
