<svg width="64" height="64" viewBox="0 0 64 64" fill="none" xmlns="http://www.w3.org/2000/svg">
<rect width="64" height="64" rx="8" fill="#DBE5FF"/>
<path fill-rule="evenodd" clip-rule="evenodd" d="M20 12.8208H44C47.3138 12.8208 50 15.3868 50 18.5521V30.0148C50 33.1802 47.3138 35.7462 44 35.7462H20C16.6863 35.7462 14 33.1802 14 30.0148V18.5521C14 15.3868 16.6863 12.8208 20 12.8208ZM20 14.7312C17.7909 14.7312 16 16.4419 16 18.5521V30.0148C16 32.1251 17.7909 33.8358 20 33.8358H44C46.2092 33.8358 48 32.1251 48 30.0148V18.5521C48 16.4419 46.2092 14.7312 44 14.7312H20Z" fill="#2154DA"/>
<path fill-rule="evenodd" clip-rule="evenodd" d="M37.3066 22.6939L31.1094 18.7474C29.7802 17.901 28 18.8111 28 20.337V28.2299C28 29.7557 29.7802 30.6659 31.1094 29.8195L37.3066 25.873C38.494 25.1169 38.494 23.4501 37.3066 22.6939ZM30 28.2299V20.3371L36.1972 24.2836L30 28.2299Z" fill="#2154DA"/>
<path fill-rule="evenodd" clip-rule="evenodd" d="M32 43.3881C33.1046 43.3881 34 42.5328 34 41.4777C34 40.4226 33.1046 39.5672 32 39.5672C30.8954 39.5672 30 40.4226 30 41.4777C30 42.5328 30.8954 43.3881 32 43.3881ZM32 45.2985C34.2092 45.2985 36 43.5879 36 41.4776C36 39.3673 34.2092 37.6567 32 37.6567C29.7908 37.6567 28 39.3674 28 41.4777C28 43.588 29.7908 45.2985 32 45.2985Z" fill="#2154DA"/>
<path fill-rule="evenodd" clip-rule="evenodd" d="M46 43.3881C47.1045 43.3881 47.9999 42.5328 47.9999 41.4777C47.9999 40.4226 47.1045 39.5672 46 39.5672C44.8954 39.5672 44 40.4225 44 41.4777C44 42.5328 44.8954 43.3881 46 43.3881ZM46 45.2985C48.2092 45.2985 50 43.5879 50 41.4776C50 39.3673 48.2092 37.6567 46 37.6567C43.7908 37.6567 41.9999 39.3674 41.9999 41.4777C41.9999 43.588 43.7908 45.2985 46 45.2985Z" fill="#2154DA"/>
<path fill-rule="evenodd" clip-rule="evenodd" d="M18 43.3881C19.1046 43.3881 20 42.5328 20 41.4777C20 40.4226 19.1046 39.5672 18 39.5672C16.8955 39.5672 16.0001 40.4226 16.0001 41.4777C16 42.5328 16.8955 43.3881 18 43.3881ZM18 45.2985C20.2092 45.2985 22.0001 43.5879 22.0001 41.4776C22.0001 39.3673 20.2092 37.6567 18 37.6567C15.7909 37.6567 14 39.3674 14 41.4777C14 43.588 15.7909 45.2985 18 45.2985Z" fill="#2154DA"/>
<path fill-rule="evenodd" clip-rule="evenodd" d="M21.8766 50.0842C22.0128 50.5954 22.4477 51.0297 23 51.0297C23.5523 51.0297 24.0087 50.5988 23.9177 50.0785C23.4433 47.3658 20.9744 45.2983 17.9999 45.2983C15.0254 45.2983 12.5565 47.3658 12.0822 50.0785C11.9911 50.5988 12.4476 51.0297 12.9999 51.0297C13.5522 51.0297 13.9871 50.5954 14.1233 50.0842C14.5638 48.4312 16.1323 47.2088 17.9998 47.2088C19.8673 47.2088 21.4361 48.4313 21.8766 50.0842Z" fill="#2154DA"/>
<path fill-rule="evenodd" clip-rule="evenodd" d="M35.8766 50.0842C36.0128 50.5954 36.4478 51.0297 37 51.0297C37.5522 51.0297 38.0088 50.5988 37.9178 50.0785C37.4434 47.3658 34.9744 45.2983 32 45.2983C29.0256 45.2983 26.5566 47.3658 26.0822 50.0785C25.9912 50.5988 26.4477 51.0297 26.9999 51.0297C27.5522 51.0297 27.9871 50.5954 28.1233 50.0842C28.564 48.4312 30.1325 47.2088 31.9999 47.2088C33.8674 47.2088 35.436 48.4313 35.8766 50.0842Z" fill="#2154DA"/>
<path fill-rule="evenodd" clip-rule="evenodd" d="M49.8766 50.0842C50.0128 50.5954 50.4478 51.0297 51 51.0297C51.5522 51.0297 52.0089 50.5988 51.9178 50.0785C51.4435 47.3658 48.9745 45.2983 46.0001 45.2983C43.0256 45.2983 40.5566 47.3658 40.0823 50.0785C39.9912 50.5988 40.4479 51.0297 41.0001 51.0297C41.5523 51.0297 41.9873 50.5954 42.1235 50.0842C42.5641 48.4312 44.1326 47.2088 46.0001 47.2088C47.8675 47.2088 49.436 48.4313 49.8766 50.0842Z" fill="#2154DA"/>
</svg>
