<svg width="64" height="64" viewBox="0 0 64 64" fill="none" xmlns="http://www.w3.org/2000/svg">
<path fill-rule="evenodd" clip-rule="evenodd" d="M20.105 44.2451C20.105 41.6067 17.9554 39.4603 15.3153 39.4603C12.6834 39.4603 10.5338 41.6067 10.5338 44.2451C10.5338 46.8852 12.6835 49.0316 15.3153 49.0316C17.9554 49.0316 20.105 46.8852 20.105 44.2451ZM22.0422 44.2451C22.0422 47.9543 19.0261 50.9711 15.3153 50.9711C11.6126 50.9711 8.59658 47.9543 8.59658 44.2451C8.59658 40.5368 11.6126 37.5207 15.3153 37.5207C19.0261 37.5208 22.0422 40.5368 22.0422 44.2451ZM28.0742 50.1564H26.3497C25.663 50.1564 25.1073 50.7146 25.1073 51.4004V55.8361C25.1073 56.2854 24.7393 56.6451 24.29 56.6404L20.3258 56.5995C19.7863 56.5995 19.3531 57.0319 19.3531 57.5688V62.0602H10.7054C10.6726 56.48 9.11969 54.2806 7.74651 52.3312C6.5613 50.6532 5.53964 49.2041 5.53964 45.5496C5.53964 42.518 6.36515 35.3858 14.0647 34.6584C18.6992 34.19 23.0149 37.2869 24.1019 41.8585C24.8211 44.8583 25.0908 45.5898 26.0471 47.0756C26.742 48.1562 27.4122 49.1738 28.0742 50.1564ZM30.4201 50.1448C30.9859 50.9707 30.406 52.0958 29.3984 52.0958H27.0444V55.8361C27.0444 57.3657 25.7962 58.5994 24.2653 58.58L21.29 58.5425V62.7625C21.29 63.4451 20.726 64 20.0313 64H10.0187C9.32645 64 8.74558 63.4416 8.75999 62.742C8.84987 57.264 7.48488 55.3245 6.16082 53.4487C4.90208 51.6644 3.59424 49.8188 3.59424 45.5498C3.59424 38.7893 6.93919 33.4058 13.8766 32.728C19.4915 32.1792 24.6897 35.9554 25.9898 41.41C26.6845 44.3231 26.897 44.8142 27.6736 46.028C28.6219 47.4958 29.5129 48.842 30.4201 50.1448ZM17.9717 41.5806C18.3886 41.9117 18.4621 42.5223 18.1352 42.9423L15.1681 46.7315C14.8281 47.1628 14.2027 47.2272 13.7785 46.8763L11.8251 45.2407C11.4083 44.8983 11.3592 44.2868 11.7025 43.8757C12.0458 43.4646 12.6506 43.409 13.0675 43.7523L14.2527 44.7472L16.6068 41.7459C16.9419 41.3248 17.5467 41.2512 17.9717 41.5806ZM51.32 41.6631C50.9031 41.3337 50.2901 41.4072 49.9632 41.8291L47.6091 44.8296L46.4157 43.8357C46.0071 43.4916 45.3941 43.5473 45.0507 43.9583C44.7074 44.3694 44.7565 44.9809 45.1734 45.3233L47.1269 46.9597C47.5499 47.3078 48.1753 47.2471 48.5165 46.8141L51.4835 43.0249C51.8185 42.6031 51.7449 41.9941 51.32 41.6631ZM53.4532 44.3277C53.4532 46.9669 51.3117 49.1142 48.6717 49.1142C46.0316 49.1142 43.882 46.9671 43.882 44.3277C43.882 41.6893 46.0316 39.5429 48.6717 39.5429C51.3118 39.5429 53.4532 41.6893 53.4532 44.3277ZM55.3986 44.3277C55.3986 48.0377 52.3744 51.0537 48.6717 51.0537C44.9608 51.0537 41.9448 48.0377 41.9448 44.3277C41.9448 40.6202 44.9608 37.6033 48.6717 37.6033C52.3744 37.6033 55.3986 40.6202 55.3986 44.3277ZM56.2487 52.3312C54.8673 54.2807 53.3143 56.4802 53.2898 62.0602H44.6339V57.5688C44.6339 57.0318 44.2007 56.5995 43.6612 56.5995L39.697 56.6404C39.2444 56.6434 38.8879 56.2904 38.8879 55.8361V51.4004C38.8879 50.7146 38.332 50.1564 37.6455 50.1564H35.9128C36.5831 49.174 37.2532 48.1562 37.9481 47.0758C38.8962 45.5898 39.1741 44.8583 39.8851 41.8586C40.9723 37.2872 45.288 34.1927 49.9223 34.6585H49.9304C57.6218 35.386 58.4474 42.5183 58.4474 45.5498C58.4474 49.2041 57.4255 50.6532 56.2487 52.3312ZM57.826 53.4487C56.51 55.3245 55.137 57.2642 55.2269 62.742C55.2414 63.4502 54.6583 64 53.9681 64H43.9556C43.2607 64 42.6968 63.4451 42.6968 62.7625V58.5425L39.7216 58.58C38.19 58.5961 36.9425 57.3677 36.9425 55.8361V52.0958H34.5884C33.5878 52.0958 32.9971 50.9694 33.5668 50.1448C34.474 48.842 35.3732 47.4958 36.3131 46.0277C37.0895 44.814 37.3022 44.3227 37.9969 41.4096C39.2971 35.9551 44.4943 32.1795 50.1101 32.7277C57.0513 33.4052 60.3924 38.792 60.3924 45.5495C60.3926 49.8188 59.0848 51.6643 57.826 53.4487ZM42.0838 15.4349C42.0838 15.9703 42.517 16.4043 43.0565 16.4043H46.4566C46.9961 16.4043 47.4293 15.9703 47.4293 15.4349C47.4293 14.8996 46.9961 14.4647 46.4566 14.4647H43.0565C42.517 14.4647 42.0838 14.8996 42.0838 15.4349ZM31.9976 5.34386C32.5289 5.34386 32.9621 4.90897 32.9621 4.37358V0.969363C32.9621 0.433977 32.5289 0 31.9976 0C31.4581 0 31.0249 0.433977 31.0249 0.969363V4.37373C31.0249 4.90897 31.4581 5.34386 31.9976 5.34386ZM39.8196 8.58224C40.0649 8.58224 40.31 8.48826 40.4981 8.29939L42.9093 5.89152C43.2853 5.51302 43.2853 4.89927 42.9093 4.52001C42.5252 4.14242 41.9122 4.14242 41.5362 4.52001L39.1331 6.92788C38.5112 7.54588 38.9647 8.58224 39.8196 8.58224ZM17.5303 16.4043H20.9305C21.4699 16.4043 21.9032 15.9703 21.9032 15.4349C21.9032 14.8996 21.4699 14.4647 20.9305 14.4647H17.5303C16.9909 14.4647 16.5576 14.8996 16.5576 15.4349C16.5576 15.9703 16.9909 16.4043 17.5303 16.4043ZM23.4889 8.29939C23.8657 8.67789 24.4811 8.67471 24.862 8.29939C25.238 7.92013 25.238 7.30623 24.862 6.92788L22.4508 4.52001C22.0749 4.14242 21.4618 4.14242 21.0777 4.52168C20.7017 4.89927 20.7017 5.51317 21.0777 5.89152L23.4889 8.29939ZM32.725 29.603V29.0652H31.262V29.603C31.262 30.0092 31.5889 30.3369 31.9976 30.3369C32.3981 30.3371 32.725 30.0092 32.725 29.603ZM27.7556 19.2683C28.4666 20.5238 29.2596 21.9304 29.7745 23.9076H34.2128C35.2769 19.8219 37.6211 18.0884 37.6211 15.3899C37.6211 12.2889 35.0955 9.76655 31.9977 9.76655C28.8918 9.76655 26.3744 12.2889 26.3744 15.3899C26.3742 16.8195 26.979 17.8994 27.7556 19.2683ZM34.0165 27.1257V25.8465H29.9787V27.1257H34.0165ZM31.9976 32.2766C33.4688 32.2766 34.6703 31.0775 34.6703 29.603V29.057C35.3895 28.9835 35.9536 28.3729 35.9536 27.6323V24.9864C36.3868 22.9373 37.1632 21.5567 37.9234 20.2228C38.7652 18.7344 39.558 17.3285 39.558 15.3898C39.558 11.2196 36.1659 7.82676 31.9974 7.82676C27.8208 7.82676 24.4287 11.2196 24.4287 15.3898C24.4287 17.3285 25.2296 18.7344 26.0633 20.2228C26.8235 21.555 27.5999 22.9364 28.0331 24.9831V27.6321C28.0331 28.3726 28.5972 28.9831 29.3164 29.0583V29.6027C29.3167 31.0775 30.5182 32.2766 31.9976 32.2766ZM39.2067 23.4745C39.2067 22.9391 39.6399 22.5044 40.1794 22.5044H49.7261C50.2656 22.5044 50.6988 22.9391 50.6988 23.4745V27.8507L51.3527 27.1919C51.7368 26.8143 52.35 26.8143 52.7259 27.1919C53.1018 27.5704 53.1018 28.1851 52.7259 28.5634L50.4128 30.8782C50.0356 31.257 49.4167 31.2572 49.0396 30.8782L46.7265 28.5634C46.3505 28.1851 46.3505 27.5704 46.7265 27.1919C47.1024 26.8143 47.7155 26.8143 48.0996 27.1919L48.7536 27.8507V24.4439H40.1795C39.6399 24.4439 39.2067 24.0098 39.2067 23.4745ZM13.2964 29.6128V23.4745C13.2964 22.9391 13.7296 22.5044 14.2609 22.5044H23.8076C24.3471 22.5044 24.7803 22.9391 24.7803 23.4745C24.7803 24.0099 24.3471 24.4439 23.8076 24.4439H15.2336V29.6128C15.2336 30.1482 14.8004 30.5831 14.2609 30.5831C13.7296 30.5831 13.2964 30.1482 13.2964 29.6128Z" fill="#9A87FC"/>
</svg>
