<svg width="64" height="64" viewBox="0 0 64 64" fill="none" xmlns="http://www.w3.org/2000/svg">
<rect width="64" height="64" rx="8" fill="#FFF5ED"/>
<g clip-path="url(#clip0_5_1256)">
<path fill-rule="evenodd" clip-rule="evenodd" d="M23.6276 40.1595C23.6276 38.3014 22.1138 36.7898 20.2545 36.7898C18.401 36.7898 16.8872 38.3014 16.8872 40.1595C16.8872 42.0188 18.4011 43.5304 20.2545 43.5304C22.1138 43.5304 23.6276 42.0188 23.6276 40.1595ZM24.9919 40.1595C24.9919 42.7717 22.8679 44.8963 20.2545 44.8963C17.6469 44.8963 15.5229 42.7717 15.5229 40.1595C15.5229 37.548 17.6469 35.4238 20.2545 35.4238C22.8679 35.4239 24.9919 37.548 24.9919 40.1595ZM29.24 44.3225H28.0254C27.5419 44.3225 27.1505 44.7157 27.1505 45.1986V48.3225C27.1505 48.6389 26.8913 48.8922 26.5749 48.8889L23.7832 48.86C23.4032 48.86 23.0981 49.1646 23.0981 49.5427V52.7058H17.008C16.9849 48.7759 15.8913 47.227 14.9242 45.8542C14.0895 44.6724 13.37 43.6519 13.37 41.0782C13.37 38.9432 13.9514 33.9204 19.3738 33.4081C22.6376 33.0782 25.6769 35.2592 26.4424 38.4787C26.949 40.5913 27.1389 41.1065 27.8124 42.1529C28.3017 42.9139 28.7738 43.6305 29.24 44.3225ZM30.892 44.3144C31.2905 44.896 30.8821 45.6884 30.1725 45.6884H28.5147V48.3225C28.5147 49.3997 27.6357 50.2685 26.5575 50.2549L24.4622 50.2284V53.2003C24.4622 53.681 24.065 54.0718 23.5757 54.0718H16.5244C16.0369 54.0718 15.6278 53.6786 15.638 53.1859C15.7013 49.328 14.74 47.9622 13.8075 46.6411C12.921 45.3846 12 44.0848 12 41.0783C12 36.3172 14.3557 32.526 19.2413 32.0486C23.1956 31.6622 26.8564 34.3215 27.772 38.1629C28.2613 40.2144 28.4109 40.5603 28.9578 41.4151C29.6256 42.4488 30.2531 43.3969 30.892 44.3144ZM22.1253 38.2831C22.4189 38.5162 22.4707 38.9462 22.2404 39.242L20.1509 41.9106C19.9114 42.2143 19.471 42.2596 19.1723 42.0125L17.7966 40.8607C17.503 40.6195 17.4684 40.1889 17.7102 39.8994C17.952 39.6099 18.3779 39.5707 18.6715 39.8125L19.5062 40.5131L21.164 38.3994C21.4001 38.1029 21.826 38.0511 22.1253 38.2831ZM45.6107 38.3411C45.3172 38.1092 44.8855 38.1609 44.6552 38.458L42.9974 40.5712L42.1569 39.8712C41.8691 39.6289 41.4374 39.668 41.1956 39.9576C40.9538 40.2471 40.9884 40.6777 41.282 40.9188L42.6578 42.0712C42.9556 42.3164 43.3961 42.2736 43.6364 41.9687L45.7259 39.3002C45.9618 39.0031 45.91 38.5743 45.6107 38.3411ZM47.113 40.2177C47.113 42.0763 45.6049 43.5886 43.7457 43.5886C41.8864 43.5886 40.3726 42.0765 40.3726 40.2177C40.3726 38.3596 41.8864 36.848 43.7457 36.848C45.605 36.848 47.113 38.3596 47.113 40.2177ZM48.4831 40.2177C48.4831 42.8304 46.3533 44.9545 43.7457 44.9545C41.1323 44.9545 39.0083 42.8304 39.0083 40.2177C39.0083 37.6067 41.1323 35.482 43.7457 35.482C46.3533 35.482 48.4831 37.6067 48.4831 40.2177ZM49.0818 45.8542C48.1089 47.2271 47.0153 48.776 46.998 52.7058H40.9021V49.5427C40.9021 49.1645 40.597 48.86 40.217 48.86L37.4253 48.8889C37.1065 48.891 36.8555 48.6424 36.8555 48.3225V45.1986C36.8555 44.7157 36.464 44.3225 35.9805 44.3225H34.7603C35.2323 43.6306 35.7043 42.9139 36.1936 42.153C36.8613 41.1065 37.057 40.5913 37.5578 38.4788C38.3234 35.2594 41.3627 33.0801 44.6264 33.4082H44.6322C50.0488 33.9205 50.6302 38.9434 50.6302 41.0783C50.6302 43.6519 49.9106 44.6724 49.0818 45.8542ZM50.1926 46.6411C49.2658 47.9622 48.2988 49.3282 48.3621 53.1859C48.3724 53.6847 47.9617 54.0718 47.4757 54.0718H40.4244C39.935 54.0718 39.5379 53.681 39.5379 53.2003V50.2284L37.4426 50.2549C36.364 50.2662 35.4854 49.4011 35.4854 48.3225V45.6884H33.8276C33.1229 45.6884 32.7069 44.8951 33.1081 44.3144C33.747 43.3969 34.3802 42.4488 35.0422 41.4149C35.589 40.5602 35.7387 40.2142 36.228 38.1626C37.1437 34.3213 40.8037 31.6624 44.7587 32.0484C49.647 32.5256 52 36.3192 52 41.0781C52.0001 44.0848 51.0791 45.3845 50.1926 46.6411ZM39.1062 19.87C39.1062 20.2471 39.4113 20.5527 39.7912 20.5527H42.1857C42.5657 20.5527 42.8708 20.2471 42.8708 19.87C42.8708 19.493 42.5657 19.1867 42.1857 19.1867H39.7912C39.4113 19.1867 39.1062 19.493 39.1062 19.87ZM32.003 12.7634C32.3771 12.7634 32.6822 12.4571 32.6822 12.0801V9.68267C32.6822 9.30563 32.3771 9 32.003 9C31.6231 9 31.318 9.30563 31.318 9.68267V12.0802C31.318 12.4571 31.6231 12.7634 32.003 12.7634ZM37.5117 15.044C37.6844 15.044 37.857 14.9778 37.9895 14.8448L39.6876 13.1491C39.9523 12.8825 39.9523 12.4503 39.6876 12.1832C39.4171 11.9173 38.9854 11.9173 38.7205 12.1832L37.0282 13.8789C36.5902 14.3142 36.9096 15.044 37.5117 15.044ZM21.8145 20.5527H24.209C24.5889 20.5527 24.894 20.2471 24.894 19.87C24.894 19.493 24.5889 19.1867 24.209 19.1867H21.8145C21.4345 19.1867 21.1294 19.493 21.1294 19.87C21.1294 20.2471 21.4345 20.5527 21.8145 20.5527ZM26.0107 14.8448C26.2761 15.1114 26.7095 15.1091 26.9778 14.8448C27.2425 14.5777 27.2425 14.1454 26.9778 13.8789L25.2797 12.1832C25.015 11.9173 24.5832 11.9173 24.3127 12.1844C24.0479 12.4503 24.0479 12.8826 24.3127 13.1491L26.0107 14.8448ZM32.5153 29.8478V29.4691H31.4849V29.8478C31.4849 30.1339 31.7152 30.3647 32.003 30.3647C32.285 30.3648 32.5153 30.1339 32.5153 29.8478ZM29.0156 22.5696C29.5163 23.4539 30.0747 24.4444 30.4374 25.8369H33.563C34.3124 22.9595 35.9633 21.7387 35.9633 19.8383C35.9633 17.6544 34.1847 15.8781 32.0031 15.8781C29.8158 15.8781 28.0428 17.6544 28.0428 19.8383C28.0427 20.8451 28.4687 21.6056 29.0156 22.5696ZM33.4248 28.1032V27.2023H30.5812V28.1032H33.4248ZM32.003 31.7307C33.0391 31.7307 33.8852 30.8863 33.8852 29.8478V29.4633C34.3918 29.4115 34.789 28.9815 34.789 28.4599V26.5966C35.0941 25.1536 35.6408 24.1813 36.1762 23.2419C36.7691 22.1937 37.3274 21.2036 37.3274 19.8382C37.3274 16.9014 34.9385 14.512 32.0029 14.512C29.0615 14.512 26.6726 16.9014 26.6726 19.8382C26.6726 21.2036 27.2367 22.1937 27.8238 23.2419C28.3592 24.1801 28.9059 25.1529 29.211 26.5943V28.4598C29.211 28.9813 29.6082 29.4113 30.1148 29.4643V29.8476C30.115 30.8863 30.9611 31.7307 32.003 31.7307ZM37.08 25.5319C37.08 25.1548 37.385 24.8487 37.765 24.8487H44.4883C44.8682 24.8487 45.1733 25.1548 45.1733 25.5319V28.6138L45.6338 28.1498C45.9043 27.8839 46.3361 27.8839 46.6009 28.1498C46.8656 28.4164 46.8656 28.8493 46.6009 29.1157L44.9718 30.7459C44.7062 31.0127 44.2704 31.0128 44.0048 30.7459L42.3758 29.1157C42.111 28.8493 42.111 28.4164 42.3758 28.1498C42.6405 27.8839 43.0723 27.8839 43.3428 28.1498L43.8033 28.6138V26.2145H37.7651C37.385 26.2145 37.08 25.9088 37.08 25.5319ZM18.8327 29.8548V25.5319C18.8327 25.1548 19.1378 24.8487 19.512 24.8487H26.2352C26.6152 24.8487 26.9203 25.1548 26.9203 25.5319C26.9203 25.9089 26.6152 26.2145 26.2352 26.2145H20.197V29.8548C20.197 30.2318 19.8919 30.5381 19.512 30.5381C19.1378 30.5381 18.8327 30.2318 18.8327 29.8548Z" fill="#728504"/>
</g>
<defs>
<clipPath id="clip0_5_1256">
<rect x="8" y="9" width="48" height="45.8507" rx="4" fill="white"/>
</clipPath>
</defs>
</svg>
