<svg width="64" height="64" viewBox="0 0 64 64" fill="none" xmlns="http://www.w3.org/2000/svg">
<path d="M40.1911 5.48718H23.8119C22.4543 5.48718 21.3504 6.59106 21.3504 7.94872V13.0154H6.55593C4.29452 13.0154 2.45428 14.8556 2.45428 17.117V54.4114C2.45428 56.6728 4.29452 58.5129 6.55593 58.5129H57.4441C59.7055 58.5129 61.5457 56.6728 61.5457 54.4114V17.117C61.5457 14.8556 59.7055 13.0154 57.4441 13.0154H42.6527V7.94872C42.6527 6.59106 41.5487 5.48718 40.1911 5.48718ZM23.8119 7.94872H40.1911V13.0154H23.8119V7.94872ZM59.0842 54.4114C59.0842 55.3159 58.3485 56.0514 57.444 56.0514H6.55593C5.65144 56.0514 4.91582 55.3159 4.91582 54.4114V32.4595H26.527V35.4781C26.527 36.9481 27.7229 38.1439 29.1935 38.1439H34.8065C36.2764 38.1439 37.4724 36.9481 37.4724 35.4781V32.4595H59.0842L59.0842 54.4114ZM28.9885 35.4781V29.8508C28.9885 29.7378 29.0805 29.6458 29.1935 29.6458H34.8065C34.9189 29.6458 35.0108 29.7378 35.0108 29.8508V35.4781C35.0108 35.5904 34.9189 35.6824 34.8065 35.6824H29.1935C29.0805 35.6824 28.9885 35.5904 28.9885 35.4781ZM57.444 15.477C58.3485 15.477 59.0842 16.2125 59.0842 17.117V29.998H37.4723V29.8508C37.4723 28.3801 36.2764 27.1843 34.8065 27.1843H29.1935C27.7229 27.1843 26.527 28.3801 26.527 29.8508V29.998H4.91582V17.117C4.91582 16.2125 5.65144 15.477 6.55593 15.477H57.444Z" fill="#2154DA"/>
</svg>
