<svg width="64" height="64" viewBox="0 0 64 64" fill="none" xmlns="http://www.w3.org/2000/svg">
<rect width="64" height="64" rx="8" fill="#DBE5FF"/>
<path fill-rule="evenodd" clip-rule="evenodd" d="M21.1723 15.6586C20.995 15.3651 21.1002 14.991 21.4073 14.8204C21.7144 14.6514 22.1069 14.7522 22.2842 15.0457L23.2273 16.6058C23.4752 17.016 23.1621 17.5255 22.672 17.5255C22.4499 17.5255 22.2341 17.416 22.1152 17.2192L21.1723 15.6586ZM13.6528 22.2288C13.8301 21.9348 14.2225 21.8345 14.5297 22.0041L16.1632 22.9047C16.7305 23.2177 16.4944 24.0488 15.8416 24.0488C15.7325 24.0488 15.6222 24.0225 15.5212 23.9672L13.8878 23.0661C13.5807 22.8964 13.4755 22.5213 13.6528 22.2288ZM53.1856 32.347C53.1856 32.686 52.8983 32.9604 52.5436 32.9604H50.6575C50.3029 32.9604 50.0156 32.686 50.0156 32.347C50.0156 32.008 50.3029 31.7341 50.6575 31.7341H52.5436C52.8983 31.7341 53.1856 32.008 53.1856 32.347ZM13.3423 32.9604H11.4564C11.1019 32.9604 10.8145 32.686 10.8145 32.347C10.8145 32.008 11.1019 31.7341 11.4564 31.7341H13.3423C13.6969 31.7341 13.9845 32.008 13.9845 32.347C13.9846 32.686 13.6969 32.9604 13.3423 32.9604ZM47.6019 23.7423C47.4246 23.4494 47.5297 23.0742 47.8368 22.9047L49.4704 22.0041C49.7774 21.8346 50.17 21.9348 50.3474 22.2288C50.5246 22.5213 50.4194 22.8964 50.1123 23.066L48.4789 23.9671C48.1762 24.1335 47.7813 24.0392 47.6019 23.7423ZM31.3579 14.5249V12.7235C31.3579 12.384 31.6454 12.1101 32 12.1101C32.3544 12.1101 32.642 12.3839 32.642 12.7235V14.5248C32.642 14.8633 32.3544 15.1382 32 15.1382C31.6455 15.1382 31.3579 14.8634 31.3579 14.5249ZM40.7728 16.6058L41.7158 15.0457C41.8929 14.7522 42.2855 14.6514 42.5928 14.8204C42.8999 14.9909 43.0051 15.3651 42.8278 15.6586L41.8847 17.2192C41.7052 17.5161 41.3097 17.6102 41.0077 17.4439C40.7007 17.2739 40.5955 16.8992 40.7728 16.6058ZM28.8397 20.5101C28.8397 20.1495 29.1471 19.8559 29.5248 19.8559H34.4753C34.8529 19.8559 35.1604 20.1495 35.1604 20.5101V21.9312H28.8397V20.5101ZM40.6911 24.1299V25.3261L33.1989 29.1598C32.4257 29.5557 31.5744 29.5557 30.8013 29.1598L23.309 25.3261V24.1299C23.309 23.5941 23.7655 23.1574 24.3267 23.1574H39.6731C40.2343 23.1574 40.6911 23.5941 40.6911 24.1299ZM39.6731 34.4785C40.2343 34.4785 40.691 34.0424 40.691 33.5065V26.7177L33.805 30.2408C32.6413 30.8361 31.3586 30.836 30.1949 30.2408L23.3089 26.7177V33.5065C23.3089 34.0424 23.7654 34.4785 24.3266 34.4785H39.6731ZM22.0249 24.1299V33.5065C22.0249 34.7183 23.0575 35.7053 24.3266 35.7053H39.673C40.9423 35.7053 41.9748 34.7183 41.9748 33.5065V24.1299C41.9748 22.9181 40.9423 21.9312 39.673 21.9312H36.4442V20.5101C36.4442 19.4731 35.5609 18.6293 34.4752 18.6293H29.5247C28.439 18.6293 27.5557 19.4731 27.5557 20.5101V21.9312H24.3267C23.0576 21.9312 22.0249 22.9181 22.0249 24.1299ZM48.3869 41.3283L38.528 46.7659C35.9143 48.2071 34.3648 48.931 31.4552 49.3414C28.3811 49.7749 25.3213 49.5516 22.4728 49.2463C21.1813 49.1083 20.0007 49.0034 18.8059 48.9217V40.9775C21.2051 40.7635 23.3155 40.7976 26.0177 41.488C26.0718 41.5014 26.1273 41.5081 26.1834 41.5081H33.1387C34.1969 41.5081 34.9065 42.5405 34.5075 43.4594C34.2759 43.9921 33.7386 44.3373 33.1387 44.3373H26.1834C25.8289 44.3373 25.5414 44.6111 25.5414 44.9507C25.5414 45.2892 25.8289 45.5635 26.1834 45.5635H33.1387C34.0693 45.5635 34.9173 45.1207 35.4255 44.402C35.6645 44.4443 35.9024 44.4665 36.1366 44.4676C37.258 44.4709 37.8217 44.0626 38.6 43.6326L46.9845 39.0089C47.6541 38.6394 48.5135 38.8591 48.9002 39.4988C49.2869 40.1388 49.0566 40.9594 48.3869 41.3283ZM17.5221 49.9495C17.5221 50.2611 17.257 50.5138 16.9315 50.5138H14.0462C13.7206 50.5138 13.4556 50.2611 13.4556 49.9495V40.5801C13.4556 40.2685 13.7206 40.0159 14.0462 40.0159H16.9315C17.2571 40.0159 17.5221 40.2685 17.5221 40.5801V49.9495ZM46.3425 37.9464L37.9582 42.5701C37.1908 42.9936 36.7877 43.3152 35.885 43.2279C36.0756 41.6636 34.7912 40.282 33.1388 40.282H26.2674C23.3879 39.5565 21.1507 39.5297 18.5991 39.7643C18.2878 39.186 17.6575 38.7896 16.9314 38.7896H14.0462C13.0125 38.7896 12.1717 39.5927 12.1717 40.5801V49.9495C12.1717 50.9375 13.0125 51.7406 14.0462 51.7406H16.9315C17.894 51.7406 18.6889 51.0435 18.794 50.1505C19.9441 50.2306 21.0843 50.3325 22.33 50.4657C25.4038 50.7946 28.4942 50.9986 31.6427 50.5546C34.8793 50.0983 36.6457 49.2204 39.1701 47.8277L49.029 42.3901C50.3118 41.6832 50.7529 40.1108 50.0121 38.8851C49.2715 37.6601 47.6254 37.2384 46.3425 37.9464Z" fill="#9A87FC"/>
</svg>
