<svg width="64" height="64" viewBox="0 0 64 64" fill="none" xmlns="http://www.w3.org/2000/svg">
<rect width="64" height="64" rx="8" fill="#DBE5FF"/>
<path fill-rule="evenodd" clip-rule="evenodd" d="M21.1722 15.6588C20.9949 15.3653 21.1002 14.9912 21.4073 14.8207C21.7144 14.6517 22.1069 14.7525 22.2842 15.046L23.2273 16.606C23.4752 17.0162 23.162 17.5258 22.672 17.5258C22.4499 17.5258 22.2341 17.4162 22.1152 17.2194L21.1722 15.6588ZM13.6528 22.2291C13.8301 21.9351 14.2224 21.8347 14.5297 22.0043L16.1632 22.905C16.7305 23.218 16.4944 24.0491 15.8416 24.0491C15.7325 24.0491 15.6222 24.0227 15.5212 23.9674L13.8878 23.0663C13.5807 22.8966 13.4754 22.5216 13.6528 22.2291ZM53.1856 32.3472C53.1856 32.6862 52.8982 32.9606 52.5436 32.9606H50.6575C50.3029 32.9606 50.0155 32.6862 50.0155 32.3472C50.0155 32.0083 50.3029 31.7344 50.6575 31.7344H52.5436C52.8982 31.7344 53.1856 32.0083 53.1856 32.3472ZM13.3423 32.9606H11.4564C11.1018 32.9606 10.8144 32.6862 10.8144 32.3472C10.8144 32.0083 11.1018 31.7344 11.4564 31.7344H13.3423C13.6969 31.7344 13.9844 32.0083 13.9844 32.3472C13.9845 32.6862 13.6969 32.9606 13.3423 32.9606ZM47.6019 23.7426C47.4246 23.4496 47.5296 23.0745 47.8367 22.905L49.4704 22.0043C49.7774 21.8348 50.17 21.9351 50.3473 22.2291C50.5245 22.5216 50.4193 22.8966 50.1123 23.0662L48.4789 23.9674C48.1762 24.1337 47.7812 24.0394 47.6019 23.7426ZM31.3578 14.5251V12.7237C31.3578 12.3843 31.6454 12.1104 32 12.1104C32.3543 12.1104 32.6419 12.3842 32.6419 12.7237V14.525C32.6419 14.8635 32.3543 15.1384 32 15.1384C31.6455 15.1384 31.3578 14.8636 31.3578 14.5251ZM40.7728 16.606L41.7158 15.046C41.8929 14.7525 42.2854 14.6517 42.5927 14.8207C42.8998 14.9912 43.005 15.3653 42.8277 15.6588L41.8846 17.2194C41.7052 17.5163 41.3097 17.6104 41.0077 17.4442C40.7007 17.2742 40.5954 16.8995 40.7728 16.606ZM28.8397 20.5104C28.8397 20.1497 29.1471 19.8562 29.5247 19.8562H34.4753C34.8529 19.8562 35.1604 20.1497 35.1604 20.5104V21.9314H28.8397V20.5104ZM40.6911 24.1301V25.3264L33.1988 29.16C32.4257 29.5559 31.5743 29.5559 30.8012 29.16L23.309 25.3264V24.1301C23.309 23.5943 23.7655 23.1576 24.3267 23.1576H39.6731C40.2343 23.1576 40.6911 23.5943 40.6911 24.1301ZM39.6731 34.4787C40.2343 34.4787 40.691 34.0426 40.691 33.5068V26.7179L33.805 30.241C32.6413 30.8363 31.3586 30.8363 30.1949 30.241L23.3089 26.7179V33.5068C23.3089 34.0427 23.7654 34.4787 24.3266 34.4787H39.6731ZM22.0248 24.1301V33.5068C22.0248 34.7185 23.0575 35.7055 24.3266 35.7055H39.673C40.9423 35.7055 41.9748 34.7185 41.9748 33.5068V24.1301C41.9748 22.9184 40.9423 21.9314 39.673 21.9314H36.4442V20.5104C36.4442 19.4733 35.5609 18.6295 34.4752 18.6295H29.5246C28.439 18.6295 27.5557 19.4733 27.5557 20.5104V21.9314H24.3267C23.0576 21.9314 22.0248 22.9184 22.0248 24.1301ZM48.3869 41.3286L38.528 46.7662C35.9143 48.2074 34.3648 48.9312 31.4552 49.3416C28.3811 49.7752 25.3213 49.5519 22.4728 49.2465C21.1813 49.1085 20.0007 49.0036 18.8058 48.922V40.9777C21.2051 40.7638 23.3154 40.7979 26.0177 41.4882C26.0718 41.5017 26.1273 41.5084 26.1834 41.5084H33.1386C34.1969 41.5084 34.9065 42.5408 34.5075 43.4596C34.2759 43.9923 33.7386 44.3376 33.1386 44.3376H26.1834C25.8288 44.3376 25.5414 44.6114 25.5414 44.9509C25.5414 45.2894 25.8288 45.5638 26.1834 45.5638H33.1386C34.0693 45.5638 34.9172 45.121 35.4255 44.4022C35.6645 44.4446 35.9024 44.4668 36.1365 44.4679C37.258 44.4712 37.8216 44.0628 38.6 43.6328L46.9844 39.0091C47.654 38.6397 48.5134 38.8593 48.9002 39.499C49.2869 40.1391 49.0566 40.9596 48.3869 41.3286ZM17.522 49.9498C17.522 50.2614 17.257 50.514 16.9314 50.514H14.0462C13.7205 50.514 13.4556 50.2614 13.4556 49.9498V40.5804C13.4556 40.2688 13.7205 40.0161 14.0462 40.0161H16.9314C17.2571 40.0161 17.522 40.2688 17.522 40.5804V49.9498ZM46.3425 37.9466L37.9581 42.5704C37.1908 42.9939 36.7877 43.3155 35.885 43.2282C36.0756 41.6638 34.7912 40.2822 33.1387 40.2822H26.2674C23.3878 39.5567 21.1506 39.5299 18.5991 39.7645C18.2877 39.1862 17.6575 38.7899 16.9314 38.7899H14.0462C13.0124 38.7899 12.1717 39.5929 12.1717 40.5804V49.9498C12.1717 50.9378 13.0124 51.7408 14.0462 51.7408H16.9314C17.8939 51.7408 18.6889 51.0438 18.7939 50.1508C19.944 50.2308 21.0843 50.3327 22.33 50.466C25.4037 50.7948 28.4942 50.9988 31.6427 50.5548C34.8793 50.0985 36.6457 49.2207 39.17 47.828L49.029 42.3904C50.3118 41.6834 50.7528 40.111 50.0121 38.8853C49.2715 37.6603 47.6253 37.2387 46.3425 37.9466Z" fill="#9A87FC"/>
</svg>
