<svg width="72" height="70" viewBox="0 0 72 70" fill="none" xmlns="http://www.w3.org/2000/svg">
<g clip-path="url(#clip0_9_2746)">
<path d="M4.47164 57.4033C3.28568 57.4033 2.14831 56.9322 1.30971 56.0936C0.471119 55.255 0 54.1176 0 52.9317V41.1406C0 39.9547 0.471119 38.8173 1.30971 37.9787C2.14831 37.1401 3.28568 36.669 4.47164 36.669C5.65759 36.669 6.79497 37.1401 7.63357 37.9787C8.47216 38.8173 8.94329 39.9547 8.94329 41.1406V52.9317C8.94329 54.1176 8.47216 55.255 7.63357 56.0936C6.79497 56.9322 5.65759 57.4033 4.47164 57.4033ZM22.1433 56.9735V36.5556C22.1417 35.3707 21.6699 34.2348 20.8315 33.3975C19.993 32.5602 18.8566 32.0899 17.6716 32.0899C16.4857 32.0899 15.3483 32.561 14.5097 33.3996C13.6711 34.2382 13.2 35.3756 13.2 36.5615V56.9795C13.2 58.1654 13.6711 59.3028 14.5097 60.1414C15.3483 60.98 16.4857 61.4511 17.6716 61.4511C18.2594 61.4511 18.8413 61.3352 19.3842 61.1101C19.9272 60.885 20.4204 60.5551 20.8357 60.1393C21.251 59.7234 21.5802 59.2298 21.8046 58.6865C22.029 58.1433 22.1441 57.5612 22.1433 56.9735ZM35.3493 61.4929V32.2929C35.3493 31.1069 34.8781 29.9695 34.0395 29.131C33.201 28.2924 32.0636 27.8212 30.8776 27.8212C29.6917 27.8212 28.5543 28.2924 27.7157 29.131C26.8771 29.9695 26.406 31.1069 26.406 32.2929V61.4929C26.406 62.6788 26.8771 63.8162 27.7157 64.6548C28.5543 65.4934 29.6917 65.9645 30.8776 65.9645C32.0636 65.9645 33.201 65.4934 34.0395 64.6548C34.8781 63.8162 35.3493 62.6788 35.3493 61.4929ZM48.5493 65.672V27.6242C48.5493 26.4383 48.0781 25.3009 47.2395 24.4623C46.4009 23.6237 45.2636 23.1526 44.0776 23.1526C42.8917 23.1526 41.7543 23.6237 40.9157 24.4623C40.0771 25.3009 39.606 26.4383 39.606 27.6242V65.678C39.606 66.8639 40.0771 68.0013 40.9157 68.8399C41.7543 69.6785 42.8917 70.1496 44.0776 70.1496C45.2636 70.1496 46.4009 69.6785 47.2395 68.8399C48.0781 68.0013 48.5493 66.8639 48.5493 65.678V65.672ZM68.1373 17.6004L8.50746 0.185417C7.80476 -0.0206256 7.06371 -0.0599901 6.34314 0.0704336C5.62256 0.200857 4.94231 0.497473 4.35642 0.93675C3.77052 1.37603 3.29511 1.94586 2.96793 2.60099C2.64075 3.25612 2.47083 3.97852 2.47164 4.7108V32.8541H6.00597V4.71676C6.00597 4.40008 6.13177 4.09637 6.35569 3.87245C6.57962 3.64853 6.88332 3.52273 7.2 3.52273C7.31501 3.52395 7.4294 3.54001 7.5403 3.5705L67.1761 20.9854C67.419 21.059 67.6321 21.208 67.7846 21.4109C67.937 21.6138 68.0208 21.86 68.0239 22.1138V59.666C68.0239 59.9827 67.8981 60.2864 67.6742 60.5103C67.4502 60.7342 67.1465 60.8601 66.8299 60.8601C66.7148 60.8588 66.6005 60.8428 66.4896 60.8123L52.8896 56.8421V60.5197L65.4985 64.2033C66.2012 64.4094 66.9423 64.4487 67.6628 64.3183C68.3834 64.1879 69.0637 63.8913 69.6496 63.452C70.2355 63.0127 70.7109 62.4429 71.038 61.7877C71.3652 61.1326 71.5351 60.4103 71.5343 59.678V22.1257C71.5334 21.1063 71.2018 20.1146 70.5893 19.2997C69.9767 18.4848 69.1163 17.8906 68.1373 17.6063V17.6004ZM106.131 16.9377C109.216 16.4349 112.337 16.1913 115.463 16.2093C120.239 16.2093 123.785 17.3257 126.018 19.3377C128.084 21.1287 129.313 23.863 129.313 27.2123C129.313 30.5615 128.31 33.3018 126.412 35.26C123.839 37.9944 119.648 39.3914 114.901 39.3914C113.589 39.4343 112.277 39.3221 110.991 39.0571V54.1377H106.131V16.9377ZM110.991 35.075C112.311 35.368 113.663 35.4983 115.015 35.463C120.878 35.463 124.454 32.6153 124.454 27.4212C124.454 22.4481 120.937 20.0481 115.57 20.0481C114.034 20.0065 112.498 20.1367 110.991 20.4362V35.075ZM158.752 40.3765C158.752 50.3765 151.827 54.7347 145.29 54.7347C137.97 54.7347 132.328 49.3615 132.328 40.8242C132.328 31.7795 138.251 26.4959 145.737 26.4959C153.499 26.4959 158.752 32.1377 158.752 40.4004V40.3765ZM137.302 40.6571C137.302 46.5795 140.71 51.0511 145.51 51.0511C150.203 51.0511 153.725 46.6332 153.725 40.5496C153.725 35.9645 151.433 30.1556 145.624 30.1556C139.815 30.1556 137.313 35.5407 137.313 40.681L137.302 40.6571ZM166.519 27.0869L170.101 40.8183C170.884 43.8391 171.612 46.6272 172.113 49.4213H172.281C172.878 46.6869 173.791 43.7794 174.669 40.878L179.104 27.1108H183.236L187.415 40.6272C188.418 43.869 189.206 46.7168 189.803 49.4511H189.97C190.499 46.4924 191.189 43.5647 192.036 40.681L195.893 27.1108H200.752L192.036 54.1436H187.57L183.433 41.2421C182.486 38.3237 181.689 35.3586 181.045 32.3586H180.931C180.289 35.3889 179.47 38.3791 178.478 41.3138L174.119 54.1615H169.648L161.493 27.1287L166.519 27.0869ZM207.851 41.4989C207.964 48.1436 212.209 50.8779 217.122 50.8779C219.689 50.9562 222.242 50.4819 224.609 49.4869L225.445 53.0033C222.599 54.1895 219.535 54.7612 216.454 54.681C208.131 54.681 203.158 49.2063 203.158 41.0511C203.158 32.8959 207.964 26.472 215.839 26.472C224.663 26.472 227.009 34.2332 227.009 39.2063C227.002 39.9733 226.946 40.739 226.842 41.4989H207.851ZM222.263 37.9765C222.316 34.8481 220.979 29.9884 215.445 29.9884C210.478 29.9884 208.281 34.5675 207.904 37.9765H222.263ZM233.099 35.5168C233.099 32.3347 233.045 29.6003 232.878 27.0869H237.176L237.343 32.3944H237.57C238.794 28.7586 241.749 26.472 245.051 26.472C245.522 26.4647 245.992 26.5209 246.448 26.6391V31.272C245.898 31.1547 245.338 31.0986 244.776 31.1048C241.307 31.1048 238.854 33.7317 238.209 37.4212C238.074 38.1763 238 38.9409 237.988 39.7078V54.1198H233.128L233.099 35.5168ZM263.373 16.9735C266.298 16.4412 269.266 16.1874 272.239 16.2153C277.099 16.2153 280.227 17.0571 282.567 18.9556C284.525 20.4063 285.696 22.6392 285.696 25.6003C285.696 29.2302 283.307 32.4183 279.331 33.869V33.9824C282.913 34.872 287.093 37.8332 287.093 43.4212C287.115 44.8301 286.843 46.2282 286.295 47.5264C285.747 48.8246 284.935 49.9944 283.91 50.9615C281.284 53.3496 277.039 54.478 270.896 54.478C268.375 54.498 265.856 54.3484 263.355 54.0302L263.373 16.9735ZM268.233 32.3944H272.645C277.785 32.3944 280.8 29.7078 280.8 26.078C280.8 21.666 277.451 19.9347 272.531 19.9347C271.091 19.8976 269.65 20.0096 268.233 20.269V32.3944ZM268.233 50.4362C269.584 50.6163 270.948 50.6901 272.31 50.657C277.337 50.657 281.976 48.8123 281.976 43.3377C281.976 38.2033 277.558 36.078 272.257 36.078H268.233V50.4362ZM298.507 16.4959V54.1436H293.648V16.4959H298.507Z" fill="#F3C200"/>
</g>
<defs>
<clipPath id="clip0_9_2746">
<rect width="72" height="70" fill="white"/>
</clipPath>
</defs>
</svg>
