<svg width="80" height="80" viewBox="0 0 80 80" fill="none" xmlns="http://www.w3.org/2000/svg">
<g clip-path="url(#clip0_9_2696)">
<g clip-path="url(#clip1_9_2696)">
<g clip-path="url(#clip2_9_2696)">
<mask id="mask0_9_2696" style="mask-type:luminance" maskUnits="userSpaceOnUse" x="0" y="0" width="80" height="80">
<path d="M72 0H8C3.58172 0 0 3.58172 0 8V72C0 76.4183 3.58172 80 8 80H72C76.4183 80 80 76.4183 80 72V8C80 3.58172 76.4183 0 72 0Z" fill="white"/>
</mask>
<g mask="url(#mask0_9_2696)">
<path d="M80 0H0V80H80V0Z" fill="white"/>
<path d="M39.7258 12.0004C37.8197 12.0092 35.9995 12.1718 34.3979 12.4552C29.6798 13.2887 28.8231 15.0334 28.8231 18.2509V22.5002H39.9727V23.9166H28.8231H24.6388C21.3984 23.9166 18.5611 25.8643 17.6736 29.5694C16.6499 33.8163 16.6045 36.4664 17.6736 40.9009C18.4661 44.2017 20.3588 46.5536 23.5992 46.5536H27.4327V41.4596C27.4327 37.7796 30.6168 34.5334 34.3979 34.5334H45.5345C48.6345 34.5334 51.1093 31.9809 51.1093 28.8677V18.2509C51.1093 15.2293 48.5602 12.9595 45.5345 12.4552C43.6191 12.1364 41.6318 11.9915 39.7258 12.0004ZM33.6962 15.418C34.8479 15.418 35.7884 16.3739 35.7884 17.5492C35.7884 18.7203 34.8479 19.6673 33.6962 19.6673C32.5404 19.6673 31.604 18.7203 31.604 17.5492C31.604 16.3739 32.5404 15.418 33.6962 15.418Z" fill="url(#paint0_linear_9_2696)"/>
<path d="M52.4988 23.918V28.869C52.4988 32.7075 49.2446 35.9382 45.5336 35.9382H34.397C31.3466 35.9382 28.8223 38.549 28.8223 41.6039V52.2207C28.8223 55.2423 31.4498 57.0196 34.397 57.8864C37.9264 58.9242 41.3108 59.1117 45.5336 57.8864C48.3406 57.0737 51.1084 55.4382 51.1084 52.2207V47.9714H39.9718V46.5549H51.1084H56.6832C59.9235 46.5549 61.131 44.2947 62.2579 40.9022C63.422 37.4097 63.3725 34.051 62.2579 29.5707C61.4571 26.3449 59.9277 23.918 56.6832 23.918H52.4988ZM46.2353 50.8043C47.3911 50.8043 48.3275 51.7513 48.3275 52.9224C48.3275 54.0977 47.3911 55.0536 46.2353 55.0536C45.0837 55.0536 44.1432 54.0977 44.1432 52.9224C44.1432 51.7513 45.0837 50.8043 46.2353 50.8043Z" fill="url(#paint1_linear_9_2696)"/>
<path opacity="0.44382" d="M40.0995 68.0015C48.3514 68.0015 55.0409 66.7044 55.0409 65.1043C55.0409 63.5042 48.3514 62.207 40.0995 62.207C31.8477 62.207 25.1582 63.5042 25.1582 65.1043C25.1582 66.7044 31.8477 68.0015 40.0995 68.0015Z" fill="url(#paint2_radial_9_2696)"/>
</g>
</g>
</g>
</g>
<defs>
<linearGradient id="paint0_linear_9_2696" x1="16.8887" y1="12" x2="42.5983" y2="33.9082" gradientUnits="userSpaceOnUse">
<stop stop-color="#5A9FD4"/>
<stop offset="1" stop-color="#306998"/>
</linearGradient>
<linearGradient id="paint1_linear_9_2696" x1="45.9674" y1="52.5652" x2="36.7437" y2="39.6401" gradientUnits="userSpaceOnUse">
<stop stop-color="#FFD43B"/>
<stop offset="1" stop-color="#FFE873"/>
</linearGradient>
<radialGradient id="paint2_radial_9_2696" cx="0" cy="0" r="1" gradientUnits="userSpaceOnUse" gradientTransform="translate(40.0995 65.1043) rotate(-90) scale(2.89725 12.7346)">
<stop stop-color="#B8B8B8" stop-opacity="0.498039"/>
<stop offset="1" stop-color="#7F7F7F" stop-opacity="0"/>
</radialGradient>
<clipPath id="clip0_9_2696">
<rect width="80" height="80" rx="8" fill="white"/>
</clipPath>
<clipPath id="clip1_9_2696">
<rect width="80" height="80" fill="white"/>
</clipPath>
<clipPath id="clip2_9_2696">
<rect width="80" height="80" fill="white"/>
</clipPath>
</defs>
</svg>
