<svg width="334" height="74" viewBox="0 0 334 74" fill="none" xmlns="http://www.w3.org/2000/svg">
<mask id="mask0_9_1781" style="mask-type:luminance" maskUnits="userSpaceOnUse" x="305" y="2" width="29" height="70">
<path d="M305 2.80151H333.232V71.5902H305V2.80151Z" fill="white"/>
</mask>
<g mask="url(#mask0_9_1781)">
<path fill-rule="evenodd" clip-rule="evenodd" d="M305.475 3.02765L317.347 9.88189L333.118 18.9888V55.4029L317.347 64.5098L305.475 71.364V55.9985L310.695 52.9913L319.808 47.7201V26.6715L310.695 21.4004L305.475 18.3931" fill="#DDFB24"/>
</g>
<path d="M59.5604 50.1959H50.5204V23.3959H59.5604C67.6404 23.3959 72.7204 28.5959 72.7204 36.7959C72.7204 44.9959 67.6404 50.1959 59.5604 50.1959ZM59.5604 25.9959H53.3604V47.5959H59.5604C66.6804 47.5959 69.7204 44.0759 69.7204 36.7959C69.7204 29.5159 66.6804 25.9959 59.5604 25.9959ZM94.4979 50.1959H76.4579V23.3959H94.4979V25.9959H79.2979V35.3959H93.8979V38.0359H79.2979V47.5959H94.4979V50.1959ZM108.1 50.5959C100.66 50.5959 97.4204 46.6759 97.4204 42.0759V41.4759H100.26V41.9159C100.26 45.6359 102.22 47.9559 108.18 47.9559C112.62 47.9559 114.7 46.4759 114.7 43.3959C114.7 40.3959 113.34 39.2759 109.3 38.3959L104.66 37.3559C100.46 36.4759 97.5804 34.5559 97.5804 30.2359C97.5804 26.3559 100.78 22.9959 107.14 22.9959C114.1 22.9959 117.14 27.2359 117.14 31.5959V32.1159H114.3V31.6759C114.3 27.9959 112.38 25.6359 107.1 25.6359C102.66 25.6359 100.46 27.1159 100.46 30.0359C100.46 33.0759 101.94 33.9559 105.86 34.8759L110.5 35.9559C114.94 36.9559 117.58 39.0359 117.58 43.2359C117.58 47.3159 114.42 50.5959 108.1 50.5959ZM132.345 50.5959C124.745 50.5959 120.145 45.1559 120.145 36.7959C120.145 28.4359 124.745 22.9959 132.345 22.9959C138.905 22.9959 143.345 26.8759 143.345 32.9559V33.2759H140.305V32.9559C140.305 28.2359 137.785 25.7559 132.185 25.7559C125.905 25.7559 123.145 29.3559 123.145 36.7959C123.145 44.2359 125.905 47.8359 132.185 47.8359C137.785 47.8359 140.305 45.3559 140.305 40.6359V40.3159H143.345V40.6359C143.345 46.7159 138.905 50.5959 132.345 50.5959ZM150.001 50.1959H147.161V23.3959H150.001V50.1959ZM157.97 50.1959H155.13V23.3959H165.61C171.21 23.3959 175.33 26.6359 175.33 32.1959C175.33 37.8359 171.21 41.0359 165.61 41.0359H157.97V50.1959ZM166.05 25.9959H157.97V38.4359H166.05C170.41 38.4359 172.45 36.5959 172.45 32.1959C172.45 27.8359 170.41 25.9959 166.05 25.9959ZM181.368 50.1959H178.528V23.3959H189.448C194.968 23.3959 198.728 26.2359 198.728 31.1959C198.728 35.7559 195.568 38.5159 190.768 38.6359V38.8759C192.448 39.3959 193.568 40.5159 194.488 42.1559L199.088 50.1959H195.768L191.448 42.6759C190.128 40.3559 188.728 39.2759 185.248 39.2759H181.368V50.1959ZM181.368 25.9959V36.8359H189.888C194.008 36.8359 195.848 35.1959 195.848 31.3959C195.848 27.7159 194.008 25.9959 189.888 25.9959H181.368ZM221.135 50.5959C213.775 50.5959 208.895 45.1559 208.895 36.7959C208.895 28.4359 213.775 22.9959 221.135 22.9959C228.455 22.9959 233.335 28.4359 233.335 36.7959C233.335 43.7159 230.015 48.6359 224.695 50.1159L228.495 55.8359H225.015L221.775 50.5959C221.575 50.5959 221.335 50.5959 221.135 50.5959ZM221.135 47.8359C227.415 47.8359 230.335 44.2359 230.335 36.7959C230.335 29.3559 227.415 25.7559 221.135 25.7559C214.855 25.7559 211.895 29.3559 211.895 36.7959C211.895 44.2359 214.855 47.8359 221.135 47.8359ZM248.162 50.5959C241.322 50.5959 237.042 46.6359 237.042 39.6359V23.3959H239.922V39.6359C239.922 45.3559 242.282 47.8359 248.162 47.8359C253.962 47.8359 256.362 45.3559 256.362 39.6359V23.3959H259.242V39.6359C259.242 46.6359 254.922 50.5959 248.162 50.5959ZM267.149 50.1959H264.309V23.3959H267.149V50.1959ZM291.533 50.1959H270.173V47.7559L287.093 26.1959V25.9959H270.973V23.3959H290.933V25.8359L274.013 47.3959V47.5959H291.533V50.1959Z" fill="white"/>
<mask id="mask1_9_1781" style="mask-type:luminance" maskUnits="userSpaceOnUse" x="0" y="0" width="37" height="74">
<path d="M0.459595 0.866821H36.0004V73.5249H0.459595V0.866821Z" fill="white"/>
</mask>
<g mask="url(#mask1_9_1781)">
<path fill-rule="evenodd" clip-rule="evenodd" d="M11.4273 12.7436L0.46637 19.0784V55.4925L11.4273 61.8272M18.6018 65.9675L32.008 73.704L35.902 71.4536V3.11723L32.008 0.866821L18.6018 8.60331V65.9675Z" fill="#B7B327"/>
</g>
</svg>
