<svg width="32" height="33" viewBox="0 0 32 33" fill="none" xmlns="http://www.w3.org/2000/svg">
<path d="M4 15.8667C4 16.1319 4.10536 16.3863 4.29289 16.5738C4.48043 16.7614 4.73478 16.8667 5 16.8667H24.586L20.294 21.1587C20.1118 21.3473 20.011 21.5999 20.0133 21.8621C20.0156 22.1243 20.1208 22.3751 20.3062 22.5605C20.4916 22.7459 20.7424 22.8511 21.0046 22.8534C21.2668 22.8557 21.5194 22.7549 21.708 22.5727L27.708 16.5727C27.8005 16.4807 27.874 16.3713 27.9241 16.2509C27.9742 16.1304 28 16.0012 28 15.8707V15.8667C28 15.7367 27.974 15.6067 27.922 15.4847C27.8722 15.3635 27.7987 15.2534 27.706 15.1607L21.706 9.16072C21.5174 8.97856 21.2648 8.87776 21.0026 8.88004C20.7404 8.88232 20.4896 8.98749 20.3042 9.1729C20.1188 9.35831 20.0136 9.60912 20.0113 9.87132C20.009 10.1335 20.1098 10.3861 20.292 10.5747L24.586 14.8667H5C4.73478 14.8667 4.48043 14.9721 4.29289 15.1596C4.10536 15.3471 4 15.6015 4 15.8667Z" fill="#000000"/>
</svg>
