<svg width="599" height="73" viewBox="0 0 599 73" fill="none" xmlns="http://www.w3.org/2000/svg">
<mask id="mask0_37_1733" style="mask-type:luminance" maskUnits="userSpaceOnUse" x="570" y="0" width="29" height="69">
<path d="M570 0H598.232V68.7887H570V0Z" fill="white"/>
</mask>
<g mask="url(#mask0_37_1733)">
<path fill-rule="evenodd" clip-rule="evenodd" d="M570.475 0.226074L582.347 7.08031L598.118 16.1872V52.6013L582.347 61.7082L570.475 68.5624V53.1969L575.694 50.1897L584.808 44.9186V23.8699L575.694 18.5988L570.475 15.5916" fill="#DDFB24"/>
</g>
<mask id="mask1_37_1733" style="mask-type:luminance" maskUnits="userSpaceOnUse" x="0" y="0" width="36" height="73">
<path d="M0 0H35.5408V72.6581H0V0Z" fill="white"/>
</mask>
<g mask="url(#mask1_37_1733)">
<path fill-rule="evenodd" clip-rule="evenodd" d="M10.9677 11.8768L0.0067749 18.2115V54.6257L10.9677 60.9604M18.1422 65.1007L31.5484 72.8372L35.4424 70.5868V2.25041L31.5484 0L18.1422 7.73649V65.1007Z" fill="#B7B327"/>
</g>
<path d="M55.0909 39.9091H58.9545L62.1932 44.1705L63.0455 45.3068L67.875 51.7273H64.0114L60.8295 47.4659L60.0341 46.3864L55.0909 39.9091ZM69.0682 34.4545C69.0682 37.5227 68.5142 40.1742 67.4062 42.4091C66.2983 44.6439 64.7784 46.3674 62.8466 47.5795C60.9148 48.7917 58.7083 49.3977 56.2273 49.3977C53.7462 49.3977 51.5398 48.7917 49.608 47.5795C47.6761 46.3674 46.1563 44.6439 45.0483 42.4091C43.9403 40.1742 43.3864 37.5227 43.3864 34.4545C43.3864 31.3864 43.9403 28.7348 45.0483 26.5C46.1563 24.2652 47.6761 22.5417 49.608 21.3295C51.5398 20.1174 53.7462 19.5114 56.2273 19.5114C58.7083 19.5114 60.9148 20.1174 62.8466 21.3295C64.7784 22.5417 66.2983 24.2652 67.4062 26.5C68.5142 28.7348 69.0682 31.3864 69.0682 34.4545ZM65.6591 34.4545C65.6591 31.9356 65.2377 29.8097 64.3949 28.0767C63.5616 26.3438 62.4299 25.0322 61 24.142C59.5795 23.2519 57.9886 22.8068 56.2273 22.8068C54.4659 22.8068 52.8703 23.2519 51.4403 24.142C50.0199 25.0322 48.8883 26.3438 48.0455 28.0767C47.2121 29.8097 46.7955 31.9356 46.7955 34.4545C46.7955 36.9735 47.2121 39.0994 48.0455 40.8324C48.8883 42.5653 50.0199 43.8769 51.4403 44.767C52.8703 45.6572 54.4659 46.1023 56.2273 46.1023C57.9886 46.1023 59.5795 45.6572 61 44.767C62.4299 43.8769 63.5616 42.5653 64.3949 40.8324C65.2377 39.0994 65.6591 36.9735 65.6591 34.4545ZM94.0824 19.9091H97.6051V39.1705C97.6051 41.1591 97.1364 42.9347 96.1989 44.4972C95.2708 46.0502 93.9593 47.2765 92.2642 48.1761C90.5691 49.0663 88.5805 49.5114 86.2983 49.5114C84.0161 49.5114 82.0275 49.0663 80.3324 48.1761C78.6373 47.2765 77.321 46.0502 76.3835 44.4972C75.4555 42.9347 74.9915 41.1591 74.9915 39.1705V19.9091H78.5142V38.8864C78.5142 40.3068 78.8267 41.571 79.4517 42.679C80.0767 43.7775 80.9669 44.6439 82.1222 45.2784C83.2869 45.9034 84.679 46.2159 86.2983 46.2159C87.9176 46.2159 89.3097 45.9034 90.4744 45.2784C91.6392 44.6439 92.5294 43.7775 93.1449 42.679C93.7699 41.571 94.0824 40.3068 94.0824 38.8864V19.9091ZM105.833 49H102.14L112.822 19.9091H116.458L127.14 49H123.447L114.754 24.5114H114.526L105.833 49ZM107.197 37.6364H122.083V40.7614H107.197V37.6364ZM154.739 19.9091V49H151.33L135.478 26.1591H135.194V49H131.671V19.9091H135.08L150.989 42.8068H151.273V19.9091H154.739ZM160.197 23.0341V19.9091H182.016V23.0341H172.868V49H169.345V23.0341H160.197ZM206.543 19.9091H210.066V39.1705C210.066 41.1591 209.597 42.9347 208.66 44.4972C207.732 46.0502 206.42 47.2765 204.725 48.1761C203.03 49.0663 201.041 49.5114 198.759 49.5114C196.477 49.5114 194.488 49.0663 192.793 48.1761C191.098 47.2765 189.782 46.0502 188.844 44.4972C187.916 42.9347 187.452 41.1591 187.452 39.1705V19.9091H190.975V38.8864C190.975 40.3068 191.288 41.571 191.913 42.679C192.538 43.7775 193.428 44.6439 194.583 45.2784C195.748 45.9034 197.14 46.2159 198.759 46.2159C200.379 46.2159 201.771 45.9034 202.935 45.2784C204.1 44.6439 204.99 43.7775 205.606 42.679C206.231 41.571 206.543 40.3068 206.543 38.8864V19.9091ZM217.101 19.9091H221.305L231.192 44.0568H231.533L241.419 19.9091H245.624V49H242.328V26.8977H242.044L232.953 49H229.771L220.68 26.8977H220.396V49H217.101V19.9091ZM265.13 49H261.437L272.119 19.9091H275.755L286.437 49H282.744L274.05 24.5114H273.823L265.13 49ZM266.494 37.6364H281.38V40.7614H266.494V37.6364ZM313.01 29H309.487C309.279 27.9867 308.914 27.0966 308.393 26.3295C307.882 25.5625 307.257 24.9186 306.518 24.3977C305.789 23.8674 304.98 23.4697 304.089 23.2045C303.199 22.9394 302.271 22.8068 301.305 22.8068C299.544 22.8068 297.948 23.2519 296.518 24.142C295.098 25.0322 293.966 26.3438 293.124 28.0767C292.29 29.8097 291.874 31.9356 291.874 34.4545C291.874 36.9735 292.29 39.0994 293.124 40.8324C293.966 42.5653 295.098 43.8769 296.518 44.767C297.948 45.6572 299.544 46.1023 301.305 46.1023C302.271 46.1023 303.199 45.9697 304.089 45.7045C304.98 45.4394 305.789 45.0464 306.518 44.5256C307.257 43.9953 307.882 43.3466 308.393 42.5795C308.914 41.803 309.279 40.9129 309.487 39.9091H313.01C312.745 41.3958 312.262 42.7263 311.561 43.9006C310.86 45.0748 309.989 46.0739 308.947 46.8977C307.906 47.7121 306.736 48.3324 305.439 48.7585C304.151 49.1847 302.773 49.3977 301.305 49.3977C298.824 49.3977 296.618 48.7917 294.686 47.5795C292.754 46.3674 291.234 44.6439 290.126 42.4091C289.018 40.1742 288.464 37.5227 288.464 34.4545C288.464 31.3864 289.018 28.7348 290.126 26.5C291.234 24.2652 292.754 22.5417 294.686 21.3295C296.618 20.1174 298.824 19.5114 301.305 19.5114C302.773 19.5114 304.151 19.7244 305.439 20.1506C306.736 20.5767 307.906 21.2017 308.947 22.0256C309.989 22.84 310.86 23.8343 311.561 25.0085C312.262 26.1733 312.745 27.5038 313.01 29ZM319.896 49H316.202L326.884 19.9091H330.521L341.202 49H337.509L328.816 24.5114H328.589L319.896 49ZM321.259 37.6364H336.146V40.7614H321.259V37.6364ZM354.711 49H345.734V19.9091H355.109C357.931 19.9091 360.345 20.4915 362.353 21.6562C364.361 22.8116 365.899 24.4735 366.969 26.642C368.04 28.8011 368.575 31.3864 368.575 34.3977C368.575 37.428 368.035 40.0369 366.955 42.2244C365.876 44.4025 364.304 46.0786 362.239 47.2528C360.175 48.4176 357.665 49 354.711 49ZM349.256 45.875H354.484C356.889 45.875 358.882 45.411 360.464 44.483C362.045 43.5549 363.224 42.2339 364.001 40.5199C364.777 38.8059 365.165 36.7652 365.165 34.3977C365.165 32.0492 364.782 30.0275 364.015 28.3324C363.248 26.6278 362.102 25.321 360.577 24.4119C359.053 23.4934 357.154 23.0341 354.881 23.0341H349.256V45.875ZM374.484 49V19.9091H392.04V23.0341H378.006V32.8636H391.131V35.9886H378.006V45.875H392.268V49H374.484ZM398.39 19.9091H402.594L412.481 44.0568H412.822L422.708 19.9091H426.913V49H423.617V26.8977H423.333L414.242 49H411.06L401.969 26.8977H401.685V49H398.39V19.9091ZM431.476 19.9091H435.51L443.578 33.4886H443.919L451.987 19.9091H456.021L445.51 37.0114V49H441.987V37.0114L431.476 19.9091ZM482.396 39.9091H486.259L489.498 44.1705L490.35 45.3068L495.18 51.7273H491.316L488.134 47.4659L487.339 46.3864L482.396 39.9091ZM496.373 34.4545C496.373 37.5227 495.819 40.1742 494.711 42.4091C493.603 44.6439 492.083 46.3674 490.151 47.5795C488.219 48.7917 486.013 49.3977 483.532 49.3977C481.051 49.3977 478.844 48.7917 476.913 47.5795C474.981 46.3674 473.461 44.6439 472.353 42.4091C471.245 40.1742 470.691 37.5227 470.691 34.4545C470.691 31.3864 471.245 28.7348 472.353 26.5C473.461 24.2652 474.981 22.5417 476.913 21.3295C478.844 20.1174 481.051 19.5114 483.532 19.5114C486.013 19.5114 488.219 20.1174 490.151 21.3295C492.083 22.5417 493.603 24.2652 494.711 26.5C495.819 28.7348 496.373 31.3864 496.373 34.4545ZM492.964 34.4545C492.964 31.9356 492.542 29.8097 491.7 28.0767C490.866 26.3438 489.735 25.0322 488.305 24.142C486.884 23.2519 485.293 22.8068 483.532 22.8068C481.771 22.8068 480.175 23.2519 478.745 24.142C477.325 25.0322 476.193 26.3438 475.35 28.0767C474.517 29.8097 474.1 31.9356 474.1 34.4545C474.1 36.9735 474.517 39.0994 475.35 40.8324C476.193 42.5653 477.325 43.8769 478.745 44.767C480.175 45.6572 481.771 46.1023 483.532 46.1023C485.293 46.1023 486.884 45.6572 488.305 44.767C489.735 43.8769 490.866 42.5653 491.7 40.8324C492.542 39.0994 492.964 36.9735 492.964 34.4545ZM521.387 19.9091H524.91V39.1705C524.91 41.1591 524.441 42.9347 523.504 44.4972C522.576 46.0502 521.264 47.2765 519.569 48.1761C517.874 49.0663 515.885 49.5114 513.603 49.5114C511.321 49.5114 509.332 49.0663 507.637 48.1761C505.942 47.2765 504.626 46.0502 503.688 44.4972C502.76 42.9347 502.296 41.1591 502.296 39.1705V19.9091H505.819V38.8864C505.819 40.3068 506.131 41.571 506.756 42.679C507.381 43.7775 508.272 44.6439 509.427 45.2784C510.592 45.9034 511.984 46.2159 513.603 46.2159C515.222 46.2159 516.614 45.9034 517.779 45.2784C518.944 44.6439 519.834 43.7775 520.45 42.679C521.075 41.571 521.387 40.3068 521.387 38.8864V19.9091ZM535.467 19.9091V49H531.945V19.9091H535.467ZM541.565 49V46.4432L557.246 23.0341H541.394V19.9091H561.451V22.4659L545.769 45.875H561.621V49H541.565Z" fill="black"/>
</svg>
