<svg width="64" height="64" viewBox="0 0 64 64" fill="none" xmlns="http://www.w3.org/2000/svg">
<path d="M57.4258 16.6159L41.3591 0.54925C41.0075 0.197625 40.5306 0 40.0334 0H12.9209C9.11852 0 6.02502 3.0935 6.02502 6.89587V57.1041C6.02502 60.9065 9.11852 64 12.9208 64H51.0791C54.8815 64 57.975 60.9065 57.975 57.1041V17.9416C57.975 17.4444 57.7774 16.9675 57.4258 16.6159ZM41.9084 6.40163L51.5734 16.0666H45.0541C43.3196 16.0666 41.9084 14.6554 41.9084 12.9209V6.40163ZM51.0791 60.25H12.9208C11.1863 60.25 9.77502 58.8388 9.77502 57.1041V6.89587C9.77502 5.16125 11.1863 3.75 12.9208 3.75H38.1583V12.9209C38.1583 16.7231 41.2518 19.8166 45.054 19.8166H54.225V57.1041C54.225 58.8388 52.8138 60.25 51.0791 60.25Z" fill="#9A87FC"/>
<path d="M48.0666 52.2166H15.9333C14.8978 52.2166 14.0583 53.0561 14.0583 54.0916C14.0583 55.1271 14.8978 55.9666 15.9333 55.9666H48.0666C49.1021 55.9666 49.9416 55.1271 49.9416 54.0916C49.9416 53.0561 49.1021 52.2166 48.0666 52.2166Z" fill="#9A87FC"/>
<path d="M48.0666 44.1833H15.9333C14.8978 44.1833 14.0583 45.0228 14.0583 46.0583C14.0583 47.0938 14.8978 47.9333 15.9333 47.9333H48.0666C49.1021 47.9333 49.9416 47.0938 49.9416 46.0583C49.9416 45.0228 49.1021 44.1833 48.0666 44.1833Z" fill="#9A87FC"/>
<path d="M48.0666 36.1499H15.9333C14.8978 36.1499 14.0583 36.9894 14.0583 38.0249C14.0583 39.0604 14.8978 39.8999 15.9333 39.8999H48.0666C49.1021 39.8999 49.9416 39.0604 49.9416 38.0249C49.9416 36.9894 49.1021 36.1499 48.0666 36.1499Z" fill="#9A87FC"/>
<path d="M15.9333 31.8667H40.0333C41.0688 31.8667 41.9083 31.0272 41.9083 29.9917C41.9083 28.9562 41.0688 28.1167 40.0333 28.1167H15.9333C14.8978 28.1167 14.0583 28.9562 14.0583 29.9917C14.0583 31.0272 14.8978 31.8667 15.9333 31.8667Z" fill="#9A87FC"/>
<path d="M15.9333 23.8332H27.9832C29.0187 23.8332 29.8582 22.9937 29.8582 21.9582V9.90833C29.8582 8.87283 29.0187 8.03333 27.9832 8.03333H15.9333C14.8978 8.03333 14.0583 8.87283 14.0583 9.90833V21.9582C14.0583 22.9937 14.8978 23.8332 15.9333 23.8332ZM17.8083 11.7833H26.1082V20.0832H17.8083V11.7833Z" fill="#9A87FC"/>
</svg>
