<svg width="80" height="80" viewBox="0 0 80 80" fill="none" xmlns="http://www.w3.org/2000/svg">
<g clip-path="url(#clip0_9_2730)">
<g clip-path="url(#clip1_9_2730)">
<g clip-path="url(#clip2_9_2730)">
<mask id="mask0_9_2730" style="mask-type:luminance" maskUnits="userSpaceOnUse" x="0" y="0" width="80" height="80">
<path d="M72 0H8C3.58172 0 0 3.58172 0 8V72C0 76.4183 3.58172 80 8 80H72C76.4183 80 80 76.4183 80 72V8C80 3.58172 76.4183 0 72 0Z" fill="white"/>
</mask>
<g mask="url(#mask0_9_2730)">
<path d="M80 0H0V80H80V0Z" fill="white"/>
<mask id="mask1_9_2730" style="mask-type:luminance" maskUnits="userSpaceOnUse" x="0" y="0" width="80" height="80">
<path d="M80 0H0V80H80V0Z" fill="white"/>
</mask>
<g mask="url(#mask1_9_2730)">
<path d="M36.6714 67.9641C31.4295 67.5863 26.2486 66.2668 23.0712 64.5004C21.2614 63.4944 19.8825 62.2579 19.3415 61.1559L19.0195 60.5002V39.9339V19.3675L19.2743 18.8503C20.4126 16.5391 24.0457 14.4555 29.1172 13.2054C30.8388 12.781 33.3241 12.3584 35.3516 12.1452C37.422 11.9276 42.9097 11.9607 44.9749 12.2036C50.4639 12.8485 55.1346 14.2922 58.013 16.2337C59.1231 16.9825 60.2621 18.1805 60.648 19.0051L60.9788 19.7121L60.9505 40.2163L60.9222 60.7205L60.6566 61.2601C60.5106 61.5568 60.0694 62.1406 59.6762 62.5573C57.2828 65.0945 52.1489 66.9714 45.4149 67.7711C44.0424 67.9341 38.0796 68.0656 36.6714 67.9641ZM46.3314 50.3415C46.3112 50.2889 45.5276 49.5908 44.59 48.7901C43.6524 47.9894 42.8449 47.2966 42.7955 47.2506C42.7462 47.2046 42.9194 47.0418 43.1805 46.8888C43.4416 46.7357 43.9418 46.3099 44.2921 45.9426C45.3164 44.8685 45.7998 43.5416 45.7998 41.8035C45.7998 40.0925 45.2785 38.712 44.2344 37.6581C43.1822 36.5959 41.974 36.1395 40.2145 36.1395C37.5025 36.1395 35.4196 37.722 34.7548 40.2876C34.5262 41.17 34.5274 42.9532 34.7572 43.7357C35.3568 45.7768 36.9896 47.2592 39.0217 47.6073C39.7094 47.7251 39.8025 47.7758 40.2714 48.2884C40.55 48.593 41.1218 49.2011 41.542 49.6396L42.306 50.437H44.337C45.4541 50.437 46.3515 50.394 46.3314 50.3415ZM39.3662 44.6547C38.8772 44.3998 38.6924 44.2019 38.4135 43.6351C38.1982 43.1973 38.1613 42.9483 38.1589 41.9135C38.1565 40.8621 38.19 40.6349 38.4148 40.1783C38.7827 39.4312 39.2897 39.0776 40.0739 39.0208C41.1655 38.9416 41.7957 39.4774 42.1259 40.7649C42.5308 42.3435 42.0855 44.0217 41.1141 44.5787C40.6044 44.8709 39.8442 44.904 39.3662 44.6547ZM30.3637 47.5848C32.4931 47.181 33.7019 45.9427 33.7019 44.1649C33.7019 42.5879 32.9215 41.6689 30.7646 40.706C29.5299 40.1548 29.0827 39.8089 29.0827 39.4046C29.0827 39.0696 29.5071 38.7024 30.0012 38.6102C30.4836 38.5201 31.7631 38.7423 32.5187 39.0475L33.152 39.3034V37.9015V36.4995L32.4646 36.347C32.0398 36.2528 31.1471 36.1962 30.1275 36.1991C28.6833 36.1991 28.4005 36.2343 27.857 36.4501C26.2695 37.0804 25.5161 38.154 25.5282 39.7689C25.5395 41.2808 26.337 42.2238 28.322 43.0722C29.4932 43.5728 29.9626 43.9539 29.9626 44.4043C29.9626 45.3615 28.3677 45.4794 26.6791 44.6469C26.2167 44.4189 25.8012 44.2138 25.7558 44.1911C25.7105 44.1683 25.6734 44.8232 25.6734 45.6464C25.6734 47.1363 25.6749 47.1435 25.9447 47.2462C26.9605 47.6324 29.2057 47.8045 30.3637 47.5848ZM54.7082 46.2027V44.938H52.7836H50.8589V40.5937V36.2495H49.1542H47.4495V41.8585V47.4675H51.0788H54.7082V46.2027ZM42.8303 24.0388C46.2179 23.8039 48.7571 23.3603 50.9917 22.6132C53.2178 21.8688 54.5328 20.9682 54.827 19.9865C54.9403 19.6081 54.9322 19.4646 54.7738 19.0498C54.0636 17.1903 50.0963 15.7615 44.0339 15.1822C41.4407 14.9344 36.7245 15.0147 34.252 15.3487C30.4792 15.8585 27.4173 16.8054 26.0559 17.8833C23.3019 20.0641 26.2143 22.4627 32.9871 23.5917C35.9237 24.0812 39.7284 24.254 42.8303 24.0388Z" fill="#00BCF2"/>
</g>
</g>
</g>
</g>
</g>
<defs>
<clipPath id="clip0_9_2730">
<rect width="80" height="80" rx="8" fill="white"/>
</clipPath>
<clipPath id="clip1_9_2730">
<rect width="80" height="80" fill="white"/>
</clipPath>
<clipPath id="clip2_9_2730">
<rect width="80" height="80" fill="white"/>
</clipPath>
</defs>
</svg>
