<svg width="83" height="80" viewBox="0 0 83 80" fill="none" xmlns="http://www.w3.org/2000/svg">
<rect width="82.0561" height="80" rx="8" fill="white"/>
<g clip-path="url(#clip0_9_2667)">
<path d="M73 40C73 44.5063 72.0688 48.7939 70.3877 52.6826C68.7671 56.436 66.4458 59.8164 63.5918 62.6626C62.7651 63.4868 61.8926 64.2666 60.98 64.9966C59.5181 66.167 57.9521 67.2104 56.2974 68.1128C55.4497 68.5767 54.5771 69.001 53.6851 69.3877C51.5327 70.3179 49.2588 71.019 46.8906 71.458C46.0312 71.6172 45.1602 71.7441 44.2783 71.834C43.1997 71.9438 42.1064 72 41 72C40.5298 72 40.061 71.9897 39.5957 71.9688C38.7158 71.9307 37.8442 71.8574 36.9839 71.7505C34.6289 71.4556 32.355 70.9043 30.188 70.127C29.2983 69.8081 28.4272 69.4507 27.5757 69.0562C26.0894 68.3691 24.6655 67.5708 23.314 66.6724C22.4102 66.0713 21.5376 65.4263 20.7017 64.7378C18.0449 62.5557 15.7461 59.9536 13.9058 57.0332C12.9263 55.479 12.0771 53.8369 11.373 52.1182C11.373 52.1167 11.373 52.1167 11.373 52.1167C9.84375 48.3789 9 44.2881 9 40C9 39.5923 9.00781 39.1865 9.02344 38.7827C9.04297 38.2354 9.07715 37.6909 9.12549 37.1514C9.15527 36.8115 9.19092 36.4722 9.23096 36.1353C9.29395 35.6143 9.36963 35.0967 9.45703 34.585C12.0288 19.4897 25.1724 8 41 8C48.7285 8 55.8169 10.7402 61.3467 15.3013C61.9487 15.7964 62.5327 16.3149 63.0957 16.853C66.2944 19.9067 68.8608 23.6172 70.5786 27.7695C72.1392 31.5376 73 35.6689 73 40Z" fill="#BFECF5"/>
<path d="M53.0596 26.6431C53.4565 27.3325 53.6851 28.1333 53.6851 28.9878C53.6851 31.5854 51.5796 33.6909 48.9819 33.6909C46.3838 33.6909 44.2769 31.5854 44.2769 28.9878C44.2769 28.8872 44.2822 28.7866 44.2886 28.6885L36.2524 26.0776C35.4175 27.3916 33.9507 28.2642 32.2803 28.2642C31.4717 28.2642 30.7105 28.0591 30.0454 27.6997L19.5259 39.0957C20.0039 39.8325 20.2822 40.71 20.2822 41.6528C20.2822 44.251 18.1768 46.3564 15.5791 46.3564C12.981 46.3564 10.8745 44.251 10.8745 41.6528C10.8745 41.1255 10.9619 40.6201 11.1226 40.147L9.02344 38.7822C9.04297 38.2349 9.07715 37.6904 9.12549 37.1509C9.15527 36.811 9.19092 36.4717 9.23096 36.1348L12.3945 38.1904C13.2329 37.4199 14.3501 36.9482 15.5791 36.9482C16.3872 36.9482 17.1475 37.1533 17.8125 37.5127L28.332 26.1167C27.855 25.3799 27.5757 24.5024 27.5757 23.5596C27.5757 20.9614 29.6826 18.856 32.2803 18.856C34.8784 18.856 36.9839 20.9614 36.9839 23.5596C36.9839 23.6602 36.98 23.7603 36.9731 23.8599L45.0098 26.4692C45.8442 25.1553 47.3101 24.2827 48.9819 24.2827C49.8789 24.2827 50.7178 24.5352 51.4307 24.9712L61.3467 15.3008C61.9487 15.7959 62.5327 16.3145 63.0957 16.8525L53.0596 26.6431Z" fill="#7AD8EB"/>
<path d="M20.7017 52.6665V64.7373C18.0449 62.5552 15.7461 59.9531 13.9058 57.0327C12.9263 55.4785 12.0771 53.8364 11.373 52.1177C11.373 52.1162 11.373 52.1162 11.373 52.1162C11.6099 51.3237 12.3452 50.7451 13.2148 50.7451H18.7803C19.8408 50.7451 20.7017 51.606 20.7017 52.6665Z" fill="#7AD8EB"/>
<path d="M36.9844 40.5474V71.7505C34.6294 71.4556 32.3555 70.9043 30.1885 70.127C29.2988 69.8081 28.4277 69.4507 27.5762 69.0562V40.5474C27.5762 39.4868 28.4355 38.626 29.4976 38.626H35.063C36.1235 38.626 36.9844 39.4868 36.9844 40.5474Z" fill="#7AD8EB"/>
<path d="M53.6841 45.9741V69.3877C51.5317 70.3179 49.2578 71.019 46.8896 71.458C46.0303 71.6172 45.1592 71.7441 44.2773 71.834V45.9741C44.2773 44.9136 45.1367 44.0527 46.1987 44.0527H51.7627C52.8232 44.0527 53.6841 44.9136 53.6841 45.9741Z" fill="#7AD8EB"/>
<path d="M70.3882 29.6909V52.6826C68.7676 56.436 66.4463 59.8164 63.5923 62.6626C62.7656 63.4868 61.8931 64.2666 60.9805 64.9966V29.6909C60.9805 28.6304 61.8398 27.7695 62.9014 27.7695H68.4668C69.5273 27.7695 70.3882 28.6304 70.3882 29.6909Z" fill="#7AD8EB"/>
<path d="M15.8633 38.7476L14.5908 40.7041L9.125 37.1514C9.20068 36.2852 9.31152 35.4287 9.45654 34.585L15.8633 38.7476Z" fill="#394852"/>
<path d="M38.6167 23.5449L48.5903 26.7837L47.8696 29.0029L37.8965 25.7637L38.6167 23.5449Z" fill="#394852"/>
<path d="M64.9478 14.3359L66.5767 16.0063L54.9414 27.354L53.3125 25.6841L64.9478 14.3359Z" fill="#394852"/>
<path d="M31.6348 25.3691L33.3491 26.9517L21.4468 39.8452L19.7324 38.2627L31.6348 25.3691Z" fill="#394852"/>
<path d="M23.3145 52.667V66.6729C19.5381 64.1636 16.3252 60.8735 13.9062 57.0337V52.667C13.9062 51.606 14.7666 50.7461 15.8276 50.7461H21.3931C22.4541 50.7461 23.3145 51.606 23.3145 52.667Z" fill="#F4DE6E"/>
<path d="M39.5952 40.5474V71.9688C36.3066 71.8276 33.146 71.189 30.1875 70.127V40.5474C30.1875 39.4858 31.0474 38.626 32.1084 38.626H37.6743C38.7354 38.626 39.5952 39.4858 39.5952 40.5474Z" fill="#FF806D"/>
<path d="M56.2974 45.9741V68.1128C53.4028 69.6919 50.2397 70.8364 46.8906 71.458V45.9741C46.8906 44.9131 47.7505 44.0527 48.812 44.0527H54.376C55.437 44.0527 56.2974 44.9131 56.2974 45.9741Z" fill="#F4DE6E"/>
<path d="M71.0786 27.7695C72.1401 27.7695 73 28.6294 73 29.6904V40C73 48.854 69.4043 56.8687 63.5918 62.6626V29.6904C63.5918 28.6294 64.4521 27.7695 65.5132 27.7695H71.0786Z" fill="#FF806D"/>
<path d="M72.9995 12.7036C72.9995 15.3018 70.8936 17.4077 68.2959 17.4077C65.6978 17.4077 63.5918 15.3018 63.5918 12.7036C63.5918 10.106 65.6978 8 68.2959 8C70.8936 8 72.9995 10.106 72.9995 12.7036Z" fill="#1E7FCA"/>
<path d="M56.2983 28.9878C56.2983 31.5859 54.1924 33.6919 51.5947 33.6919C48.9966 33.6919 46.8906 31.5859 46.8906 28.9878C46.8906 26.3901 48.9966 24.2842 51.5947 24.2842C54.1924 24.2842 56.2983 26.3901 56.2983 28.9878Z" fill="#1E7FCA"/>
<path d="M39.5952 23.5601C39.5952 26.1582 37.4893 28.2642 34.8916 28.2642C32.2935 28.2642 30.1875 26.1582 30.1875 23.5601C30.1875 20.9624 32.2935 18.8564 34.8916 18.8564C37.4893 18.8564 39.5952 20.9624 39.5952 23.5601Z" fill="#1E7FCA"/>
<path d="M22.894 41.6533C22.894 44.251 20.7881 46.3569 18.1904 46.3569C15.5923 46.3569 13.4863 44.251 13.4863 41.6533C13.4863 39.0552 15.5923 36.9492 18.1904 36.9492C20.7881 36.9492 22.894 39.0552 22.894 41.6533Z" fill="#1E7FCA"/>
</g>
<defs>
<clipPath id="clip0_9_2667">
<rect width="64" height="64" fill="white" transform="translate(9 8)"/>
</clipPath>
</defs>
</svg>
