<svg width="21" height="20" viewBox="0 0 21 20" fill="none" xmlns="http://www.w3.org/2000/svg">
<g clip-path="url(#clip0_1_609)">
<path d="M17.978 5.59783C17.591 6.1141 17.1232 6.56444 16.5926 6.93147C16.5926 7.06633 16.5926 7.20118 16.5926 7.34354C16.5969 9.79258 15.6186 12.1409 13.8772 13.8621C12.1357 15.5833 9.77671 16.5333 7.32909 16.4991C5.91404 16.5038 4.51711 16.1808 3.24773 15.5551C3.17928 15.5252 3.13514 15.4575 3.1354 15.3828V15.3003C3.1354 15.1928 3.22257 15.1056 3.33011 15.1056C4.72106 15.0597 6.0624 14.5774 7.16433 13.727C5.90532 13.7016 4.77254 12.9558 4.25121 11.8089C4.22489 11.7463 4.23308 11.6744 4.27286 11.6193C4.31262 11.5643 4.37821 11.5339 4.44592 11.5393C4.82856 11.5777 5.21503 11.5421 5.58421 11.4343C4.19437 11.1458 3.15006 9.992 3.0006 8.57975C2.99529 8.512 3.02565 8.44642 3.08071 8.40658C3.13577 8.36684 3.20758 8.35858 3.2702 8.385C3.64316 8.54958 4.04579 8.63625 4.45341 8.63967C3.23558 7.84038 2.70956 6.32004 3.17284 4.93852C3.22066 4.80428 3.33556 4.7051 3.4753 4.67745C3.61503 4.64979 3.75901 4.69774 3.85431 4.80366C5.49771 6.55271 7.75575 7.59497 10.1523 7.71066C10.091 7.46571 10.0608 7.21397 10.0625 6.96143C10.0849 5.63727 10.9042 4.45768 12.1369 3.97489C13.3695 3.49212 14.7715 3.80169 15.6865 4.7587C16.3102 4.63988 16.9132 4.43038 17.4763 4.13684C17.5175 4.11109 17.5699 4.11109 17.6111 4.13684C17.6369 4.17811 17.6369 4.23043 17.6111 4.2717C17.3384 4.89627 16.8776 5.4201 16.2931 5.77016C16.805 5.7108 17.3078 5.59006 17.7909 5.41053C17.8315 5.38285 17.885 5.38285 17.9256 5.41053C17.9597 5.42612 17.9852 5.45593 17.9953 5.49202C18.0054 5.52811 17.999 5.56682 17.978 5.59783Z" fill="white" fill-opacity="0.65"/>
</g>
<defs>
<clipPath id="clip0_1_609">
<rect width="20" height="20" fill="white" transform="translate(0.5)"/>
</clipPath>
</defs>
</svg>
