<svg width="26" height="27" viewBox="0 0 26 27" fill="none" xmlns="http://www.w3.org/2000/svg">
<g clip-path="url(#clip0_9_1810)">
<path d="M0.532732 13.8348V13.834C0.532732 6.95857 6.12322 1.3667 12.9968 1.3667H13.0033C19.8769 1.3667 25.4674 6.96015 25.4674 13.834C25.4674 20.7079 19.8769 26.3014 13.0033 26.3014L13.0022 26.3014C10.5637 26.3066 8.1781 25.59 6.14607 24.2419L5.94605 24.1092L5.71741 24.1823L1.67332 25.475L2.97543 21.5935L3.05755 21.3487L2.90548 21.14C1.35945 19.0184 0.528464 16.46 0.532732 13.8348ZM12.9968 0.866699C5.84696 0.866699 0.0327319 6.68255 0.0327319 13.834L13.0033 26.8014C20.1532 26.8014 25.9674 20.9839 25.9674 13.834C25.9674 6.68417 20.1532 0.866699 13.0033 0.866699H12.9968Z" fill="#4CAF50" stroke="white"/>
<path d="M20.5486 19.1782C20.2358 20.0616 18.9942 20.7943 18.0038 21.0082C17.3263 21.1525 16.4412 21.2676 13.462 20.0324C9.65121 18.4537 7.19714 14.5813 7.00587 14.33C6.82271 14.0788 5.466 12.2796 5.466 10.4188C5.466 8.55795 6.411 7.65186 6.79191 7.26284C7.10475 6.94352 7.62182 6.79764 8.11782 6.79764C8.27829 6.79764 8.42256 6.80574 8.55223 6.81223C8.93314 6.82844 9.12441 6.85113 9.37565 7.45249C9.68849 8.20621 10.4503 10.067 10.5411 10.2583C10.6335 10.4496 10.7259 10.7089 10.5962 10.9602C10.4746 11.2195 10.3677 11.3346 10.1764 11.555C9.98512 11.7755 9.80358 11.944 9.61231 12.1807C9.43725 12.3866 9.2395 12.607 9.45994 12.9879C9.68039 13.3607 10.4422 14.604 11.5639 15.6025C13.0114 16.8911 14.1849 17.3028 14.6047 17.4779C14.9176 17.6075 15.2904 17.5767 15.5189 17.3336C15.8091 17.0208 16.1673 16.5021 16.532 15.9915C16.7913 15.6252 17.1188 15.5798 17.4624 15.7094C17.8125 15.831 19.6652 16.7468 20.0461 16.9365C20.4271 17.1277 20.6783 17.2185 20.7707 17.379C20.8615 17.5395 20.8615 18.2932 20.5486 19.1782Z" fill="#FAFAFA"/>
</g>
<defs>
<clipPath id="clip0_9_1810">
<rect width="25.9347" height="25.9347" fill="white" transform="translate(0.0327148 0.866699)"/>
</clipPath>
</defs>
</svg>
