<svg width="578" height="168" viewBox="0 0 578 168" fill="none" xmlns="http://www.w3.org/2000/svg">
<rect width="64" height="64" rx="8" fill="#DBE5FF"/>
<path fill-rule="evenodd" clip-rule="evenodd" d="M20 12.821H44C47.3138 12.821 50 15.3871 50 18.5524V30.0151C50 33.1805 47.3138 35.7464 44 35.7464H20C16.6863 35.7464 14 33.1805 14 30.0151V18.5524C14 15.3871 16.6863 12.821 20 12.821ZM20 14.7315C17.7909 14.7315 16 16.4422 16 18.5524V30.0151C16 32.1254 17.7909 33.836 20 33.836H44C46.2092 33.836 48 32.1254 48 30.0151V18.5524C48 16.4422 46.2092 14.7315 44 14.7315H20Z" fill="#2154DA"/>
<path fill-rule="evenodd" clip-rule="evenodd" d="M37.3067 22.6942L31.1094 18.7477C29.7802 17.9012 28 18.8114 28 20.3372V28.2301C28 29.756 29.7802 30.6661 31.1094 29.8197L37.3067 25.8733C38.494 25.1172 38.494 23.4503 37.3067 22.6942ZM30.0001 28.2302V20.3373L36.1972 24.2838L30.0001 28.2302Z" fill="#2154DA"/>
<path fill-rule="evenodd" clip-rule="evenodd" d="M32 43.3881C33.1046 43.3881 34 42.5328 34 41.4777C34 40.4226 33.1046 39.5672 32 39.5672C30.8955 39.5672 30.0001 40.4226 30.0001 41.4777C30.0001 42.5328 30.8955 43.3881 32 43.3881ZM32 45.2985C34.2093 45.2985 36.0001 43.5879 36.0001 41.4776C36.0001 39.3673 34.2093 37.6567 32 37.6567C29.7908 37.6567 28 39.3674 28 41.4777C28 43.588 29.7908 45.2985 32 45.2985Z" fill="#2154DA"/>
<path fill-rule="evenodd" clip-rule="evenodd" d="M46 43.3881C47.1045 43.3881 47.9999 42.5328 47.9999 41.4777C47.9999 40.4226 47.1045 39.5672 46 39.5672C44.8954 39.5672 44 40.4225 44 41.4777C44 42.5328 44.8954 43.3881 46 43.3881ZM46 45.2985C48.2092 45.2985 50 43.5879 50 41.4776C50 39.3673 48.2092 37.6567 46 37.6567C43.7908 37.6567 41.9999 39.3674 41.9999 41.4777C41.9999 43.588 43.7908 45.2985 46 45.2985Z" fill="#2154DA"/>
<path fill-rule="evenodd" clip-rule="evenodd" d="M18 43.3881C19.1046 43.3881 20 42.5328 20 41.4777C20 40.4226 19.1046 39.5672 18 39.5672C16.8955 39.5672 16.0001 40.4226 16.0001 41.4777C16 42.5328 16.8955 43.3881 18 43.3881ZM18 45.2985C20.2092 45.2985 22.0001 43.5879 22.0001 41.4776C22.0001 39.3673 20.2092 37.6567 18 37.6567C15.7909 37.6567 14 39.3674 14 41.4777C14 43.588 15.7909 45.2985 18 45.2985Z" fill="#2154DA"/>
<path fill-rule="evenodd" clip-rule="evenodd" d="M21.8766 50.0844C22.0128 50.5957 22.4477 51.0299 23 51.0299C23.5523 51.0299 24.0088 50.5991 23.9177 50.0787C23.4434 47.3661 20.9745 45.2986 18 45.2986C15.0255 45.2986 12.5566 47.3661 12.0822 50.0787C11.9912 50.5991 12.4476 51.0299 12.9999 51.0299C13.5522 51.0299 13.9871 50.5957 14.1233 50.0844C14.5638 48.4315 16.1324 47.209 17.9999 47.209C19.8674 47.209 21.4361 48.4316 21.8766 50.0844Z" fill="#2154DA"/>
<path fill-rule="evenodd" clip-rule="evenodd" d="M35.8766 50.0844C36.0128 50.5957 36.4478 51.0299 37 51.0299C37.5522 51.0299 38.0088 50.5991 37.9178 50.0787C37.4434 47.3661 34.9744 45.2986 32 45.2986C29.0256 45.2986 26.5566 47.3661 26.0822 50.0787C25.9912 50.5991 26.4477 51.0299 27 51.0299C27.5522 51.0299 27.9871 50.5957 28.1234 50.0844C28.564 48.4315 30.1325 47.209 31.9999 47.209C33.8674 47.2091 35.4361 48.4316 35.8766 50.0844Z" fill="#2154DA"/>
<path fill-rule="evenodd" clip-rule="evenodd" d="M49.8766 50.0844C50.0129 50.5957 50.4479 51.0299 51 51.0299C51.5522 51.0299 52.0089 50.5991 51.9179 50.0787C51.4435 47.3661 48.9745 45.2986 46.0001 45.2986C43.0257 45.2986 40.5567 47.3661 40.0823 50.0787C39.9913 50.5991 40.4479 51.0299 41.0001 51.0299C41.5523 51.0299 41.9873 50.5957 42.1235 50.0844C42.5641 48.4315 44.1327 47.209 46.0001 47.209C47.8675 47.209 49.436 48.4316 49.8766 50.0844Z" fill="#2154DA"/>
<path d="M85.44 21V6.1H88.16V18.6H94.54V21H85.44ZM96.0794 21V10.12H98.6994V21H96.0794ZM96.0794 8.9V6.1H98.6994V8.9H96.0794ZM104.398 21L100.118 10.12H102.978L106.078 18.68H105.018L108.138 10.12H110.998L106.718 21H104.398ZM117.411 21.24C116.291 21.24 115.311 20.9867 114.471 20.48C113.631 19.9733 112.978 19.2867 112.511 18.42C112.045 17.5533 111.811 16.5933 111.811 15.54C111.811 14.4467 112.045 13.48 112.511 12.64C112.991 11.7867 113.638 11.1133 114.451 10.62C115.278 10.1267 116.198 9.88 117.211 9.88C118.065 9.88 118.811 10.02 119.451 10.3C120.105 10.58 120.658 10.9667 121.111 11.46C121.565 11.9533 121.911 12.52 122.151 13.16C122.391 13.7867 122.511 14.4667 122.511 15.2C122.511 15.3867 122.498 15.58 122.471 15.78C122.458 15.98 122.425 16.1533 122.371 16.3H113.971V14.3H120.891L119.651 15.24C119.771 14.6267 119.738 14.08 119.551 13.6C119.378 13.12 119.085 12.74 118.671 12.46C118.271 12.18 117.785 12.04 117.211 12.04C116.665 12.04 116.178 12.18 115.751 12.46C115.325 12.7267 114.998 13.1267 114.771 13.66C114.558 14.18 114.478 14.8133 114.531 15.56C114.478 16.2267 114.565 16.82 114.791 17.34C115.031 17.8467 115.378 18.24 115.831 18.52C116.298 18.8 116.831 18.94 117.431 18.94C118.031 18.94 118.538 18.8133 118.951 18.56C119.378 18.3067 119.711 17.9667 119.951 17.54L122.071 18.58C121.858 19.1 121.525 19.56 121.071 19.96C120.618 20.36 120.078 20.6733 119.451 20.9C118.838 21.1267 118.158 21.24 117.411 21.24Z" fill="white"/>
<path opacity="0.8" d="M89.424 53.192C88.6667 53.192 87.9787 53.048 87.36 52.76C86.7413 52.472 86.2187 52.088 85.792 51.608C85.3653 51.1173 85.0613 50.5787 84.88 49.992L86.032 49.56C86.3093 50.3707 86.7413 50.9893 87.328 51.416C87.9147 51.832 88.6133 52.04 89.424 52.04C89.936 52.04 90.384 51.96 90.768 51.8C91.1627 51.6293 91.4667 51.3947 91.68 51.096C91.8933 50.7973 92 50.4507 92 50.056C92 49.4693 91.84 49.016 91.52 48.696C91.2 48.376 90.7413 48.1307 90.144 47.96L88 47.32C87.1573 47.0747 86.5067 46.664 86.048 46.088C85.6 45.512 85.376 44.856 85.376 44.12C85.376 43.4907 85.5307 42.936 85.84 42.456C86.1493 41.9653 86.5707 41.5813 87.104 41.304C87.648 41.0267 88.2613 40.888 88.944 40.888C89.6587 40.888 90.2987 41.0213 90.864 41.288C91.44 41.544 91.9253 41.8853 92.32 42.312C92.7147 42.7387 92.9973 43.2133 93.168 43.736L92.048 44.184C91.792 43.48 91.392 42.9467 90.848 42.584C90.3147 42.2213 89.6853 42.04 88.96 42.04C88.5013 42.04 88.096 42.12 87.744 42.28C87.4027 42.44 87.136 42.6693 86.944 42.968C86.752 43.2667 86.656 43.6187 86.656 44.024C86.656 44.5147 86.8107 44.9573 87.12 45.352C87.4293 45.736 87.904 46.024 88.544 46.216L90.432 46.776C91.3707 47.0533 92.08 47.4533 92.56 47.976C93.04 48.4987 93.28 49.1547 93.28 49.944C93.28 50.584 93.1147 51.1493 92.784 51.64C92.464 52.12 92.0107 52.4987 91.424 52.776C90.848 53.0533 90.1813 53.192 89.424 53.192ZM99.4798 53.192C98.6798 53.192 97.9544 53 97.3038 52.616C96.6638 52.2213 96.1571 51.6827 95.7838 51C95.4104 50.3173 95.2238 49.544 95.2238 48.68C95.2238 47.816 95.4051 47.0533 95.7678 46.392C96.1304 45.72 96.6211 45.192 97.2398 44.808C97.8691 44.424 98.5731 44.232 99.3518 44.232C99.9704 44.232 100.52 44.3493 101 44.584C101.49 44.808 101.906 45.1173 102.248 45.512C102.589 45.896 102.85 46.3333 103.032 46.824C103.213 47.304 103.304 47.8 103.304 48.312C103.304 48.4187 103.298 48.5413 103.288 48.68C103.277 48.808 103.261 48.9413 103.24 49.08H95.9918V47.96H102.552L101.976 48.44C102.072 47.8533 102.002 47.3307 101.768 46.872C101.544 46.4027 101.218 46.0347 100.792 45.768C100.365 45.4907 99.8851 45.352 99.3518 45.352C98.8184 45.352 98.3224 45.4907 97.8638 45.768C97.4158 46.0453 97.0638 46.4347 96.8078 46.936C96.5518 47.4267 96.4504 48.0133 96.5038 48.696C96.4504 49.3787 96.5571 49.976 96.8238 50.488C97.1011 50.9893 97.4744 51.3787 97.9438 51.656C98.4238 51.9333 98.9358 52.072 99.4798 52.072C100.109 52.072 100.637 51.9227 101.064 51.624C101.49 51.3253 101.837 50.952 102.104 50.504L103.128 51.048C102.957 51.432 102.696 51.7893 102.344 52.12C101.992 52.44 101.57 52.7013 101.08 52.904C100.6 53.096 100.066 53.192 99.4798 53.192ZM108.396 53.192C107.574 53.192 106.854 52.984 106.236 52.568C105.617 52.152 105.169 51.5867 104.892 50.872L105.9 50.392C106.145 50.9147 106.486 51.3307 106.924 51.64C107.372 51.9493 107.862 52.104 108.396 52.104C108.908 52.104 109.34 51.9813 109.692 51.736C110.044 51.48 110.22 51.1493 110.22 50.744C110.22 50.4453 110.134 50.2107 109.964 50.04C109.793 49.8587 109.596 49.72 109.372 49.624C109.148 49.528 108.95 49.4587 108.78 49.416L107.548 49.064C106.758 48.84 106.188 48.5253 105.836 48.12C105.484 47.7147 105.308 47.2453 105.308 46.712C105.308 46.2107 105.436 45.7733 105.692 45.4C105.948 45.0267 106.294 44.7387 106.732 44.536C107.169 44.3333 107.654 44.232 108.188 44.232C108.913 44.232 109.569 44.424 110.156 44.808C110.753 45.1813 111.174 45.704 111.42 46.376L110.396 46.856C110.182 46.376 109.873 46.0027 109.468 45.736C109.073 45.4587 108.63 45.32 108.14 45.32C107.66 45.32 107.276 45.4427 106.988 45.688C106.7 45.9333 106.556 46.2427 106.556 46.616C106.556 46.904 106.63 47.1333 106.78 47.304C106.929 47.4747 107.1 47.6027 107.292 47.688C107.494 47.7733 107.67 47.8373 107.82 47.88L109.244 48.296C109.937 48.4987 110.476 48.8133 110.86 49.24C111.254 49.6667 111.452 50.168 111.452 50.744C111.452 51.2133 111.318 51.6347 111.052 52.008C110.796 52.3813 110.438 52.6747 109.98 52.888C109.521 53.0907 108.993 53.192 108.396 53.192ZM116.536 53.192C115.715 53.192 114.995 52.984 114.376 52.568C113.757 52.152 113.309 51.5867 113.032 50.872L114.04 50.392C114.285 50.9147 114.627 51.3307 115.064 51.64C115.512 51.9493 116.003 52.104 116.536 52.104C117.048 52.104 117.48 51.9813 117.832 51.736C118.184 51.48 118.36 51.1493 118.36 50.744C118.36 50.4453 118.275 50.2107 118.104 50.04C117.933 49.8587 117.736 49.72 117.512 49.624C117.288 49.528 117.091 49.4587 116.92 49.416L115.688 49.064C114.899 48.84 114.328 48.5253 113.976 48.12C113.624 47.7147 113.448 47.2453 113.448 46.712C113.448 46.2107 113.576 45.7733 113.832 45.4C114.088 45.0267 114.435 44.7387 114.872 44.536C115.309 44.3333 115.795 44.232 116.328 44.232C117.053 44.232 117.709 44.424 118.296 44.808C118.893 45.1813 119.315 45.704 119.56 46.376L118.536 46.856C118.323 46.376 118.013 46.0027 117.608 45.736C117.213 45.4587 116.771 45.32 116.28 45.32C115.8 45.32 115.416 45.4427 115.128 45.688C114.84 45.9333 114.696 46.2427 114.696 46.616C114.696 46.904 114.771 47.1333 114.92 47.304C115.069 47.4747 115.24 47.6027 115.432 47.688C115.635 47.7733 115.811 47.8373 115.96 47.88L117.384 48.296C118.077 48.4987 118.616 48.8133 119 49.24C119.395 49.6667 119.592 50.168 119.592 50.744C119.592 51.2133 119.459 51.6347 119.192 52.008C118.936 52.3813 118.579 52.6747 118.12 52.888C117.661 53.0907 117.133 53.192 116.536 53.192ZM121.701 53V44.424H122.901V53H121.701ZM121.701 42.84V41.08H122.901V42.84H121.701ZM129.373 53.192C128.562 53.192 127.826 53 127.165 52.616C126.504 52.2213 125.976 51.688 125.581 51.016C125.197 50.3333 125.005 49.56 125.005 48.696C125.005 47.8427 125.197 47.08 125.581 46.408C125.965 45.736 126.482 45.208 127.133 44.824C127.794 44.4293 128.541 44.232 129.373 44.232C130.205 44.232 130.946 44.424 131.597 44.808C132.258 45.192 132.776 45.72 133.149 46.392C133.533 47.064 133.725 47.832 133.725 48.696C133.725 49.5707 133.528 50.3493 133.133 51.032C132.738 51.704 132.21 52.232 131.549 52.616C130.898 53 130.173 53.192 129.373 53.192ZM129.373 51.992C129.949 51.992 130.466 51.848 130.925 51.56C131.394 51.272 131.762 50.8773 132.029 50.376C132.306 49.8747 132.445 49.3147 132.445 48.696C132.445 48.0773 132.306 47.5227 132.029 47.032C131.762 46.5413 131.394 46.152 130.925 45.864C130.466 45.576 129.949 45.432 129.373 45.432C128.797 45.432 128.274 45.576 127.805 45.864C127.346 46.152 126.978 46.5413 126.701 47.032C126.424 47.5227 126.285 48.0773 126.285 48.696C126.285 49.3147 126.424 49.8747 126.701 50.376C126.978 50.8773 127.346 51.272 127.805 51.56C128.274 51.848 128.797 51.992 129.373 51.992ZM135.841 53V44.424H137.041V46.088L136.769 46.024C136.983 45.4693 137.329 45.032 137.809 44.712C138.3 44.392 138.865 44.232 139.505 44.232C140.113 44.232 140.657 44.3707 141.137 44.648C141.628 44.9253 142.012 45.3093 142.289 45.8C142.577 46.28 142.721 46.824 142.721 47.432V53H141.521V47.896C141.521 47.3733 141.425 46.9307 141.233 46.568C141.052 46.2053 140.791 45.928 140.449 45.736C140.119 45.5333 139.735 45.432 139.297 45.432C138.86 45.432 138.471 45.5333 138.129 45.736C137.788 45.928 137.521 46.2107 137.329 46.584C137.137 46.9467 137.041 47.384 137.041 47.896V53H135.841ZM147.989 53.192C147.168 53.192 146.448 52.984 145.829 52.568C145.211 52.152 144.763 51.5867 144.485 50.872L145.493 50.392C145.739 50.9147 146.08 51.3307 146.517 51.64C146.965 51.9493 147.456 52.104 147.989 52.104C148.501 52.104 148.933 51.9813 149.285 51.736C149.637 51.48 149.813 51.1493 149.813 50.744C149.813 50.4453 149.728 50.2107 149.557 50.04C149.387 49.8587 149.189 49.72 148.965 49.624C148.741 49.528 148.544 49.4587 148.373 49.416L147.141 49.064C146.352 48.84 145.781 48.5253 145.429 48.12C145.077 47.7147 144.901 47.2453 144.901 46.712C144.901 46.2107 145.029 45.7733 145.285 45.4C145.541 45.0267 145.888 44.7387 146.325 44.536C146.763 44.3333 147.248 44.232 147.781 44.232C148.507 44.232 149.163 44.424 149.749 44.808C150.347 45.1813 150.768 45.704 151.013 46.376L149.989 46.856C149.776 46.376 149.467 46.0027 149.061 45.736C148.667 45.4587 148.224 45.32 147.733 45.32C147.253 45.32 146.869 45.4427 146.581 45.688C146.293 45.9333 146.149 46.2427 146.149 46.616C146.149 46.904 146.224 47.1333 146.373 47.304C146.523 47.4747 146.693 47.6027 146.885 47.688C147.088 47.7733 147.264 47.8373 147.413 47.88L148.837 48.296C149.531 48.4987 150.069 48.8133 150.453 49.24C150.848 49.6667 151.045 50.168 151.045 50.744C151.045 51.2133 150.912 51.6347 150.645 52.008C150.389 52.3813 150.032 52.6747 149.573 52.888C149.115 53.0907 148.587 53.192 147.989 53.192ZM159.889 53.192C159.078 53.192 158.342 53 157.681 52.616C157.019 52.2213 156.491 51.688 156.097 51.016C155.713 50.3333 155.521 49.56 155.521 48.696C155.521 47.8427 155.713 47.08 156.097 46.408C156.481 45.736 156.998 45.208 157.649 44.824C158.31 44.4293 159.057 44.232 159.889 44.232C160.721 44.232 161.462 44.424 162.113 44.808C162.774 45.192 163.291 45.72 163.665 46.392C164.049 47.064 164.241 47.832 164.241 48.696C164.241 49.5707 164.043 50.3493 163.649 51.032C163.254 51.704 162.726 52.232 162.065 52.616C161.414 53 160.689 53.192 159.889 53.192ZM159.889 51.992C160.465 51.992 160.982 51.848 161.441 51.56C161.91 51.272 162.278 50.8773 162.545 50.376C162.822 49.8747 162.961 49.3147 162.961 48.696C162.961 48.0773 162.822 47.5227 162.545 47.032C162.278 46.5413 161.91 46.152 161.441 45.864C160.982 45.576 160.465 45.432 159.889 45.432C159.313 45.432 158.79 45.576 158.321 45.864C157.862 46.152 157.494 46.5413 157.217 47.032C156.939 47.5227 156.801 48.0773 156.801 48.696C156.801 49.3147 156.939 49.8747 157.217 50.376C157.494 50.8773 157.862 51.272 158.321 51.56C158.79 51.848 159.313 51.992 159.889 51.992ZM166.357 53V44.424H167.557V46.088L167.285 46.024C167.498 45.4693 167.845 45.032 168.325 44.712C168.816 44.392 169.381 44.232 170.021 44.232C170.629 44.232 171.173 44.3707 171.653 44.648C172.144 44.9253 172.528 45.3093 172.805 45.8C173.093 46.28 173.237 46.824 173.237 47.432V53H172.037V47.896C172.037 47.3733 171.941 46.9307 171.749 46.568C171.568 46.2053 171.306 45.928 170.965 45.736C170.634 45.5333 170.25 45.432 169.813 45.432C169.376 45.432 168.986 45.5333 168.645 45.736C168.304 45.928 168.037 46.2107 167.845 46.584C167.653 46.9467 167.557 47.384 167.557 47.896V53H166.357ZM177.368 53V52.136L184.184 42.28H177.768V41.08H185.864V41.944L179.064 51.8H186.008V53H177.368ZM191.607 53.192C190.797 53.192 190.061 53 189.399 52.616C188.738 52.2213 188.21 51.688 187.815 51.016C187.431 50.3333 187.239 49.56 187.239 48.696C187.239 47.8427 187.431 47.08 187.815 46.408C188.199 45.736 188.717 45.208 189.367 44.824C190.029 44.4293 190.775 44.232 191.607 44.232C192.439 44.232 193.181 44.424 193.831 44.808C194.493 45.192 195.01 45.72 195.383 46.392C195.767 47.064 195.959 47.832 195.959 48.696C195.959 49.5707 195.762 50.3493 195.367 51.032C194.973 51.704 194.445 52.232 193.783 52.616C193.133 53 192.407 53.192 191.607 53.192ZM191.607 51.992C192.183 51.992 192.701 51.848 193.159 51.56C193.629 51.272 193.997 50.8773 194.263 50.376C194.541 49.8747 194.679 49.3147 194.679 48.696C194.679 48.0773 194.541 47.5227 194.263 47.032C193.997 46.5413 193.629 46.152 193.159 45.864C192.701 45.576 192.183 45.432 191.607 45.432C191.031 45.432 190.509 45.576 190.039 45.864C189.581 46.152 189.213 46.5413 188.935 47.032C188.658 47.5227 188.519 48.0773 188.519 48.696C188.519 49.3147 188.658 49.8747 188.935 50.376C189.213 50.8773 189.581 51.272 190.039 51.56C190.509 51.848 191.031 51.992 191.607 51.992ZM202.092 53.192C201.281 53.192 200.545 53 199.884 52.616C199.222 52.2213 198.694 51.688 198.3 51.016C197.916 50.3333 197.724 49.56 197.724 48.696C197.724 47.8427 197.916 47.08 198.3 46.408C198.684 45.736 199.201 45.208 199.852 44.824C200.513 44.4293 201.26 44.232 202.092 44.232C202.924 44.232 203.665 44.424 204.316 44.808C204.977 45.192 205.494 45.72 205.868 46.392C206.252 47.064 206.444 47.832 206.444 48.696C206.444 49.5707 206.246 50.3493 205.852 51.032C205.457 51.704 204.929 52.232 204.268 52.616C203.617 53 202.892 53.192 202.092 53.192ZM202.092 51.992C202.668 51.992 203.185 51.848 203.644 51.56C204.113 51.272 204.481 50.8773 204.748 50.376C205.025 49.8747 205.164 49.3147 205.164 48.696C205.164 48.0773 205.025 47.5227 204.748 47.032C204.481 46.5413 204.113 46.152 203.644 45.864C203.185 45.576 202.668 45.432 202.092 45.432C201.516 45.432 200.993 45.576 200.524 45.864C200.065 46.152 199.697 46.5413 199.42 47.032C199.142 47.5227 199.004 48.0773 199.004 48.696C199.004 49.3147 199.142 49.8747 199.42 50.376C199.697 50.8773 200.065 51.272 200.524 51.56C200.993 51.848 201.516 51.992 202.092 51.992ZM208.56 53V44.424H209.76V46.056L209.568 45.816C209.803 45.3147 210.149 44.9253 210.608 44.648C211.077 44.3707 211.589 44.232 212.144 44.232C212.805 44.232 213.403 44.4187 213.936 44.792C214.469 45.1653 214.848 45.6507 215.072 46.248L214.736 46.264C214.949 45.6027 215.317 45.1013 215.84 44.76C216.373 44.408 216.96 44.232 217.6 44.232C218.176 44.232 218.704 44.3707 219.184 44.648C219.675 44.9253 220.064 45.3093 220.352 45.8C220.651 46.28 220.8 46.824 220.8 47.432V53H219.6V47.896C219.6 47.3733 219.504 46.9307 219.312 46.568C219.131 46.2053 218.88 45.928 218.56 45.736C218.24 45.5333 217.872 45.432 217.456 45.432C217.051 45.432 216.683 45.5333 216.352 45.736C216.021 45.928 215.76 46.2107 215.568 46.584C215.376 46.9467 215.28 47.384 215.28 47.896V53H214.08V47.896C214.08 47.3733 213.984 46.9307 213.792 46.568C213.611 46.2053 213.36 45.928 213.04 45.736C212.72 45.5333 212.352 45.432 211.936 45.432C211.52 45.432 211.147 45.5333 210.816 45.736C210.496 45.928 210.24 46.2107 210.048 46.584C209.856 46.9467 209.76 47.384 209.76 47.896V53H208.56Z" fill="white"/>
<rect x="349" width="64" height="64" rx="8" fill="#FFF0ED"/>
<path d="M394.5 42.6716C393.636 42.6714 392.798 42.9566 392.128 43.4788C391.458 44.001 390.998 44.7282 390.825 45.5373H384.675C384.503 44.7275 384.043 43.9995 383.373 43.4766C382.703 42.9537 381.865 42.668 381 42.668C380.135 42.668 379.297 42.9537 378.627 43.4766C377.957 43.9995 377.497 44.7275 377.325 45.5373H371.175C371.003 44.7275 370.543 43.9995 369.873 43.4766C369.203 42.9537 368.365 42.668 367.5 42.668C366.635 42.668 365.797 42.9537 365.127 43.4766C364.457 43.9995 363.997 44.7275 363.825 45.5373H361.5C361.301 45.5373 361.11 45.6128 360.97 45.7471C360.829 45.8815 360.75 46.0637 360.75 46.2537C360.75 46.4437 360.829 46.6259 360.97 46.7603C361.11 46.8946 361.301 46.9701 361.5 46.9701H363.825C363.997 47.7799 364.457 48.5079 365.127 49.0308C365.797 49.5537 366.635 49.8394 367.5 49.8394C368.365 49.8394 369.203 49.5537 369.873 49.0308C370.543 48.5079 371.003 47.7799 371.175 46.9701H377.325C377.497 47.7799 377.957 48.5079 378.627 49.0308C379.297 49.5537 380.135 49.8394 381 49.8394C381.865 49.8394 382.703 49.5537 383.373 49.0308C384.043 48.5079 384.503 47.7799 384.675 46.9701H390.825C390.967 47.6342 391.303 48.2462 391.795 48.735C392.286 49.2238 392.913 49.5694 393.602 49.7316C394.29 49.8939 395.013 49.8661 395.686 49.6516C396.359 49.437 396.955 49.0444 397.404 48.5195C397.853 47.9946 398.136 47.3588 398.222 46.686C398.307 46.0132 398.191 45.331 397.887 44.7186C397.583 44.1062 397.104 43.5888 396.504 43.2265C395.904 42.8642 395.21 42.6718 394.5 42.6716ZM367.5 48.403C367.055 48.403 366.62 48.2769 366.25 48.0407C365.88 47.8046 365.592 47.4689 365.421 47.0762C365.251 46.6835 365.206 46.2513 365.293 45.8344C365.38 45.4175 365.594 45.0345 365.909 44.734C366.224 44.4334 366.625 44.2287 367.061 44.1457C367.498 44.0628 367.95 44.1054 368.361 44.2681C368.772 44.4307 369.124 44.7062 369.371 45.0596C369.618 45.4131 369.75 45.8286 369.75 46.2537C369.75 46.8237 369.513 47.3704 369.091 47.7735C368.669 48.1765 368.097 48.403 367.5 48.403ZM381 48.403C380.555 48.403 380.12 48.2769 379.75 48.0407C379.38 47.8046 379.092 47.4689 378.921 47.0762C378.751 46.6835 378.706 46.2513 378.793 45.8344C378.88 45.4175 379.094 45.0345 379.409 44.734C379.724 44.4334 380.125 44.2287 380.561 44.1457C380.998 44.0628 381.45 44.1054 381.861 44.2681C382.272 44.4307 382.624 44.7062 382.871 45.0596C383.118 45.4131 383.25 45.8286 383.25 46.2537C383.25 46.8237 383.013 47.3704 382.591 47.7735C382.169 48.1765 381.597 48.403 381 48.403ZM394.5 48.403C394.055 48.403 393.62 48.2769 393.25 48.0407C392.88 47.8046 392.592 47.4689 392.421 47.0762C392.251 46.6835 392.206 46.2513 392.293 45.8344C392.38 45.4175 392.594 45.0345 392.909 44.734C393.224 44.4334 393.625 44.2287 394.061 44.1457C394.498 44.0628 394.95 44.1054 395.361 44.2681C395.772 44.4307 396.124 44.7062 396.371 45.0596C396.618 45.4131 396.75 45.8286 396.75 46.2537C396.75 46.8237 396.513 47.3704 396.091 47.7735C395.669 48.1765 395.097 48.403 394.5 48.403ZM401.25 46.2537C401.25 46.4437 401.171 46.6259 401.03 46.7603C400.89 46.8946 400.699 46.9701 400.5 46.9701H399C398.801 46.9701 398.61 46.8946 398.47 46.7603C398.329 46.6259 398.25 46.4437 398.25 46.2537C398.25 46.0637 398.329 45.8815 398.47 45.7471C398.61 45.6128 398.801 45.5373 399 45.5373H400.5C400.699 45.5373 400.89 45.6128 401.03 45.7471C401.171 45.8815 401.25 46.0637 401.25 46.2537ZM381 38.3731C383.522 38.3731 385.987 37.6588 388.084 36.3206C390.18 34.9823 391.814 33.0802 392.779 30.8547C393.744 28.6293 393.997 26.1805 393.505 23.818C393.013 21.4555 391.799 19.2854 390.016 17.5821C388.232 15.8788 385.961 14.7188 383.487 14.2489C381.014 13.779 378.451 14.0202 376.121 14.942C373.791 15.8638 371.8 17.4248 370.399 19.4277C368.998 21.4305 368.25 23.7852 368.25 26.194C368.254 29.4229 369.599 32.5185 371.989 34.8017C374.379 37.0849 377.62 38.3693 381 38.3731ZM381 15.4477C383.225 15.4477 385.4 16.078 387.25 17.2588C389.1 18.4396 390.542 20.118 391.394 22.0816C392.245 24.0452 392.468 26.2059 392.034 28.2905C391.6 30.3751 390.528 32.2899 388.955 33.7928C387.382 35.2957 385.377 36.3191 383.195 36.7338C381.012 37.1484 378.75 36.9356 376.695 36.1223C374.639 35.3089 372.882 33.9315 371.646 32.1643C370.41 30.3971 369.75 28.3194 369.75 26.194C369.75 23.3439 370.935 20.6106 373.045 18.5952C375.155 16.5799 378.016 15.4477 381 15.4477ZM380.475 26.6955C380.403 26.6315 380.346 26.5539 380.307 26.4675C380.268 26.3811 380.249 26.288 380.25 26.194V19.0298C380.25 18.8398 380.329 18.6576 380.47 18.5232C380.61 18.3889 380.801 18.3134 381 18.3134C381.199 18.3134 381.39 18.3889 381.53 18.5232C381.671 18.6576 381.75 18.8398 381.75 19.0298V25.8931L384.525 28.5582C384.597 28.6225 384.654 28.7002 384.693 28.7864C384.732 28.8727 384.752 28.9657 384.752 29.0597C384.752 29.1537 384.732 29.2467 384.693 29.3329C384.654 29.4192 384.597 29.4968 384.525 29.5612C384.458 29.6297 384.376 29.6843 384.286 29.7217C384.196 29.759 384.098 29.7783 384 29.7783C383.902 29.7783 383.804 29.759 383.714 29.7217C383.624 29.6843 383.542 29.6297 383.475 29.5612L380.475 26.6955Z" fill="#EE4924"/>
<path d="M434.44 21V6.1H439.3C440.873 6.1 442.24 6.42 443.4 7.06C444.573 7.68667 445.48 8.56 446.12 9.68C446.76 10.7867 447.08 12.0733 447.08 13.54C447.08 14.9933 446.76 16.2867 446.12 17.42C445.48 18.54 444.573 19.42 443.4 20.06C442.24 20.6867 440.873 21 439.3 21H434.44ZM437.16 18.6H439.36C440.373 18.6 441.247 18.3933 441.98 17.98C442.727 17.5533 443.307 16.9667 443.72 16.22C444.133 15.46 444.34 14.5667 444.34 13.54C444.34 12.5 444.133 11.6067 443.72 10.86C443.307 10.1133 442.727 9.53333 441.98 9.12C441.247 8.70667 440.373 8.5 439.36 8.5H437.16V18.6ZM452.905 21.24C452.065 21.24 451.331 21.0533 450.705 20.68C450.091 20.3067 449.618 19.7867 449.285 19.12C448.965 18.4533 448.805 17.6733 448.805 16.78V10.12H451.425V16.56C451.425 17.0133 451.511 17.4133 451.685 17.76C451.871 18.0933 452.131 18.36 452.465 18.56C452.811 18.7467 453.198 18.84 453.625 18.84C454.051 18.84 454.431 18.7467 454.765 18.56C455.098 18.36 455.358 18.0867 455.545 17.74C455.731 17.3933 455.825 16.98 455.825 16.5V10.12H458.445V21H455.965V18.86L456.185 19.24C455.931 19.9067 455.511 20.4067 454.925 20.74C454.351 21.0733 453.678 21.24 452.905 21.24ZM460.88 21V10.12H463.34V12.54L463.14 12.18C463.393 11.3667 463.787 10.8 464.32 10.48C464.867 10.16 465.52 10 466.28 10H466.92V12.32H465.98C465.233 12.32 464.633 12.5533 464.18 13.02C463.727 13.4733 463.5 14.1133 463.5 14.94V21H460.88ZM471.661 21.24C470.901 21.24 470.241 21.1133 469.681 20.86C469.121 20.6067 468.687 20.2467 468.381 19.78C468.074 19.3 467.921 18.7467 467.921 18.12C467.921 17.52 468.054 16.9867 468.321 16.52C468.587 16.04 469.001 15.64 469.561 15.32C470.121 15 470.827 14.7733 471.681 14.64L475.241 14.06V16.06L472.181 16.58C471.661 16.6733 471.274 16.84 471.021 17.08C470.767 17.32 470.641 17.6333 470.641 18.02C470.641 18.3933 470.781 18.6933 471.061 18.92C471.354 19.1333 471.714 19.24 472.141 19.24C472.687 19.24 473.167 19.1267 473.581 18.9C474.007 18.66 474.334 18.3333 474.561 17.92C474.801 17.5067 474.921 17.0533 474.921 16.56V13.76C474.921 13.2933 474.734 12.9067 474.361 12.6C474.001 12.28 473.521 12.12 472.921 12.12C472.361 12.12 471.861 12.2733 471.421 12.58C470.994 12.8733 470.681 13.2667 470.481 13.76L468.341 12.72C468.554 12.1467 468.887 11.6533 469.341 11.24C469.807 10.8133 470.354 10.48 470.981 10.24C471.607 10 472.287 9.88 473.021 9.88C473.914 9.88 474.701 10.0467 475.381 10.38C476.061 10.7 476.587 11.1533 476.961 11.74C477.347 12.3133 477.541 12.9867 477.541 13.76V21H475.061V19.14L475.621 19.1C475.341 19.5667 475.007 19.96 474.621 20.28C474.234 20.5867 473.794 20.8267 473.301 21C472.807 21.16 472.261 21.24 471.661 21.24ZM484.727 21.12C483.5 21.12 482.547 20.7867 481.867 20.12C481.2 19.44 480.867 18.4867 480.867 17.26V12.46H478.987V10.12H479.187C479.72 10.12 480.134 9.98 480.427 9.7C480.72 9.42 480.867 9.01333 480.867 8.48V7.64H483.487V10.12H485.987V12.46H483.487V17.12C483.487 17.48 483.547 17.7867 483.667 18.04C483.8 18.2933 484 18.4867 484.267 18.62C484.547 18.7533 484.9 18.82 485.327 18.82C485.42 18.82 485.527 18.8133 485.647 18.8C485.78 18.7867 485.907 18.7733 486.027 18.76V21C485.84 21.0267 485.627 21.0533 485.387 21.08C485.147 21.1067 484.927 21.12 484.727 21.12ZM488.029 21V10.12H490.649V21H488.029ZM488.029 8.9V6.1H490.649V8.9H488.029ZM498.388 21.24C497.321 21.24 496.348 20.9933 495.468 20.5C494.601 20.0067 493.908 19.3333 493.388 18.48C492.881 17.6267 492.628 16.6533 492.628 15.56C492.628 14.4667 492.881 13.4933 493.388 12.64C493.908 11.7867 494.601 11.1133 495.468 10.62C496.334 10.1267 497.308 9.88 498.388 9.88C499.454 9.88 500.421 10.1267 501.288 10.62C502.154 11.1133 502.841 11.7867 503.348 12.64C503.868 13.48 504.128 14.4533 504.128 15.56C504.128 16.6533 503.868 17.6267 503.348 18.48C502.828 19.3333 502.134 20.0067 501.268 20.5C500.401 20.9933 499.441 21.24 498.388 21.24ZM498.388 18.84C498.974 18.84 499.488 18.7 499.928 18.42C500.381 18.14 500.734 17.7533 500.988 17.26C501.254 16.7533 501.388 16.1867 501.388 15.56C501.388 14.92 501.254 14.36 500.988 13.88C500.734 13.3867 500.381 13 499.928 12.72C499.488 12.4267 498.974 12.28 498.388 12.28C497.788 12.28 497.261 12.4267 496.808 12.72C496.354 13 495.994 13.3867 495.728 13.88C495.474 14.36 495.348 14.92 495.348 15.56C495.348 16.1867 495.474 16.7533 495.728 17.26C495.994 17.7533 496.354 18.14 496.808 18.42C497.261 18.7 497.788 18.84 498.388 18.84ZM506.115 21V10.12H508.575V12.26L508.375 11.88C508.628 11.2267 509.041 10.7333 509.615 10.4C510.201 10.0533 510.881 9.88 511.655 9.88C512.455 9.88 513.161 10.0533 513.775 10.4C514.401 10.7467 514.888 11.2333 515.235 11.86C515.581 12.4733 515.755 13.1867 515.755 14V21H513.135V14.62C513.135 14.14 513.041 13.7267 512.855 13.38C512.668 13.0333 512.408 12.7667 512.075 12.58C511.755 12.38 511.375 12.28 510.935 12.28C510.508 12.28 510.128 12.38 509.795 12.58C509.461 12.7667 509.201 13.0333 509.015 13.38C508.828 13.7267 508.735 14.14 508.735 14.62V21H506.115Z" fill="white"/>
<path opacity="0.8" d="M433.928 53V52.2L437.256 48.536C437.907 47.8213 438.435 47.2293 438.84 46.76C439.256 46.2907 439.565 45.864 439.768 45.48C439.971 45.096 440.072 44.68 440.072 44.232C440.072 43.5173 439.864 42.968 439.448 42.584C439.032 42.2 438.477 42.008 437.784 42.008C437.069 42.008 436.467 42.2107 435.976 42.616C435.496 43.0213 435.171 43.5867 435 44.312L433.832 44.056C433.971 43.4053 434.221 42.8453 434.584 42.376C434.947 41.9067 435.4 41.544 435.944 41.288C436.488 41.0213 437.096 40.888 437.768 40.888C438.483 40.888 439.107 41.032 439.64 41.32C440.173 41.608 440.589 42.0027 440.888 42.504C441.197 43.0053 441.352 43.5813 441.352 44.232C441.352 44.68 441.256 45.112 441.064 45.528C440.883 45.944 440.605 46.392 440.232 46.872C439.859 47.352 439.379 47.912 438.792 48.552L435.768 51.88H441.672V53H433.928ZM444.242 53V51.24H445.522V53H444.242ZM452.004 53.192C451.385 53.192 450.809 53.0853 450.276 52.872C449.753 52.6587 449.295 52.3547 448.9 51.96C448.505 51.5653 448.207 51.096 448.004 50.552L448.98 50.072C449.225 50.6907 449.625 51.1813 450.18 51.544C450.745 51.896 451.353 52.072 452.004 52.072C452.527 52.072 452.991 51.9493 453.396 51.704C453.812 51.4587 454.137 51.128 454.372 50.712C454.607 50.2853 454.724 49.8107 454.724 49.288C454.724 48.744 454.601 48.264 454.356 47.848C454.121 47.432 453.801 47.1067 453.396 46.872C452.991 46.6267 452.532 46.504 452.02 46.504C451.497 46.504 451.012 46.6267 450.564 46.872C450.127 47.1067 449.807 47.3947 449.604 47.736L448.596 47.544L449.492 41.08H455.524V42.2H449.956L450.452 41.768L449.732 46.856L449.236 46.632C449.609 46.1733 450.047 45.848 450.548 45.656C451.049 45.4533 451.561 45.352 452.084 45.352C452.852 45.352 453.529 45.5333 454.116 45.896C454.703 46.248 455.161 46.7227 455.492 47.32C455.833 47.9067 456.004 48.5627 456.004 49.288C456.004 50.024 455.828 50.6907 455.476 51.288C455.135 51.8747 454.66 52.3387 454.052 52.68C453.455 53.0213 452.772 53.192 452.004 53.192ZM460.982 53V40.888H462.182V46.088L461.91 46.024C462.123 45.4693 462.47 45.032 462.95 44.712C463.441 44.392 464.006 44.232 464.646 44.232C465.254 44.232 465.798 44.3707 466.278 44.648C466.769 44.9253 467.153 45.3093 467.43 45.8C467.718 46.28 467.862 46.824 467.862 47.432V53H466.662V47.896C466.662 47.3733 466.566 46.9307 466.374 46.568C466.182 46.2053 465.915 45.928 465.574 45.736C465.243 45.5333 464.865 45.432 464.438 45.432C464.011 45.432 463.627 45.5333 463.286 45.736C462.945 45.928 462.673 46.2107 462.47 46.584C462.278 46.9467 462.182 47.384 462.182 47.896V53H460.982ZM474.17 53.192C473.359 53.192 472.623 53 471.962 52.616C471.301 52.2213 470.773 51.688 470.378 51.016C469.994 50.3333 469.802 49.56 469.802 48.696C469.802 47.8427 469.994 47.08 470.378 46.408C470.762 45.736 471.279 45.208 471.93 44.824C472.591 44.4293 473.338 44.232 474.17 44.232C475.002 44.232 475.743 44.424 476.394 44.808C477.055 45.192 477.573 45.72 477.946 46.392C478.33 47.064 478.522 47.832 478.522 48.696C478.522 49.5707 478.325 50.3493 477.93 51.032C477.535 51.704 477.007 52.232 476.346 52.616C475.695 53 474.97 53.192 474.17 53.192ZM474.17 51.992C474.746 51.992 475.263 51.848 475.722 51.56C476.191 51.272 476.559 50.8773 476.826 50.376C477.103 49.8747 477.242 49.3147 477.242 48.696C477.242 48.0773 477.103 47.5227 476.826 47.032C476.559 46.5413 476.191 46.152 475.722 45.864C475.263 45.576 474.746 45.432 474.17 45.432C473.594 45.432 473.071 45.576 472.602 45.864C472.143 46.152 471.775 46.5413 471.498 47.032C471.221 47.5227 471.082 48.0773 471.082 48.696C471.082 49.3147 471.221 49.8747 471.498 50.376C471.775 50.8773 472.143 51.272 472.602 51.56C473.071 51.848 473.594 51.992 474.17 51.992ZM483.678 53.192C483.081 53.192 482.537 53.0533 482.046 52.776C481.556 52.488 481.166 52.0933 480.878 51.592C480.601 51.08 480.462 50.4933 480.462 49.832V44.424H481.662V49.688C481.662 50.1467 481.753 50.552 481.934 50.904C482.126 51.2453 482.388 51.512 482.718 51.704C483.06 51.896 483.449 51.992 483.886 51.992C484.324 51.992 484.713 51.896 485.054 51.704C485.396 51.5013 485.662 51.2187 485.854 50.856C486.046 50.4827 486.142 50.04 486.142 49.528V44.424H487.342V53H486.142V51.336L486.414 51.4C486.212 51.9547 485.865 52.392 485.374 52.712C484.884 53.032 484.318 53.192 483.678 53.192ZM489.81 53V44.424H491.01V45.832L490.85 45.624C491.053 45.2187 491.357 44.8987 491.762 44.664C492.178 44.4293 492.679 44.312 493.266 44.312H493.81V45.512H493.058C492.439 45.512 491.943 45.704 491.57 46.088C491.197 46.472 491.01 47.016 491.01 47.72V53H489.81ZM498.192 53.192C497.371 53.192 496.651 52.984 496.032 52.568C495.414 52.152 494.966 51.5867 494.688 50.872L495.696 50.392C495.942 50.9147 496.283 51.3307 496.72 51.64C497.168 51.9493 497.659 52.104 498.192 52.104C498.704 52.104 499.136 51.9813 499.488 51.736C499.84 51.48 500.016 51.1493 500.016 50.744C500.016 50.4453 499.931 50.2107 499.76 50.04C499.59 49.8587 499.392 49.72 499.168 49.624C498.944 49.528 498.747 49.4587 498.576 49.416L497.344 49.064C496.555 48.84 495.984 48.5253 495.632 48.12C495.28 47.7147 495.104 47.2453 495.104 46.712C495.104 46.2107 495.232 45.7733 495.488 45.4C495.744 45.0267 496.091 44.7387 496.528 44.536C496.966 44.3333 497.451 44.232 497.984 44.232C498.71 44.232 499.366 44.424 499.952 44.808C500.55 45.1813 500.971 45.704 501.216 46.376L500.192 46.856C499.979 46.376 499.67 46.0027 499.264 45.736C498.87 45.4587 498.427 45.32 497.936 45.32C497.456 45.32 497.072 45.4427 496.784 45.688C496.496 45.9333 496.352 46.2427 496.352 46.616C496.352 46.904 496.427 47.1333 496.576 47.304C496.726 47.4747 496.896 47.6027 497.088 47.688C497.291 47.7733 497.467 47.8373 497.616 47.88L499.04 48.296C499.734 48.4987 500.272 48.8133 500.656 49.24C501.051 49.6667 501.248 50.168 501.248 50.744C501.248 51.2133 501.115 51.6347 500.848 52.008C500.592 52.3813 500.235 52.6747 499.776 52.888C499.318 53.0907 498.79 53.192 498.192 53.192ZM508.444 53L505.02 41.08H506.316L509.276 51.752H509.004L512.044 41.08H513.404L516.428 51.752H516.14L519.116 41.08H520.412L516.988 53H515.628L512.572 42.28H512.86L509.804 53H508.444ZM525.089 53.192C524.289 53.192 523.564 53 522.913 52.616C522.273 52.2213 521.766 51.6827 521.393 51C521.02 50.3173 520.833 49.544 520.833 48.68C520.833 47.816 521.014 47.0533 521.377 46.392C521.74 45.72 522.23 45.192 522.849 44.808C523.478 44.424 524.182 44.232 524.961 44.232C525.58 44.232 526.129 44.3493 526.609 44.584C527.1 44.808 527.516 45.1173 527.857 45.512C528.198 45.896 528.46 46.3333 528.641 46.824C528.822 47.304 528.913 47.8 528.913 48.312C528.913 48.4187 528.908 48.5413 528.897 48.68C528.886 48.808 528.87 48.9413 528.849 49.08H521.601V47.96H528.161L527.585 48.44C527.681 47.8533 527.612 47.3307 527.377 46.872C527.153 46.4027 526.828 46.0347 526.401 45.768C525.974 45.4907 525.494 45.352 524.961 45.352C524.428 45.352 523.932 45.4907 523.473 45.768C523.025 46.0453 522.673 46.4347 522.417 46.936C522.161 47.4267 522.06 48.0133 522.113 48.696C522.06 49.3787 522.166 49.976 522.433 50.488C522.71 50.9893 523.084 51.3787 523.553 51.656C524.033 51.9333 524.545 52.072 525.089 52.072C525.718 52.072 526.246 51.9227 526.673 51.624C527.1 51.3253 527.446 50.952 527.713 50.504L528.737 51.048C528.566 51.432 528.305 51.7893 527.953 52.12C527.601 52.44 527.18 52.7013 526.689 52.904C526.209 53.096 525.676 53.192 525.089 53.192ZM535.365 53.192C534.629 53.192 533.962 53.0267 533.365 52.696C532.778 52.3547 532.336 51.8747 532.037 51.256L532.229 51.08V53H531.029V40.888H532.229V46.344L532.037 46.008C532.378 45.464 532.832 45.032 533.397 44.712C533.973 44.392 534.629 44.232 535.365 44.232C536.176 44.232 536.896 44.4293 537.525 44.824C538.165 45.208 538.666 45.736 539.029 46.408C539.402 47.08 539.589 47.848 539.589 48.712C539.589 49.5653 539.402 50.3333 539.029 51.016C538.666 51.688 538.165 52.2213 537.525 52.616C536.896 53 536.176 53.192 535.365 53.192ZM535.301 51.992C535.877 51.992 536.389 51.848 536.837 51.56C537.296 51.272 537.653 50.8827 537.909 50.392C538.176 49.8907 538.309 49.3307 538.309 48.712C538.309 48.0827 538.176 47.5227 537.909 47.032C537.653 46.5413 537.296 46.152 536.837 45.864C536.389 45.576 535.877 45.432 535.301 45.432C534.725 45.432 534.202 45.576 533.733 45.864C533.274 46.152 532.906 46.5467 532.629 47.048C532.362 47.5387 532.229 48.0933 532.229 48.712C532.229 49.3307 532.362 49.8907 532.629 50.392C532.906 50.8827 533.274 51.272 533.733 51.56C534.202 51.848 534.725 51.992 535.301 51.992ZM541.701 53V44.424H542.901V53H541.701ZM541.701 42.84V41.08H542.901V42.84H541.701ZM545.357 53V44.424H546.557V46.088L546.285 46.024C546.498 45.4693 546.845 45.032 547.325 44.712C547.816 44.392 548.381 44.232 549.021 44.232C549.629 44.232 550.173 44.3707 550.653 44.648C551.144 44.9253 551.528 45.3093 551.805 45.8C552.093 46.28 552.237 46.824 552.237 47.432V53H551.037V47.896C551.037 47.3733 550.941 46.9307 550.749 46.568C550.568 46.2053 550.306 45.928 549.965 45.736C549.634 45.5333 549.25 45.432 548.813 45.432C548.376 45.432 547.986 45.5333 547.645 45.736C547.304 45.928 547.037 46.2107 546.845 46.584C546.653 46.9467 546.557 47.384 546.557 47.896V53H545.357ZM557.009 53.192C556.465 53.192 555.98 53.0907 555.553 52.888C555.126 52.6747 554.79 52.3867 554.545 52.024C554.3 51.6613 554.177 51.2453 554.177 50.776C554.177 50.328 554.273 49.9227 554.465 49.56C554.657 49.1867 554.956 48.872 555.361 48.616C555.766 48.36 556.284 48.1787 556.913 48.072L560.273 47.512V48.6L557.201 49.112C556.582 49.2187 556.134 49.416 555.857 49.704C555.59 49.992 555.457 50.3333 555.457 50.728C555.457 51.112 555.606 51.4373 555.905 51.704C556.214 51.9707 556.609 52.104 557.089 52.104C557.676 52.104 558.188 51.9813 558.625 51.736C559.062 51.48 559.404 51.1387 559.649 50.712C559.894 50.2853 560.017 49.8107 560.017 49.288V47.112C560.017 46.6 559.83 46.184 559.457 45.864C559.084 45.544 558.598 45.384 558.001 45.384C557.478 45.384 557.02 45.5173 556.625 45.784C556.23 46.04 555.937 46.376 555.745 46.792L554.657 46.2C554.817 45.8373 555.068 45.5067 555.409 45.208C555.761 44.9093 556.161 44.6747 556.609 44.504C557.057 44.3227 557.521 44.232 558.001 44.232C558.63 44.232 559.185 44.3547 559.665 44.6C560.156 44.8453 560.534 45.1867 560.801 45.624C561.078 46.0507 561.217 46.5467 561.217 47.112V53H560.017V51.288L560.193 51.464C560.044 51.784 559.809 52.0773 559.489 52.344C559.18 52.6 558.812 52.808 558.385 52.968C557.969 53.1173 557.51 53.192 557.009 53.192ZM563.685 53V44.424H564.885V45.832L564.725 45.624C564.928 45.2187 565.232 44.8987 565.637 44.664C566.053 44.4293 566.554 44.312 567.141 44.312H567.685V45.512H566.933C566.314 45.512 565.818 45.704 565.445 46.088C565.072 46.472 564.885 47.016 564.885 47.72V53H563.685Z" fill="white"/>
<rect y="104" width="64" height="64" rx="8" fill="#FFF5ED"/>
<g clip-path="url(#clip0_12_637)">
<path fill-rule="evenodd" clip-rule="evenodd" d="M23.6276 144.16C23.6276 142.301 22.1138 140.79 20.2545 140.79C18.401 140.79 16.8872 142.301 16.8872 144.16C16.8872 146.019 18.4011 147.53 20.2545 147.53C22.1138 147.53 23.6276 146.019 23.6276 144.16ZM24.9919 144.16C24.9919 146.772 22.8679 148.896 20.2545 148.896C17.6469 148.896 15.5229 146.772 15.5229 144.16C15.5229 141.548 17.6469 139.424 20.2545 139.424C22.8679 139.424 24.9919 141.548 24.9919 144.16ZM29.24 148.322H28.0254C27.5419 148.322 27.1505 148.716 27.1505 149.199V152.322C27.1505 152.639 26.8913 152.892 26.5749 152.889L23.7832 152.86C23.4032 152.86 23.0981 153.165 23.0981 153.543V156.706H17.008C16.9849 152.776 15.8913 151.227 14.9242 149.854C14.0895 148.672 13.37 147.652 13.37 145.078C13.37 142.943 13.9514 137.92 19.3738 137.408C22.6376 137.078 25.6769 139.259 26.4424 142.479C26.949 144.591 27.1389 145.107 27.8124 146.153C28.3017 146.914 28.7738 147.631 29.24 148.322ZM30.892 148.314C31.2905 148.896 30.8821 149.688 30.1725 149.688H28.5147V152.322C28.5147 153.4 27.6357 154.269 26.5575 154.255L24.4622 154.228V157.2C24.4622 157.681 24.065 158.072 23.5758 158.072H16.5244C16.0369 158.072 15.6278 157.679 15.638 157.186C15.7013 153.328 14.74 151.962 13.8075 150.641C12.921 149.385 12 148.085 12 145.078C12 140.317 14.3557 136.526 19.2413 136.049C23.1956 135.662 26.8564 138.322 27.772 142.163C28.2613 144.214 28.4109 144.56 28.9578 145.415C29.6256 146.449 30.2531 147.397 30.892 148.314ZM22.1253 142.283C22.4189 142.516 22.4707 142.946 22.2404 143.242L20.1509 145.911C19.9114 146.214 19.471 146.26 19.1723 146.013L17.7966 144.861C17.503 144.62 17.4684 144.189 17.7102 143.899C17.952 143.61 18.3779 143.571 18.6715 143.812L19.5062 144.513L21.164 142.399C21.4001 142.103 21.826 142.051 22.1253 142.283ZM45.6107 142.341C45.3172 142.109 44.8855 142.161 44.6552 142.458L42.9974 144.571L42.1569 143.871C41.8691 143.629 41.4374 143.668 41.1956 143.958C40.9538 144.247 40.9884 144.678 41.282 144.919L42.6578 146.071C42.9556 146.316 43.3961 146.274 43.6364 145.969L45.7259 143.3C45.9618 143.003 45.91 142.574 45.6107 142.341ZM47.113 144.218C47.113 146.076 45.6049 147.589 43.7457 147.589C41.8864 147.589 40.3726 146.076 40.3726 144.218C40.3726 142.36 41.8864 140.848 43.7457 140.848C45.605 140.848 47.113 142.36 47.113 144.218ZM48.4831 144.218C48.4831 146.83 46.3533 148.954 43.7457 148.954C41.1323 148.954 39.0083 146.83 39.0083 144.218C39.0083 141.607 41.1323 139.482 43.7457 139.482C46.3533 139.482 48.4831 141.607 48.4831 144.218ZM49.0817 149.854C48.1089 151.227 47.0153 152.776 46.998 156.706H40.9021V153.543C40.9021 153.165 40.597 152.86 40.217 152.86L37.4253 152.889C37.1065 152.891 36.8555 152.642 36.8555 152.322V149.199C36.8555 148.716 36.464 148.322 35.9805 148.322H34.7603C35.2323 147.631 35.7043 146.914 36.1936 146.153C36.8613 145.107 37.057 144.591 37.5578 142.479C38.3234 139.259 41.3627 137.08 44.6264 137.408H44.6322C50.0488 137.92 50.6302 142.943 50.6302 145.078C50.6302 147.652 49.9106 148.672 49.0817 149.854ZM50.1926 150.641C49.2658 151.962 48.2988 153.328 48.3621 157.186C48.3724 157.685 47.9617 158.072 47.4757 158.072H40.4244C39.935 158.072 39.5379 157.681 39.5379 157.2V154.228L37.4426 154.255C36.364 154.266 35.4854 153.401 35.4854 152.322V149.688H33.8276C33.1229 149.688 32.7069 148.895 33.1081 148.314C33.747 147.397 34.3802 146.449 35.0422 145.415C35.589 144.56 35.7387 144.214 36.228 142.163C37.1437 138.321 40.8037 135.662 44.7587 136.048C49.647 136.526 52 140.319 52 145.078C52.0001 148.085 51.0791 149.384 50.1926 150.641ZM39.1062 123.87C39.1062 124.247 39.4113 124.553 39.7912 124.553H42.1857C42.5657 124.553 42.8708 124.247 42.8708 123.87C42.8708 123.493 42.5657 123.187 42.1857 123.187H39.7912C39.4113 123.187 39.1062 123.493 39.1062 123.87ZM32.003 116.763C32.3771 116.763 32.6822 116.457 32.6822 116.08V113.683C32.6822 113.306 32.3771 113 32.003 113C31.6231 113 31.318 113.306 31.318 113.683V116.08C31.318 116.457 31.6231 116.763 32.003 116.763ZM37.5117 119.044C37.6844 119.044 37.857 118.978 37.9895 118.845L39.6876 117.149C39.9523 116.883 39.9523 116.45 39.6876 116.183C39.4171 115.917 38.9854 115.917 38.7205 116.183L37.0282 117.879C36.5902 118.314 36.9096 119.044 37.5117 119.044ZM21.8145 124.553H24.209C24.5889 124.553 24.894 124.247 24.894 123.87C24.894 123.493 24.5889 123.187 24.209 123.187H21.8145C21.4345 123.187 21.1294 123.493 21.1294 123.87C21.1294 124.247 21.4345 124.553 21.8145 124.553ZM26.0107 118.845C26.2761 119.111 26.7095 119.109 26.9778 118.845C27.2425 118.578 27.2425 118.145 26.9778 117.879L25.2797 116.183C25.015 115.917 24.5832 115.917 24.3127 116.184C24.0479 116.45 24.0479 116.883 24.3127 117.149L26.0107 118.845ZM32.5153 133.848V133.469H31.4849V133.848C31.4849 134.134 31.7152 134.365 32.003 134.365C32.285 134.365 32.5153 134.134 32.5153 133.848ZM29.0156 126.57C29.5163 127.454 30.0747 128.444 30.4374 129.837H33.563C34.3124 126.959 35.9633 125.739 35.9633 123.838C35.9633 121.654 34.1847 119.878 32.0031 119.878C29.8158 119.878 28.0428 121.654 28.0428 123.838C28.0427 124.845 28.4687 125.606 29.0156 126.57ZM33.4248 132.103V131.202H30.5812V132.103H33.4248ZM32.003 135.731C33.0391 135.731 33.8852 134.886 33.8852 133.848V133.463C34.3918 133.412 34.789 132.982 34.789 132.46V130.597C35.0941 129.154 35.6408 128.181 36.1762 127.242C36.7691 126.194 37.3274 125.204 37.3274 123.838C37.3274 120.901 34.9385 118.512 32.0029 118.512C29.0615 118.512 26.6726 120.901 26.6726 123.838C26.6726 125.204 27.2367 126.194 27.8238 127.242C28.3592 128.18 28.9059 129.153 29.211 130.594V132.46C29.211 132.981 29.6082 133.411 30.1148 133.464V133.848C30.115 134.886 30.9611 135.731 32.003 135.731ZM37.08 129.532C37.08 129.155 37.385 128.849 37.765 128.849H44.4883C44.8682 128.849 45.1733 129.155 45.1733 129.532V132.614L45.6338 132.15C45.9043 131.884 46.3361 131.884 46.6009 132.15C46.8656 132.416 46.8656 132.849 46.6009 133.116L44.9718 134.746C44.7062 135.013 44.2704 135.013 44.0048 134.746L42.3758 133.116C42.111 132.849 42.111 132.416 42.3758 132.15C42.6405 131.884 43.0723 131.884 43.3428 132.15L43.8033 132.614V130.215H37.7651C37.385 130.215 37.08 129.909 37.08 129.532ZM18.8327 133.855V129.532C18.8327 129.155 19.1378 128.849 19.512 128.849H26.2352C26.6152 128.849 26.9203 129.155 26.9203 129.532C26.9203 129.909 26.6152 130.215 26.2352 130.215H20.197V133.855C20.197 134.232 19.8919 134.538 19.512 134.538C19.1378 134.538 18.8327 134.232 18.8327 133.855Z" fill="#728504"/>
</g>
<path d="M92.5 125.24C91.4333 125.24 90.4467 125.047 89.54 124.66C88.6333 124.273 87.84 123.733 87.16 123.04C86.48 122.347 85.9467 121.533 85.56 120.6C85.1867 119.667 85 118.647 85 117.54C85 116.433 85.18 115.413 85.54 114.48C85.9133 113.533 86.4333 112.72 87.1 112.04C87.78 111.347 88.5733 110.813 89.48 110.44C90.3867 110.053 91.3733 109.86 92.44 109.86C93.5067 109.86 94.46 110.04 95.3 110.4C96.1533 110.76 96.8733 111.24 97.46 111.84C98.0467 112.427 98.4667 113.073 98.72 113.78L96.3 114.94C96.02 114.167 95.5467 113.54 94.88 113.06C94.2133 112.58 93.4 112.34 92.44 112.34C91.5067 112.34 90.68 112.56 89.96 113C89.2533 113.44 88.7 114.047 88.3 114.82C87.9133 115.593 87.72 116.5 87.72 117.54C87.72 118.58 87.92 119.493 88.32 120.28C88.7333 121.053 89.3 121.66 90.02 122.1C90.74 122.54 91.5667 122.76 92.5 122.76C93.26 122.76 93.96 122.613 94.6 122.32C95.24 122.013 95.7533 121.587 96.14 121.04C96.5267 120.48 96.72 119.82 96.72 119.06V117.92L97.96 119H92.44V116.7H99.44V118.2C99.44 119.347 99.2467 120.36 98.86 121.24C98.4733 122.12 97.9467 122.86 97.28 123.46C96.6267 124.047 95.8867 124.493 95.06 124.8C94.2333 125.093 93.38 125.24 92.5 125.24ZM105.252 125.24C104.412 125.24 103.679 125.053 103.052 124.68C102.439 124.307 101.966 123.787 101.632 123.12C101.312 122.453 101.152 121.673 101.152 120.78V114.12H103.772V120.56C103.772 121.013 103.859 121.413 104.032 121.76C104.219 122.093 104.479 122.36 104.812 122.56C105.159 122.747 105.546 122.84 105.972 122.84C106.399 122.84 106.779 122.747 107.112 122.56C107.446 122.36 107.706 122.087 107.892 121.74C108.079 121.393 108.172 120.98 108.172 120.5V114.12H110.792V125H108.312V122.86L108.532 123.24C108.279 123.907 107.859 124.407 107.272 124.74C106.699 125.073 106.026 125.24 105.252 125.24ZM113.228 125V114.12H115.848V125H113.228ZM113.228 112.9V110.1H115.848V112.9H113.228ZM123.327 125.24C122.274 125.24 121.334 124.993 120.507 124.5C119.68 123.993 119.027 123.307 118.547 122.44C118.067 121.573 117.827 120.613 117.827 119.56C117.827 118.493 118.067 117.533 118.547 116.68C119.027 115.827 119.68 115.147 120.507 114.64C121.347 114.133 122.28 113.88 123.307 113.88C124.134 113.88 124.867 114.047 125.507 114.38C126.16 114.7 126.674 115.153 127.047 115.74L126.647 116.28V109.86H129.267V125H126.787V122.9L127.067 123.42C126.694 124.007 126.174 124.46 125.507 124.78C124.84 125.087 124.114 125.24 123.327 125.24ZM123.607 122.84C124.207 122.84 124.734 122.7 125.187 122.42C125.64 122.14 125.994 121.753 126.247 121.26C126.514 120.767 126.647 120.2 126.647 119.56C126.647 118.933 126.514 118.373 126.247 117.88C125.994 117.373 125.64 116.98 125.187 116.7C124.734 116.42 124.207 116.28 123.607 116.28C123.02 116.28 122.494 116.427 122.027 116.72C121.56 117 121.194 117.387 120.927 117.88C120.674 118.36 120.547 118.92 120.547 119.56C120.547 120.2 120.674 120.767 120.927 121.26C121.194 121.753 121.56 122.14 122.027 122.42C122.494 122.7 123.02 122.84 123.607 122.84ZM135.004 125.24C134.244 125.24 133.584 125.113 133.024 124.86C132.464 124.607 132.031 124.247 131.724 123.78C131.418 123.3 131.264 122.747 131.264 122.12C131.264 121.52 131.398 120.987 131.664 120.52C131.931 120.04 132.344 119.64 132.904 119.32C133.464 119 134.171 118.773 135.024 118.64L138.584 118.06V120.06L135.524 120.58C135.004 120.673 134.618 120.84 134.364 121.08C134.111 121.32 133.984 121.633 133.984 122.02C133.984 122.393 134.124 122.693 134.404 122.92C134.698 123.133 135.058 123.24 135.484 123.24C136.031 123.24 136.511 123.127 136.924 122.9C137.351 122.66 137.678 122.333 137.904 121.92C138.144 121.507 138.264 121.053 138.264 120.56V117.76C138.264 117.293 138.078 116.907 137.704 116.6C137.344 116.28 136.864 116.12 136.264 116.12C135.704 116.12 135.204 116.273 134.764 116.58C134.338 116.873 134.024 117.267 133.824 117.76L131.684 116.72C131.898 116.147 132.231 115.653 132.684 115.24C133.151 114.813 133.698 114.48 134.324 114.24C134.951 114 135.631 113.88 136.364 113.88C137.258 113.88 138.044 114.047 138.724 114.38C139.404 114.7 139.931 115.153 140.304 115.74C140.691 116.313 140.884 116.987 140.884 117.76V125H138.404V123.14L138.964 123.1C138.684 123.567 138.351 123.96 137.964 124.28C137.578 124.587 137.138 124.827 136.644 125C136.151 125.16 135.604 125.24 135.004 125.24ZM143.306 125V114.12H145.766V116.26L145.566 115.88C145.819 115.227 146.233 114.733 146.806 114.4C147.393 114.053 148.073 113.88 148.846 113.88C149.646 113.88 150.353 114.053 150.966 114.4C151.593 114.747 152.079 115.233 152.426 115.86C152.773 116.473 152.946 117.187 152.946 118V125H150.326V118.62C150.326 118.14 150.233 117.727 150.046 117.38C149.859 117.033 149.599 116.767 149.266 116.58C148.946 116.38 148.566 116.28 148.126 116.28C147.699 116.28 147.319 116.38 146.986 116.58C146.653 116.767 146.393 117.033 146.206 117.38C146.019 117.727 145.926 118.14 145.926 118.62V125H143.306ZM160.401 125.24C159.321 125.24 158.348 124.993 157.481 124.5C156.628 123.993 155.955 123.313 155.461 122.46C154.968 121.593 154.721 120.62 154.721 119.54C154.721 118.46 154.968 117.493 155.461 116.64C155.955 115.787 156.628 115.113 157.481 114.62C158.348 114.127 159.321 113.88 160.401 113.88C161.175 113.88 161.895 114.02 162.561 114.3C163.228 114.567 163.801 114.94 164.281 115.42C164.775 115.887 165.128 116.447 165.341 117.1L163.041 118.1C162.841 117.553 162.501 117.113 162.021 116.78C161.555 116.447 161.015 116.28 160.401 116.28C159.828 116.28 159.315 116.42 158.861 116.7C158.421 116.98 158.075 117.367 157.821 117.86C157.568 118.353 157.441 118.92 157.441 119.56C157.441 120.2 157.568 120.767 157.821 121.26C158.075 121.753 158.421 122.14 158.861 122.42C159.315 122.7 159.828 122.84 160.401 122.84C161.028 122.84 161.575 122.673 162.041 122.34C162.508 122.007 162.841 121.56 163.041 121L165.341 122.04C165.128 122.653 164.781 123.207 164.301 123.7C163.821 124.18 163.248 124.56 162.581 124.84C161.915 125.107 161.188 125.24 160.401 125.24ZM172.489 125.24C171.369 125.24 170.389 124.987 169.549 124.48C168.709 123.973 168.056 123.287 167.589 122.42C167.123 121.553 166.889 120.593 166.889 119.54C166.889 118.447 167.123 117.48 167.589 116.64C168.069 115.787 168.716 115.113 169.529 114.62C170.356 114.127 171.276 113.88 172.289 113.88C173.143 113.88 173.889 114.02 174.529 114.3C175.183 114.58 175.736 114.967 176.189 115.46C176.643 115.953 176.989 116.52 177.229 117.16C177.469 117.787 177.589 118.467 177.589 119.2C177.589 119.387 177.576 119.58 177.549 119.78C177.536 119.98 177.503 120.153 177.449 120.3H169.049V118.3H175.969L174.729 119.24C174.849 118.627 174.816 118.08 174.629 117.6C174.456 117.12 174.163 116.74 173.749 116.46C173.349 116.18 172.863 116.04 172.289 116.04C171.743 116.04 171.256 116.18 170.829 116.46C170.403 116.727 170.076 117.127 169.849 117.66C169.636 118.18 169.556 118.813 169.609 119.56C169.556 120.227 169.643 120.82 169.869 121.34C170.109 121.847 170.456 122.24 170.909 122.52C171.376 122.8 171.909 122.94 172.509 122.94C173.109 122.94 173.616 122.813 174.029 122.56C174.456 122.307 174.789 121.967 175.029 121.54L177.149 122.58C176.936 123.1 176.603 123.56 176.149 123.96C175.696 124.36 175.156 124.673 174.529 124.9C173.916 125.127 173.236 125.24 172.489 125.24Z" fill="white"/>
<path opacity="0.8" d="M85.408 157V145.08H92.768V146.28H86.688V150.424H92.288V151.624H86.688V157H85.408ZM94.0445 157V148.424H95.2445V149.832L95.0845 149.624C95.2872 149.219 95.5912 148.899 95.9965 148.664C96.4125 148.429 96.9138 148.312 97.5005 148.312H98.0445V149.512H97.2925C96.6738 149.512 96.1778 149.704 95.8045 150.088C95.4312 150.472 95.2445 151.016 95.2445 151.72V157H94.0445ZM103.467 157.192C102.656 157.192 101.92 157 101.259 156.616C100.597 156.221 100.069 155.688 99.6748 155.016C99.2908 154.333 99.0988 153.56 99.0988 152.696C99.0988 151.843 99.2908 151.08 99.6748 150.408C100.059 149.736 100.576 149.208 101.227 148.824C101.888 148.429 102.635 148.232 103.467 148.232C104.299 148.232 105.04 148.424 105.691 148.808C106.352 149.192 106.869 149.72 107.243 150.392C107.627 151.064 107.819 151.832 107.819 152.696C107.819 153.571 107.621 154.349 107.227 155.032C106.832 155.704 106.304 156.232 105.643 156.616C104.992 157 104.267 157.192 103.467 157.192ZM103.467 155.992C104.043 155.992 104.56 155.848 105.019 155.56C105.488 155.272 105.856 154.877 106.123 154.376C106.4 153.875 106.539 153.315 106.539 152.696C106.539 152.077 106.4 151.523 106.123 151.032C105.856 150.541 105.488 150.152 105.019 149.864C104.56 149.576 104.043 149.432 103.467 149.432C102.891 149.432 102.368 149.576 101.899 149.864C101.44 150.152 101.072 150.541 100.795 151.032C100.517 151.523 100.379 152.077 100.379 152.696C100.379 153.315 100.517 153.875 100.795 154.376C101.072 154.877 101.44 155.272 101.899 155.56C102.368 155.848 102.891 155.992 103.467 155.992ZM109.935 157V148.424H111.135V150.056L110.943 149.816C111.178 149.315 111.524 148.925 111.983 148.648C112.452 148.371 112.964 148.232 113.519 148.232C114.18 148.232 114.778 148.419 115.311 148.792C115.844 149.165 116.223 149.651 116.447 150.248L116.111 150.264C116.324 149.603 116.692 149.101 117.215 148.76C117.748 148.408 118.335 148.232 118.975 148.232C119.551 148.232 120.079 148.371 120.559 148.648C121.05 148.925 121.439 149.309 121.727 149.8C122.026 150.28 122.175 150.824 122.175 151.432V157H120.975V151.896C120.975 151.373 120.879 150.931 120.687 150.568C120.506 150.205 120.255 149.928 119.935 149.736C119.615 149.533 119.247 149.432 118.831 149.432C118.426 149.432 118.058 149.533 117.727 149.736C117.396 149.928 117.135 150.211 116.943 150.584C116.751 150.947 116.655 151.384 116.655 151.896V157H115.455V151.896C115.455 151.373 115.359 150.931 115.167 150.568C114.986 150.205 114.735 149.928 114.415 149.736C114.095 149.533 113.727 149.432 113.311 149.432C112.895 149.432 112.522 149.533 112.191 149.736C111.871 149.928 111.615 150.211 111.423 150.584C111.231 150.947 111.135 151.384 111.135 151.896V157H109.935ZM127.361 157V145.08H128.641V150.44H135.041V145.08H136.321V157H135.041V151.64H128.641V157H127.361ZM138.966 157V148.424H140.166V157H138.966ZM138.966 146.84V145.08H140.166V146.84H138.966ZM142.623 157V148.424H143.823V149.832L143.663 149.624C143.865 149.219 144.169 148.899 144.575 148.664C144.991 148.429 145.492 148.312 146.079 148.312H146.623V149.512H145.871C145.252 149.512 144.756 149.704 144.383 150.088C144.009 150.472 143.823 151.016 143.823 151.72V157H142.623ZM148.029 157V148.424H149.229V157H148.029ZM148.029 146.84V145.08H149.229V146.84H148.029ZM151.685 157V148.424H152.885V150.088L152.613 150.024C152.826 149.469 153.173 149.032 153.653 148.712C154.144 148.392 154.709 148.232 155.349 148.232C155.957 148.232 156.501 148.371 156.981 148.648C157.472 148.925 157.856 149.309 158.133 149.8C158.421 150.28 158.565 150.824 158.565 151.432V157H157.365V151.896C157.365 151.373 157.269 150.931 157.077 150.568C156.896 150.205 156.634 149.928 156.293 149.736C155.962 149.533 155.578 149.432 155.141 149.432C154.704 149.432 154.314 149.533 153.973 149.736C153.632 149.928 153.365 150.211 153.173 150.584C152.981 150.947 152.885 151.384 152.885 151.896V157H151.685ZM164.921 160.52C164.334 160.52 163.79 160.429 163.289 160.248C162.798 160.067 162.372 159.816 162.009 159.496C161.657 159.187 161.385 158.824 161.193 158.408L162.297 157.816C162.468 158.221 162.772 158.573 163.209 158.872C163.646 159.171 164.206 159.32 164.889 159.32C165.412 159.32 165.892 159.219 166.329 159.016C166.766 158.813 167.118 158.515 167.385 158.12C167.652 157.725 167.785 157.24 167.785 156.664V154.76L167.977 154.936C167.678 155.555 167.236 156.035 166.649 156.376C166.062 156.707 165.422 156.872 164.729 156.872C163.929 156.872 163.209 156.68 162.569 156.296C161.929 155.912 161.422 155.395 161.049 154.744C160.686 154.083 160.505 153.352 160.505 152.552C160.505 151.741 160.686 151.011 161.049 150.36C161.422 149.709 161.924 149.192 162.553 148.808C163.193 148.424 163.918 148.232 164.729 148.232C165.422 148.232 166.052 148.392 166.617 148.712C167.193 149.032 167.646 149.464 167.977 150.008L167.785 150.344V148.424H168.985V156.664C168.985 157.4 168.809 158.056 168.457 158.632C168.116 159.219 167.636 159.677 167.017 160.008C166.409 160.349 165.71 160.52 164.921 160.52ZM164.793 155.672C165.348 155.672 165.849 155.533 166.297 155.256C166.745 154.968 167.102 154.589 167.369 154.12C167.646 153.64 167.785 153.117 167.785 152.552C167.785 151.987 167.646 151.469 167.369 151C167.102 150.52 166.745 150.141 166.297 149.864C165.849 149.576 165.348 149.432 164.793 149.432C164.228 149.432 163.716 149.576 163.257 149.864C162.798 150.141 162.436 150.515 162.169 150.984C161.913 151.453 161.785 151.976 161.785 152.552C161.785 153.117 161.913 153.64 162.169 154.12C162.436 154.589 162.793 154.968 163.241 155.256C163.7 155.533 164.217 155.672 164.793 155.672ZM174.346 157V145.08H175.466L179.946 151.576H179.322L183.786 145.08H184.906V157H183.626V146.808L184.042 146.968L179.658 153.32H179.594L175.226 146.968L175.626 146.808V157H174.346ZM190.025 157.192C189.481 157.192 188.995 157.091 188.569 156.888C188.142 156.675 187.806 156.387 187.561 156.024C187.315 155.661 187.193 155.245 187.193 154.776C187.193 154.328 187.289 153.923 187.481 153.56C187.673 153.187 187.971 152.872 188.377 152.616C188.782 152.36 189.299 152.179 189.929 152.072L193.289 151.512V152.6L190.217 153.112C189.598 153.219 189.15 153.416 188.873 153.704C188.606 153.992 188.473 154.333 188.473 154.728C188.473 155.112 188.622 155.437 188.921 155.704C189.23 155.971 189.625 156.104 190.105 156.104C190.691 156.104 191.203 155.981 191.641 155.736C192.078 155.48 192.419 155.139 192.665 154.712C192.91 154.285 193.033 153.811 193.033 153.288V151.112C193.033 150.6 192.846 150.184 192.473 149.864C192.099 149.544 191.614 149.384 191.016 149.384C190.494 149.384 190.035 149.517 189.641 149.784C189.246 150.04 188.953 150.376 188.761 150.792L187.673 150.2C187.833 149.837 188.083 149.507 188.424 149.208C188.777 148.909 189.177 148.675 189.625 148.504C190.073 148.323 190.537 148.232 191.016 148.232C191.646 148.232 192.201 148.355 192.681 148.6C193.171 148.845 193.55 149.187 193.817 149.624C194.094 150.051 194.233 150.547 194.233 151.112V157H193.033V155.288L193.209 155.464C193.059 155.784 192.825 156.077 192.505 156.344C192.195 156.6 191.827 156.808 191.401 156.968C190.985 157.117 190.526 157.192 190.025 157.192ZM196.701 157V148.424H197.901V150.088L197.629 150.024C197.842 149.469 198.189 149.032 198.669 148.712C199.159 148.392 199.725 148.232 200.365 148.232C200.973 148.232 201.517 148.371 201.997 148.648C202.487 148.925 202.871 149.309 203.149 149.8C203.437 150.28 203.581 150.824 203.581 151.432V157H202.381V151.896C202.381 151.373 202.285 150.931 202.093 150.568C201.911 150.205 201.65 149.928 201.309 149.736C200.978 149.533 200.594 149.432 200.157 149.432C199.719 149.432 199.33 149.533 198.989 149.736C198.647 149.928 198.381 150.211 198.189 150.584C197.997 150.947 197.901 151.384 197.901 151.896V157H196.701ZM208.353 157.192C207.809 157.192 207.323 157.091 206.897 156.888C206.47 156.675 206.134 156.387 205.889 156.024C205.643 155.661 205.521 155.245 205.521 154.776C205.521 154.328 205.617 153.923 205.809 153.56C206.001 153.187 206.299 152.872 206.705 152.616C207.11 152.36 207.627 152.179 208.257 152.072L211.617 151.512V152.6L208.545 153.112C207.926 153.219 207.478 153.416 207.201 153.704C206.934 153.992 206.801 154.333 206.801 154.728C206.801 155.112 206.95 155.437 207.249 155.704C207.558 155.971 207.953 156.104 208.433 156.104C209.019 156.104 209.531 155.981 209.969 155.736C210.406 155.48 210.747 155.139 210.993 154.712C211.238 154.285 211.361 153.811 211.361 153.288V151.112C211.361 150.6 211.174 150.184 210.801 149.864C210.427 149.544 209.942 149.384 209.345 149.384C208.822 149.384 208.363 149.517 207.969 149.784C207.574 150.04 207.281 150.376 207.089 150.792L206.001 150.2C206.161 149.837 206.411 149.507 206.753 149.208C207.105 148.909 207.505 148.675 207.953 148.504C208.401 148.323 208.865 148.232 209.345 148.232C209.974 148.232 210.529 148.355 211.009 148.6C211.499 148.845 211.878 149.187 212.145 149.624C212.422 150.051 212.561 150.547 212.561 151.112V157H211.361V155.288L211.537 155.464C211.387 155.784 211.153 156.077 210.833 156.344C210.523 156.6 210.155 156.808 209.729 156.968C209.313 157.117 208.854 157.192 208.353 157.192ZM219.093 160.52C218.506 160.52 217.962 160.429 217.461 160.248C216.97 160.067 216.544 159.816 216.181 159.496C215.829 159.187 215.557 158.824 215.365 158.408L216.469 157.816C216.64 158.221 216.944 158.573 217.381 158.872C217.818 159.171 218.378 159.32 219.061 159.32C219.584 159.32 220.064 159.219 220.501 159.016C220.938 158.813 221.29 158.515 221.557 158.12C221.824 157.725 221.957 157.24 221.957 156.664V154.76L222.149 154.936C221.85 155.555 221.408 156.035 220.821 156.376C220.234 156.707 219.594 156.872 218.901 156.872C218.101 156.872 217.381 156.68 216.741 156.296C216.101 155.912 215.594 155.395 215.221 154.744C214.858 154.083 214.677 153.352 214.677 152.552C214.677 151.741 214.858 151.011 215.221 150.36C215.594 149.709 216.096 149.192 216.725 148.808C217.365 148.424 218.09 148.232 218.901 148.232C219.594 148.232 220.224 148.392 220.789 148.712C221.365 149.032 221.818 149.464 222.149 150.008L221.957 150.344V148.424H223.157V156.664C223.157 157.4 222.981 158.056 222.629 158.632C222.288 159.219 221.808 159.677 221.189 160.008C220.581 160.349 219.882 160.52 219.093 160.52ZM218.965 155.672C219.52 155.672 220.021 155.533 220.469 155.256C220.917 154.968 221.274 154.589 221.541 154.12C221.818 153.64 221.957 153.117 221.957 152.552C221.957 151.987 221.818 151.469 221.541 151C221.274 150.52 220.917 150.141 220.469 149.864C220.021 149.576 219.52 149.432 218.965 149.432C218.4 149.432 217.888 149.576 217.429 149.864C216.97 150.141 216.608 150.515 216.341 150.984C216.085 151.453 215.957 151.976 215.957 152.552C215.957 153.117 216.085 153.64 216.341 154.12C216.608 154.589 216.965 154.968 217.413 155.256C217.872 155.533 218.389 155.672 218.965 155.672ZM229.527 157.192C228.727 157.192 228.001 157 227.351 156.616C226.711 156.221 226.204 155.683 225.831 155C225.457 154.317 225.271 153.544 225.271 152.68C225.271 151.816 225.452 151.053 225.815 150.392C226.177 149.72 226.668 149.192 227.287 148.808C227.916 148.424 228.62 148.232 229.399 148.232C230.017 148.232 230.567 148.349 231.047 148.584C231.537 148.808 231.953 149.117 232.295 149.512C232.636 149.896 232.897 150.333 233.079 150.824C233.26 151.304 233.351 151.8 233.351 152.312C233.351 152.419 233.345 152.541 233.335 152.68C233.324 152.808 233.308 152.941 233.287 153.08H226.039V151.96H232.599L232.023 152.44C232.119 151.853 232.049 151.331 231.815 150.872C231.591 150.403 231.265 150.035 230.839 149.768C230.412 149.491 229.932 149.352 229.399 149.352C228.865 149.352 228.369 149.491 227.911 149.768C227.463 150.045 227.111 150.435 226.855 150.936C226.599 151.427 226.497 152.013 226.551 152.696C226.497 153.379 226.604 153.976 226.871 154.488C227.148 154.989 227.521 155.379 227.991 155.656C228.471 155.933 228.983 156.072 229.527 156.072C230.156 156.072 230.684 155.923 231.111 155.624C231.537 155.325 231.884 154.952 232.151 154.504L233.175 155.048C233.004 155.432 232.743 155.789 232.391 156.12C232.039 156.44 231.617 156.701 231.127 156.904C230.647 157.096 230.113 157.192 229.527 157.192ZM235.466 157V148.424H236.666V149.832L236.506 149.624C236.709 149.219 237.013 148.899 237.418 148.664C237.834 148.429 238.336 148.312 238.922 148.312H239.466V149.512H238.714C238.096 149.512 237.6 149.704 237.226 150.088C236.853 150.472 236.666 151.016 236.666 151.72V157H235.466Z" fill="white"/>
<rect x="349" y="104" width="64" height="64" rx="8" fill="#DBE5FF"/>
<path fill-rule="evenodd" clip-rule="evenodd" d="M370.172 119.659C369.995 119.365 370.1 118.991 370.407 118.82C370.714 118.651 371.107 118.752 371.284 119.046L372.227 120.606C372.475 121.016 372.162 121.526 371.672 121.526C371.45 121.526 371.234 121.416 371.115 121.219L370.172 119.659ZM362.653 126.229C362.83 125.935 363.222 125.835 363.53 126.004L365.163 126.905C365.731 127.218 365.494 128.049 364.842 128.049C364.733 128.049 364.622 128.022 364.521 127.967L362.888 127.066C362.581 126.896 362.475 126.521 362.653 126.229ZM402.186 136.347C402.186 136.686 401.898 136.96 401.544 136.96H399.657C399.303 136.96 399.016 136.686 399.016 136.347C399.016 136.008 399.303 135.734 399.657 135.734H401.544C401.898 135.734 402.186 136.008 402.186 136.347ZM362.342 136.96H360.456C360.102 136.96 359.814 136.686 359.814 136.347C359.814 136.008 360.102 135.734 360.456 135.734H362.342C362.697 135.734 362.984 136.008 362.984 136.347C362.985 136.686 362.697 136.96 362.342 136.96ZM396.602 127.742C396.425 127.449 396.53 127.074 396.837 126.905L398.47 126.004C398.777 125.835 399.17 125.935 399.347 126.229C399.525 126.521 399.419 126.896 399.112 127.066L397.479 127.967C397.176 128.133 396.781 128.039 396.602 127.742ZM380.358 118.525V116.723C380.358 116.384 380.645 116.11 381 116.11C381.354 116.11 381.642 116.384 381.642 116.723V118.525C381.642 118.863 381.354 119.138 381 119.138C380.645 119.138 380.358 118.863 380.358 118.525ZM389.773 120.606L390.716 119.046C390.893 118.752 391.285 118.651 391.593 118.82C391.9 118.991 392.005 119.365 391.828 119.659L390.885 121.219C390.705 121.516 390.31 121.61 390.008 121.444C389.701 121.274 389.595 120.899 389.773 120.606ZM377.84 124.51C377.84 124.149 378.147 123.856 378.525 123.856H383.475C383.853 123.856 384.16 124.149 384.16 124.51V125.931H377.84V124.51ZM389.691 128.13V129.326L382.199 133.16C381.426 133.556 380.574 133.556 379.801 133.16L372.309 129.326V128.13C372.309 127.594 372.765 127.157 373.327 127.157H388.673C389.234 127.157 389.691 127.594 389.691 128.13ZM388.673 138.478C389.234 138.478 389.691 138.042 389.691 137.507V130.718L382.805 134.241C381.641 134.836 380.359 134.836 379.195 134.241L372.309 130.718V137.507C372.309 138.042 372.765 138.478 373.327 138.478H388.673ZM371.025 128.13V137.507C371.025 138.718 372.057 139.705 373.327 139.705H388.673C389.942 139.705 390.975 138.718 390.975 137.507V128.13C390.975 126.918 389.942 125.931 388.673 125.931H385.444V124.51C385.444 123.473 384.561 122.629 383.475 122.629H378.525C377.439 122.629 376.556 123.473 376.556 124.51V125.931H373.327C372.058 125.931 371.025 126.918 371.025 128.13ZM397.387 145.328L387.528 150.766C384.914 152.207 383.365 152.931 380.455 153.341C377.381 153.775 374.321 153.552 371.473 153.246C370.181 153.108 369.001 153.003 367.806 152.922V144.977C370.205 144.764 372.315 144.798 375.018 145.488C375.072 145.501 375.127 145.508 375.183 145.508H382.139C383.197 145.508 383.906 146.541 383.508 147.459C383.276 147.992 382.739 148.337 382.139 148.337H375.183C374.829 148.337 374.541 148.611 374.541 148.951C374.541 149.289 374.829 149.564 375.183 149.564H382.139C383.069 149.564 383.917 149.121 384.425 148.402C384.665 148.444 384.902 148.467 385.137 148.468C386.258 148.471 386.822 148.063 387.6 147.633L395.984 143.009C396.654 142.639 397.513 142.859 397.9 143.499C398.287 144.139 398.057 144.959 397.387 145.328ZM366.522 153.95C366.522 154.261 366.257 154.514 365.931 154.514H363.046C362.721 154.514 362.456 154.261 362.456 153.95V144.58C362.456 144.269 362.721 144.016 363.046 144.016H365.931C366.257 144.016 366.522 144.269 366.522 144.58V153.95ZM395.342 141.946L386.958 146.57C386.191 146.994 385.788 147.315 384.885 147.228C385.076 145.664 383.791 144.282 382.139 144.282H375.267C372.388 143.556 370.151 143.53 367.599 143.764C367.288 143.186 366.657 142.79 365.931 142.79H363.046C362.012 142.79 361.172 143.593 361.172 144.58V153.95C361.172 154.938 362.012 155.741 363.046 155.741H365.931C366.894 155.741 367.689 155.044 367.794 154.151C368.944 154.231 370.084 154.332 371.33 154.466C374.404 154.795 377.494 154.999 380.643 154.555C383.879 154.098 385.646 153.22 388.17 151.828L398.029 146.39C399.312 145.683 399.753 144.111 399.012 142.885C398.271 141.66 396.625 141.238 395.342 141.946Z" fill="#9A87FC"/>
<path d="M441.44 125.24C440.373 125.24 439.387 125.047 438.48 124.66C437.587 124.273 436.8 123.733 436.12 123.04C435.453 122.347 434.933 121.533 434.56 120.6C434.187 119.667 434 118.647 434 117.54C434 116.433 434.18 115.413 434.54 114.48C434.913 113.533 435.433 112.72 436.1 112.04C436.78 111.347 437.573 110.813 438.48 110.44C439.387 110.053 440.373 109.86 441.44 109.86C442.507 109.86 443.46 110.04 444.3 110.4C445.153 110.76 445.873 111.24 446.46 111.84C447.047 112.427 447.467 113.073 447.72 113.78L445.28 114.92C445 114.173 444.527 113.56 443.86 113.08C443.193 112.587 442.387 112.34 441.44 112.34C440.507 112.34 439.68 112.56 438.96 113C438.253 113.44 437.7 114.047 437.3 114.82C436.913 115.593 436.72 116.5 436.72 117.54C436.72 118.58 436.913 119.493 437.3 120.28C437.7 121.053 438.253 121.66 438.96 122.1C439.68 122.54 440.507 122.76 441.44 122.76C442.387 122.76 443.193 122.52 443.86 122.04C444.527 121.547 445 120.927 445.28 120.18L447.72 121.32C447.467 122.027 447.047 122.68 446.46 123.28C445.873 123.867 445.153 124.34 444.3 124.7C443.46 125.06 442.507 125.24 441.44 125.24ZM452.813 125.24C452.053 125.24 451.393 125.113 450.833 124.86C450.273 124.607 449.84 124.247 449.533 123.78C449.226 123.3 449.073 122.747 449.073 122.12C449.073 121.52 449.206 120.987 449.473 120.52C449.74 120.04 450.153 119.64 450.713 119.32C451.273 119 451.98 118.773 452.833 118.64L456.393 118.06V120.06L453.333 120.58C452.813 120.673 452.426 120.84 452.173 121.08C451.92 121.32 451.793 121.633 451.793 122.02C451.793 122.393 451.933 122.693 452.213 122.92C452.506 123.133 452.866 123.24 453.293 123.24C453.84 123.24 454.32 123.127 454.733 122.9C455.16 122.66 455.486 122.333 455.713 121.92C455.953 121.507 456.073 121.053 456.073 120.56V117.76C456.073 117.293 455.886 116.907 455.513 116.6C455.153 116.28 454.673 116.12 454.073 116.12C453.513 116.12 453.013 116.273 452.573 116.58C452.146 116.873 451.833 117.267 451.633 117.76L449.493 116.72C449.706 116.147 450.04 115.653 450.493 115.24C450.96 114.813 451.506 114.48 452.133 114.24C452.76 114 453.44 113.88 454.173 113.88C455.066 113.88 455.853 114.047 456.533 114.38C457.213 114.7 457.74 115.153 458.113 115.74C458.5 116.313 458.693 116.987 458.693 117.76V125H456.213V123.14L456.773 123.1C456.493 123.567 456.16 123.96 455.773 124.28C455.386 124.587 454.946 124.827 454.453 125C453.96 125.16 453.413 125.24 452.813 125.24ZM465.255 125.24C464.095 125.24 463.081 124.967 462.215 124.42C461.361 123.86 460.775 123.107 460.455 122.16L462.415 121.22C462.695 121.833 463.081 122.313 463.575 122.66C464.081 123.007 464.641 123.18 465.255 123.18C465.735 123.18 466.115 123.073 466.395 122.86C466.675 122.647 466.815 122.367 466.815 122.02C466.815 121.807 466.755 121.633 466.635 121.5C466.528 121.353 466.375 121.233 466.175 121.14C465.988 121.033 465.781 120.947 465.555 120.88L463.775 120.38C462.855 120.113 462.155 119.707 461.675 119.16C461.208 118.613 460.975 117.967 460.975 117.22C460.975 116.553 461.141 115.973 461.475 115.48C461.821 114.973 462.295 114.58 462.895 114.3C463.508 114.02 464.208 113.88 464.995 113.88C466.021 113.88 466.928 114.127 467.715 114.62C468.501 115.113 469.061 115.807 469.395 116.7L467.395 117.64C467.208 117.147 466.895 116.753 466.455 116.46C466.015 116.167 465.521 116.02 464.975 116.02C464.535 116.02 464.188 116.12 463.935 116.32C463.681 116.52 463.555 116.78 463.555 117.1C463.555 117.3 463.608 117.473 463.715 117.62C463.821 117.767 463.968 117.887 464.155 117.98C464.355 118.073 464.581 118.16 464.835 118.24L466.575 118.76C467.468 119.027 468.155 119.427 468.635 119.96C469.128 120.493 469.375 121.147 469.375 121.92C469.375 122.573 469.201 123.153 468.855 123.66C468.508 124.153 468.028 124.54 467.415 124.82C466.801 125.1 466.081 125.24 465.255 125.24ZM476.548 125.24C475.428 125.24 474.448 124.987 473.608 124.48C472.768 123.973 472.115 123.287 471.648 122.42C471.181 121.553 470.948 120.593 470.948 119.54C470.948 118.447 471.181 117.48 471.648 116.64C472.128 115.787 472.775 115.113 473.588 114.62C474.415 114.127 475.335 113.88 476.348 113.88C477.201 113.88 477.948 114.02 478.588 114.3C479.241 114.58 479.795 114.967 480.248 115.46C480.701 115.953 481.048 116.52 481.288 117.16C481.528 117.787 481.648 118.467 481.648 119.2C481.648 119.387 481.635 119.58 481.608 119.78C481.595 119.98 481.561 120.153 481.508 120.3H473.108V118.3H480.028L478.788 119.24C478.908 118.627 478.875 118.08 478.688 117.6C478.515 117.12 478.221 116.74 477.808 116.46C477.408 116.18 476.921 116.04 476.348 116.04C475.801 116.04 475.315 116.18 474.888 116.46C474.461 116.727 474.135 117.127 473.908 117.66C473.695 118.18 473.615 118.813 473.668 119.56C473.615 120.227 473.701 120.82 473.928 121.34C474.168 121.847 474.515 122.24 474.968 122.52C475.435 122.8 475.968 122.94 476.568 122.94C477.168 122.94 477.675 122.813 478.088 122.56C478.515 122.307 478.848 121.967 479.088 121.54L481.208 122.58C480.995 123.1 480.661 123.56 480.208 123.96C479.755 124.36 479.215 124.673 478.588 124.9C477.975 125.127 477.295 125.24 476.548 125.24ZM492.729 125.24C491.782 125.24 490.902 125.067 490.089 124.72C489.289 124.373 488.595 123.893 488.009 123.28C487.435 122.653 487.015 121.927 486.749 121.1L489.009 120.12C489.369 120.973 489.889 121.647 490.569 122.14C491.249 122.62 492.015 122.86 492.869 122.86C493.349 122.86 493.762 122.787 494.109 122.64C494.469 122.48 494.742 122.267 494.929 122C495.129 121.733 495.229 121.413 495.229 121.04C495.229 120.6 495.095 120.24 494.829 119.96C494.575 119.667 494.189 119.44 493.669 119.28L490.809 118.36C489.649 118 488.775 117.46 488.189 116.74C487.602 116.02 487.309 115.173 487.309 114.2C487.309 113.347 487.515 112.593 487.929 111.94C488.355 111.287 488.942 110.78 489.689 110.42C490.449 110.047 491.315 109.86 492.289 109.86C493.182 109.86 494.002 110.02 494.749 110.34C495.495 110.647 496.135 111.08 496.669 111.64C497.215 112.187 497.622 112.833 497.889 113.58L495.649 114.58C495.355 113.833 494.915 113.26 494.329 112.86C493.742 112.447 493.062 112.24 492.289 112.24C491.835 112.24 491.435 112.32 491.089 112.48C490.742 112.627 490.469 112.84 490.269 113.12C490.082 113.387 489.989 113.707 489.989 114.08C489.989 114.493 490.122 114.86 490.389 115.18C490.655 115.487 491.062 115.727 491.609 115.9L494.349 116.76C495.535 117.147 496.422 117.68 497.009 118.36C497.609 119.04 497.909 119.88 497.909 120.88C497.909 121.733 497.689 122.487 497.249 123.14C496.809 123.793 496.202 124.307 495.429 124.68C494.655 125.053 493.755 125.24 492.729 125.24ZM505.098 125.12C503.871 125.12 502.918 124.787 502.238 124.12C501.571 123.44 501.238 122.487 501.238 121.26V116.46H499.358V114.12H499.558C500.091 114.12 500.505 113.98 500.798 113.7C501.091 113.42 501.238 113.013 501.238 112.48V111.64H503.858V114.12H506.358V116.46H503.858V121.12C503.858 121.48 503.918 121.787 504.038 122.04C504.171 122.293 504.371 122.487 504.638 122.62C504.918 122.753 505.271 122.82 505.698 122.82C505.791 122.82 505.898 122.813 506.018 122.8C506.151 122.787 506.278 122.773 506.398 122.76V125C506.211 125.027 505.998 125.053 505.758 125.08C505.518 125.107 505.298 125.12 505.098 125.12ZM512.28 125.24C511.44 125.24 510.706 125.053 510.08 124.68C509.466 124.307 508.993 123.787 508.66 123.12C508.34 122.453 508.18 121.673 508.18 120.78V114.12H510.8V120.56C510.8 121.013 510.886 121.413 511.06 121.76C511.246 122.093 511.506 122.36 511.84 122.56C512.186 122.747 512.573 122.84 513 122.84C513.426 122.84 513.806 122.747 514.14 122.56C514.473 122.36 514.733 122.087 514.92 121.74C515.106 121.393 515.2 120.98 515.2 120.5V114.12H517.82V125H515.34V122.86L515.56 123.24C515.306 123.907 514.886 124.407 514.3 124.74C513.726 125.073 513.053 125.24 512.28 125.24ZM525.315 125.24C524.262 125.24 523.322 124.993 522.495 124.5C521.668 123.993 521.015 123.307 520.535 122.44C520.055 121.573 519.815 120.613 519.815 119.56C519.815 118.493 520.055 117.533 520.535 116.68C521.015 115.827 521.668 115.147 522.495 114.64C523.335 114.133 524.268 113.88 525.295 113.88C526.122 113.88 526.855 114.047 527.495 114.38C528.148 114.7 528.662 115.153 529.035 115.74L528.635 116.28V109.86H531.255V125H528.775V122.9L529.055 123.42C528.682 124.007 528.162 124.46 527.495 124.78C526.828 125.087 526.102 125.24 525.315 125.24ZM525.595 122.84C526.195 122.84 526.722 122.7 527.175 122.42C527.628 122.14 527.982 121.753 528.235 121.26C528.502 120.767 528.635 120.2 528.635 119.56C528.635 118.933 528.502 118.373 528.235 117.88C527.982 117.373 527.628 116.98 527.175 116.7C526.722 116.42 526.195 116.28 525.595 116.28C525.008 116.28 524.482 116.427 524.015 116.72C523.548 117 523.182 117.387 522.915 117.88C522.662 118.36 522.535 118.92 522.535 119.56C522.535 120.2 522.662 120.767 522.915 121.26C523.182 121.753 523.548 122.14 524.015 122.42C524.482 122.7 525.008 122.84 525.595 122.84ZM535.013 129.42C534.719 129.42 534.433 129.393 534.153 129.34C533.873 129.3 533.619 129.227 533.393 129.12V126.92C533.566 126.96 533.773 127 534.013 127.04C534.266 127.08 534.499 127.1 534.713 127.1C535.313 127.1 535.746 126.96 536.013 126.68C536.293 126.4 536.539 126.033 536.753 125.58L537.473 123.9L537.433 126.1L532.693 114.12H535.513L538.833 122.96H537.833L541.133 114.12H543.973L539.233 126.1C538.953 126.807 538.613 127.407 538.213 127.9C537.813 128.393 537.346 128.767 536.813 129.02C536.293 129.287 535.693 129.42 535.013 129.42Z" fill="white"/>
<path opacity="0.8" d="M434.408 157V145.08H439.416C440.088 145.08 440.669 145.208 441.16 145.464C441.661 145.709 442.045 146.056 442.312 146.504C442.589 146.952 442.728 147.475 442.728 148.072C442.728 148.691 442.573 149.24 442.264 149.72C441.965 150.189 441.533 150.547 440.968 150.792L440.952 150.408C441.421 150.579 441.821 150.819 442.152 151.128C442.493 151.437 442.755 151.8 442.936 152.216C443.117 152.621 443.208 153.059 443.208 153.528C443.208 154.595 442.867 155.443 442.184 156.072C441.512 156.691 440.595 157 439.432 157H434.408ZM435.688 155.8H439.432C440.189 155.8 440.792 155.603 441.24 155.208C441.699 154.803 441.928 154.248 441.928 153.544C441.928 152.851 441.699 152.301 441.24 151.896C440.792 151.48 440.189 151.272 439.432 151.272H435.688V155.8ZM435.688 150.12H439.32C439.96 150.12 440.472 149.933 440.856 149.56C441.251 149.187 441.448 148.707 441.448 148.12C441.448 147.523 441.251 147.069 440.856 146.76C440.472 146.44 439.96 146.28 439.32 146.28H435.688V150.12ZM447.806 157.192C447.262 157.192 446.776 157.091 446.35 156.888C445.923 156.675 445.587 156.387 445.342 156.024C445.096 155.661 444.974 155.245 444.974 154.776C444.974 154.328 445.07 153.923 445.262 153.56C445.454 153.187 445.752 152.872 446.158 152.616C446.563 152.36 447.08 152.179 447.71 152.072L451.07 151.512V152.6L447.998 153.112C447.379 153.219 446.931 153.416 446.654 153.704C446.387 153.992 446.254 154.333 446.254 154.728C446.254 155.112 446.403 155.437 446.702 155.704C447.011 155.971 447.406 156.104 447.886 156.104C448.472 156.104 448.984 155.981 449.422 155.736C449.859 155.48 450.2 155.139 450.446 154.712C450.691 154.285 450.814 153.811 450.814 153.288V151.112C450.814 150.6 450.627 150.184 450.254 149.864C449.88 149.544 449.395 149.384 448.798 149.384C448.275 149.384 447.816 149.517 447.422 149.784C447.027 150.04 446.734 150.376 446.542 150.792L445.454 150.2C445.614 149.837 445.864 149.507 446.206 149.208C446.558 148.909 446.958 148.675 447.406 148.504C447.854 148.323 448.318 148.232 448.798 148.232C449.427 148.232 449.982 148.355 450.462 148.6C450.952 148.845 451.331 149.187 451.598 149.624C451.875 150.051 452.014 150.547 452.014 151.112V157H450.814V155.288L450.99 155.464C450.84 155.784 450.606 156.077 450.286 156.344C449.976 156.6 449.608 156.808 449.182 156.968C448.766 157.117 448.307 157.192 447.806 157.192ZM457.458 157.192C456.637 157.192 455.917 156.984 455.298 156.568C454.679 156.152 454.231 155.587 453.954 154.872L454.962 154.392C455.207 154.915 455.549 155.331 455.986 155.64C456.434 155.949 456.925 156.104 457.458 156.104C457.97 156.104 458.402 155.981 458.754 155.736C459.106 155.48 459.282 155.149 459.282 154.744C459.282 154.445 459.197 154.211 459.026 154.04C458.855 153.859 458.658 153.72 458.434 153.624C458.21 153.528 458.013 153.459 457.842 153.416L456.61 153.064C455.821 152.84 455.25 152.525 454.898 152.12C454.546 151.715 454.37 151.245 454.37 150.712C454.37 150.211 454.498 149.773 454.754 149.4C455.01 149.027 455.357 148.739 455.794 148.536C456.231 148.333 456.717 148.232 457.25 148.232C457.975 148.232 458.631 148.424 459.218 148.808C459.815 149.181 460.237 149.704 460.482 150.376L459.458 150.856C459.245 150.376 458.935 150.003 458.53 149.736C458.135 149.459 457.693 149.32 457.202 149.32C456.722 149.32 456.338 149.443 456.05 149.688C455.762 149.933 455.618 150.243 455.618 150.616C455.618 150.904 455.693 151.133 455.842 151.304C455.991 151.475 456.162 151.603 456.354 151.688C456.557 151.773 456.733 151.837 456.882 151.88L458.306 152.296C458.999 152.499 459.538 152.813 459.922 153.24C460.317 153.667 460.514 154.168 460.514 154.744C460.514 155.213 460.381 155.635 460.114 156.008C459.858 156.381 459.501 156.675 459.042 156.888C458.583 157.091 458.055 157.192 457.458 157.192ZM466.527 157.192C465.727 157.192 465.001 157 464.351 156.616C463.711 156.221 463.204 155.683 462.831 155C462.457 154.317 462.271 153.544 462.271 152.68C462.271 151.816 462.452 151.053 462.815 150.392C463.177 149.72 463.668 149.192 464.287 148.808C464.916 148.424 465.62 148.232 466.399 148.232C467.017 148.232 467.567 148.349 468.047 148.584C468.537 148.808 468.953 149.117 469.295 149.512C469.636 149.896 469.897 150.333 470.079 150.824C470.26 151.304 470.351 151.8 470.351 152.312C470.351 152.419 470.345 152.541 470.335 152.68C470.324 152.808 470.308 152.941 470.287 153.08H463.039V151.96H469.599L469.023 152.44C469.119 151.853 469.049 151.331 468.815 150.872C468.591 150.403 468.265 150.035 467.839 149.768C467.412 149.491 466.932 149.352 466.399 149.352C465.865 149.352 465.369 149.491 464.911 149.768C464.463 150.045 464.111 150.435 463.855 150.936C463.599 151.427 463.497 152.013 463.551 152.696C463.497 153.379 463.604 153.976 463.871 154.488C464.148 154.989 464.521 155.379 464.991 155.656C465.471 155.933 465.983 156.072 466.527 156.072C467.156 156.072 467.684 155.923 468.111 155.624C468.537 155.325 468.884 154.952 469.151 154.504L470.175 155.048C470.004 155.432 469.743 155.789 469.391 156.12C469.039 156.44 468.617 156.701 468.127 156.904C467.647 157.096 467.113 157.192 466.527 157.192ZM476.338 157.192C475.538 157.192 474.818 157 474.178 156.616C473.538 156.221 473.032 155.688 472.658 155.016C472.296 154.333 472.114 153.565 472.114 152.712C472.114 151.848 472.296 151.08 472.658 150.408C473.032 149.736 473.533 149.208 474.162 148.824C474.802 148.429 475.528 148.232 476.338 148.232C477.074 148.232 477.73 148.392 478.306 148.712C478.882 149.032 479.336 149.464 479.666 150.008L479.474 150.344V144.888H480.674V157H479.474V155.08L479.666 155.256C479.368 155.875 478.92 156.355 478.322 156.696C477.736 157.027 477.074 157.192 476.338 157.192ZM476.402 155.992C476.978 155.992 477.496 155.848 477.954 155.56C478.424 155.272 478.792 154.883 479.058 154.392C479.336 153.891 479.474 153.331 479.474 152.712C479.474 152.093 479.336 151.539 479.058 151.048C478.792 150.547 478.424 150.152 477.954 149.864C477.496 149.576 476.978 149.432 476.402 149.432C475.837 149.432 475.325 149.576 474.866 149.864C474.408 150.152 474.045 150.541 473.778 151.032C473.522 151.523 473.394 152.083 473.394 152.712C473.394 153.331 473.522 153.891 473.778 154.392C474.045 154.883 474.402 155.272 474.85 155.56C475.309 155.848 475.826 155.992 476.402 155.992ZM484.801 157L489.153 145.08H490.529L494.881 157H493.537L492.513 154.088H487.185L486.145 157H484.801ZM487.601 152.888H492.065L489.649 146.04H490.033L487.601 152.888ZM496.295 160.2V148.424H497.495V150.344L497.303 150.008C497.644 149.464 498.097 149.032 498.663 148.712C499.239 148.392 499.895 148.232 500.631 148.232C501.441 148.232 502.161 148.429 502.791 148.824C503.431 149.208 503.932 149.736 504.295 150.408C504.668 151.08 504.855 151.848 504.855 152.712C504.855 153.565 504.668 154.333 504.295 155.016C503.932 155.688 503.431 156.221 502.791 156.616C502.161 157 501.441 157.192 500.631 157.192C499.895 157.192 499.228 157.027 498.631 156.696C498.044 156.355 497.601 155.875 497.303 155.256L497.495 155.08V160.2H496.295ZM500.567 155.992C501.143 155.992 501.655 155.848 502.103 155.56C502.561 155.272 502.919 154.883 503.175 154.392C503.441 153.891 503.575 153.331 503.575 152.712C503.575 152.083 503.441 151.523 503.175 151.032C502.919 150.541 502.561 150.152 502.103 149.864C501.655 149.576 501.143 149.432 500.567 149.432C499.991 149.432 499.468 149.576 498.999 149.864C498.54 150.152 498.172 150.547 497.895 151.048C497.628 151.539 497.495 152.093 497.495 152.712C497.495 153.331 497.628 153.891 497.895 154.392C498.172 154.883 498.54 155.272 498.999 155.56C499.468 155.848 499.991 155.992 500.567 155.992ZM506.966 160.2V148.424H508.166V150.344L507.974 150.008C508.316 149.464 508.769 149.032 509.334 148.712C509.91 148.392 510.566 148.232 511.302 148.232C512.113 148.232 512.833 148.429 513.462 148.824C514.102 149.208 514.604 149.736 514.966 150.408C515.34 151.08 515.526 151.848 515.526 152.712C515.526 153.565 515.34 154.333 514.966 155.016C514.604 155.688 514.102 156.221 513.462 156.616C512.833 157 512.113 157.192 511.302 157.192C510.566 157.192 509.9 157.027 509.302 156.696C508.716 156.355 508.273 155.875 507.974 155.256L508.166 155.08V160.2H506.966ZM511.238 155.992C511.814 155.992 512.326 155.848 512.774 155.56C513.233 155.272 513.59 154.883 513.846 154.392C514.113 153.891 514.246 153.331 514.246 152.712C514.246 152.083 514.113 151.523 513.846 151.032C513.59 150.541 513.233 150.152 512.774 149.864C512.326 149.576 511.814 149.432 511.238 149.432C510.662 149.432 510.14 149.576 509.67 149.864C509.212 150.152 508.844 150.547 508.566 151.048C508.3 151.539 508.166 152.093 508.166 152.712C508.166 153.331 508.3 153.891 508.566 154.392C508.844 154.883 509.212 155.272 509.67 155.56C510.14 155.848 510.662 155.992 511.238 155.992ZM517.638 157V148.424H518.838V149.832L518.678 149.624C518.881 149.219 519.185 148.899 519.59 148.664C520.006 148.429 520.508 148.312 521.094 148.312H521.638V149.512H520.886C520.268 149.512 519.772 149.704 519.398 150.088C519.025 150.472 518.838 151.016 518.838 151.72V157H517.638ZM527.061 157.192C526.25 157.192 525.514 157 524.853 156.616C524.191 156.221 523.663 155.688 523.269 155.016C522.885 154.333 522.693 153.56 522.693 152.696C522.693 151.843 522.885 151.08 523.269 150.408C523.653 149.736 524.17 149.208 524.821 148.824C525.482 148.429 526.229 148.232 527.061 148.232C527.893 148.232 528.634 148.424 529.285 148.808C529.946 149.192 530.463 149.72 530.837 150.392C531.221 151.064 531.413 151.832 531.413 152.696C531.413 153.571 531.215 154.349 530.821 155.032C530.426 155.704 529.898 156.232 529.237 156.616C528.586 157 527.861 157.192 527.061 157.192ZM527.061 155.992C527.637 155.992 528.154 155.848 528.613 155.56C529.082 155.272 529.45 154.877 529.717 154.376C529.994 153.875 530.133 153.315 530.133 152.696C530.133 152.077 529.994 151.523 529.717 151.032C529.45 150.541 529.082 150.152 528.613 149.864C528.154 149.576 527.637 149.432 527.061 149.432C526.485 149.432 525.962 149.576 525.493 149.864C525.034 150.152 524.666 150.541 524.389 151.032C524.111 151.523 523.973 152.077 523.973 152.696C523.973 153.315 524.111 153.875 524.389 154.376C524.666 154.877 525.034 155.272 525.493 155.56C525.962 155.848 526.485 155.992 527.061 155.992ZM536.009 157.192C535.465 157.192 534.98 157.091 534.553 156.888C534.126 156.675 533.79 156.387 533.545 156.024C533.3 155.661 533.177 155.245 533.177 154.776C533.177 154.328 533.273 153.923 533.465 153.56C533.657 153.187 533.956 152.872 534.361 152.616C534.766 152.36 535.284 152.179 535.913 152.072L539.273 151.512V152.6L536.201 153.112C535.582 153.219 535.134 153.416 534.857 153.704C534.59 153.992 534.457 154.333 534.457 154.728C534.457 155.112 534.606 155.437 534.905 155.704C535.214 155.971 535.609 156.104 536.089 156.104C536.676 156.104 537.188 155.981 537.625 155.736C538.062 155.48 538.404 155.139 538.649 154.712C538.894 154.285 539.017 153.811 539.017 153.288V151.112C539.017 150.6 538.83 150.184 538.457 149.864C538.084 149.544 537.598 149.384 537.001 149.384C536.478 149.384 536.02 149.517 535.625 149.784C535.23 150.04 534.937 150.376 534.745 150.792L533.657 150.2C533.817 149.837 534.068 149.507 534.409 149.208C534.761 148.909 535.161 148.675 535.609 148.504C536.057 148.323 536.521 148.232 537.001 148.232C537.63 148.232 538.185 148.355 538.665 148.6C539.156 148.845 539.534 149.187 539.801 149.624C540.078 150.051 540.217 150.547 540.217 151.112V157H539.017V155.288L539.193 155.464C539.044 155.784 538.809 156.077 538.489 156.344C538.18 156.6 537.812 156.808 537.385 156.968C536.969 157.117 536.51 157.192 536.009 157.192ZM546.605 157.192C545.762 157.192 545.021 156.995 544.381 156.6C543.741 156.205 543.24 155.672 542.877 155C542.514 154.317 542.333 153.549 542.333 152.696C542.333 151.843 542.514 151.08 542.877 150.408C543.24 149.736 543.741 149.208 544.381 148.824C545.021 148.429 545.762 148.232 546.605 148.232C547.138 148.232 547.64 148.328 548.109 148.52C548.578 148.712 548.994 148.973 549.357 149.304C549.72 149.624 549.992 149.997 550.173 150.424L549.085 150.984C548.872 150.525 548.546 150.152 548.109 149.864C547.672 149.576 547.17 149.432 546.605 149.432C546.04 149.432 545.528 149.576 545.069 149.864C544.621 150.141 544.264 150.531 543.997 151.032C543.741 151.523 543.613 152.083 543.613 152.712C543.613 153.331 543.741 153.891 543.997 154.392C544.264 154.883 544.621 155.272 545.069 155.56C545.528 155.848 546.04 155.992 546.605 155.992C547.17 155.992 547.666 155.848 548.093 155.56C548.53 155.272 548.861 154.888 549.085 154.408L550.173 155C549.992 155.416 549.72 155.789 549.357 156.12C548.994 156.451 548.578 156.712 548.109 156.904C547.64 157.096 547.138 157.192 546.605 157.192ZM552.279 157V144.888H553.479V150.088L553.207 150.024C553.42 149.469 553.767 149.032 554.247 148.712C554.738 148.392 555.303 148.232 555.943 148.232C556.551 148.232 557.095 148.371 557.575 148.648C558.066 148.925 558.45 149.309 558.727 149.8C559.015 150.28 559.159 150.824 559.159 151.432V157H557.959V151.896C557.959 151.373 557.863 150.931 557.671 150.568C557.479 150.205 557.212 149.928 556.871 149.736C556.54 149.533 556.162 149.432 555.735 149.432C555.308 149.432 554.924 149.533 554.583 149.736C554.242 149.928 553.97 150.211 553.767 150.584C553.575 150.947 553.479 151.384 553.479 151.896V157H552.279Z" fill="white"/>
<defs>
<clipPath id="clip0_12_637">
<rect x="8" y="113" width="48" height="45.8507" rx="4" fill="white"/>
</clipPath>
</defs>
</svg>
