<svg width="17" height="12" viewBox="0 0 17 12" fill="none" xmlns="http://www.w3.org/2000/svg">
<path d="M16.4935 2.00283C16.3985 1.65067 16.213 1.3295 15.9554 1.0713C15.6978 0.813107 15.3771 0.626882 15.0251 0.531165C13.7201 0.172832 8.4993 0.166999 8.4993 0.166999C8.4993 0.166999 3.2793 0.161165 1.97346 0.503665C1.62174 0.603787 1.30165 0.792646 1.04394 1.05211C0.786223 1.31157 0.599536 1.63293 0.501798 1.98533C0.157632 3.29033 0.154298 5.997 0.154298 5.997C0.154298 5.997 0.150965 8.717 0.492631 10.0087C0.684298 10.7228 1.2468 11.287 1.9618 11.4795C3.28013 11.8378 8.4868 11.8437 8.4868 11.8437C8.4868 11.8437 13.7076 11.8495 15.0126 11.5078C15.3647 11.4123 15.6858 11.2265 15.944 10.9688C16.2023 10.7111 16.3888 10.3905 16.4851 10.0387C16.8301 8.7345 16.8326 6.02867 16.8326 6.02867C16.8326 6.02867 16.8493 3.30783 16.4935 2.00283V2.00283ZM6.8293 8.5045L6.83347 3.5045L11.1726 6.00867L6.8293 8.5045V8.5045Z" fill="white" fill-opacity="0.65"/>
</svg>
